<svg width="512" height="512" viewBox="0 0 512 512" fill="none" xmlns="http://www.w3.org/2000/svg">
<path d="M150.785 184.203L93.9023 127.309C87.6562 121.062 87.6562 110.934 93.9023 104.684C100.152 98.4375 110.281 98.4375 116.527 104.684L173.406 161.582L150.785 184.203Z" fill="#3DDC84"/>
<path d="M361.215 184.203L338.594 161.582L395.473 104.684C401.719 98.4375 411.848 98.4375 418.098 104.684C424.344 110.934 424.344 121.062 418.098 127.309L361.215 184.203Z" fill="#3DDC84"/>
<path d="M432 332.895H80V300.895C80 203.691 158.797 124.895 256 124.895C353.203 124.895 432 203.691 432 300.895V332.895Z" fill="#3DDC84"/>
<path d="M176 236.895H208V268.895H176V236.895Z" fill="white"/>
<path d="M304 236.895H336V268.895H304V236.895Z" fill="white"/>
<path d="M480 380.895H512V412.895H480V380.895Z" fill="#3DDC84"/>
<path d="M80 380.895H432C440.836 380.895 448 388.055 448 396.895C448 405.73 440.836 412.895 432 412.895H80C71.1641 412.895 64 405.73 64 396.895C64 388.055 71.1641 380.895 80 380.895Z" fill="#3DDC84"/>
<path d="M0 380.895H32V412.895H0V380.895Z" fill="#3DDC84"/>
<path d="M16 300.895H496C504.836 300.895 512 308.055 512 316.895C512 325.73 504.836 332.895 496 332.895H16C7.16406 332.895 0 325.73 0 316.895C0 308.055 7.16406 300.895 16 300.895Z" fill="#3DDC84"/>
</svg>
