<svg width="512" height="512" viewBox="0 0 512 512" fill="none" xmlns="http://www.w3.org/2000/svg">
<path d="M351.065 0C352.899 35.5957 336.765 107.885 257.565 112.276C255.399 79.3419 271.065 10.7785 351.065 0Z" fill="#2C2828"/>
<path d="M270.065 137.227C377.665 87.326 440.899 148.038 459.065 184.632C440.399 190.786 410.065 220.561 402.565 266.968C402.476 267.522 402.561 268.087 402.565 268.643C402.959 318.68 438.598 346.228 456.565 353.795C460.232 353.961 466.965 358.585 464.565 375.751C456.065 407.688 417.565 469.065 390.565 490.523C363.565 511.98 335.065 515.972 298.065 499.006C261.065 482.039 245.065 499.505 213.565 507.489C182.065 515.473 168.565 513.477 141.565 496.511C2.56533 341.32 38.5654 196.109 103.065 147.207C167.565 98.3041 218.565 127.745 225.565 129.741C231.165 131.338 247.232 136.395 254.565 138.724C259.732 139.056 270.065 139.223 270.065 137.227Z" fill="#2C2828"/>
</svg>
