<svg width="512" height="512" viewBox="0 0 512 512" fill="none" xmlns="http://www.w3.org/2000/svg">
<path d="M448 394.667C448 424.128 424.128 448 394.667 448H117.333C87.8827 448 64 424.128 64 394.667V117.333C64 87.872 87.8827 64 117.333 64H394.667C424.128 64 448 87.872 448 117.333V394.667Z" fill="#673AB7"/>
<path d="M352.32 273.067C345.387 263.467 335.36 256.853 322.453 253.333C322.453 253.333 333.333 249.387 343.147 234.667C349.013 225.28 352 213.973 352 200.747C352 177.813 343.68 160.213 327.04 148.16C310.4 136.107 291.627 128 259.733 128H160V384H271.253C301.44 383.787 324.16 377.28 339.627 364.8C354.987 352.107 362.667 333.333 362.667 308.267C362.667 294.4 359.253 282.667 352.32 273.067ZM224 170.667C224 170.667 268.48 170.667 269.333 170.667C285.547 170.667 298.667 183.787 298.667 200C298.667 216.213 285.547 229.333 269.333 229.333C268.48 229.333 224 229.333 224 229.333V170.667ZM277.333 341.333H224V277.333H277.333C295.04 277.333 309.333 291.627 309.333 309.333C309.333 327.04 295.04 341.333 277.333 341.333Z" fill="white"/>
</svg>
