<svg width="399" height="394" viewBox="0 0 399 394" fill="none" xmlns="http://www.w3.org/2000/svg">
<ellipse cx="199.5" cy="212" rx="199.5" ry="182" fill="#FF7BAC"/>
<path d="M260.432 202.971C259.637 202.971 258.829 202.845 258.034 202.579C216.798 188.793 171.377 188.793 130.141 202.579C126.181 203.902 121.896 201.766 120.573 197.805C119.249 193.844 121.386 189.56 125.347 188.236C169.676 173.416 218.501 173.416 262.83 188.236C266.791 189.56 268.928 193.844 267.604 197.805C266.545 200.971 263.595 202.971 260.432 202.971Z" fill="#E8679C"/>
<path d="M194.09 192.251C246.911 192.251 289.73 149.431 289.73 96.6109C289.73 43.7904 246.911 0.970947 194.09 0.970947C141.27 0.970947 98.4502 43.7904 98.4502 96.6109C98.4502 149.431 141.27 192.251 194.09 192.251Z" fill="#FFB125"/>
<path d="M262.888 30.187L127.66 165.416C165.097 201.585 224.763 201.198 261.717 164.244C298.671 127.29 299.057 67.624 262.888 30.187Z" fill="#FF901D"/>
<path d="M191.92 142.954C175.632 142.691 164.598 133.89 164.598 127.454C164.598 124.301 167.356 119.966 170.64 119.966C174.975 119.966 178.521 129.161 191.92 130.212V99.343C180.098 95.14 166.962 90.411 166.962 73.597C166.962 57.046 179.441 50.478 191.92 49.164V45.355C191.92 43.779 193.496 42.334 195.73 42.334C197.7 42.334 199.671 43.779 199.671 45.355V48.902C208.603 49.165 221.214 51.923 221.214 58.36C221.214 60.856 219.375 65.847 215.434 65.847C212.282 65.847 208.866 61.644 199.671 60.987V87.652C211.099 91.855 223.578 97.635 223.578 115.5C223.578 131.657 213.858 140.589 199.671 142.56V147.026C199.671 148.602 197.701 150.047 195.73 150.047C193.497 150.047 191.92 148.602 191.92 147.026V142.954ZM192.708 85.157V61.25C185.352 62.169 180.098 65.453 180.098 72.284C180.098 79.771 185.746 82.53 192.708 85.157ZM198.882 102.233V129.949C205.975 128.635 210.441 124.432 210.441 116.944C210.441 108.67 205.319 104.992 198.882 102.233Z" fill="#DD7219"/>
</svg>
