<svg width="512" height="512" viewBox="0 0 512 512" fill="none" xmlns="http://www.w3.org/2000/svg">
<path d="M437.334 53.3333H74.667L106.667 416L256 458.667L405.334 416L437.334 53.3333Z" fill="#E65100"/>
<path d="M256 85.3333V425.6L375.467 391.467L402.133 85.3333H256Z" fill="#FF6D00"/>
<path d="M256 266.667V224H347.733L340.267 346.667L256 374.4V329.6L299.733 314.667L302.933 266.667H256V266.667ZM350.933 181.333L354.133 138.667H256V181.333H350.933Z" fill="white"/>
<path d="M256.004 329.6V374.4L171.738 346.667L167.471 288H210.138L212.271 314.667L256.004 329.6ZM203.738 181.333H256.004V138.667H158.938L166.404 266.667H256.004V224H206.938L203.738 181.333Z" fill="#EEEEEE"/>
</svg>
