<svg width="512" height="512" viewBox="0 0 512 512" fill="none" xmlns="http://www.w3.org/2000/svg">
<g clip-path="url(#clip0)">
<path d="M196.166 376.948C196.166 376.948 179.215 387.256 207.949 390.206C242.54 394.616 260.966 393.885 299.25 386.526C306.944 391.238 315.082 395.184 323.546 398.309C237.413 435.132 128.404 396.104 196.152 376.948H196.166ZM185.141 329.086C185.141 329.086 166.729 343.074 195.45 346.037C233.003 349.716 262.454 350.447 313.279 340.152C318.222 345.165 324.274 348.946 330.947 351.191C227.119 382.116 110.778 354.14 185.141 329.1V329.086ZM388.373 413.014C388.373 413.014 400.887 423.322 374.385 431.425C325.048 446.171 167.474 450.581 123.291 431.425C107.828 424.81 137.279 415.232 146.719 413.758C156.297 411.553 161.465 411.553 161.465 411.553C144.514 399.77 48.8033 435.849 112.872 446.144C288.859 474.864 433.92 433.63 388.263 413.014H388.373ZM204.132 279.005C204.132 279.005 123.87 298.161 175.412 304.776C197.503 307.725 240.941 306.981 281.445 304.045C314.575 301.096 347.732 295.225 347.732 295.225C347.732 295.225 335.949 300.379 327.846 305.534C246.123 326.895 89.2651 317.317 134.192 295.225C172.476 276.813 204.146 279.032 204.146 279.032L204.132 279.005ZM347.732 359.267C430.199 316.545 391.915 275.339 365.4 280.479C358.785 281.954 355.822 283.428 355.822 283.428C355.822 283.428 358.027 279.018 363.181 277.544C415.467 259.132 456.701 332.765 346.23 361.472C346.23 361.472 346.961 360.741 347.705 359.267H347.732ZM212.263 475.608C291.781 480.762 413.29 472.659 416.225 435.091C416.225 435.091 410.341 449.837 350.695 460.862C282.947 473.375 199.005 471.887 149.668 463.811C149.668 463.811 159.977 472.631 212.263 475.594V475.608Z" fill="#4E7896"/>
<path d="M297.789 36.0135C297.789 36.0135 343.446 82.4012 254.35 152.355C182.922 209.051 238.157 241.451 254.35 278.274C212.373 240.72 182.192 207.576 202.808 176.665C232.989 130.994 316.201 109.04 297.789 36.0135ZM274.361 247.349C295.722 271.645 268.476 293.737 268.476 293.737C268.476 293.737 322.967 265.761 297.927 231.142C275.105 198.012 257.41 181.805 353.148 126.584C353.148 126.584 202.202 164.138 274.361 247.349V247.349Z" fill="#F58219"/>
</g>
<defs>
<clipPath id="clip0">
<rect width="441" height="441" fill="white" transform="translate(36 36)"/>
</clipPath>
</defs>
</svg>
