<svg width="512" height="512" viewBox="0 0 512 512" fill="none" xmlns="http://www.w3.org/2000/svg">
<g clip-path="url(#clip0)">
<path d="M326.955 151.999H182.955L141.771 53.6311C140.25 50.5844 139.74 47.1315 140.316 43.7749C140.892 40.4184 142.524 37.3332 144.975 34.9682C147.425 32.6033 150.566 31.082 153.941 30.6257C157.316 30.1694 160.749 30.8018 163.739 32.4311L185.931 44.5431C192 47.8521 198.977 49.1074 205.818 48.121C212.659 47.1346 218.997 43.9596 223.883 39.0711L232.331 30.6231C238.332 24.624 246.47 21.2539 254.955 21.2539C263.441 21.2539 271.579 24.624 277.579 30.6231L286.027 39.0711C290.914 43.9596 297.252 47.1346 304.093 48.121C310.934 49.1074 317.911 47.8521 323.979 44.5431L346.171 32.4311C349.162 30.8018 352.595 30.1694 355.97 30.6257C359.344 31.082 362.486 32.6033 364.936 34.9682C367.387 37.3332 369.019 40.4184 369.595 43.7749C370.171 47.1315 369.661 50.5844 368.139 53.6311L326.955 151.999ZM354.955 503.999H152.875C131.465 503.999 110.669 496.843 93.7936 483.666C76.918 470.49 64.9315 452.05 59.7395 431.279L59.4995 430.319C50.5234 394.438 51.2771 356.813 61.6829 321.321C72.0888 285.829 91.7704 253.753 118.699 228.399L165.915 183.999H357.915L400.363 229.279C424.153 254.654 441.199 285.589 449.942 319.254C458.685 352.919 458.847 388.239 450.411 421.983L448.091 431.279C442.899 452.05 430.913 470.49 414.037 483.666C397.162 496.843 376.366 503.999 354.955 503.999V503.999Z" fill="#FF7BAC"/>
<path d="M253.922 440C306.941 440 349.922 397.019 349.922 344C349.922 290.981 306.941 248 253.922 248C200.903 248 157.922 290.981 157.922 344C157.922 397.019 200.903 440 253.922 440Z" fill="white"/>
<path d="M343.858 149.68H168.434C158.944 149.68 151.25 157.373 151.25 166.864V169.12C151.25 178.61 158.944 186.304 168.434 186.304H343.858C353.348 186.304 361.042 178.61 361.042 169.12V166.864C361.042 157.373 353.348 149.68 343.858 149.68Z" fill="white"/>
<path d="M255.997 240.001C235.428 240.001 215.32 246.1 198.218 257.528C181.115 268.955 167.785 285.198 159.914 304.201C152.042 323.205 149.983 344.116 153.995 364.29C158.008 384.464 167.913 402.995 182.458 417.54C197.003 432.084 215.534 441.989 235.708 446.002C255.882 450.015 276.793 447.955 295.796 440.084C314.8 432.212 331.042 418.882 342.47 401.78C353.898 384.677 359.997 364.57 359.997 344C359.963 316.428 348.995 289.995 329.499 270.499C310.002 251.002 283.569 240.034 255.997 240.001ZM255.997 432C238.592 432 221.578 426.839 207.107 417.17C192.635 407.5 181.356 393.757 174.696 377.677C168.035 361.597 166.292 343.903 169.688 326.833C173.083 309.762 181.465 294.082 193.772 281.775C206.079 269.468 221.759 261.087 238.829 257.691C255.899 254.296 273.593 256.039 289.673 262.699C305.753 269.36 319.497 280.639 329.166 295.11C338.836 309.582 343.997 326.596 343.997 344C343.967 367.33 334.686 389.696 318.19 406.193C301.693 422.69 279.327 431.971 255.997 432ZM408.301 223.825L366.269 179.025C368.07 175.645 369.026 171.878 369.053 168.049C369.053 161.683 366.524 155.579 362.024 151.078C357.523 146.577 351.418 144.049 345.053 144.049H341.069L377.389 57.2645C379.677 52.6934 380.445 47.5111 379.583 42.4728C378.72 37.4344 376.271 32.803 372.593 29.2533C368.915 25.7037 364.199 23.4211 359.133 22.7382C354.068 22.0552 348.916 23.0076 344.429 25.4565L322.237 37.5525C317.682 40.0174 312.454 40.95 307.328 40.2123C302.201 39.4746 297.448 37.1058 293.773 33.4565L285.341 25.0085C281.627 21.2931 277.217 18.3457 272.363 16.3349C267.509 14.324 262.307 13.2891 257.053 13.2891C251.799 13.2891 246.597 14.324 241.743 16.3349C236.89 18.3457 232.48 21.2931 228.765 25.0085L220.333 33.4565C216.654 37.099 211.901 39.4632 206.777 40.2006C201.652 40.9381 196.426 40.0098 191.869 37.5525L169.597 25.4085C165.153 23.0128 160.067 22.0795 155.062 22.7412C150.057 23.4029 145.389 25.626 141.72 29.0942C138.052 32.5625 135.57 37.0992 134.629 42.0591C133.688 47.019 134.334 52.1494 136.477 56.7205L173.021 144.001H169.037C164.097 143.973 159.271 145.478 155.222 148.308C151.173 151.138 148.101 155.153 146.428 159.802C144.756 164.45 144.566 169.502 145.884 174.263C147.202 179.024 149.964 183.258 153.789 186.385L115.389 222.592C87.3425 249.062 66.8712 282.54 56.0899 319.567C45.3086 356.594 44.6082 395.828 54.0611 433.216C59.6595 455.733 72.6377 475.726 90.925 490.005C109.212 504.285 131.755 512.028 154.957 512H357.037C380.237 512.029 402.778 504.288 421.065 490.011C439.352 475.735 452.332 455.746 457.933 433.232L460.269 423.936C469.109 388.901 468.982 352.202 459.899 317.229C450.817 282.255 433.072 250.132 408.301 223.825ZM151.005 50.0485C150.239 48.5241 149.98 46.7947 150.267 45.1129C150.554 43.431 151.37 41.8849 152.598 40.7001C153.826 39.5154 155.4 38.7542 157.091 38.5275C158.782 38.3009 160.501 38.6208 161.997 39.4405L184.189 51.5365C191.774 55.6476 200.479 57.2121 209.021 55.9992C217.563 54.7864 225.488 50.8605 231.629 44.8005L239.997 36.2885C242.226 34.0583 244.872 32.2891 247.785 31.082C250.698 29.8749 253.82 29.2536 256.973 29.2536C260.126 29.2536 263.248 29.8749 266.161 31.082C269.074 32.2891 271.72 34.0583 273.949 36.2885L282.381 44.7365C288.511 50.812 296.431 54.7558 304.973 55.986C313.515 57.2162 322.226 55.6675 329.821 51.5685L351.997 39.4565C353.482 38.6001 355.209 38.2597 356.908 38.4883C358.608 38.717 360.183 39.5019 361.389 40.7205C362.69 41.9644 363.534 43.6108 363.784 45.3935C364.033 47.1762 363.674 48.991 362.765 50.5445L323.709 144.001H190.397L151.005 50.0485ZM169.037 160.001H345.037C347.159 160.001 349.194 160.843 350.694 162.344C352.194 163.844 353.037 165.879 353.037 168.001C353.037 170.122 352.194 172.157 350.694 173.657C349.194 175.158 347.159 176.001 345.037 176.001H169.037C166.915 176.001 164.88 175.158 163.38 173.657C161.88 172.157 161.037 170.122 161.037 168.001C161.037 165.879 161.88 163.844 163.38 162.344C164.88 160.843 166.915 160.001 169.037 160.001ZM444.797 420.048L442.461 429.344C437.722 448.405 426.733 465.327 411.248 477.409C395.764 489.492 376.677 496.037 357.037 496H154.957C135.168 495.974 115.964 489.291 100.434 477.026C84.9042 464.761 73.9524 447.629 69.3411 428.384C60.737 393.881 61.4785 357.709 71.4895 323.587C81.5005 289.465 100.42 258.626 126.301 234.241L171.197 192.001H356.525L396.621 234.753C419.569 259.106 436.012 288.848 444.432 321.233C452.852 353.618 452.978 387.602 444.797 420.048ZM247.997 304H263.997C268.241 304 272.31 305.686 275.311 308.687C278.311 311.687 279.997 315.757 279.997 320C279.997 322.122 280.84 324.157 282.34 325.657C283.84 327.158 285.875 328 287.997 328C290.119 328 292.154 327.158 293.654 325.657C295.154 324.157 295.997 322.122 295.997 320C295.997 311.514 292.626 303.374 286.624 297.373C280.623 291.372 272.484 288 263.997 288V280C263.997 277.879 263.154 275.844 261.654 274.344C260.154 272.843 258.119 272 255.997 272C253.875 272 251.84 272.843 250.34 274.344C248.84 275.844 247.997 277.879 247.997 280V288C239.51 288 231.371 291.372 225.37 297.373C219.368 303.374 215.997 311.514 215.997 320C215.997 328.487 219.368 336.627 225.37 342.628C231.371 348.629 239.51 352 247.997 352H263.997C268.241 352 272.31 353.686 275.311 356.687C278.311 359.687 279.997 363.757 279.997 368C279.997 372.244 278.311 376.314 275.311 379.314C272.31 382.315 268.241 384 263.997 384H247.997C243.754 384 239.684 382.315 236.683 379.314C233.683 376.314 231.997 372.244 231.997 368C231.997 365.879 231.154 363.844 229.654 362.344C228.154 360.843 226.119 360 223.997 360C221.875 360 219.84 360.843 218.34 362.344C216.84 363.844 215.997 365.879 215.997 368C215.997 376.487 219.368 384.627 225.37 390.628C231.371 396.629 239.51 400 247.997 400V408C247.997 410.122 248.84 412.157 250.34 413.657C251.84 415.158 253.875 416 255.997 416C258.119 416 260.154 415.158 261.654 413.657C263.154 412.157 263.997 410.122 263.997 408V400C272.484 400 280.623 396.629 286.624 390.628C292.626 384.627 295.997 376.487 295.997 368C295.997 359.514 292.626 351.374 286.624 345.373C280.623 339.372 272.484 336 263.997 336H247.997C243.754 336 239.684 334.315 236.683 331.314C233.683 328.314 231.997 324.244 231.997 320C231.997 315.757 233.683 311.687 236.683 308.687C239.684 305.686 243.754 304 247.997 304Z" fill="#E8679C"/>
</g>
<defs>
<clipPath id="clip0">
<rect width="512" height="512" fill="white"/>
</clipPath>
</defs>
</svg>
