<svg width="464" height="512" viewBox="0 0 464 512" fill="none" xmlns="http://www.w3.org/2000/svg">
<path d="M211.065 5.46232C223.743 -1.80435 240.257 -1.83718 252.924 5.46232C316.653 41.5203 380.402 77.5218 444.12 113.602C456.104 120.361 464.121 133.717 463.999 147.544V364.483C464.088 378.884 455.279 392.558 442.636 399.165C379.116 435.024 315.63 470.927 252.121 506.786C239.181 514.195 222.336 513.624 209.799 505.608C190.756 494.554 171.68 483.555 152.636 472.511C148.744 470.188 144.357 468.339 141.609 464.561C144.038 461.282 148.381 460.874 151.911 459.442C159.86 456.911 167.16 452.849 174.463 448.906C176.31 447.641 178.564 448.126 180.334 449.258C196.618 458.607 212.759 468.228 229.097 477.488C232.583 479.503 236.112 476.828 239.091 475.165C301.423 439.889 363.832 404.746 426.153 369.46C428.462 368.347 429.739 365.893 429.551 363.36C429.595 291.797 429.562 220.22 429.573 148.657C429.837 145.783 428.176 143.141 425.581 141.965C362.282 106.269 299.016 70.5195 235.728 34.8153C234.631 34.0605 233.332 33.6554 232.002 33.6535C230.671 33.6515 229.371 34.0527 228.272 34.8044C164.984 70.5195 101.729 106.302 38.441 141.996C35.855 143.173 34.1195 145.772 34.4273 148.657C34.4382 220.22 34.4273 291.797 34.4273 363.371C34.3176 364.607 34.5886 365.847 35.204 366.923C35.8194 368 36.7495 368.863 37.8691 369.394C54.7579 378.984 71.6684 388.506 88.5681 398.063C98.0887 403.195 109.778 406.243 120.268 402.312C129.524 398.988 136.013 389.529 135.836 379.688C135.923 308.542 135.792 237.385 135.902 166.25C135.67 163.092 138.662 160.482 141.729 160.779C149.844 160.725 157.969 160.67 166.084 160.801C169.471 160.725 171.802 164.126 171.384 167.308C171.351 238.904 171.471 310.502 171.329 382.098C171.351 401.18 163.522 421.942 145.896 431.278C124.181 442.542 97.342 440.153 75.8897 429.353C57.3183 420.071 39.5955 409.117 21.3538 399.174C8.6772 392.604 -0.0876656 378.874 0.00156741 364.485V147.544C-0.131372 133.431 8.20372 119.833 20.5616 113.171C84.07 77.2829 147.567 41.3672 211.065 5.46232Z" fill="#8CC84B"/>
<path d="M266.469 155.737C294.168 153.952 323.82 154.68 348.745 168.343C368.043 178.814 378.742 200.789 379.083 222.257C378.544 225.153 375.521 226.75 372.76 226.551C364.724 226.54 356.685 226.661 348.649 226.497C345.24 226.628 343.259 223.481 342.831 220.463C340.521 210.191 334.927 200.018 325.272 195.063C310.45 187.632 293.264 188.006 277.102 188.161C265.303 188.788 252.616 189.811 242.62 196.759C234.946 202.022 232.615 212.645 235.354 221.201C237.936 227.345 245.018 229.327 250.813 231.154C284.194 239.896 319.566 239.026 352.309 250.531C365.865 255.221 379.127 264.338 383.767 278.551C389.836 297.599 387.176 320.367 373.641 335.659C362.666 348.243 346.68 355.092 330.737 358.812C309.527 363.548 287.515 363.668 265.975 361.566C245.721 359.253 224.644 353.925 209.008 340.107C195.638 328.482 189.108 310.369 189.756 292.887C189.911 289.935 192.846 287.876 195.671 288.118C203.764 288.053 211.857 288.031 219.949 288.129C223.182 287.898 225.578 290.695 225.744 293.746C227.237 303.533 230.91 313.804 239.433 319.607C255.881 330.232 276.52 329.505 295.353 329.802C310.956 329.109 328.471 328.899 341.204 318.573C347.922 312.683 349.913 302.829 348.097 294.351C346.13 287.194 338.653 283.859 332.232 281.678C299.279 271.24 263.512 275.028 230.878 263.224C217.629 258.536 204.818 249.672 199.728 236.043C192.626 216.754 195.88 192.895 210.833 178.119C225.413 163.422 246.459 157.762 266.469 155.736V155.737Z" fill="#8CC84B"/>
</svg>
