<svg width="512" height="512" viewBox="0 0 512 512" fill="none" xmlns="http://www.w3.org/2000/svg">
<g clip-path="url(#clip0)">
<path d="M443.829 136.662C427.25 110.697 391.599 99.9111 343.562 106.102C341.865 106.301 340.067 106.601 338.37 106.8C337.672 105.205 336.974 103.605 336.174 102.01C315.502 58.1666 287.24 34 256.48 34C225.721 34 197.361 58.1666 176.787 102.01C176.089 103.605 175.289 105.205 174.591 106.8C172.793 106.504 171.096 106.301 169.399 106.102C121.264 99.8097 85.7107 110.697 69.1315 136.662C52.5562 162.627 57.647 199.476 83.4131 240.421C86.8108 245.816 90.5051 251.207 94.4997 256.501C90.5051 261.892 86.8108 267.186 83.4131 272.577C57.647 313.522 52.5562 350.472 69.1315 376.339C82.6133 397.51 108.781 408.596 144.031 408.596C152.48 408.55 160.918 407.984 169.297 406.896C170.994 406.697 172.793 406.396 174.489 406.197C175.192 407.797 175.89 409.392 176.69 410.992C197.361 454.831 225.624 479.002 256.379 479.002C287.138 479.002 315.502 454.831 336.072 410.992C336.771 409.392 337.57 407.797 338.269 406.197C340.067 406.498 341.764 406.697 343.465 406.896C351.836 408.031 360.278 408.596 368.728 408.596C403.981 408.596 430.145 397.51 443.627 376.339C460.206 350.374 455.111 313.522 429.349 272.577C425.951 267.186 422.257 261.794 418.262 256.501C422.257 251.106 425.951 245.816 429.349 240.421C455.411 199.379 460.506 162.526 443.829 136.662V136.662ZM194.864 110.498C211.74 74.5469 234.21 53.9731 256.48 53.9731C278.751 53.9731 301.221 74.5469 318.097 110.498C318.108 110.573 318.143 110.643 318.198 110.697C296.984 115.8 276.294 122.853 256.379 131.767C236.488 122.81 215.789 115.753 194.564 110.697C194.763 110.697 194.763 110.596 194.864 110.498V110.498ZM346.461 256.501C346.465 272.479 345.599 288.45 343.863 304.335C331.415 314.38 318.413 323.715 304.915 332.297C289.339 342.299 273.126 351.275 256.379 359.163C239.667 351.213 223.455 342.241 207.847 332.297C194.365 323.691 181.363 314.356 168.899 304.335C165.435 272.538 165.435 240.46 168.899 208.663C195.816 187.032 225.179 168.631 256.379 153.838C273.095 161.785 289.303 170.757 304.915 180.701C318.397 189.306 331.399 198.641 343.863 208.663C345.599 224.552 346.465 240.518 346.461 256.501V256.501ZM365.533 227.438C375.312 236.547 384.519 246.253 393.097 256.501C384.519 266.745 375.312 276.45 365.533 285.559C366.133 275.975 366.434 266.288 366.434 256.501C366.434 246.713 366.133 237.027 365.533 227.438ZM339.767 332.699C336.615 349.988 332.039 366.989 326.086 383.529C310.576 380.026 295.354 375.352 280.55 369.548C292.331 363.357 304.115 356.565 315.799 349.177C323.991 343.883 331.98 338.39 339.767 332.699V332.699ZM232.411 369.548C217.634 375.426 202.405 380.104 186.875 383.529C180.922 366.989 176.346 349.988 173.194 332.699C180.883 338.39 188.872 343.883 197.162 349.075C208.845 356.565 220.63 363.357 232.411 369.548ZM147.428 285.559C137.649 276.45 128.446 266.745 119.864 256.501C128.446 246.253 137.649 236.547 147.428 227.438C146.828 237.027 146.527 246.713 146.527 256.501C146.527 266.288 146.828 275.975 147.428 285.559ZM173.194 180.303C176.346 163.01 180.922 146.009 186.875 129.473C202.385 132.972 217.611 137.645 232.411 143.454C220.63 149.645 208.845 156.436 197.162 163.825C188.97 169.119 180.981 174.611 173.194 180.303ZM315.701 163.825C304.115 156.436 292.331 149.543 280.448 143.454C295.225 137.575 310.455 132.898 325.988 129.473C331.937 146.009 336.513 163.01 339.669 180.303C331.98 174.611 323.991 169.119 315.701 163.825ZM100.293 229.736C79.1181 196.18 73.9258 166.123 85.9097 147.347C95.4983 132.367 116.271 124.277 144.331 124.277C151.844 124.308 159.35 124.811 166.801 125.775H167C158.921 149.266 153.299 173.531 150.225 198.177C134.836 211.015 120.508 225.078 107.381 240.222C104.884 236.828 102.489 233.333 100.293 229.736ZM166.703 387.125C159.252 388.093 151.747 388.592 144.233 388.623C116.17 388.623 95.3969 380.634 85.8122 365.553C73.8283 346.777 79.0205 316.72 100.191 283.164C102.387 279.669 104.787 276.072 107.283 272.577C120.406 287.724 134.734 301.783 150.124 314.622C153.202 339.272 158.823 363.536 166.902 387.024C166.902 387.125 166.801 387.125 166.703 387.125ZM318.097 402.503C301.221 438.455 278.751 459.028 256.48 459.028C234.21 459.028 211.74 438.455 194.864 402.503C194.853 402.429 194.818 402.359 194.763 402.304C215.976 397.202 236.667 390.149 256.582 381.231C276.473 390.192 297.172 397.248 318.397 402.304C318.198 402.304 318.198 402.402 318.097 402.503ZM412.668 283.265C433.843 316.818 439.035 346.879 427.051 365.654C415.067 384.426 385.607 392.318 346.258 387.125H346.059C354.138 363.634 359.763 339.37 362.837 314.723C378.226 301.885 392.555 287.822 405.678 272.678C408.077 276.173 410.472 279.669 412.668 283.265V283.265ZM362.736 198.278C359.662 173.628 354.04 149.364 345.961 125.876H346.16C385.506 120.781 414.966 128.572 426.95 147.347C438.934 166.123 433.741 196.18 412.571 229.736C410.375 233.231 407.975 236.828 405.479 240.323C392.414 225.152 378.117 211.089 362.736 198.278Z" fill="url(#paint0_linear)"/>
<path d="M256.48 216.953C234.639 216.953 216.932 234.659 216.932 256.501C216.932 278.342 234.639 296.045 256.48 296.045C278.322 296.045 296.029 278.342 296.029 256.501C296.013 234.663 278.314 216.968 256.48 216.953ZM256.48 276.072C245.671 276.072 236.905 267.31 236.905 256.501C236.905 245.691 245.671 236.926 256.48 236.926C267.29 236.926 276.056 245.691 276.056 256.501C276.036 267.303 267.282 276.056 256.48 276.072Z" fill="url(#paint1_linear)"/>
</g>
<defs>
<linearGradient id="paint0_linear" x1="256.511" y1="16.8232" x2="256.511" y2="500.979" gradientUnits="userSpaceOnUse">
<stop stop-color="#00EFD1"/>
<stop offset="1" stop-color="#00ACEA"/>
</linearGradient>
<linearGradient id="paint1_linear" x1="256.481" y1="16.8231" x2="256.481" y2="500.979" gradientUnits="userSpaceOnUse">
<stop stop-color="#00EFD1"/>
<stop offset="1" stop-color="#00ACEA"/>
</linearGradient>
<clipPath id="clip0">
<rect width="445" height="445" fill="white" transform="translate(34 34)"/>
</clipPath>
</defs>
</svg>
