<svg width="512" height="512" viewBox="0 0 512 512" fill="none" xmlns="http://www.w3.org/2000/svg">
<g clip-path="url(#clip0)">
<path d="M376.818 317.695L391.609 280.292H434.317L414.048 223.554L439.396 159.451L512 352.221H458.457L446.049 317.695H376.818" fill="#3D3D3D"/>
<path d="M331.142 352.223L408.863 159.454H357.336L304.167 284.024L266.361 159.454H226.754L186.16 284.024L157.53 227.261L131.623 307.077L157.928 352.223H208.637L245.32 240.509L280.296 352.223H331.142" fill="#5A0FC8"/>
<path d="M48.9106 286.048H80.6488C90.2641 286.048 98.8255 284.974 106.332 282.827L114.542 257.541L137.481 186.865C135.734 184.095 133.738 181.475 131.495 179.007C119.715 165.97 102.483 159.451 79.7945 159.451H0V352.221H48.9106V286.048V286.048ZM90.9231 203.801C95.5224 208.43 97.8234 214.627 97.8234 222.39C97.8234 230.213 95.7996 236.415 91.7555 241.001C87.3179 246.096 79.1523 248.642 67.2519 248.642H48.9106V196.854H67.3865C78.4764 196.854 86.321 199.169 90.9231 203.801" fill="#3D3D3D"/>
</g>
<defs>
<clipPath id="clip0">
<rect width="512" height="512" fill="white"/>
</clipPath>
</defs>
</svg>
