<svg width="512" height="512" viewBox="0 0 512 512" fill="none" xmlns="http://www.w3.org/2000/svg">
<path d="M253.961 44C145.562 44 152.331 91.0084 152.331 91.0084L152.452 139.709H255.894V154.331H111.365C111.365 154.331 42 146.464 42 255.84C42 365.216 102.543 361.337 102.543 361.337H138.675V310.582C138.675 310.582 136.728 250.039 198.252 250.039H300.848C300.848 250.039 358.491 250.971 358.491 194.33V100.676C358.491 100.676 367.243 44 253.961 44ZM196.922 76.7488C207.214 76.7488 215.532 85.067 215.532 95.3588C215.532 105.651 207.214 113.969 196.922 113.969C186.63 113.969 178.312 105.651 178.312 95.3588C178.312 85.067 186.63 76.7488 196.922 76.7488Z" fill="url(#paint0_linear)"/>
<path d="M257.039 468.776C365.438 468.776 358.669 421.768 358.669 421.768L358.548 373.068H255.106V358.446H399.635C399.635 358.446 469 366.312 469 256.936C469 147.561 408.457 151.439 408.457 151.439H372.325V202.194C372.325 202.194 374.272 262.737 312.748 262.737H210.152C210.152 262.737 152.509 261.805 152.509 318.446V412.1C152.509 412.1 143.757 468.776 257.039 468.776ZM314.078 436.028C303.786 436.028 295.468 427.709 295.468 417.418C295.468 407.126 303.786 398.808 314.078 398.808C324.37 398.808 332.688 407.126 332.688 417.418C332.688 427.709 324.37 436.028 314.078 436.028Z" fill="url(#paint1_linear)"/>
<defs>
<linearGradient id="paint0_linear" x1="83.0355" y1="82.2075" x2="294.641" y2="291.702" gradientUnits="userSpaceOnUse">
<stop stop-color="#387EB8"/>
<stop offset="1" stop-color="#366994"/>
</linearGradient>
<linearGradient id="paint1_linear" x1="212.919" y1="216.731" x2="440.161" y2="431.55" gradientUnits="userSpaceOnUse">
<stop stop-color="#FFE052"/>
<stop offset="1" stop-color="#FFC331"/>
</linearGradient>
</defs>
</svg>
