<svg width="512" height="512" viewBox="0 0 512 512" fill="none" xmlns="http://www.w3.org/2000/svg">
<g clip-path="url(#clip0)">
<g clip-path="url(#clip1)">
<path d="M315.584 32.005C540.672 182.213 467.68 347.269 467.68 347.269C467.68 347.269 531.616 418.021 505.92 480.005C505.92 480.005 479.392 436.709 435.36 436.709C392.8 436.709 367.616 480.005 281.696 480.005C90.592 480.005 0 323.397 0 323.397C172.224 434.757 289.888 355.845 289.888 355.845C212.128 311.749 47.2 100.581 47.2 100.581C190.976 220.613 253.024 252.133 253.024 252.133C215.712 222.181 111.744 75.397 111.744 75.397C194.944 157.925 360.32 272.997 360.32 272.997C407.744 145.829 315.584 32.005 315.584 32.005Z" fill="#FF5722"/>
</g>
</g>
<defs>
<clipPath id="clip0">
<rect width="512" height="512" fill="white"/>
</clipPath>
<clipPath id="clip1">
<rect width="512.01" height="512.01" fill="white"/>
</clipPath>
</defs>
</svg>
