<svg width="175" height="175" viewBox="0 0 175 175" fill="none" xmlns="http://www.w3.org/2000/svg">
<path d="M8 134.705H33.5068V107.971H8L16.0935 122.196L8 134.705Z" fill="#D05F49"/>
<path d="M165.946 134.705H140.439V107.971H165.946L157.852 122.196L165.946 134.705Z" fill="#D05F49"/>
<path d="M31.79 31.206L86.2372 16L141.665 31.206V146.477L86.2372 160.457L31.79 146.477V31.206Z" fill="#D05F49"/>
<path d="M135.279 110.915V139.98L86.2906 152.338L38.176 139.981V37.8072L86.2907 24.367L135.279 37.809V110.915Z" stroke="white"/>
<rect x="20.1499" y="97.5764" width="132.929" height="29.4309" fill="white"/>
<path d="M28.5449 108.217L29.4809 111.098H32.5102L30.0595 112.878L30.9956 115.759L28.5449 113.979L26.0942 115.759L27.0302 112.878L24.5796 111.098H27.6088L28.5449 108.217Z" fill="#D05F49"/>
<path d="M144.401 108.217L145.337 111.098H148.367L145.916 112.878L146.852 115.759L144.401 113.979L141.951 115.759L142.887 112.878L140.436 111.098H143.465L144.401 108.217Z" fill="#D05F49"/>
<path d="M42.1763 114.588H38.3042L37.4346 117H36.1777L39.707 107.758H40.7734L44.3091 117H43.0586L42.1763 114.588ZM38.6724 113.585H41.8145L40.2402 109.262L38.6724 113.585ZM46.772 113.382V117H45.5532V107.758H48.9619C49.9733 107.758 50.7646 108.016 51.3359 108.532C51.9115 109.049 52.1992 109.732 52.1992 110.583C52.1992 111.48 51.9178 112.172 51.355 112.658C50.7964 113.141 49.9945 113.382 48.9492 113.382H46.772ZM46.772 112.385H48.9619C49.6136 112.385 50.113 112.233 50.46 111.928C50.807 111.619 50.9805 111.175 50.9805 110.595C50.9805 110.045 50.807 109.605 50.46 109.275C50.113 108.945 49.6369 108.773 49.0317 108.761H46.772V112.385ZM54.9731 113.382V117H53.7544V107.758H57.1631C58.1745 107.758 58.9658 108.016 59.5371 108.532C60.1126 109.049 60.4004 109.732 60.4004 110.583C60.4004 111.48 60.119 112.172 59.5562 112.658C58.9976 113.141 58.1956 113.382 57.1504 113.382H54.9731ZM54.9731 112.385H57.1631C57.8148 112.385 58.3141 112.233 58.6611 111.928C59.0081 111.619 59.1816 111.175 59.1816 110.595C59.1816 110.045 59.0081 109.605 58.6611 109.275C58.3141 108.945 57.8381 108.773 57.2329 108.761H54.9731V112.385ZM65.1802 117V107.758H67.7891C68.5931 107.758 69.304 107.936 69.9219 108.291C70.5397 108.646 71.0158 109.152 71.3501 109.808C71.6886 110.464 71.86 111.217 71.8643 112.068V112.658C71.8643 113.53 71.695 114.294 71.3564 114.95C71.0221 115.606 70.5418 116.109 69.9155 116.46C69.2935 116.812 68.5677 116.992 67.7383 117H65.1802ZM66.3989 108.761V116.003H67.6812C68.6206 116.003 69.3506 115.711 69.8711 115.127C70.3958 114.543 70.6582 113.712 70.6582 112.633V112.093C70.6582 111.044 70.4106 110.229 69.9155 109.649C69.4246 109.065 68.7264 108.769 67.8208 108.761H66.3989ZM78.9355 112.728H74.9302V116.003H79.583V117H73.7114V107.758H79.5195V108.761H74.9302V111.731H78.9355V112.728ZM84.1597 115.381L86.8003 107.758H88.1333L84.7056 117H83.6265L80.2051 107.758H81.5317L84.1597 115.381ZM94.6016 112.728H90.5962V116.003H95.249V117H89.3774V107.758H95.1855V108.761H90.5962V111.731H94.6016V112.728ZM97.9912 116.003H102.371V117H96.7661V107.758H97.9912V116.003ZM110.452 112.677C110.452 113.583 110.299 114.374 109.995 115.051C109.69 115.724 109.258 116.238 108.7 116.594C108.141 116.949 107.489 117.127 106.745 117.127C106.017 117.127 105.371 116.949 104.809 116.594C104.246 116.234 103.808 115.724 103.495 115.064C103.186 114.4 103.027 113.632 103.019 112.76V112.093C103.019 111.205 103.173 110.42 103.482 109.738C103.791 109.057 104.227 108.536 104.79 108.177C105.357 107.813 106.004 107.631 106.732 107.631C107.472 107.631 108.124 107.811 108.687 108.17C109.254 108.526 109.69 109.044 109.995 109.726C110.299 110.403 110.452 111.192 110.452 112.093V112.677ZM109.239 112.081C109.239 110.985 109.019 110.145 108.579 109.561C108.139 108.972 107.523 108.678 106.732 108.678C105.962 108.678 105.354 108.972 104.91 109.561C104.47 110.145 104.244 110.957 104.231 111.998V112.677C104.231 113.739 104.453 114.575 104.897 115.185C105.346 115.79 105.962 116.092 106.745 116.092C107.532 116.092 108.141 115.807 108.573 115.235C109.004 114.66 109.227 113.837 109.239 112.766V112.081ZM113.499 113.382V117H112.28V107.758H115.688C116.7 107.758 117.491 108.016 118.062 108.532C118.638 109.049 118.926 109.732 118.926 110.583C118.926 111.48 118.644 112.172 118.082 112.658C117.523 113.141 116.721 113.382 115.676 113.382H113.499ZM113.499 112.385H115.688C116.34 112.385 116.84 112.233 117.187 111.928C117.534 111.619 117.707 111.175 117.707 110.595C117.707 110.045 117.534 109.605 117.187 109.275C116.84 108.945 116.363 108.773 115.758 108.761H113.499V112.385ZM125.705 112.728H121.7V116.003H126.353V117H120.481V107.758H126.289V108.761H121.7V111.731H125.705V112.728ZM131.259 113.261H129.088V117H127.863V107.758H130.923C131.964 107.758 132.764 107.995 133.322 108.469C133.885 108.943 134.167 109.632 134.167 110.538C134.167 111.114 134.01 111.615 133.697 112.042C133.388 112.47 132.956 112.789 132.402 113.001L134.573 116.924V117H133.265L131.259 113.261ZM129.088 112.265H130.961C131.566 112.265 132.046 112.108 132.402 111.795C132.762 111.482 132.941 111.063 132.941 110.538C132.941 109.967 132.77 109.529 132.427 109.224C132.089 108.919 131.598 108.765 130.955 108.761H129.088V112.265Z" fill="#D05F49"/>
<path d="M64.8775 50.8534H61.774V59.412H60.0581V50.8534H56.982V49.4589H64.8775V50.8534ZM73.9419 54.6952C73.9419 55.6705 73.7733 56.5272 73.4361 57.2655C73.0988 57.9992 72.6158 58.5643 71.9869 58.9608C71.3625 59.3527 70.6424 59.5487 69.8267 59.5487C69.0201 59.5487 68.3 59.3527 67.6665 58.9608C67.0376 58.5643 66.55 58.0015 66.2036 57.2723C65.8619 56.5432 65.6887 55.7024 65.6841 54.7499V54.1893C65.6841 53.2186 65.855 52.3619 66.1968 51.619C66.5432 50.8762 67.0285 50.3088 67.6529 49.9169C68.2818 49.5204 69.0018 49.3221 69.813 49.3221C70.6242 49.3221 71.342 49.5181 71.9663 49.91C72.5952 50.2974 73.0806 50.858 73.4224 51.5917C73.7642 52.3208 73.9374 53.1708 73.9419 54.1415V54.6952ZM72.2124 54.1757C72.2124 53.0728 72.0028 52.2274 71.5835 51.6395C71.1688 51.0516 70.5786 50.7577 69.813 50.7577C69.0656 50.7577 68.48 51.0516 68.0562 51.6395C67.6369 52.2229 67.4227 53.05 67.4136 54.121V54.6952C67.4136 55.7889 67.6255 56.6343 68.0494 57.2313C68.4777 57.8283 69.0702 58.1268 69.8267 58.1268C70.5923 58.1268 71.1802 57.8352 71.5904 57.2518C72.0051 56.6685 72.2124 55.8163 72.2124 54.6952V54.1757ZM77.3941 55.7137V59.412H75.6646V49.4589H79.4722C80.5842 49.4589 81.466 49.7483 82.1177 50.327C82.774 50.9058 83.1021 51.6714 83.1021 52.6239C83.1021 53.5992 82.7808 54.358 82.1382 54.9003C81.5002 55.4426 80.6047 55.7137 79.4517 55.7137H77.3941ZM77.3941 54.326H79.4722C80.0874 54.326 80.5568 54.1825 80.8804 53.8954C81.204 53.6037 81.3658 53.1844 81.3658 52.6376C81.3658 52.0998 81.2017 51.6714 80.8736 51.3524C80.5454 51.0288 80.0943 50.8625 79.5201 50.8534H77.3941V54.326ZM93.6773 57.0946H89.8218L89.0152 59.412H87.2173L90.9771 49.4589H92.5288L96.2954 59.412H94.4908L93.6773 57.0946ZM90.3072 55.7001H93.1919L91.7495 51.5712L90.3072 55.7001ZM99.1597 55.7137V59.412H97.4302V49.4589H101.238C102.35 49.4589 103.232 49.7483 103.883 50.327C104.54 50.9058 104.868 51.6714 104.868 52.6239C104.868 53.5992 104.546 54.358 103.904 54.9003C103.266 55.4426 102.37 55.7137 101.217 55.7137H99.1597ZM99.1597 54.326H101.238C101.853 54.326 102.322 54.1825 102.646 53.8954C102.97 53.6037 103.131 53.1844 103.131 52.6376C103.131 52.0998 102.967 51.6714 102.639 51.3524C102.311 51.0288 101.86 50.8625 101.286 50.8534H99.1597V54.326ZM108.115 55.7137V59.412H106.385V49.4589H110.193C111.305 49.4589 112.187 49.7483 112.838 50.327C113.495 50.9058 113.823 51.6714 113.823 52.6239C113.823 53.5992 113.501 54.358 112.859 54.9003C112.221 55.4426 111.325 55.7137 110.172 55.7137H108.115ZM108.115 54.326H110.193C110.808 54.326 111.278 54.1825 111.601 53.8954C111.925 53.6037 112.086 53.1844 112.086 52.6376C112.086 52.0998 111.922 51.6714 111.594 51.3524C111.266 51.0288 110.815 50.8625 110.241 50.8534H108.115V54.326ZM41.6558 75.412V65.4589H44.5952C45.4748 65.4589 46.2541 65.6548 46.9331 66.0468C47.6167 66.4387 48.1454 66.9947 48.5191 67.7147C48.8928 68.4348 49.0796 69.2596 49.0796 70.1893V70.6884C49.0796 71.6317 48.8905 72.4611 48.5122 73.1766C48.1385 73.8921 47.6031 74.4436 46.9058 74.8309C46.2131 75.2183 45.4178 75.412 44.5201 75.412H41.6558ZM43.3853 66.8534V74.0311H44.5132C45.4201 74.0311 46.1151 73.7486 46.5982 73.1835C47.0858 72.6138 47.3342 71.7981 47.3433 70.7362V70.1825C47.3433 69.1024 47.1086 68.2775 46.6392 67.7079C46.1698 67.1382 45.4885 66.8534 44.5952 66.8534H43.3853ZM56.6197 70.9686H52.5318V74.0311H57.3101V75.412H50.8023V65.4589H57.2622V66.8534H52.5318V69.6014H56.6197V70.9686ZM62.2251 73.245L64.7544 65.4589H66.6548L63.0728 75.412H61.398L57.8296 65.4589H59.7232L62.2251 73.245ZM73.6001 70.9686H69.5122V74.0311H74.2906V75.412H67.7827V65.4589H74.2427V66.8534H69.5122V69.6014H73.6001V70.9686ZM77.4283 74.0311H81.9468V75.412H75.6988V65.4589H77.4283V74.0311ZM90.7788 70.6952C90.7788 71.6705 90.6102 72.5272 90.273 73.2655C89.9357 73.9992 89.4527 74.5643 88.8238 74.9608C88.1994 75.3527 87.4794 75.5487 86.6636 75.5487C85.857 75.5487 85.1369 75.3527 84.5035 74.9608C83.8745 74.5643 83.3869 74.0015 83.0406 73.2723C82.6988 72.5432 82.5256 71.7024 82.521 70.7499V70.1893C82.521 69.2186 82.6919 68.3619 83.0337 67.619C83.3801 66.8762 83.8654 66.3088 84.4898 65.9169C85.1187 65.5204 85.8387 65.3221 86.6499 65.3221C87.4611 65.3221 88.1789 65.5181 88.8033 65.91C89.4322 66.2974 89.9175 66.858 90.2593 67.5917C90.6011 68.3208 90.7743 69.1708 90.7788 70.1415V70.6952ZM89.0494 70.1757C89.0494 69.0728 88.8397 68.2274 88.4204 67.6395C88.0057 67.0516 87.4156 66.7577 86.6499 66.7577C85.9025 66.7577 85.3169 67.0516 84.8931 67.6395C84.4738 68.2229 84.2596 69.05 84.2505 70.121V70.6952C84.2505 71.7889 84.4624 72.6343 84.8863 73.2313C85.3147 73.8283 85.9071 74.1268 86.6636 74.1268C87.4292 74.1268 88.0171 73.8352 88.4273 73.2518C88.842 72.6685 89.0494 71.8163 89.0494 70.6952V70.1757ZM94.231 71.7137V75.412H92.5015V65.4589H96.3091C97.4211 65.4589 98.3029 65.7483 98.9546 66.327C99.6109 66.9058 99.939 67.6714 99.939 68.6239C99.939 69.5992 99.6177 70.358 98.9751 70.9003C98.3371 71.4426 97.4416 71.7137 96.2886 71.7137H94.231ZM94.231 70.326H96.3091C96.9244 70.326 97.3938 70.1825 97.7173 69.8954C98.0409 69.6037 98.2027 69.1844 98.2027 68.6376C98.2027 68.0998 98.0386 67.6714 97.7105 67.3524C97.3824 67.0288 96.9312 66.8625 96.357 66.8534H94.231V70.326ZM103.699 65.4589L106.57 73.0878L109.434 65.4589H111.669V75.412H109.947V72.1307L110.118 67.7421L107.178 75.412H105.941L103.008 67.7489L103.179 72.1307V75.412H101.457V65.4589H103.699ZM119.538 70.9686H115.45V74.0311H120.228V75.412H113.72V65.4589H120.18V66.8534H115.45V69.6014H119.538V70.9686ZM129.532 75.412H127.802L123.366 68.3505V75.412H121.636V65.4589H123.366L127.816 72.5477V65.4589H129.532V75.412ZM54.7056 82.8534H51.6021V91.412H49.8863V82.8534H46.8101V81.4589H54.7056V82.8534ZM66.689 88.1718C66.5887 89.2336 66.1968 90.063 65.5132 90.66C64.8296 91.2525 63.9204 91.5487 62.7857 91.5487C61.9927 91.5487 61.2932 91.3619 60.687 90.9882C60.0855 90.6099 59.6206 90.0744 59.2925 89.3817C58.9644 88.689 58.7935 87.8846 58.7798 86.9686V86.0389C58.7798 85.1001 58.9462 84.273 59.2788 83.5575C59.6115 82.842 60.0878 82.2906 60.7076 81.9032C61.3319 81.5158 62.052 81.3221 62.8677 81.3221C63.966 81.3221 64.8501 81.6206 65.5201 82.2177C66.19 82.8147 66.5796 83.6578 66.689 84.7469H64.9663C64.8843 84.0315 64.6747 83.5165 64.3374 83.202C64.0048 82.883 63.5148 82.7235 62.8677 82.7235C62.1158 82.7235 61.537 82.9992 61.1314 83.5507C60.7303 84.0975 60.5253 84.9019 60.5161 85.9637V86.8456C60.5161 87.9211 60.7076 88.7414 61.0904 89.3065C61.4777 89.8716 62.0428 90.1542 62.7857 90.1542C63.4647 90.1542 63.9751 90.0015 64.3169 89.6962C64.6587 89.3908 64.8752 88.8827 64.9663 88.1718H66.689ZM76.1841 86.6952C76.1841 87.6705 76.0155 88.5272 75.6783 89.2655C75.341 89.9992 74.8579 90.5643 74.229 90.9608C73.6047 91.3527 72.8846 91.5487 72.0689 91.5487C71.2622 91.5487 70.5422 91.3527 69.9087 90.9608C69.2798 90.5643 68.7922 90.0015 68.4458 89.2723C68.104 88.5432 67.9309 87.7024 67.9263 86.7499V86.1893C67.9263 85.2186 68.0972 84.3619 68.439 83.619C68.7854 82.8762 69.2707 82.3088 69.8951 81.9169C70.524 81.5204 71.244 81.3221 72.0552 81.3221C72.8664 81.3221 73.5842 81.5181 74.2085 81.91C74.8374 82.2974 75.3228 82.858 75.6646 83.5917C76.0064 84.3208 76.1796 85.1708 76.1841 86.1415V86.6952ZM74.4546 86.1757C74.4546 85.0728 74.245 84.2274 73.8257 83.6395C73.411 83.0516 72.8208 82.7577 72.0552 82.7577C71.3078 82.7577 70.7222 83.0516 70.2984 83.6395C69.8791 84.2229 69.6649 85.05 69.6558 86.121V86.6952C69.6558 87.7889 69.8677 88.6343 70.2915 89.2313C70.7199 89.8283 71.3124 90.1268 72.0689 90.1268C72.8345 90.1268 73.4224 89.8352 73.8326 89.2518C74.2473 88.6685 74.4546 87.8163 74.4546 86.6952V86.1757ZM80.149 81.4589L83.0201 89.0878L85.8843 81.4589H88.1197V91.412H86.397V88.1307L86.5679 83.7421L83.6285 91.412H82.3911L79.4585 83.7489L79.6294 88.1307V91.412H77.9068V81.4589H80.149ZM91.8999 87.7137V91.412H90.1704V81.4589H93.9781C95.09 81.4589 95.9719 81.7483 96.6236 82.327C97.2798 82.9058 97.6079 83.6714 97.6079 84.6239C97.6079 85.5992 97.2867 86.358 96.6441 86.9003C96.0061 87.4426 95.1105 87.7137 93.9576 87.7137H91.8999ZM91.8999 86.326H93.9781C94.5933 86.326 95.0627 86.1825 95.3863 85.8954C95.7098 85.6037 95.8716 85.1844 95.8716 84.6376C95.8716 84.0998 95.7076 83.6714 95.3794 83.3524C95.0513 83.0288 94.6001 82.8625 94.0259 82.8534H91.8999V86.326ZM103.48 89.0946H99.6245L98.8179 91.412H97.0201L100.78 81.4589H102.332L106.098 91.412H104.293L103.48 89.0946ZM100.11 87.7001H102.995L101.552 83.5712L100.11 87.7001ZM115.128 91.412H113.399L108.962 84.3505V91.412H107.233V81.4589H108.962L113.413 88.5477V81.4589H115.128V91.412ZM120.228 86.1757L122.518 81.4589H124.432L121.096 87.7479V91.412H119.36V87.7479L116.017 81.4589H117.938L120.228 86.1757Z" fill="white"/>
</svg>
