<svg width="175" height="175" viewBox="0 0 175 175" fill="none" xmlns="http://www.w3.org/2000/svg">
<path d="M23.8342 51.9975L89.4999 16.58L155.166 51.9975V121.357L89.4999 156.774L23.8342 121.357V51.9975Z" fill="#6A797D"/>
<rect x="24" y="66" width="131" height="43" fill="#17313B"/>
<path d="M89.5001 22.5483L149.332 54.5471V69.5629H108.434H29.6687V54.5471L89.5001 22.5483Z" fill="white" stroke="#051A25" stroke-width="2"/>
<path d="M89.5001 150.806L149.332 118.807V103.791H108.434H29.6687V118.807L89.5001 150.806Z" fill="white" stroke="#051A25" stroke-width="2"/>
<path d="M89.5 12.8835L159 50.6079V124.358L89.5 162.082L20 124.358V50.6079L89.5 12.8835Z" stroke="#4B5D62" stroke-width="2"/>
<path d="M85.3642 35.9697H82.9257V42.6943H81.5775V35.9697H79.1605V34.874H85.3642V35.9697ZM92.4862 38.9882C92.4862 39.7545 92.3537 40.4277 92.0888 41.0078C91.8238 41.5842 91.4442 42.0283 90.9501 42.3398C90.4595 42.6477 89.8938 42.8017 89.2528 42.8017C88.619 42.8017 88.0533 42.6477 87.5556 42.3398C87.0614 42.0283 86.6783 41.586 86.4061 41.0131C86.1376 40.4402 86.0015 39.7796 85.9979 39.0312V38.5908C85.9979 37.8281 86.1322 37.1549 86.4008 36.5712C86.6729 35.9876 87.0543 35.5418 87.5448 35.2338C88.039 34.9223 88.6047 34.7665 89.2421 34.7665C89.8795 34.7665 90.4434 34.9205 90.934 35.2285C91.4281 35.5328 91.8095 35.9732 92.078 36.5497C92.3466 37.1227 92.4826 37.7905 92.4862 38.5532V38.9882ZM91.1273 38.58C91.1273 37.7135 90.9626 37.0493 90.6332 36.5873C90.3073 36.1254 89.8436 35.8945 89.2421 35.8945C88.6548 35.8945 88.1947 36.1254 87.8617 36.5873C87.5323 37.0457 87.364 37.6956 87.3568 38.537V38.9882C87.3568 39.8476 87.5233 40.5118 87.8563 40.9809C88.1929 41.45 88.6584 41.6845 89.2528 41.6845C89.8544 41.6845 90.3163 41.4553 90.6386 40.997C90.9644 40.5387 91.1273 39.8691 91.1273 38.9882V38.58ZM95.1986 39.7885V42.6943H93.8397V34.874H96.8314C97.7051 34.874 98.398 35.1013 98.91 35.5561C99.4257 36.0108 99.6835 36.6124 99.6835 37.3608C99.6835 38.1271 99.431 38.7232 98.9262 39.1494C98.4249 39.5755 97.7212 39.7885 96.8153 39.7885H95.1986ZM95.1986 38.6982H96.8314C97.3148 38.6982 97.6836 38.5854 97.9379 38.3598C98.1921 38.1306 98.3192 37.8012 98.3192 37.3715C98.3192 36.949 98.1903 36.6124 97.9325 36.3618C97.6747 36.1075 97.3202 35.9768 96.869 35.9697H95.1986V38.6982ZM56.9403 55.6943V47.874H59.2499C59.941 47.874 60.5533 48.0279 61.0868 48.3359C61.6239 48.6438 62.0393 49.0807 62.3329 49.6464C62.6265 50.2122 62.7733 50.8603 62.7733 51.5908V51.9828C62.7733 52.7241 62.6247 53.3758 62.3275 53.9379C62.0339 54.5001 61.6132 54.9334 61.0653 55.2377C60.5211 55.5421 59.8962 55.6943 59.1908 55.6943H56.9403ZM58.2992 48.9697V54.6093H59.1854C59.898 54.6093 60.4441 54.3873 60.8236 53.9433C61.2068 53.4957 61.4019 52.8548 61.4091 52.0204V51.5854C61.4091 50.7368 61.2247 50.0886 60.8559 49.6411C60.487 49.1935 59.9517 48.9697 59.2499 48.9697H58.2992ZM68.6976 52.2031H65.4857V54.6093H69.2401V55.6943H64.1268V47.874H69.2025V48.9697H65.4857V51.1288H68.6976V52.2031ZM73.1019 53.9916L75.0892 47.874H76.5824L73.768 55.6943H72.452L69.6483 47.874H71.1361L73.1019 53.9916ZM82.0394 52.2031H78.8275V54.6093H82.5819V55.6943H77.4686V47.874H82.5443V48.9697H78.8275V51.1288H82.0394V52.2031ZM85.0473 54.6093H88.5975V55.6943H83.6884V47.874H85.0473V54.6093ZM95.537 51.9882C95.537 52.7545 95.4045 53.4277 95.1395 54.0078C94.8746 54.5842 94.495 55.0283 94.0009 55.3398C93.5103 55.6477 92.9446 55.8017 92.3036 55.8017C91.6698 55.8017 91.1041 55.6477 90.6063 55.3398C90.1122 55.0283 89.7291 54.586 89.4569 54.0131C89.1884 53.4402 89.0523 52.7796 89.0487 52.0312V51.5908C89.0487 50.8281 89.183 50.1549 89.4516 49.5712C89.7237 48.9876 90.105 48.5418 90.5956 48.2338C91.0897 47.9223 91.6555 47.7665 92.2929 47.7665C92.9302 47.7665 93.4942 47.9205 93.9848 48.2285C94.4789 48.5328 94.8602 48.9732 95.1288 49.5497C95.3974 50.1227 95.5334 50.7905 95.537 51.5532V51.9882ZM94.1781 51.58C94.1781 50.7135 94.0134 50.0493 93.684 49.5873C93.3581 49.1254 92.8944 48.8945 92.2929 48.8945C91.7056 48.8945 91.2455 49.1254 90.9125 49.5873C90.5831 50.0457 90.4148 50.6956 90.4076 51.537V51.9882C90.4076 52.8476 90.5741 53.5118 90.9071 53.9809C91.2437 54.45 91.7092 54.6845 92.3036 54.6845C92.9052 54.6845 93.3671 54.4553 93.6893 53.997C94.0152 53.5387 94.1781 52.8691 94.1781 51.9882V51.58ZM98.2494 52.7885V55.6943H96.8905V47.874H99.8822C100.756 47.874 101.449 48.1013 101.961 48.5561C102.476 49.0108 102.734 49.6124 102.734 50.3608C102.734 51.1271 102.482 51.7232 101.977 52.1494C101.476 52.5755 100.772 52.7885 99.8661 52.7885H98.2494ZM98.2494 51.6982H99.8822C100.366 51.6982 100.734 51.5854 100.989 51.3598C101.243 51.1306 101.37 50.8012 101.37 50.3715C101.37 49.949 101.241 49.6124 100.983 49.3618C100.725 49.1075 100.371 48.9768 99.9198 48.9697H98.2494V51.6982ZM108.497 52.2031H105.286V54.6093H109.04V55.6943H103.927V47.874H109.002V48.9697H105.286V51.1288H108.497V52.2031ZM113.02 52.6811H111.505V55.6943H110.146V47.874H112.896C113.799 47.874 114.495 48.0763 114.986 48.4809C115.476 48.8855 115.722 49.471 115.722 50.2372C115.722 50.76 115.594 51.1987 115.34 51.5532C115.09 51.9041 114.739 52.1744 114.287 52.3642L116.044 55.6245V55.6943H114.588L113.02 52.6811ZM111.505 51.5908H112.902C113.36 51.5908 113.718 51.4762 113.976 51.247C114.234 51.0143 114.363 50.6974 114.363 50.2963C114.363 49.8774 114.243 49.5533 114.003 49.3242C113.766 49.095 113.412 48.9768 112.939 48.9697H111.505V51.5908ZM121.098 53.6801C121.098 53.3364 120.976 53.0714 120.733 52.8852C120.493 52.699 120.058 52.511 119.428 52.3212C118.797 52.1314 118.296 51.9202 117.924 51.6874C117.211 51.2398 116.855 50.6562 116.855 49.9365C116.855 49.3063 117.111 48.787 117.623 48.3788C118.139 47.9706 118.806 47.7665 119.626 47.7665C120.171 47.7665 120.656 47.8668 121.082 48.0673C121.508 48.2678 121.843 48.5543 122.086 48.9267C122.33 49.2955 122.452 49.7055 122.452 50.1567H121.098C121.098 49.7485 120.969 49.4298 120.711 49.2006C120.457 48.9679 120.092 48.8515 119.616 48.8515C119.172 48.8515 118.826 48.9464 118.579 49.1362C118.336 49.3259 118.214 49.5909 118.214 49.9311C118.214 50.2175 118.346 50.4575 118.611 50.6508C118.876 50.8406 119.313 51.0268 119.922 51.2094C120.53 51.3884 121.019 51.5943 121.388 51.8271C121.757 52.0563 122.027 52.3212 122.199 52.622C122.371 52.9192 122.457 53.2683 122.457 53.6694C122.457 54.3211 122.206 54.8403 121.705 55.227C121.207 55.6101 120.53 55.8017 119.675 55.8017C119.109 55.8017 118.588 55.6979 118.112 55.4902C117.639 55.2789 117.27 54.9889 117.005 54.6201C116.744 54.2512 116.613 53.8216 116.613 53.331H117.972C117.972 53.775 118.119 54.1188 118.412 54.3622C118.706 54.6057 119.127 54.7275 119.675 54.7275C120.147 54.7275 120.502 54.6326 120.738 54.4428C120.978 54.2495 121.098 53.9952 121.098 53.6801Z" fill="#22353F"/>
<path d="M76.3166 124.266H74.84V115.734H76.3166V124.266ZM84.9064 124.266H83.424L79.6213 118.213V124.266H78.1388V115.734H79.6213L83.4357 121.811V115.734H84.9064V124.266ZM86.6584 124.266V115.734H89.1779C89.9318 115.734 90.5998 115.902 91.1818 116.238C91.7677 116.574 92.2209 117.051 92.5412 117.668C92.8615 118.285 93.0216 118.992 93.0216 119.789V120.217C93.0216 121.026 92.8595 121.736 92.5353 122.35C92.215 122.963 91.756 123.436 91.1584 123.768C90.5646 124.1 89.883 124.266 89.1134 124.266H86.6584ZM88.1408 116.93V123.082H89.1076C89.8849 123.082 90.4806 122.84 90.8947 122.356C91.3127 121.867 91.5256 121.168 91.5334 120.258V119.783C91.5334 118.858 91.3322 118.151 90.9298 117.662C90.5275 117.174 89.9435 116.93 89.1779 116.93H88.1408ZM96.0627 124.266H94.5861V115.734H96.0627V124.266ZM102.766 122.279H99.4611L98.7697 124.266H97.2287L100.451 115.734H101.781L105.01 124.266H103.463L102.766 122.279ZM99.8771 121.084H102.35L101.113 117.545L99.8771 121.084ZM82.2345 136.266H76.4982V135.287L79.34 132.188C79.7502 131.731 80.0412 131.35 80.2131 131.045C80.3888 130.736 80.4767 130.428 80.4767 130.119C80.4767 129.713 80.3615 129.385 80.131 129.135C79.9045 128.885 79.5978 128.76 79.2111 128.76C78.7502 128.76 78.3927 128.901 78.1388 129.182C77.8849 129.463 77.758 129.848 77.758 130.336H76.3341C76.3341 129.817 76.4513 129.35 76.6857 128.936C76.924 128.518 77.2619 128.193 77.6994 127.963C78.1408 127.733 78.6486 127.617 79.2228 127.617C80.0509 127.617 80.7033 127.826 81.1798 128.244C81.6603 128.658 81.9006 129.233 81.9006 129.967C81.9006 130.393 81.7795 130.84 81.5373 131.309C81.299 131.774 80.9064 132.303 80.3595 132.897L78.2736 135.129H82.2345V136.266ZM88.8791 132.674C88.8791 133.901 88.6486 134.826 88.1877 135.451C87.7306 136.072 87.0334 136.383 86.0959 136.383C85.174 136.383 84.4787 136.08 84.0099 135.475C83.5451 134.865 83.3068 133.965 83.2951 132.774V131.297C83.2951 130.07 83.5236 129.151 83.9806 128.537C84.4416 127.924 85.1427 127.617 86.0841 127.617C87.0177 127.617 87.7131 127.916 88.1701 128.514C88.631 129.111 88.8673 130.006 88.8791 131.197V132.674ZM87.4552 131.08C87.4552 130.279 87.3459 129.693 87.1271 129.322C86.9084 128.947 86.5607 128.76 86.0841 128.76C85.6193 128.76 85.2775 128.938 85.0588 129.293C84.84 129.645 84.7248 130.195 84.7131 130.945V132.879C84.7131 133.676 84.8244 134.27 85.047 134.66C85.2697 135.051 85.6193 135.246 86.0959 135.246C86.5529 135.246 86.8908 135.067 87.1095 134.707C87.3283 134.344 87.4435 133.777 87.4552 133.008V131.08ZM93.9943 136.266H92.5763V129.416L90.4845 130.131V128.93L93.8127 127.705H93.9943V136.266ZM100.996 132.697C100.52 133.201 99.9631 133.453 99.3263 133.453C98.5763 133.453 97.9787 133.192 97.5334 132.668C97.0881 132.141 96.8654 131.449 96.8654 130.594C96.8654 130.031 96.9787 129.522 97.2052 129.065C97.4318 128.608 97.7541 128.252 98.172 127.998C98.59 127.744 99.0744 127.617 99.6252 127.617C100.485 127.617 101.166 127.938 101.67 128.578C102.174 129.219 102.426 130.076 102.426 131.151V131.549C102.426 133.088 102.078 134.262 101.383 135.07C100.688 135.879 99.6506 136.289 98.2716 136.301H98.1017V135.123H98.3068C99.1466 135.111 99.7912 134.91 100.24 134.52C100.69 134.125 100.942 133.518 100.996 132.697ZM99.6252 132.34C99.9103 132.34 100.178 132.258 100.428 132.094C100.678 131.93 100.871 131.703 101.008 131.414V130.858C101.008 130.229 100.879 129.723 100.621 129.34C100.363 128.957 100.029 128.766 99.6193 128.766C99.2091 128.766 98.881 128.936 98.6349 129.276C98.3927 129.611 98.2716 130.037 98.2716 130.553C98.2716 131.088 98.3947 131.52 98.6408 131.848C98.8869 132.176 99.215 132.34 99.6252 132.34Z" fill="#22353F"/>
<path d="M38.74 64.5342H139.051" stroke="#BBC3C6" stroke-width="2"/>
<path d="M39.5459 108.431H139.857" stroke="#BBC3C6" stroke-width="2"/>
<path d="M47.9551 90.8359L49.9238 81.2031H52.1299L49.1768 94H47.0498L44.6152 84.6572L42.1279 94H39.9922L37.0391 81.2031H39.2451L41.2314 90.8184L43.6748 81.2031H45.5381L47.9551 90.8359ZM61.2354 88.2871H55.9795V92.2246H62.123V94H53.7559V81.2031H62.0615V82.9961H55.9795V86.5293H61.2354V88.2871ZM63.9336 94V81.2031H68.3193C69.7666 81.2031 70.8682 81.4932 71.624 82.0732C72.3799 82.6533 72.7578 83.5176 72.7578 84.666C72.7578 85.252 72.5996 85.7793 72.2832 86.248C71.9668 86.7168 71.5039 87.0801 70.8945 87.3379C71.5859 87.5254 72.1191 87.8799 72.4941 88.4014C72.875 88.917 73.0654 89.5381 73.0654 90.2646C73.0654 91.4658 72.6787 92.3887 71.9053 93.0332C71.1377 93.6777 70.0361 94 68.6006 94H63.9336ZM66.1572 88.2256V92.2246H68.627C69.3242 92.2246 69.8691 92.0518 70.2617 91.7061C70.6543 91.3604 70.8506 90.8799 70.8506 90.2646C70.8506 88.9346 70.1709 88.2549 68.8115 88.2256H66.1572ZM66.1572 86.5908H68.3369C69.0283 86.5908 69.5674 86.4355 69.9541 86.125C70.3467 85.8086 70.543 85.3633 70.543 84.7891C70.543 84.1562 70.3613 83.6992 69.998 83.418C69.6406 83.1367 69.0811 82.9961 68.3193 82.9961H66.1572V86.5908ZM79.7715 94V81.2031H83.5508C84.6816 81.2031 85.6836 81.4551 86.5566 81.959C87.4355 82.4629 88.1152 83.1777 88.5957 84.1035C89.0762 85.0293 89.3164 86.0898 89.3164 87.2852V87.9268C89.3164 89.1396 89.0732 90.2061 88.5869 91.126C88.1064 92.0459 87.418 92.7549 86.5215 93.2529C85.6309 93.751 84.6084 94 83.4541 94H79.7715ZM81.9951 82.9961V92.2246H83.4453C84.6113 92.2246 85.5049 91.8613 86.126 91.1348C86.7529 90.4023 87.0723 89.3535 87.084 87.9883V87.2764C87.084 85.8877 86.7822 84.8271 86.1787 84.0947C85.5752 83.3623 84.6992 82.9961 83.5508 82.9961H81.9951ZM99.0107 88.2871H93.7549V92.2246H99.8984V94H91.5312V81.2031H99.8369V82.9961H93.7549V86.5293H99.0107V88.2871ZM108.397 90.7041C108.397 90.1416 108.198 89.708 107.8 89.4033C107.407 89.0986 106.695 88.791 105.664 88.4805C104.633 88.1699 103.812 87.8242 103.203 87.4434C102.037 86.7109 101.454 85.7559 101.454 84.5781C101.454 83.5469 101.873 82.6973 102.711 82.0293C103.555 81.3613 104.647 81.0273 105.989 81.0273C106.88 81.0273 107.674 81.1914 108.371 81.5195C109.068 81.8477 109.616 82.3164 110.015 82.9258C110.413 83.5293 110.612 84.2002 110.612 84.9385H108.397C108.397 84.2705 108.187 83.749 107.765 83.374C107.349 82.9932 106.751 82.8027 105.972 82.8027C105.245 82.8027 104.68 82.958 104.275 83.2686C103.877 83.5791 103.678 84.0127 103.678 84.5693C103.678 85.0381 103.895 85.4307 104.328 85.7471C104.762 86.0576 105.477 86.3623 106.473 86.6611C107.469 86.9541 108.269 87.291 108.872 87.6719C109.476 88.0469 109.918 88.4805 110.199 88.9727C110.48 89.459 110.621 90.0303 110.621 90.6865C110.621 91.7529 110.211 92.6025 109.391 93.2354C108.576 93.8623 107.469 94.1758 106.068 94.1758C105.143 94.1758 104.29 94.0059 103.511 93.666C102.737 93.3203 102.134 92.8457 101.7 92.2422C101.272 91.6387 101.059 90.9355 101.059 90.1328H103.282C103.282 90.8594 103.522 91.4219 104.003 91.8203C104.483 92.2188 105.172 92.418 106.068 92.418C106.842 92.418 107.422 92.2627 107.809 91.9521C108.201 91.6357 108.397 91.2197 108.397 90.7041ZM114.919 94H112.704V81.2031H114.919V94ZM127.461 92.3389C126.998 92.9424 126.356 93.3994 125.536 93.71C124.716 94.0205 123.784 94.1758 122.741 94.1758C121.669 94.1758 120.72 93.9326 119.894 93.4463C119.067 92.96 118.429 92.2656 117.978 91.3633C117.532 90.4551 117.301 89.3975 117.283 88.1904V87.1885C117.283 85.2549 117.746 83.7461 118.672 82.6621C119.598 81.5723 120.89 81.0273 122.548 81.0273C123.972 81.0273 125.103 81.3789 125.94 82.082C126.778 82.7852 127.282 83.7988 127.452 85.123H125.272C125.026 83.582 124.133 82.8115 122.592 82.8115C121.596 82.8115 120.837 83.1719 120.315 83.8926C119.8 84.6074 119.533 85.6592 119.516 87.0479V88.0322C119.516 89.415 119.806 90.4902 120.386 91.2578C120.972 92.0195 121.783 92.4004 122.82 92.4004C123.957 92.4004 124.766 92.1426 125.246 91.627V89.1221H122.609V87.4346H127.461V92.3389ZM140.056 94H137.832L132.128 84.9209V94H129.904V81.2031H132.128L137.85 90.3174V81.2031H140.056V94Z" fill="white"/>
</svg>
