<svg width="133" height="44" viewBox="0 0 133 44" fill="none" xmlns="http://www.w3.org/2000/svg">
<rect width="133" height="44" fill="white"/>
<path d="M13.1816 32.9863C15.6108 32.9863 17.8151 32.4615 19.7944 31.4121C21.7738 30.3626 23.3033 28.9083 24.3829 27.0492L19.412 24.553C18.5573 25.5725 17.6651 26.3146 16.7354 26.7794C15.8207 27.2441 14.7636 27.4765 13.5639 27.4765C11.6445 27.4765 10.1001 26.9443 8.93046 25.8798C7.76084 24.8153 7.17604 23.406 7.17604 21.6519H24.8328C24.8777 21.2621 24.9002 20.9997 24.9002 20.8648C24.9152 20.7149 24.9227 20.5424 24.9227 20.3476C24.9227 17.9938 24.4129 15.9322 23.3932 14.1631C22.3886 12.394 20.979 11.0147 19.1646 10.0252C17.3652 9.02066 15.2659 8.5184 12.8667 8.5184C10.4675 8.5184 8.30067 9.06563 6.3663 10.1601C4.44692 11.2396 2.91742 12.7013 1.7778 14.5454C0.638173 16.3895 0.0683594 18.4585 0.0683594 20.7524C0.0683594 23.0762 0.638173 25.1602 1.7778 27.0043C2.93243 28.8484 4.49941 30.3101 6.47876 31.3896C8.45812 32.4541 10.6924 32.9863 13.1816 32.9863ZM7.42345 17.8288C7.5734 16.4944 8.12823 15.445 9.08791 14.6804C10.0476 13.9157 11.2772 13.5334 12.7767 13.5334C14.2013 13.5334 15.3859 13.9157 16.3305 14.6804C17.2902 15.445 17.8901 16.4944 18.13 17.8288H7.42345ZM31.0657 43.9609H37.9709V29.2307C38.9906 30.4301 40.1977 31.3596 41.5922 32.0193C42.9868 32.6639 44.4713 32.9863 46.0458 32.9863C48.2051 32.9863 50.1394 32.4541 51.8489 31.3896C53.5733 30.3101 54.9304 28.8484 55.92 27.0043C56.9097 25.1452 57.4046 23.0612 57.4046 20.7524C57.4046 18.4135 56.9023 16.322 55.8976 14.478C54.9079 12.6339 53.5434 11.1796 51.8039 10.1151C50.0795 9.05064 48.1076 8.5184 45.8883 8.5184C44.2989 8.5184 42.8144 8.83325 41.4348 9.46294C40.0552 10.0777 38.9006 10.9397 37.9709 12.0492V9.23805H31.0657V43.9609ZM43.9989 27.1167C42.1995 27.1167 40.715 26.5245 39.5454 25.3401C38.3758 24.1407 37.791 22.6189 37.791 20.7748C37.791 18.9308 38.3758 17.409 39.5454 16.2096C40.73 14.9952 42.2145 14.388 43.9989 14.388C45.7683 14.388 47.2304 14.9952 48.385 16.2096C49.5546 17.409 50.1394 18.9383 50.1394 20.7973C50.1394 22.6414 49.5622 24.1557 48.4075 25.3401C47.2529 26.5245 45.7834 27.1167 43.9989 27.1167ZM71.4267 32.9863C72.3563 32.9863 73.301 32.8663 74.2607 32.6265C75.2354 32.3866 76.1126 32.0567 76.8924 31.637L75.1605 26.1047C74.5156 26.5845 73.8259 26.8244 73.0911 26.8244C71.7416 26.8244 71.0668 25.9398 71.0668 24.1707V14.478H76.1276V9.23805H71.0668V0.60231H64.1615V9.23805H61.0801V14.478H64.1615V24.6654C64.1615 27.2891 64.7988 29.3356 66.0734 30.8049C67.3629 32.2591 69.1474 32.9863 71.4267 32.9863ZM94.3315 32.9863C96.8807 32.9863 99.1749 32.4691 101.214 31.4346C103.254 30.3851 104.866 28.9458 106.05 27.1167C107.25 25.2726 107.849 23.1511 107.849 20.7524C107.849 18.3536 107.25 16.2396 106.05 14.4105C104.866 12.5664 103.254 11.1271 101.214 10.0926C99.1749 9.04315 96.8807 8.5184 94.3315 8.5184C91.7974 8.5184 89.5031 9.04315 87.4488 10.0926C85.4095 11.1271 83.79 12.5664 82.5904 14.4105C81.4058 16.2396 80.8134 18.3536 80.8134 20.7524C80.8134 23.1511 81.4058 25.2726 82.5904 27.1167C83.79 28.9458 85.4095 30.3851 87.4488 31.4346C89.5031 32.4691 91.7974 32.9863 94.3315 32.9863ZM94.3315 27.0942C93.1619 27.0942 92.0972 26.8244 91.1376 26.2846C90.1929 25.7449 89.4431 25.0028 88.8883 24.0582C88.3335 23.0987 88.0561 21.9968 88.0561 20.7524C88.0561 19.5079 88.3335 18.4135 88.8883 17.469C89.4431 16.5095 90.1929 15.7598 91.1376 15.2201C92.0972 14.6804 93.1619 14.4105 94.3315 14.4105C95.5161 14.4105 96.5808 14.6804 97.5255 15.2201C98.4854 15.7598 99.2423 16.5095 99.7968 17.469C100.367 18.4135 100.652 19.5079 100.652 20.7524C100.652 21.9968 100.367 23.0987 99.7968 24.0582C99.2423 25.0028 98.4854 25.7449 97.5255 26.2846C96.5808 26.8244 95.5161 27.0942 94.3315 27.0942ZM113.875 32.2667H120.781V19.403C120.781 18.5484 121.028 17.7538 121.523 17.0192C122.033 16.2695 122.686 15.6623 123.48 15.1976C124.289 14.7329 125.144 14.5004 126.044 14.5004C127.348 14.5004 128.579 14.8752 129.733 15.6249L132.612 9.80027C132.012 9.42546 131.278 9.1181 130.407 8.87822C129.553 8.63835 128.72 8.5184 127.911 8.5184C126.487 8.5184 125.152 8.87073 123.907 9.57538C122.678 10.265 121.635 11.2545 120.781 12.5439V9.23805H113.875V32.2667Z" fill="#A2A2A2"/>
</svg>
