<svg width="121" height="40" viewBox="0 0 121 40" fill="none" xmlns="http://www.w3.org/2000/svg">
<path d="M51.1902 4.32C50.2702 4.32 49.3902 4.42 48.5502 4.62C47.7102 4.82 46.9302 5.11 46.2102 5.49L45.3402 2.61C45.6602 2.43 46.0502 2.25 46.5102 2.07C46.9702 1.89 47.4602 1.73 47.9802 1.59C48.5002 1.45 49.0302 1.34 49.5702 1.26C50.1302 1.18 50.6802 1.14 51.2202 1.14C53.5402 1.14 55.2402 1.65 56.3202 2.67C57.4002 3.69 57.9402 5.04 57.9402 6.72C57.9402 7.5 57.7802 8.28 57.4602 9.06C57.1402 9.82 56.7102 10.58 56.1702 11.34C55.6502 12.08 55.0402 12.82 54.3402 13.56C53.6602 14.3 52.9602 15.03 52.2402 15.75L50.3502 17.64H58.4802V21H44.6802V18.45L49.4502 13.56C50.1902 12.8 50.8402 12.12 51.4002 11.52C51.9802 10.9 52.4702 10.33 52.8702 9.81C53.2702 9.27 53.5702 8.76 53.7702 8.28C53.9902 7.78 54.1002 7.26 54.1002 6.72C54.1002 5.96 53.8602 5.37 53.3802 4.95C52.9002 4.53 52.1702 4.32 51.1902 4.32ZM75.2755 3.6C73.2155 3.6 71.5955 4.23 70.4155 5.49C69.2555 6.73 68.6755 8.6 68.6755 11.1C68.6755 12.16 68.8055 13.12 69.0655 13.98C69.3255 14.84 69.6855 15.58 70.1455 16.2C70.6255 16.8 71.1755 17.27 71.7955 17.61C72.4355 17.93 73.1255 18.09 73.8655 18.09C74.4055 18.09 74.9155 18.01 75.3955 17.85C75.8755 17.67 76.2955 17.41 76.6555 17.07C77.0155 16.71 77.2955 16.27 77.4955 15.75C77.7155 15.21 77.8255 14.59 77.8255 13.89V12.69H73.9255V9.45H81.6055V21H78.2455L77.8255 18.63C77.4055 19.37 76.8155 20 76.0555 20.52C75.3155 21.02 74.3455 21.27 73.1455 21.27C71.9055 21.27 70.7655 21.03 69.7255 20.55C68.7055 20.05 67.8255 19.36 67.0855 18.48C66.3455 17.58 65.7755 16.51 65.3755 15.27C64.9755 14.01 64.7755 12.62 64.7755 11.1C64.7755 9.42 65.0055 7.92 65.4655 6.6C65.9455 5.28 66.6255 4.17 67.5055 3.27C68.4055 2.35 69.4855 1.65 70.7455 1.17C72.0055 0.669998 73.4155 0.419998 74.9755 0.419998C77.1355 0.419998 79.0755 0.869999 80.7955 1.77L79.8355 4.74C79.1355 4.36 78.3855 4.08 77.5855 3.9C76.8055 3.7 76.0355 3.6 75.2755 3.6ZM99.5223 16.47H92.2023L90.6723 21H86.5923L93.8823 0.779998H97.8423L105.132 21H101.052L99.5223 16.47ZM93.3423 13.23H98.3823L97.3923 10.2L95.8923 5.04H95.8323L94.3323 10.2L93.3423 13.23ZM118.74 15.03C118.74 17.23 118.24 18.84 117.24 19.86C116.26 20.86 114.92 21.36 113.22 21.36C112.36 21.36 111.53 21.24 110.73 21C109.93 20.78 109.3 20.52 108.84 20.22L109.77 17.07C110.21 17.35 110.68 17.58 111.18 17.76C111.7 17.92 112.28 18 112.92 18C113.56 18 114.04 17.78 114.36 17.34C114.68 16.88 114.84 16.11 114.84 15.03V0.779998H118.74V15.03Z" fill="#A2A2A2"/>
<path d="M48.5699 27.9774C49.9699 27.9774 50.9899 28.2524 51.6299 28.8024C52.2699 29.3524 52.5899 30.1274 52.5899 31.1274C52.5899 31.7174 52.4549 32.2724 52.1849 32.7924C51.9249 33.3024 51.4799 33.7174 50.8499 34.0374C50.2299 34.3574 49.3849 34.5174 48.3149 34.5174H47.0849V38.6874H45.7349V27.9774H48.5699ZM48.4499 29.1324H47.0849V33.3624H48.1649C49.1849 33.3624 49.9449 33.1974 50.4449 32.8674C50.9449 32.5374 51.1949 31.9774 51.1949 31.1874C51.1949 30.4974 50.9749 29.9824 50.5349 29.6424C50.0949 29.3024 49.3999 29.1324 48.4499 29.1324ZM58.072 27.9774C59.402 27.9774 60.382 28.2324 61.012 28.7424C61.652 29.2424 61.972 30.0024 61.972 31.0224C61.972 31.5924 61.867 32.0674 61.657 32.4474C61.447 32.8274 61.177 33.1324 60.847 33.3624C60.527 33.5824 60.187 33.7574 59.827 33.8874L62.767 38.6874H61.192L58.597 34.2624H56.467V38.6874H55.117V27.9774H58.072ZM57.997 29.1474H56.467V33.1224H58.072C58.942 33.1224 59.577 32.9524 59.977 32.6124C60.377 32.2624 60.577 31.7524 60.577 31.0824C60.577 30.3824 60.367 29.8874 59.947 29.5974C59.527 29.2974 58.877 29.1474 57.997 29.1474ZM74.093 33.3174C74.093 34.4274 73.903 35.3974 73.523 36.2274C73.153 37.0474 72.603 37.6874 71.873 38.1474C71.143 38.6074 70.238 38.8374 69.158 38.8374C68.048 38.8374 67.123 38.6074 66.383 38.1474C65.653 37.6874 65.108 37.0424 64.748 36.2124C64.388 35.3824 64.208 34.4124 64.208 33.3024C64.208 32.2024 64.388 31.2424 64.748 30.4224C65.108 29.6024 65.653 28.9624 66.383 28.5024C67.123 28.0424 68.053 27.8124 69.173 27.8124C70.243 27.8124 71.143 28.0424 71.873 28.5024C72.603 28.9524 73.153 29.5924 73.523 30.4224C73.903 31.2424 74.093 32.2074 74.093 33.3174ZM65.633 33.3174C65.633 34.6674 65.918 35.7324 66.488 36.5124C67.058 37.2824 67.948 37.6674 69.158 37.6674C70.378 37.6674 71.268 37.2824 71.828 36.5124C72.388 35.7324 72.668 34.6674 72.668 33.3174C72.668 31.9674 72.388 30.9124 71.828 30.1524C71.268 29.3824 70.383 28.9974 69.173 28.9974C67.963 28.9974 67.068 29.3824 66.488 30.1524C65.918 30.9124 65.633 31.9674 65.633 33.3174ZM79.6018 27.9774C81.0018 27.9774 82.0218 28.2524 82.6618 28.8024C83.3018 29.3524 83.6218 30.1274 83.6218 31.1274C83.6218 31.7174 83.4868 32.2724 83.2168 32.7924C82.9568 33.3024 82.5118 33.7174 81.8818 34.0374C81.2618 34.3574 80.4168 34.5174 79.3468 34.5174H78.1168V38.6874H76.7668V27.9774H79.6018ZM79.4818 29.1324H78.1168V33.3624H79.1968C80.2168 33.3624 80.9768 33.1974 81.4768 32.8674C81.9768 32.5374 82.2268 31.9774 82.2268 31.1874C82.2268 30.4974 82.0068 29.9824 81.5668 29.6424C81.1268 29.3024 80.4318 29.1324 79.4818 29.1324ZM92.1338 38.6874H86.1488V27.9774H92.1338V29.1624H87.4988V32.5074H91.8638V33.6774H87.4988V37.5024H92.1338V38.6874ZM97.7388 27.9774C99.0688 27.9774 100.049 28.2324 100.679 28.7424C101.319 29.2424 101.639 30.0024 101.639 31.0224C101.639 31.5924 101.534 32.0674 101.324 32.4474C101.114 32.8274 100.844 33.1324 100.514 33.3624C100.194 33.5824 99.8538 33.7574 99.4938 33.8874L102.434 38.6874H100.859L98.2638 34.2624H96.1338V38.6874H94.7838V27.9774H97.7388ZM97.6638 29.1474H96.1338V33.1224H97.7388C98.6088 33.1224 99.2438 32.9524 99.6438 32.6124C100.044 32.2624 100.244 31.7524 100.244 31.0824C100.244 30.3824 100.034 29.8874 99.6138 29.5974C99.1938 29.2974 98.5438 29.1474 97.6638 29.1474ZM107.805 38.6874H106.455V29.1624H103.11V27.9774H111.135V29.1624H107.805V38.6874ZM115.84 33.2424L118.63 27.9774H120.085L116.515 34.5324V38.6874H115.165V34.5924L111.595 27.9774H113.065L115.84 33.2424Z" fill="#A2A2A2"/>
<path d="M11.0598 3.31351H22.1332L29.5155 13.9162L27.9336 19.2175L19.4967 7.02451H7.896L11.0598 3.31351Z" fill="#A2A2A2"/>
<path d="M0.25 27.4346V16.3018L10.7961 8.88L16.0692 10.4703L3.94115 18.9525V30.6154L0.25 27.4346Z" fill="#A2A2A2"/>
<path d="M25.2971 39.3625L14.2236 39.3626L6.84131 28.7599L8.42323 23.4586L16.8602 35.6516H28.4609L25.2971 39.3625Z" fill="#A2A2A2"/>
<path d="M36.1068 14.1813V25.314L25.5606 32.7359L20.2876 31.1455L32.4156 22.6634V11.0005L36.1068 14.1813Z" fill="#A2A2A2"/>
<path d="M16.8602 17.6271H14.751V19.7476H16.8602V17.6271Z" fill="#A2A2A2"/>
<path d="M21.0785 17.6271H18.9692V19.7476H21.0785V17.6271Z" fill="#A2A2A2"/>
<path d="M21.0785 21.8682H18.9692V23.9887H21.0785V21.8682Z" fill="#A2A2A2"/>
<path d="M16.8602 21.8682H14.751V23.9887H16.8602V21.8682Z" fill="#A2A2A2"/>
</svg>
