<svg width="140" height="36" viewBox="0 0 140 36" fill="none" xmlns="http://www.w3.org/2000/svg">
<g clip-path="url(#clip0)">
<rect width="140" height="36" fill="white"/>
<path d="M31.9 6.19902C29.5406 3.49061 26.3519 1.53771 22.7711 0.608066C19.1903 -0.321583 15.3927 -0.182479 11.899 1.0063C8.40518 2.19509 5.38623 4.37536 3.25598 7.24823C1.12573 10.1211 -0.0115349 13.5459 8.82113e-05 17.0532L9.89392 17.024C9.88868 15.4445 10.4008 13.9022 11.3602 12.6084C12.3195 11.3146 13.6791 10.3328 15.2525 9.7974C16.8258 9.26204 18.5361 9.1994 20.1486 9.61805C21.7612 10.0367 23.1972 10.9162 24.2597 12.1359L31.9 6.19902Z" fill="#A2A2A2"/>
<path d="M31.9 29.801C29.5406 32.5094 26.3519 34.4623 22.7711 35.3919C19.1903 36.3216 15.3927 36.1825 11.899 34.9937C8.40518 33.8049 5.38623 31.6246 3.25598 28.7518C1.12573 25.8789 -0.0115349 22.4541 8.82113e-05 18.9468L9.89392 18.976C9.88868 20.5555 10.4008 22.0978 11.3602 23.3916C12.3195 24.6854 13.6791 25.6672 15.2525 26.2026C16.8258 26.738 18.5361 26.8006 20.1486 26.3819C21.7612 25.9633 23.1972 25.0838 24.2597 23.8641L31.9 29.801Z" fill="#A2A2A2"/>
<path d="M52.0897 21.2188C51.9713 22.6133 51.511 23.8529 50.7089 24.9375C49.9159 26.0221 48.8677 26.8561 47.5644 27.4395C46.2701 28.0228 44.8664 28.3008 43.3534 28.2734C41.2753 28.2279 39.6392 27.5579 38.4452 26.2637C37.2512 24.9694 36.5995 23.2148 36.4901 21C36.4081 19.5234 36.5676 17.9147 36.9687 16.1738C37.3788 14.4329 38.0396 12.9199 38.9511 11.6348C39.8716 10.3405 40.9517 9.37435 42.1913 8.73633C43.44 8.08919 44.8026 7.7793 46.2792 7.80664C48.4485 7.8431 50.162 8.49479 51.4198 9.76172C52.6867 11.0286 53.3749 12.7741 53.4843 14.998L48.8222 14.9844C48.8404 13.7721 48.6216 12.9062 48.1659 12.3867C47.7102 11.8672 46.9901 11.5892 46.0058 11.5527C43.5448 11.4707 42.0455 13.3848 41.5077 17.2949C41.2616 19.0632 41.1386 20.3255 41.1386 21.082C41.093 23.3242 41.9224 24.4772 43.6269 24.541C44.7297 24.5775 45.6093 24.3086 46.2655 23.7344C46.9218 23.151 47.341 22.3307 47.5233 21.2734L52.0897 21.2188ZM58.3651 28H53.6894L57.1483 8.09375H61.8104L58.3651 28ZM70.2187 20.9727H67.621L66.3905 28H61.7147L65.1601 8.09375L72.1874 8.10742C74.4387 8.10742 76.1705 8.63607 77.3827 9.69336C78.6041 10.7415 79.1509 12.1771 79.0233 14C78.9231 15.4401 78.5084 16.6341 77.7792 17.582C77.05 18.5208 76.0292 19.2637 74.7167 19.8105L77.3964 27.7676V28H72.4061L70.2187 20.9727ZM68.2499 17.2676L70.9843 17.2949C71.7317 17.2949 72.3788 17.1126 72.9257 16.748C73.4817 16.3835 73.8782 15.8867 74.1151 15.2578C74.3521 14.6198 74.4205 14.0046 74.3202 13.4121C74.1379 12.4004 73.4908 11.8672 72.3788 11.8125L69.2069 11.7988L68.2499 17.2676ZM96.2499 21.2188C96.1314 22.6133 95.6711 23.8529 94.869 24.9375C94.0761 26.0221 93.0279 26.8561 91.7245 27.4395C90.4302 28.0228 89.0266 28.3008 87.5136 28.2734C85.4354 28.2279 83.7994 27.5579 82.6054 26.2637C81.4114 24.9694 80.7597 23.2148 80.6503 21C80.5683 19.5234 80.7278 17.9147 81.1288 16.1738C81.539 14.4329 82.1998 12.9199 83.1112 11.6348C84.0318 10.3405 85.1119 9.37435 86.3515 8.73633C87.6002 8.08919 88.9628 7.7793 90.4394 7.80664C92.6086 7.8431 94.3222 8.49479 95.58 9.76172C96.8469 11.0286 97.5351 12.7741 97.6444 14.998L92.9823 14.9844C93.0006 13.7721 92.7818 12.9062 92.3261 12.3867C91.8703 11.8672 91.1503 11.5892 90.1659 11.5527C87.705 11.4707 86.2056 13.3848 85.6679 17.2949C85.4218 19.0632 85.2987 20.3255 85.2987 21.082C85.2532 23.3242 86.0826 24.4772 87.787 24.541C88.8899 24.5775 89.7694 24.3086 90.4257 23.7344C91.0819 23.151 91.5012 22.3307 91.6835 21.2734L96.2499 21.2188ZM102.854 24.3086H110.961L110.318 28H97.5351L100.98 8.09375H105.67L102.854 24.3086ZM117.4 28H112.725L116.184 8.09375H120.846L117.4 28ZM128.967 28.2734C126.898 28.2279 125.239 27.5443 123.99 26.2227C122.742 24.901 122.035 23.1328 121.871 20.918C121.78 19.8242 121.867 18.5391 122.131 17.0625C122.395 15.5768 122.865 14.2096 123.539 12.9609C124.214 11.7122 125.057 10.6732 126.068 9.84375C127.764 8.44922 129.714 7.77474 131.92 7.82031C133.278 7.84766 134.463 8.16211 135.475 8.76367C136.495 9.35612 137.311 10.2129 137.922 11.334C138.533 12.4551 138.888 13.7311 138.988 15.1621C139.061 16.1738 138.997 17.3268 138.797 18.6211C138.605 19.9062 138.245 21.1367 137.717 22.3125C137.197 23.4792 136.523 24.5091 135.693 25.4023C134.864 26.2956 133.884 27.0065 132.754 27.5352C131.633 28.0547 130.37 28.3008 128.967 28.2734ZM134.299 15.1211C134.208 12.8424 133.324 11.6576 131.646 11.5664C130.352 11.5026 129.281 12.0176 128.434 13.1113C127.586 14.196 127.025 15.8001 126.752 17.9238C126.579 19.2363 126.515 20.2526 126.561 20.9727C126.652 23.2878 127.545 24.4772 129.24 24.541C130.352 24.5957 131.309 24.1992 132.111 23.3516C132.913 22.4948 133.492 21.2552 133.848 19.6328C134.203 18.0013 134.354 16.4974 134.299 15.1211Z" fill="#A2A2A2"/>
</g>
<defs>
<clipPath id="clip0">
<rect width="140" height="36" fill="white"/>
</clipPath>
</defs>
</svg>
