<svg width="175" height="175" viewBox="0 0 175 175" fill="none" xmlns="http://www.w3.org/2000/svg">
<circle cx="86.2329" cy="87.5" r="75" fill="#094776" stroke="#094776"/>
<path d="M153.011 86.642C153.011 123.037 123.126 152.562 86.233 152.562C49.3403 152.562 19.4546 123.037 19.4546 86.642C19.4546 50.2471 49.3403 20.7216 86.233 20.7216C123.126 20.7216 153.011 50.2471 153.011 86.642Z" fill="white" stroke="#FCAA00" stroke-width="2"/>
<path d="M12.6126 110.665L0 95.6505L175 95.2215L162.387 111.094L175 126.966H0.788288L12.6126 110.665Z" fill="#FCAA00"/>
<path d="M37.2077 105.129H34.3258V113.077H32.7326V105.129H29.8761V103.835H37.2077V105.129ZM36.6681 109.579C36.6681 108.906 36.8014 108.301 37.068 107.764C37.3346 107.222 37.7091 106.807 38.1916 106.52C38.674 106.228 39.2283 106.082 39.8546 106.082C40.7814 106.082 41.5325 106.38 42.1081 106.977C42.6878 107.573 43.001 108.365 43.0475 109.351L43.0539 109.712C43.0539 110.39 42.9227 110.995 42.6603 111.528C42.4022 112.061 42.0298 112.474 41.5431 112.766C41.0607 113.058 40.5021 113.204 39.8673 113.204C38.8983 113.204 38.1217 112.882 37.5378 112.239C36.958 111.591 36.6681 110.73 36.6681 109.655V109.579ZM38.2106 109.712C38.2106 110.419 38.3566 110.974 38.6486 111.376C38.9406 111.773 39.3468 111.972 39.8673 111.972C40.3878 111.972 40.792 111.769 41.0797 111.363C41.3717 110.957 41.5177 110.362 41.5177 109.579C41.5177 108.885 41.3675 108.335 41.067 107.929C40.7708 107.523 40.3667 107.319 39.8546 107.319C39.3511 107.319 38.9512 107.52 38.6549 107.922C38.3587 108.32 38.2106 108.917 38.2106 109.712ZM50.3727 109.712C50.3727 110.775 50.1315 111.623 49.6491 112.258C49.1667 112.888 48.5192 113.204 47.7067 113.204C46.9534 113.204 46.3504 112.956 45.8976 112.461V115.717H44.3551V106.209H45.777L45.8405 106.907C46.2933 106.357 46.909 106.082 47.6877 106.082C48.5255 106.082 49.1815 106.395 49.6554 107.021C50.1336 107.643 50.3727 108.509 50.3727 109.617V109.712ZM48.8366 109.579C48.8366 108.894 48.699 108.35 48.424 107.948C48.1531 107.546 47.7638 107.345 47.256 107.345C46.6255 107.345 46.1727 107.605 45.8976 108.126V111.172C46.1769 111.706 46.6339 111.972 47.2687 111.972C47.7596 111.972 48.1426 111.775 48.4176 111.382C48.6969 110.984 48.8366 110.383 48.8366 109.579ZM55.5334 111.211C55.5334 110.935 55.4191 110.726 55.1906 110.582C54.9663 110.438 54.5918 110.311 54.067 110.201C53.5423 110.091 53.1043 109.952 52.7531 109.782C51.9829 109.41 51.5978 108.87 51.5978 108.164C51.5978 107.571 51.8475 107.076 52.3468 106.678C52.8462 106.28 53.4809 106.082 54.2511 106.082C55.0721 106.082 55.7344 106.285 56.2379 106.691C56.7458 107.097 56.9997 107.624 56.9997 108.272H55.4572C55.4572 107.975 55.3472 107.73 55.1271 107.535C54.9071 107.336 54.6151 107.237 54.2511 107.237C53.9126 107.237 53.6354 107.315 53.4196 107.472C53.208 107.628 53.1022 107.838 53.1022 108.1C53.1022 108.337 53.2016 108.521 53.4005 108.652C53.5994 108.784 54.0015 108.917 54.6066 109.052C55.2117 109.183 55.6857 109.342 56.0285 109.528C56.3755 109.71 56.6315 109.93 56.7965 110.189C56.9658 110.447 57.0504 110.76 57.0504 111.128C57.0504 111.746 56.7944 112.247 56.2824 112.632C55.7703 113.013 55.0996 113.204 54.2702 113.204C53.7073 113.204 53.2059 113.102 52.7658 112.899C52.3257 112.696 51.9829 112.417 51.7375 112.061C51.492 111.706 51.3693 111.323 51.3693 110.912H52.8673C52.8885 111.276 53.026 111.558 53.2799 111.756C53.5338 111.951 53.8703 112.048 54.2892 112.048C54.6955 112.048 55.0044 111.972 55.216 111.82C55.4276 111.663 55.5334 111.46 55.5334 111.211ZM66.9591 110.925H63.3791L62.63 113.077H60.9606L64.4518 103.835H65.8927L69.3903 113.077H67.7145L66.9591 110.925ZM63.8297 109.63H66.5085L65.1691 105.796L63.8297 109.63ZM76.0045 109.712C76.0045 110.775 75.7633 111.623 75.2809 112.258C74.7985 112.888 74.151 113.204 73.3385 113.204C72.5853 113.204 71.9822 112.956 71.5294 112.461V115.717H69.987V106.209H71.4088L71.4723 106.907C71.9251 106.357 72.5408 106.082 73.3195 106.082C74.1574 106.082 74.8133 106.395 75.2873 107.021C75.7655 107.643 76.0045 108.509 76.0045 109.617V109.712ZM74.4684 109.579C74.4684 108.894 74.3309 108.35 74.0558 107.948C73.785 107.546 73.3957 107.345 72.8878 107.345C72.2573 107.345 71.8045 107.605 71.5294 108.126V111.172C71.8087 111.706 72.2658 111.972 72.9005 111.972C73.3914 111.972 73.7744 111.775 74.0495 111.382C74.3288 110.984 74.4684 110.383 74.4684 109.579ZM83.3297 109.712C83.3297 110.775 83.0885 111.623 82.6061 112.258C82.1237 112.888 81.4762 113.204 80.6637 113.204C79.9105 113.204 79.3074 112.956 78.8546 112.461V115.717H77.3122V106.209H78.734L78.7975 106.907C79.2503 106.357 79.866 106.082 80.6447 106.082C81.4826 106.082 82.1385 106.395 82.6125 107.021C83.0906 107.643 83.3297 108.509 83.3297 109.617V109.712ZM81.7936 109.579C81.7936 108.894 81.6561 108.35 81.381 107.948C81.1102 107.546 80.7209 107.345 80.213 107.345C79.5825 107.345 79.1297 107.605 78.8546 108.126V111.172C79.1339 111.706 79.591 111.972 80.2257 111.972C80.7166 111.972 81.0996 111.775 81.3747 111.382C81.654 110.984 81.7936 110.383 81.7936 109.579ZM88.027 113.077V103.835H90.7565C91.5732 103.835 92.2969 104.016 92.9274 104.38C93.5622 104.744 94.053 105.261 94.4001 105.929C94.7471 106.598 94.9206 107.364 94.9206 108.227V108.69C94.9206 109.566 94.7449 110.337 94.3937 111.001C94.0467 111.665 93.5495 112.177 92.902 112.537C92.2588 112.897 91.5203 113.077 90.6867 113.077H88.027ZM89.633 105.129V111.794H90.6803C91.5225 111.794 92.1678 111.532 92.6164 111.007C93.0692 110.478 93.2998 109.721 93.3083 108.735V108.221C93.3083 107.218 93.0903 106.452 92.6544 105.923C92.2186 105.394 91.5859 105.129 90.7565 105.129H89.633ZM99.3957 113.204C98.4181 113.204 97.6247 112.897 97.0153 112.283C96.4101 111.665 96.1076 110.844 96.1076 109.82V109.63C96.1076 108.944 96.2388 108.333 96.5011 107.795C96.7677 107.254 97.1401 106.833 97.6183 106.532C98.0965 106.232 98.6297 106.082 99.2179 106.082C100.153 106.082 100.875 106.38 101.382 106.977C101.895 107.573 102.151 108.418 102.151 109.509V110.131H97.6628C97.7093 110.698 97.8976 111.147 98.2277 111.477C98.562 111.807 98.9809 111.972 99.4845 111.972C100.191 111.972 100.767 111.687 101.211 111.115L102.043 111.909C101.768 112.319 101.399 112.639 100.938 112.867C100.481 113.092 99.9669 113.204 99.3957 113.204ZM99.2116 107.319C98.7884 107.319 98.4456 107.468 98.1833 107.764C97.9251 108.06 97.7601 108.473 97.6881 109.002H100.627V108.887C100.593 108.371 100.456 107.982 100.215 107.719C99.9733 107.453 99.639 107.319 99.2116 107.319ZM105.686 111.122L107.14 106.209H108.733L106.353 113.077H105.013L102.614 106.209H104.214L105.686 111.122ZM112.637 113.204C111.659 113.204 110.866 112.897 110.257 112.283C109.651 111.665 109.349 110.844 109.349 109.82V109.63C109.349 108.944 109.48 108.333 109.742 107.795C110.009 107.254 110.381 106.833 110.86 106.532C111.338 106.232 111.871 106.082 112.459 106.082C113.394 106.082 114.116 106.38 114.624 106.977C115.136 107.573 115.392 108.418 115.392 109.509V110.131H110.904C110.951 110.698 111.139 111.147 111.469 111.477C111.803 111.807 112.222 111.972 112.726 111.972C113.432 111.972 114.008 111.687 114.452 111.115L115.284 111.909C115.009 112.319 114.641 112.639 114.179 112.867C113.722 113.092 113.208 113.204 112.637 113.204ZM112.453 107.319C112.03 107.319 111.687 107.468 111.424 107.764C111.166 108.06 111.001 108.473 110.929 109.002H113.868V108.887C113.834 108.371 113.697 107.982 113.456 107.719C113.215 107.453 112.88 107.319 112.453 107.319ZM118.236 113.077H116.693V103.327H118.236V113.077ZM119.632 109.579C119.632 108.906 119.765 108.301 120.032 107.764C120.298 107.222 120.673 106.807 121.155 106.52C121.638 106.228 122.192 106.082 122.819 106.082C123.745 106.082 124.496 106.38 125.072 106.977C125.652 107.573 125.965 108.365 126.011 109.351L126.018 109.712C126.018 110.39 125.887 110.995 125.624 111.528C125.366 112.061 124.994 112.474 124.507 112.766C124.025 113.058 123.466 113.204 122.831 113.204C121.862 113.204 121.086 112.882 120.502 112.239C119.922 111.591 119.632 110.73 119.632 109.655V109.579ZM121.174 109.712C121.174 110.419 121.32 110.974 121.612 111.376C121.904 111.773 122.311 111.972 122.831 111.972C123.352 111.972 123.756 111.769 124.044 111.363C124.336 110.957 124.482 110.362 124.482 109.579C124.482 108.885 124.331 108.335 124.031 107.929C123.735 107.523 123.331 107.319 122.819 107.319C122.315 107.319 121.915 107.52 121.619 107.922C121.323 108.32 121.174 108.917 121.174 109.712ZM133.337 109.712C133.337 110.775 133.095 111.623 132.613 112.258C132.131 112.888 131.483 113.204 130.671 113.204C129.917 113.204 129.314 112.956 128.861 112.461V115.717H127.319V106.209H128.741L128.804 106.907C129.257 106.357 129.873 106.082 130.652 106.082C131.489 106.082 132.145 106.395 132.619 107.021C133.097 107.643 133.337 108.509 133.337 109.617V109.712ZM131.8 109.579C131.8 108.894 131.663 108.35 131.388 107.948C131.117 107.546 130.728 107.345 130.22 107.345C129.589 107.345 129.137 107.605 128.861 108.126V111.172C129.141 111.706 129.598 111.972 130.233 111.972C130.723 111.972 131.106 111.775 131.382 111.382C131.661 110.984 131.8 110.383 131.8 109.579ZM137.672 113.204C136.694 113.204 135.901 112.897 135.292 112.283C134.687 111.665 134.384 110.844 134.384 109.82V109.63C134.384 108.944 134.515 108.333 134.777 107.795C135.044 107.254 135.416 106.833 135.895 106.532C136.373 106.232 136.906 106.082 137.494 106.082C138.43 106.082 139.151 106.38 139.659 106.977C140.171 107.573 140.427 108.418 140.427 109.509V110.131H135.939C135.986 110.698 136.174 111.147 136.504 111.477C136.838 111.807 137.257 111.972 137.761 111.972C138.468 111.972 139.043 111.687 139.487 111.115L140.319 111.909C140.044 112.319 139.676 112.639 139.215 112.867C138.757 113.092 138.243 113.204 137.672 113.204ZM137.488 107.319C137.065 107.319 136.722 107.468 136.46 107.764C136.201 108.06 136.036 108.473 135.965 109.002H138.903V108.887C138.87 108.371 138.732 107.982 138.491 107.719C138.25 107.453 137.915 107.319 137.488 107.319ZM145.226 107.618C145.023 107.584 144.813 107.567 144.597 107.567C143.891 107.567 143.415 107.838 143.169 108.379V113.077H141.627V106.209H143.099L143.137 106.977C143.51 106.38 144.026 106.082 144.686 106.082C144.906 106.082 145.088 106.111 145.232 106.17L145.226 107.618Z" fill="white"/>
<path d="M59.7164 49.0248H55.7262V60.0287H53.5201V49.0248H49.565V47.2319H59.7164V49.0248ZM71.3707 53.9643C71.3707 55.2182 71.1539 56.3198 70.7203 57.269C70.2867 58.2123 69.6656 58.9389 68.857 59.4487C68.0543 59.9526 67.1285 60.2045 66.0797 60.2045C65.0426 60.2045 64.1168 59.9526 63.3023 59.4487C62.4937 58.9389 61.8668 58.2153 61.4215 57.2778C60.982 56.3403 60.7594 55.2592 60.7535 54.0346V53.3139C60.7535 52.0659 60.9732 50.9643 61.4127 50.0092C61.858 49.0541 62.482 48.3246 63.2847 47.8207C64.0933 47.311 65.0191 47.0561 66.0621 47.0561C67.1051 47.0561 68.0279 47.308 68.8306 47.812C69.6392 48.31 70.2633 49.0307 70.7027 49.9741C71.1422 50.9116 71.3648 52.0043 71.3707 53.2524V53.9643ZM69.147 53.2963C69.147 51.8784 68.8775 50.7914 68.3385 50.0356C67.8053 49.2797 67.0465 48.9018 66.0621 48.9018C65.1012 48.9018 64.3482 49.2797 63.8033 50.0356C63.2642 50.7856 62.9888 51.8491 62.9771 53.226V53.9643C62.9771 55.3705 63.2496 56.4575 63.7945 57.225C64.3453 57.9926 65.107 58.3764 66.0797 58.3764C67.064 58.3764 67.8199 58.0014 68.3472 57.2514C68.8804 56.5014 69.147 55.4057 69.147 53.9643V53.2963ZM75.8092 55.2739V60.0287H73.5855V47.2319H78.481C79.9107 47.2319 81.0445 47.6039 81.8824 48.3481C82.7262 49.0922 83.148 50.0766 83.148 51.3012C83.148 52.5551 82.7349 53.5307 81.9088 54.228C81.0885 54.9252 79.9371 55.2739 78.4547 55.2739H75.8092ZM75.8092 53.4897H78.481C79.272 53.4897 79.8756 53.3051 80.2916 52.936C80.7076 52.561 80.9156 52.0219 80.9156 51.3188C80.9156 50.6274 80.7047 50.0766 80.2828 49.6664C79.8609 49.2504 79.2808 49.0366 78.5426 49.0248H75.8092V53.4897ZM96.7447 57.0493H91.7877L90.7506 60.0287H88.439L93.273 47.2319H95.2681L100.111 60.0287H97.7906L96.7447 57.0493ZM92.4117 55.2563H96.1207L94.2662 49.9477L92.4117 55.2563ZM103.794 55.2739V60.0287H101.57V47.2319H106.465C107.895 47.2319 109.029 47.6039 109.867 48.3481C110.711 49.0922 111.132 50.0766 111.132 51.3012C111.132 52.5551 110.719 53.5307 109.893 54.228C109.073 54.9252 107.921 55.2739 106.439 55.2739H103.794ZM103.794 53.4897H106.465C107.256 53.4897 107.86 53.3051 108.276 52.936C108.692 52.561 108.9 52.0219 108.9 51.3188C108.9 50.6274 108.689 50.0766 108.267 49.6664C107.845 49.2504 107.265 49.0366 106.527 49.0248H103.794V53.4897ZM115.307 55.2739V60.0287H113.084V47.2319H117.979C119.409 47.2319 120.543 47.6039 121.38 48.3481C122.224 49.0922 122.646 50.0766 122.646 51.3012C122.646 52.5551 122.233 53.5307 121.407 54.228C120.587 54.9252 119.435 55.2739 117.953 55.2739H115.307ZM115.307 53.4897H117.979C118.77 53.4897 119.374 53.3051 119.79 52.936C120.206 52.561 120.414 52.0219 120.414 51.3188C120.414 50.6274 120.203 50.0766 119.781 49.6664C119.359 49.2504 118.779 49.0366 118.041 49.0248H115.307V53.4897Z" fill="#094776"/>
<path d="M38.3853 79.846V67.0491H42.1646C43.2955 67.0491 44.2974 67.3011 45.1705 67.805C46.0494 68.3089 46.7291 69.0237 47.2095 69.9495C47.69 70.8753 47.9302 71.9359 47.9302 73.1312V73.7728C47.9302 74.9857 47.6871 76.0521 47.2007 76.972C46.7203 77.8919 46.0318 78.6009 45.1353 79.0989C44.2447 79.597 43.2222 79.846 42.0679 79.846H38.3853ZM40.6089 68.8421V78.0706H42.0591C43.2252 78.0706 44.1187 77.7073 44.7398 76.9808C45.3668 76.2484 45.6861 75.1995 45.6978 73.8343V73.1224C45.6978 71.7337 45.3961 70.6732 44.7925 69.9407C44.189 69.2083 43.313 68.8421 42.1646 68.8421H40.6089ZM57.6246 74.1331H52.3687V78.0706H58.5123V79.846H50.1451V67.0491H58.4507V68.8421H52.3687V72.3753H57.6246V74.1331ZM64.8316 77.0599L68.0836 67.0491H70.5269L65.9214 79.846H63.7681L59.1802 67.0491H61.6148L64.8316 77.0599ZM79.4566 74.1331H74.2007V78.0706H80.3443V79.846H71.9771V67.0491H80.2828V68.8421H74.2007V72.3753H79.4566V74.1331ZM84.3785 78.0706H90.188V79.846H82.1548V67.0491H84.3785V78.0706ZM101.544 73.7816C101.544 75.0355 101.327 76.137 100.893 77.0862C100.46 78.0296 99.8384 78.7562 99.0298 79.2659C98.2271 79.7698 97.3013 80.0218 96.2525 80.0218C95.2154 80.0218 94.2896 79.7698 93.4752 79.2659C92.6666 78.7562 92.0396 78.0325 91.5943 77.095C91.1548 76.1575 90.9322 75.0765 90.9263 73.8519V73.1312C90.9263 71.8831 91.1461 70.7816 91.5855 69.8265C92.0308 68.8714 92.6548 68.1419 93.4576 67.638C94.2662 67.1282 95.192 66.8734 96.2349 66.8734C97.2779 66.8734 98.2007 67.1253 99.0035 67.6292C99.8121 68.1273 100.436 68.848 100.876 69.7913C101.315 70.7288 101.538 71.8216 101.544 73.0696V73.7816ZM99.3199 73.1136C99.3199 71.6956 99.0504 70.6087 98.5113 69.8528C97.9781 69.097 97.2193 68.7191 96.2349 68.7191C95.274 68.7191 94.5211 69.097 93.9761 69.8528C93.4371 70.6028 93.1617 71.6663 93.15 73.0433V73.7816C93.15 75.1878 93.4224 76.2747 93.9673 77.0423C94.5181 77.8099 95.2798 78.1937 96.2525 78.1937C97.2369 78.1937 97.9927 77.8187 98.5201 77.0687C99.0533 76.3187 99.3199 75.223 99.3199 73.7816V73.1136ZM105.982 75.0911V79.846H103.758V67.0491H108.654C110.084 67.0491 111.217 67.4212 112.055 68.1653C112.899 68.9095 113.321 69.8939 113.321 71.1185C113.321 72.3724 112.908 73.348 112.082 74.0452C111.261 74.7425 110.11 75.0911 108.628 75.0911H105.982ZM105.982 73.3069H108.654C109.445 73.3069 110.048 73.1224 110.464 72.7532C110.88 72.3782 111.088 71.8392 111.088 71.136C111.088 70.4446 110.878 69.8939 110.456 69.4837C110.034 69.0677 109.454 68.8538 108.715 68.8421H105.982V73.3069ZM122.752 74.1331H117.496V78.0706H123.639V79.846H115.272V67.0491H123.578V68.8421H117.496V72.3753H122.752V74.1331ZM130.152 74.9153H127.673V79.846H125.45V67.0491H129.95C131.426 67.0491 132.566 67.3802 133.369 68.0423C134.171 68.7044 134.573 69.6624 134.573 70.9163C134.573 71.7718 134.365 72.4896 133.949 73.0696C133.539 73.6439 132.964 74.0862 132.226 74.3968L135.1 79.7318V79.846H132.718L130.152 74.9153ZM127.673 73.1312H129.959C130.709 73.1312 131.294 72.9437 131.716 72.5687C132.138 72.1878 132.349 71.6693 132.349 71.013C132.349 70.3275 132.153 69.7972 131.76 69.4222C131.374 69.0472 130.794 68.8538 130.02 68.8421H127.673V73.1312Z" fill="#FCAA00"/>
<path d="M66.2326 137.761C66.0269 138.03 65.7417 138.233 65.3771 138.371C65.0125 138.509 64.5985 138.578 64.1349 138.578C63.6584 138.578 63.2365 138.47 62.8693 138.254C62.5021 138.038 62.2183 137.729 62.0178 137.328C61.8198 136.924 61.717 136.454 61.7092 135.918V135.472C61.7092 134.613 61.9149 133.942 62.3264 133.461C62.7378 132.976 63.312 132.734 64.049 132.734C64.6818 132.734 65.1844 132.89 65.5568 133.203C65.9292 133.515 66.1532 133.966 66.2287 134.554H65.2599C65.1506 133.87 64.7534 133.527 64.0685 133.527C63.6258 133.527 63.2886 133.687 63.0568 134.008C62.8277 134.325 62.7092 134.793 62.7014 135.41V135.847C62.7014 136.462 62.8303 136.94 63.0881 137.281C63.3485 137.62 63.7092 137.789 64.1701 137.789C64.6753 137.789 65.0347 137.674 65.2482 137.445V136.332H64.0764V135.582H66.2326V137.761ZM67.049 136.347C67.049 135.933 67.131 135.561 67.2951 135.23C67.4592 134.897 67.6896 134.642 67.9865 134.465C68.2834 134.285 68.6245 134.195 69.0099 134.195C69.5803 134.195 70.0425 134.379 70.3967 134.746C70.7534 135.113 70.9461 135.6 70.9748 136.207L70.9787 136.429C70.9787 136.846 70.898 137.219 70.7365 137.547C70.5777 137.875 70.3485 138.129 70.049 138.308C69.7521 138.488 69.4084 138.578 69.0178 138.578C68.4214 138.578 67.9435 138.38 67.5842 137.984C67.2274 137.586 67.049 137.056 67.049 136.394V136.347ZM67.9982 136.429C67.9982 136.864 68.0881 137.205 68.2678 137.453C68.4474 137.698 68.6974 137.82 69.0178 137.82C69.3381 137.82 69.5868 137.695 69.7639 137.445C69.9435 137.195 70.0334 136.829 70.0334 136.347C70.0334 135.92 69.9409 135.582 69.756 135.332C69.5737 135.082 69.325 134.957 69.0099 134.957C68.7 134.957 68.454 135.08 68.2717 135.328C68.0894 135.573 67.9982 135.94 67.9982 136.429ZM71.6037 136.347C71.6037 135.933 71.6857 135.561 71.8498 135.23C72.0139 134.897 72.2443 134.642 72.5412 134.465C72.8381 134.285 73.1792 134.195 73.5646 134.195C74.1349 134.195 74.5972 134.379 74.9514 134.746C75.3081 135.113 75.5008 135.6 75.5295 136.207L75.5334 136.429C75.5334 136.846 75.4527 137.219 75.2912 137.547C75.1323 137.875 74.9032 138.129 74.6037 138.308C74.3068 138.488 73.9631 138.578 73.5724 138.578C72.9761 138.578 72.4982 138.38 72.1389 137.984C71.7821 137.586 71.6037 137.056 71.6037 136.394V136.347ZM72.5529 136.429C72.5529 136.864 72.6428 137.205 72.8224 137.453C73.0021 137.698 73.2521 137.82 73.5724 137.82C73.8928 137.82 74.1415 137.695 74.3185 137.445C74.4982 137.195 74.5881 136.829 74.5881 136.347C74.5881 135.92 74.4956 135.582 74.3107 135.332C74.1284 135.082 73.8797 134.957 73.5646 134.957C73.2547 134.957 73.0086 135.08 72.8264 135.328C72.6441 135.573 72.5529 135.94 72.5529 136.429ZM76.1584 136.355C76.1584 135.704 76.3094 135.182 76.6115 134.789C76.9136 134.393 77.3185 134.195 77.8264 134.195C78.2743 134.195 78.6362 134.351 78.9123 134.664V132.5H79.8615V138.5H79.0021L78.9553 138.062C78.6714 138.406 78.2925 138.578 77.8185 138.578C77.3237 138.578 76.9227 138.379 76.6154 137.98C76.3107 137.582 76.1584 137.04 76.1584 136.355ZM77.1076 136.437C77.1076 136.867 77.1896 137.203 77.3537 137.445C77.5204 137.685 77.756 137.804 78.0607 137.804C78.4487 137.804 78.7326 137.631 78.9123 137.285V135.48C78.7378 135.142 78.4566 134.972 78.0685 134.972C77.7612 134.972 77.5243 135.095 77.3576 135.34C77.1909 135.582 77.1076 135.948 77.1076 136.437ZM83.0646 135.14C82.9396 135.12 82.8107 135.109 82.6779 135.109C82.243 135.109 81.95 135.276 81.799 135.609V138.5H80.8498V134.273H81.756L81.7795 134.746C82.0086 134.379 82.3264 134.195 82.7326 134.195C82.868 134.195 82.98 134.213 83.0685 134.25L83.0646 135.14ZM86.0724 138.5C86.0308 138.419 85.9943 138.288 85.9631 138.105C85.661 138.42 85.2912 138.578 84.8537 138.578C84.4292 138.578 84.0829 138.457 83.8146 138.215C83.5464 137.972 83.4123 137.673 83.4123 137.316C83.4123 136.866 83.579 136.521 83.9123 136.281C84.2482 136.039 84.7274 135.918 85.3498 135.918H85.9318V135.64C85.9318 135.422 85.8706 135.247 85.7482 135.117C85.6258 134.984 85.4396 134.918 85.1896 134.918C84.9735 134.918 84.7964 134.972 84.6584 135.082C84.5204 135.189 84.4514 135.325 84.4514 135.492H83.5021C83.5021 135.26 83.579 135.044 83.7326 134.844C83.8862 134.64 84.0946 134.482 84.3576 134.367C84.6232 134.252 84.9188 134.195 85.2443 134.195C85.7391 134.195 86.1336 134.32 86.4279 134.57C86.7222 134.817 86.8732 135.166 86.881 135.617V137.523C86.881 137.903 86.9344 138.207 87.0412 138.433V138.5H86.0724ZM85.0295 137.816C85.217 137.816 85.3928 137.771 85.5568 137.679C85.7235 137.588 85.8485 137.466 85.9318 137.312V136.515H85.4201C85.0685 136.515 84.8042 136.577 84.6271 136.699C84.45 136.821 84.3615 136.995 84.3615 137.219C84.3615 137.401 84.4214 137.547 84.5412 137.656C84.6636 137.763 84.8264 137.816 85.0295 137.816ZM90.0881 135.14C89.9631 135.12 89.8342 135.109 89.7014 135.109C89.2665 135.109 88.9735 135.276 88.8224 135.609V138.5H87.8732V134.273H88.7795L88.8029 134.746C89.0321 134.379 89.3498 134.195 89.756 134.195C89.8915 134.195 90.0034 134.213 90.092 134.25L90.0881 135.14ZM91.5803 134.273L91.6076 134.715C91.9045 134.368 92.3107 134.195 92.8264 134.195C93.3915 134.195 93.7782 134.411 93.9865 134.844C94.2938 134.411 94.7261 134.195 95.2834 134.195C95.7495 134.195 96.0959 134.324 96.3224 134.582C96.5516 134.84 96.6688 135.22 96.674 135.722V138.5H95.7248V135.75C95.7248 135.482 95.6662 135.285 95.549 135.16C95.4318 135.035 95.2378 134.972 94.967 134.972C94.7508 134.972 94.5737 135.031 94.4357 135.148C94.3003 135.263 94.2053 135.414 94.1506 135.601L94.1545 138.5H93.2053V135.719C93.1922 135.221 92.9383 134.972 92.4435 134.972C92.0633 134.972 91.7938 135.127 91.6349 135.437V138.5H90.6857V134.273H91.5803ZM100.018 137.351C100.018 137.182 99.9474 137.053 99.8068 136.965C99.6688 136.876 99.4383 136.798 99.1154 136.73C98.7925 136.663 98.523 136.577 98.3068 136.472C97.8329 136.243 97.5959 135.911 97.5959 135.476C97.5959 135.112 97.7495 134.807 98.0568 134.562C98.3641 134.317 98.7547 134.195 99.2287 134.195C99.7339 134.195 100.141 134.32 100.451 134.57C100.764 134.82 100.92 135.144 100.92 135.543H99.9709C99.9709 135.36 99.9032 135.209 99.7678 135.09C99.6323 134.967 99.4527 134.906 99.2287 134.906C99.0204 134.906 98.8498 134.954 98.717 135.051C98.5868 135.147 98.5217 135.276 98.5217 135.437C98.5217 135.583 98.5829 135.696 98.7053 135.777C98.8277 135.858 99.075 135.94 99.4474 136.023C99.8198 136.104 100.112 136.202 100.322 136.316C100.536 136.428 100.694 136.564 100.795 136.722C100.899 136.881 100.951 137.074 100.951 137.301C100.951 137.681 100.794 137.989 100.479 138.226C100.164 138.461 99.7508 138.578 99.2404 138.578C98.8941 138.578 98.5855 138.515 98.3146 138.39C98.0438 138.265 97.8329 138.094 97.6818 137.875C97.5308 137.656 97.4553 137.42 97.4553 137.168H98.3771C98.3902 137.392 98.4748 137.565 98.631 137.687C98.7873 137.807 98.9943 137.867 99.2521 137.867C99.5021 137.867 99.6922 137.82 99.8224 137.726C99.9527 137.63 100.018 137.505 100.018 137.351ZM102.373 137.5C102.55 137.5 102.687 137.551 102.783 137.652C102.88 137.751 102.928 137.876 102.928 138.027C102.928 138.176 102.88 138.299 102.783 138.398C102.687 138.495 102.55 138.543 102.373 138.543C102.204 138.543 102.07 138.495 101.971 138.398C101.872 138.302 101.822 138.178 101.822 138.027C101.822 137.876 101.871 137.751 101.967 137.652C102.063 137.551 102.199 137.5 102.373 137.5ZM105.752 137.82C105.989 137.82 106.186 137.751 106.342 137.613C106.498 137.475 106.582 137.304 106.592 137.101H107.487C107.476 137.364 107.394 137.61 107.24 137.84C107.087 138.066 106.878 138.246 106.615 138.379C106.352 138.511 106.069 138.578 105.764 138.578C105.173 138.578 104.704 138.386 104.358 138.004C104.011 137.621 103.838 137.092 103.838 136.418V136.32C103.838 135.677 104.01 135.163 104.354 134.777C104.697 134.389 105.166 134.195 105.76 134.195C106.263 134.195 106.671 134.342 106.987 134.636C107.304 134.928 107.471 135.312 107.487 135.789H106.592C106.582 135.547 106.498 135.347 106.342 135.191C106.188 135.035 105.992 134.957 105.752 134.957C105.445 134.957 105.208 135.069 105.041 135.293C104.875 135.514 104.79 135.851 104.787 136.304V136.457C104.787 136.915 104.869 137.258 105.033 137.484C105.2 137.708 105.44 137.82 105.752 137.82ZM108.026 136.347C108.026 135.933 108.108 135.561 108.272 135.23C108.436 134.897 108.666 134.642 108.963 134.465C109.26 134.285 109.601 134.195 109.987 134.195C110.557 134.195 111.019 134.379 111.373 134.746C111.73 135.113 111.923 135.6 111.951 136.207L111.955 136.429C111.955 136.846 111.875 137.219 111.713 137.547C111.554 137.875 111.325 138.129 111.026 138.308C110.729 138.488 110.385 138.578 109.994 138.578C109.398 138.578 108.92 138.38 108.561 137.984C108.204 137.586 108.026 137.056 108.026 136.394V136.347ZM108.975 136.429C108.975 136.864 109.065 137.205 109.244 137.453C109.424 137.698 109.674 137.82 109.994 137.82C110.315 137.82 110.563 137.695 110.74 137.445C110.92 137.195 111.01 136.829 111.01 136.347C111.01 135.92 110.917 135.582 110.733 135.332C110.55 135.082 110.302 134.957 109.987 134.957C109.677 134.957 109.431 135.08 109.248 135.328C109.066 135.573 108.975 135.94 108.975 136.429Z" fill="black"/>
</svg>
