<svg width="175" height="175" viewBox="0 0 175 175" fill="none" xmlns="http://www.w3.org/2000/svg">
<circle cx="87.0358" cy="87.5" r="70.5" fill="#0D3778"/>
<circle cx="87.0358" cy="87.5" r="60.2679" fill="white" stroke="#FFC01F" stroke-width="2"/>
<path d="M50.1073 52.6696C37.518 65.2589 21.2359 98.4107 56.8216 130.304C69.4109 138.836 100.297 149.691 123.125 124.848C128.301 120.232 142.009 105.125 137.813 76.1696C136.231 65.2589 129.42 54.6839 121.027 49.3125" stroke="#008FE3" stroke-width="2" stroke-dasharray="4 4"/>
<path d="M59.875 67V55.625H63.7734C65.0599 55.625 66.0391 55.8828 66.7109 56.3984C67.3828 56.9141 67.7188 57.6823 67.7188 58.7031C67.7188 59.224 67.5781 59.6927 67.2969 60.1094C67.0156 60.526 66.6042 60.849 66.0625 61.0781C66.6771 61.2448 67.151 61.5599 67.4844 62.0234C67.8229 62.4818 67.9922 63.0339 67.9922 63.6797C67.9922 64.7474 67.6484 65.5677 66.9609 66.1406C66.2786 66.7135 65.2995 67 64.0234 67H59.875ZM61.8516 61.8672V65.4219H64.0469C64.6667 65.4219 65.151 65.2682 65.5 64.9609C65.849 64.6536 66.0234 64.2266 66.0234 63.6797C66.0234 62.4974 65.4193 61.8932 64.2109 61.8672H61.8516ZM61.8516 60.4141H63.7891C64.4036 60.4141 64.8828 60.276 65.2266 60C65.5755 59.7188 65.75 59.3229 65.75 58.8125C65.75 58.25 65.5885 57.8438 65.2656 57.5938C64.9479 57.3438 64.4505 57.2188 63.7734 57.2188H61.8516V60.4141ZM76.6172 61.9219H71.9453V65.4219H77.4062V67H69.9688V55.625H77.3516V57.2188H71.9453V60.3594H76.6172V61.9219ZM84.9609 64.0703C84.9609 63.5703 84.7839 63.1849 84.4297 62.9141C84.0807 62.6432 83.4479 62.3698 82.5312 62.0938C81.6146 61.8177 80.8854 61.5104 80.3438 61.1719C79.3073 60.5208 78.7891 59.6719 78.7891 58.625C78.7891 57.7083 79.1615 56.9531 79.9062 56.3594C80.6562 55.7656 81.6276 55.4688 82.8203 55.4688C83.612 55.4688 84.3177 55.6146 84.9375 55.9062C85.5573 56.1979 86.0443 56.6146 86.3984 57.1562C86.7526 57.6927 86.9297 58.2891 86.9297 58.9453H84.9609C84.9609 58.3516 84.7734 57.888 84.3984 57.5547C84.0286 57.2161 83.4974 57.0469 82.8047 57.0469C82.1589 57.0469 81.6562 57.1849 81.2969 57.4609C80.9427 57.737 80.7656 58.1224 80.7656 58.6172C80.7656 59.0339 80.9583 59.3828 81.3438 59.6641C81.7292 59.9401 82.3646 60.2109 83.25 60.4766C84.1354 60.737 84.8464 61.0365 85.3828 61.375C85.9193 61.7083 86.3125 62.0938 86.5625 62.5312C86.8125 62.9635 86.9375 63.4714 86.9375 64.0547C86.9375 65.0026 86.5729 65.7578 85.8438 66.3203C85.1198 66.8776 84.1354 67.1562 82.8906 67.1562C82.0677 67.1562 81.3099 67.0052 80.6172 66.7031C79.9297 66.3958 79.3932 65.974 79.0078 65.4375C78.6276 64.901 78.4375 64.276 78.4375 63.5625H80.4141C80.4141 64.2083 80.6276 64.7083 81.0547 65.0625C81.4818 65.4167 82.0938 65.5938 82.8906 65.5938C83.5781 65.5938 84.0938 65.4557 84.4375 65.1797C84.7865 64.8984 84.9609 64.5286 84.9609 64.0703ZM96.8906 57.2188H93.3438V67H91.3828V57.2188H87.8672V55.625H96.8906V57.2188ZM103.992 67H102.023V55.625H103.992V67ZM114.406 57.2188H110.859V67H108.898V57.2188H105.383V55.625H114.406V57.2188ZM58.3828 85.2969C58.2682 86.5104 57.8203 87.4583 57.0391 88.1406C56.2578 88.8177 55.2188 89.1562 53.9219 89.1562C53.0156 89.1562 52.2161 88.9427 51.5234 88.5156C50.8359 88.0833 50.3047 87.4714 49.9297 86.6797C49.5547 85.888 49.3594 84.9688 49.3438 83.9219V82.8594C49.3438 81.7865 49.5339 80.8411 49.9141 80.0234C50.2943 79.2057 50.8385 78.5755 51.5469 78.1328C52.2604 77.6901 53.0833 77.4688 54.0156 77.4688C55.2708 77.4688 56.2812 77.8099 57.0469 78.4922C57.8125 79.1745 58.2578 80.138 58.3828 81.3828H56.4141C56.3203 80.5651 56.0807 79.9766 55.6953 79.6172C55.3151 79.2526 54.7552 79.0703 54.0156 79.0703C53.1562 79.0703 52.4948 79.3854 52.0312 80.0156C51.5729 80.6406 51.3385 81.5599 51.3281 82.7734V83.7812C51.3281 85.0104 51.5469 85.9479 51.9844 86.5938C52.4271 87.2396 53.0729 87.5625 53.9219 87.5625C54.6979 87.5625 55.2812 87.388 55.6719 87.0391C56.0625 86.6901 56.3099 86.1094 56.4141 85.2969H58.3828ZM69.2344 83.6094C69.2344 84.724 69.0417 85.7031 68.6562 86.5469C68.2708 87.3854 67.7188 88.0312 67 88.4844C66.2865 88.9323 65.4635 89.1562 64.5312 89.1562C63.6094 89.1562 62.7865 88.9323 62.0625 88.4844C61.3438 88.0312 60.7865 87.388 60.3906 86.5547C60 85.7214 59.8021 84.7604 59.7969 83.6719V83.0312C59.7969 81.9219 59.9922 80.9427 60.3828 80.0938C60.7786 79.2448 61.3333 78.5964 62.0469 78.1484C62.7656 77.6953 63.5885 77.4688 64.5156 77.4688C65.4427 77.4688 66.263 77.6927 66.9766 78.1406C67.6953 78.5833 68.25 79.224 68.6406 80.0625C69.0312 80.8958 69.2292 81.8672 69.2344 82.9766V83.6094ZM67.2578 83.0156C67.2578 81.7552 67.0182 80.7891 66.5391 80.1172C66.0651 79.4453 65.3906 79.1094 64.5156 79.1094C63.6615 79.1094 62.9922 79.4453 62.5078 80.1172C62.0286 80.7839 61.7839 81.7292 61.7734 82.9531V83.6094C61.7734 84.8594 62.0156 85.8255 62.5 86.5078C62.9896 87.1901 63.6667 87.5312 64.5312 87.5312C65.4062 87.5312 66.0781 87.1979 66.5469 86.5312C67.0208 85.8646 67.2578 84.8906 67.2578 83.6094V83.0156ZM73.7656 77.625L77.0469 86.3438L80.3203 77.625H82.875V89H80.9062V85.25L81.1016 80.2344L77.7422 89H76.3281L72.9766 80.2422L73.1719 85.25V89H71.2031V77.625H73.7656ZM87.1953 84.7734V89H85.2188V77.625H89.5703C90.8411 77.625 91.849 77.9557 92.5938 78.6172C93.3438 79.2786 93.7188 80.1536 93.7188 81.2422C93.7188 82.3568 93.3516 83.224 92.6172 83.8438C91.888 84.4635 90.8646 84.7734 89.5469 84.7734H87.1953ZM87.1953 83.1875H89.5703C90.2734 83.1875 90.8099 83.0234 91.1797 82.6953C91.5495 82.362 91.7344 81.8828 91.7344 81.2578C91.7344 80.6432 91.5469 80.1536 91.1719 79.7891C90.7969 79.4193 90.2812 79.2292 89.625 79.2188H87.1953V83.1875ZM100.43 86.3516H96.0234L95.1016 89H93.0469L97.3438 77.625H99.1172L103.422 89H101.359L100.43 86.3516ZM96.5781 84.7578H99.875L98.2266 80.0391L96.5781 84.7578ZM113.742 89H111.766L106.695 80.9297V89H104.719V77.625H106.695L111.781 85.7266V77.625H113.742V89ZM119.57 83.0156L122.188 77.625H124.375L120.562 84.8125V89H118.578V84.8125L114.758 77.625H116.953L119.57 83.0156Z" fill="#0D3778"/>
<path d="M80.7472 133.429H75.8741V132.462L78.174 130.011C78.4897 129.666 78.7225 129.364 78.8722 129.107C79.0252 128.85 79.1017 128.606 79.1017 128.375C79.1017 128.059 79.0219 127.812 78.8624 127.633C78.7029 127.45 78.4751 127.359 78.1788 127.359C77.8598 127.359 77.6075 127.47 77.422 127.691C77.2397 127.909 77.1486 128.197 77.1486 128.556H75.7325C75.7325 128.123 75.8351 127.727 76.0402 127.369C76.2485 127.011 76.5415 126.731 76.9191 126.529C77.2967 126.324 77.7247 126.222 78.2032 126.222C78.9357 126.222 79.5037 126.397 79.9073 126.749C80.3142 127.1 80.5177 127.597 80.5177 128.238C80.5177 128.59 80.4266 128.948 80.2443 129.312C80.062 129.677 79.7495 130.102 79.3068 130.587L77.6906 132.291H80.7472V133.429ZM86.4015 130.489C86.4015 131.472 86.198 132.224 85.7911 132.745C85.3842 133.266 84.7885 133.526 84.004 133.526C83.2293 133.526 82.6368 133.271 82.2267 132.76C81.8165 132.249 81.6066 131.516 81.5968 130.562V129.254C81.5968 128.261 81.8019 127.507 82.212 126.993C82.6254 126.479 83.2195 126.222 83.9943 126.222C84.769 126.222 85.3615 126.477 85.7716 126.988C86.1818 127.496 86.3917 128.227 86.4015 129.181V130.489ZM84.9904 129.054C84.9904 128.464 84.909 128.036 84.7462 127.769C84.5867 127.499 84.3361 127.364 83.9943 127.364C83.6622 127.364 83.4165 127.493 83.257 127.75C83.1007 128.004 83.0177 128.403 83.0079 128.946V130.675C83.0079 131.254 83.0861 131.685 83.2423 131.969C83.4018 132.249 83.6557 132.389 84.004 132.389C84.3491 132.389 84.5981 132.253 84.7511 131.983C84.9041 131.713 84.9838 131.3 84.9904 130.743V129.054ZM92.2316 133.429H87.3585V132.462L89.6583 130.011C89.9741 129.666 90.2068 129.364 90.3566 129.107C90.5096 128.85 90.5861 128.606 90.5861 128.375C90.5861 128.059 90.5063 127.812 90.3468 127.633C90.1873 127.45 89.9594 127.359 89.6632 127.359C89.3442 127.359 89.0919 127.47 88.9064 127.691C88.7241 127.909 88.6329 128.197 88.6329 128.556H87.2169C87.2169 128.123 87.3195 127.727 87.5245 127.369C87.7329 127.011 88.0258 126.731 88.4034 126.529C88.781 126.324 89.2091 126.222 89.6876 126.222C90.42 126.222 90.9881 126.397 91.3917 126.749C91.7986 127.1 92.0021 127.597 92.0021 128.238C92.0021 128.59 91.9109 128.948 91.7286 129.312C91.5463 129.677 91.2338 130.102 90.7911 130.587L89.1749 132.291H92.2316V133.429ZM97.8859 130.489C97.8859 131.472 97.6824 132.224 97.2755 132.745C96.8686 133.266 96.2729 133.526 95.4884 133.526C94.7137 133.526 94.1212 133.271 93.7111 132.76C93.3009 132.249 93.0909 131.516 93.0812 130.562V129.254C93.0812 128.261 93.2863 127.507 93.6964 126.993C94.1098 126.479 94.7039 126.222 95.4786 126.222C96.2534 126.222 96.8458 126.477 97.256 126.988C97.6661 127.496 97.8761 128.227 97.8859 129.181V130.489ZM96.4747 129.054C96.4747 128.464 96.3934 128.036 96.2306 127.769C96.0711 127.499 95.8204 127.364 95.4786 127.364C95.1466 127.364 94.9008 127.493 94.7413 127.75C94.5851 128.004 94.5021 128.403 94.4923 128.946V130.675C94.4923 131.254 94.5704 131.685 94.7267 131.969C94.8862 132.249 95.1401 132.389 95.4884 132.389C95.8335 132.389 96.0825 132.253 96.2355 131.983C96.3885 131.713 96.4682 131.3 96.4747 130.743V129.054Z" fill="#0D3778"/>
<path d="M19.2797 129.884V127.786L18.5381 111L0 113.518L6.67373 122.33L2.22458 131.982L19.2797 129.884Z" fill="url(#paint0_linear)"/>
<path d="M155.72 129.884V127.786L156.462 111L175 113.518L168.326 122.33L172.775 131.982L155.72 129.884Z" fill="url(#paint1_linear)"/>
<path d="M164.248 107.643C107.892 97.5714 39.1772 103.446 11.8644 107.643V128.625C68.8135 115.532 137.182 123.17 164.248 128.625V107.643Z" fill="#0F9BE6"/>
<path d="M36.111 112.449L33.9043 112.659L34.363 118.755L33.1429 118.872L32.6842 112.776L30.4969 112.984L30.4221 111.991L36.0363 111.456L36.111 112.449ZM42.7623 114.571C42.8146 115.265 42.7406 115.887 42.5404 116.436C42.3399 116.981 42.0267 117.417 41.6008 117.742C41.1778 118.063 40.6763 118.252 40.0963 118.307C39.5227 118.362 39.0002 118.271 38.5288 118.035C38.0603 117.795 37.6834 117.427 37.3981 116.931C37.1159 116.435 36.9477 115.848 36.8934 115.17L36.8634 114.77C36.8114 114.079 36.887 113.457 37.0902 112.905C37.2967 112.352 37.6114 111.915 38.0343 111.594C38.4603 111.269 38.9616 111.079 39.5385 111.024C40.1153 110.969 40.6361 111.06 41.1011 111.296C41.5691 111.53 41.9442 111.896 42.2266 112.396C42.5087 112.892 42.6774 113.485 42.7327 114.176L42.7623 114.571ZM41.5047 114.318C41.4456 113.532 41.2512 112.945 40.9216 112.554C40.5952 112.164 40.1598 111.994 39.6154 112.046C39.0839 112.097 38.6833 112.346 38.4134 112.793C38.1466 113.237 38.0386 113.841 38.0895 114.604L38.1203 115.013C38.1789 115.792 38.3749 116.38 38.7083 116.777C39.0449 117.173 39.4821 117.345 40.0201 117.294C40.5645 117.242 40.9669 116.995 41.2272 116.551C41.4909 116.108 41.5926 115.487 41.5326 114.688L41.5047 114.318ZM36.8964 131.93L37.0946 134.564L35.8649 134.682L35.3314 127.592L38.0389 127.334C38.8295 127.259 39.4721 127.405 39.9665 127.773C40.4642 128.141 40.7385 128.664 40.7896 129.342C40.8418 130.037 40.654 130.599 40.2262 131.029C39.8016 131.459 39.1794 131.712 38.3595 131.791L36.8964 131.93ZM36.822 130.942L38.2997 130.801C38.7372 130.759 39.0633 130.625 39.278 130.399C39.4924 130.169 39.585 129.859 39.5557 129.47C39.5268 129.087 39.3872 128.793 39.1368 128.588C38.8861 128.38 38.5564 128.292 38.1476 128.324L36.6359 128.468L36.822 130.942Z" fill="#0D3778"/>
<path d="M51.271 115.29L48.5189 115.391L47.9905 117.067L46.7072 117.114L49.1873 109.909L50.295 109.869L53.1872 116.876L51.899 116.924L51.271 115.29ZM48.8368 114.383L50.896 114.307L49.7819 111.397L48.8368 114.383ZM55.1561 114.161L55.2318 116.801L53.9972 116.847L53.7936 109.74L56.5115 109.64C57.3052 109.611 57.9406 109.795 58.4176 110.191C58.8979 110.587 59.1478 111.125 59.1673 111.805C59.1872 112.501 58.9734 113.052 58.5258 113.456C58.0815 113.86 57.4478 114.077 56.6248 114.107L55.1561 114.161ZM55.1277 113.17L56.6111 113.116C57.0502 113.099 57.3823 112.985 57.6074 112.771C57.8324 112.554 57.9393 112.251 57.9282 111.86C57.9171 111.476 57.7913 111.175 57.5505 110.956C57.3097 110.733 56.9842 110.626 56.5742 110.635L55.0566 110.691L55.1277 113.17ZM61.5483 113.926L61.6239 116.567L60.3894 116.612L60.1858 109.506L62.9037 109.406C63.6974 109.377 64.3328 109.56 64.8098 109.956C65.2901 110.352 65.54 110.89 65.5594 111.57C65.5794 112.267 65.3656 112.817 64.918 113.221C64.4737 113.625 63.84 113.842 63.017 113.872L61.5483 113.926ZM61.5199 112.935L63.0032 112.881C63.4424 112.865 63.7745 112.75 63.9996 112.537C64.2246 112.32 64.3315 112.016 64.3203 111.626C64.3093 111.242 64.1835 110.94 63.9427 110.721C63.7019 110.499 63.3764 110.392 62.9664 110.4L61.4488 110.456L61.5199 112.935Z" fill="#0D3778"/>
<path d="M67.9003 116V108.891H69.9999C70.6281 108.891 71.1848 109.031 71.6698 109.311C72.1581 109.59 72.5357 109.988 72.8026 110.502C73.0695 111.016 73.203 111.605 73.203 112.27V112.626C73.203 113.3 73.0679 113.892 72.7977 114.403C72.5308 114.914 72.1483 115.308 71.6503 115.585C71.1555 115.862 70.5874 116 69.9462 116H67.9003ZM69.1356 109.887V115.014H69.9413C70.5891 115.014 71.0855 114.812 71.4305 114.408C71.7788 114.001 71.9563 113.419 71.9628 112.66V112.265C71.9628 111.493 71.7951 110.904 71.4598 110.497C71.1246 110.09 70.6379 109.887 69.9999 109.887H69.1356ZM78.5887 112.826H75.6688V115.014H79.0819V116H74.4335V108.891H79.0477V109.887H75.6688V111.85H78.5887V112.826ZM82.5927 114.452L84.3993 108.891H85.7567L83.1981 116H82.0018L79.453 108.891H80.8055L82.5927 114.452ZM90.7177 112.826H87.7977V115.014H91.2108V116H86.5624V108.891H91.1766V109.887H87.7977V111.85H90.7177V112.826ZM93.452 115.014H96.6796V116H92.2167V108.891H93.452V115.014ZM102.988 112.631C102.988 113.327 102.868 113.939 102.627 114.467C102.386 114.991 102.041 115.395 101.592 115.678C101.146 115.958 100.631 116.098 100.049 116.098C99.4725 116.098 98.9582 115.958 98.5057 115.678C98.0565 115.395 97.7082 114.993 97.4608 114.472C97.2167 113.951 97.093 113.35 97.0897 112.67V112.27C97.0897 111.576 97.2118 110.964 97.4559 110.434C97.7033 109.903 98.05 109.498 98.496 109.218C98.9452 108.935 99.4595 108.793 100.039 108.793C100.618 108.793 101.131 108.933 101.577 109.213C102.026 109.49 102.373 109.89 102.617 110.414C102.861 110.935 102.985 111.542 102.988 112.235V112.631ZM101.753 112.26C101.753 111.472 101.603 110.868 101.304 110.448C101.007 110.028 100.586 109.818 100.039 109.818C99.5051 109.818 99.0868 110.028 98.7841 110.448C98.4846 110.865 98.3316 111.456 98.3251 112.221V112.631C98.3251 113.412 98.4764 114.016 98.7792 114.442C99.0852 114.869 99.5083 115.082 100.049 115.082C100.596 115.082 101.016 114.874 101.308 114.457C101.605 114.04 101.753 113.432 101.753 112.631V112.26ZM105.454 113.358V116H104.219V108.891H106.938C107.733 108.891 108.363 109.097 108.828 109.511C109.297 109.924 109.531 110.471 109.531 111.151C109.531 111.848 109.302 112.39 108.843 112.777C108.387 113.165 107.747 113.358 106.924 113.358H105.454ZM105.454 112.367H106.938C107.378 112.367 107.713 112.265 107.944 112.06C108.175 111.851 108.291 111.552 108.291 111.161C108.291 110.777 108.174 110.471 107.939 110.243C107.705 110.012 107.383 109.893 106.973 109.887H105.454V112.367ZM114.77 112.826H111.85V115.014H115.264V116H110.615V108.891H115.229V109.887H111.85V111.85H114.77V112.826ZM118.882 113.261H117.505V116H116.269V108.891H118.769C119.59 108.891 120.223 109.075 120.669 109.442C121.115 109.81 121.338 110.342 121.338 111.039C121.338 111.514 121.222 111.913 120.991 112.235C120.763 112.554 120.444 112.8 120.034 112.973L121.631 115.937V116H120.307L118.882 113.261ZM117.505 112.27H118.774C119.191 112.27 119.516 112.165 119.751 111.957C119.985 111.745 120.102 111.457 120.102 111.093C120.102 110.712 119.993 110.417 119.775 110.209C119.56 110.001 119.238 109.893 118.808 109.887H117.505V112.27ZM126.225 114.169C126.225 113.856 126.115 113.616 125.893 113.446C125.675 113.277 125.28 113.106 124.707 112.934C124.134 112.761 123.678 112.569 123.34 112.357C122.692 111.951 122.368 111.42 122.368 110.766C122.368 110.193 122.601 109.721 123.066 109.35C123.535 108.979 124.142 108.793 124.888 108.793C125.382 108.793 125.823 108.884 126.211 109.066C126.598 109.249 126.903 109.509 127.124 109.848C127.345 110.183 127.456 110.556 127.456 110.966H126.225C126.225 110.595 126.108 110.305 125.874 110.097C125.643 109.885 125.311 109.779 124.878 109.779C124.474 109.779 124.16 109.866 123.935 110.038C123.714 110.211 123.603 110.451 123.603 110.761C123.603 111.021 123.724 111.239 123.965 111.415C124.206 111.588 124.603 111.757 125.156 111.923C125.71 112.086 126.154 112.273 126.489 112.484C126.824 112.693 127.07 112.934 127.226 113.207C127.383 113.477 127.461 113.795 127.461 114.159C127.461 114.752 127.233 115.224 126.777 115.575C126.325 115.924 125.71 116.098 124.932 116.098C124.417 116.098 123.944 116.003 123.511 115.814C123.081 115.622 122.746 115.359 122.505 115.023C122.267 114.688 122.148 114.298 122.148 113.852H123.384C123.384 114.255 123.517 114.568 123.784 114.789C124.051 115.01 124.433 115.121 124.932 115.121C125.361 115.121 125.683 115.035 125.898 114.862C126.116 114.687 126.225 114.455 126.225 114.169Z" fill="#0D3778"/>
<path d="M138.797 111.395L138.116 116.097C138.008 116.844 137.682 117.402 137.139 117.771C136.599 118.137 135.931 118.262 135.136 118.147C134.33 118.03 133.722 117.723 133.31 117.226C132.899 116.726 132.749 116.094 132.859 115.331L133.539 110.634L134.757 110.81L134.076 115.517C134.008 115.987 134.075 116.363 134.277 116.646C134.48 116.929 134.813 117.103 135.277 117.171C136.218 117.307 136.76 116.879 136.903 115.886L137.579 111.218L138.797 111.395ZM143.028 117.34C143.073 117.031 142.998 116.777 142.803 116.578C142.611 116.379 142.244 116.153 141.702 115.9C141.16 115.647 140.736 115.392 140.431 115.134C139.849 114.639 139.604 114.067 139.698 113.42C139.78 112.853 140.078 112.419 140.592 112.118C141.109 111.818 141.736 111.721 142.474 111.828C142.964 111.899 143.387 112.052 143.744 112.288C144.102 112.524 144.366 112.826 144.536 113.192C144.707 113.556 144.763 113.941 144.705 114.347L143.487 114.17C143.54 113.803 143.465 113.499 143.263 113.26C143.065 113.017 142.751 112.865 142.323 112.803C141.924 112.745 141.6 112.785 141.353 112.924C141.109 113.063 140.965 113.286 140.921 113.592C140.884 113.849 140.972 114.083 141.185 114.291C141.399 114.496 141.767 114.721 142.291 114.964C142.816 115.205 143.229 115.453 143.53 115.711C143.832 115.965 144.041 116.239 144.156 116.532C144.272 116.822 144.304 117.147 144.252 117.508C144.167 118.094 143.874 118.528 143.373 118.811C142.875 119.091 142.241 119.175 141.471 119.064C140.962 118.99 140.507 118.829 140.105 118.58C139.708 118.328 139.414 118.019 139.223 117.653C139.036 117.287 138.974 116.884 139.038 116.442L140.261 116.619C140.203 117.019 140.29 117.347 140.523 117.604C140.755 117.862 141.118 118.026 141.611 118.097C142.036 118.159 142.367 118.12 142.605 117.98C142.846 117.837 142.987 117.624 143.028 117.34ZM149.237 118.417L146.511 118.022L145.704 119.578L144.433 119.394L148.109 112.743L149.206 112.901L150.85 120.323L149.575 120.138L149.237 118.417ZM146.997 117.086L149.036 117.381L148.439 114.315L146.997 117.086Z" fill="#0D3778"/>
<defs>
<linearGradient id="paint0_linear" x1="9.63983" y1="111" x2="9.63983" y2="131.982" gradientUnits="userSpaceOnUse">
<stop offset="0.197917" stop-color="#1194DA"/>
<stop offset="1" stop-color="#0582C5"/>
</linearGradient>
<linearGradient id="paint1_linear" x1="165.36" y1="111" x2="165.36" y2="131.982" gradientUnits="userSpaceOnUse">
<stop offset="0.197917" stop-color="#1194DA"/>
<stop offset="1" stop-color="#0582C5"/>
</linearGradient>
</defs>
</svg>
