<svg width="140" height="36" viewBox="0 0 140 36" fill="none" xmlns="http://www.w3.org/2000/svg">
<path d="M31.9 6.19902C29.5406 3.49061 26.3519 1.53771 22.7711 0.608064C19.1903 -0.321585 15.3927 -0.182481 11.899 1.0063C8.40518 2.19509 5.38623 4.37536 3.25598 7.24823C1.12573 10.1211 -0.0115349 13.5459 8.81648e-05 17.0532L9.89392 17.024C9.88868 15.4445 10.4008 13.9022 11.3602 12.6084C12.3195 11.3146 13.6791 10.3328 15.2525 9.7974C16.8258 9.26204 18.5361 9.1994 20.1486 9.61805C21.7612 10.0367 23.1972 10.9162 24.2597 12.1359L31.9 6.19902Z" fill="url(#paint0_linear)"/>
<path d="M31.9 29.801C29.5406 32.5094 26.3519 34.4623 22.7711 35.3919C19.1903 36.3216 15.3927 36.1825 11.899 34.9937C8.40518 33.8049 5.38623 31.6246 3.25598 28.7518C1.12573 25.8789 -0.0115349 22.4541 8.81648e-05 18.9468L9.89392 18.976C9.88868 20.5555 10.4008 22.0978 11.3602 23.3916C12.3195 24.6854 13.6791 25.6672 15.2525 26.2026C16.8258 26.738 18.5361 26.8006 20.1486 26.3819C21.7612 25.9633 23.1972 25.0838 24.2597 23.8641L31.9 29.801Z" fill="url(#paint1_linear)"/>
<path d="M52.0898 21.2188C51.9714 22.6133 51.5111 23.8529 50.709 24.9375C49.916 26.0221 48.8678 26.8561 47.5645 27.4395C46.2702 28.0228 44.8665 28.3008 43.3535 28.2734C41.2754 28.2279 39.6393 27.5579 38.4453 26.2637C37.2513 24.9694 36.5996 23.2148 36.4902 21C36.4082 19.5234 36.5677 17.9147 36.9688 16.1738C37.3789 14.4329 38.0397 12.9199 38.9512 11.6348C39.8717 10.3405 40.9518 9.37435 42.1914 8.73633C43.4401 8.08919 44.8027 7.7793 46.2793 7.80664C48.4486 7.8431 50.1621 8.49479 51.4199 9.76172C52.6868 11.0286 53.375 12.7741 53.4844 14.998L48.8223 14.9844C48.8405 13.7721 48.6217 12.9062 48.166 12.3867C47.7103 11.8672 46.9902 11.5892 46.0059 11.5527C43.5449 11.4707 42.0456 13.3848 41.5078 17.2949C41.2617 19.0632 41.1387 20.3255 41.1387 21.082C41.0931 23.3242 41.9225 24.4772 43.627 24.541C44.7298 24.5775 45.6094 24.3086 46.2656 23.7344C46.9219 23.151 47.3411 22.3307 47.5234 21.2734L52.0898 21.2188ZM58.3652 28H53.6895L57.1484 8.09375H61.8105L58.3652 28ZM70.2188 20.9727H67.6211L66.3906 28H61.7148L65.1602 8.09375L72.1875 8.10742C74.4388 8.10742 76.1706 8.63607 77.3828 9.69336C78.6042 10.7415 79.151 12.1771 79.0234 14C78.9232 15.4401 78.5085 16.6341 77.7793 17.582C77.0501 18.5208 76.0293 19.2637 74.7168 19.8105L77.3965 27.7676V28H72.4062L70.2188 20.9727ZM68.25 17.2676L70.9844 17.2949C71.7318 17.2949 72.3789 17.1126 72.9258 16.748C73.4818 16.3835 73.8783 15.8867 74.1152 15.2578C74.3522 14.6198 74.4206 14.0046 74.3203 13.4121C74.138 12.4004 73.4909 11.8672 72.3789 11.8125L69.207 11.7988L68.25 17.2676ZM96.25 21.2188C96.1315 22.6133 95.6712 23.8529 94.8691 24.9375C94.0762 26.0221 93.028 26.8561 91.7246 27.4395C90.4303 28.0228 89.0267 28.3008 87.5137 28.2734C85.4355 28.2279 83.7995 27.5579 82.6055 26.2637C81.4115 24.9694 80.7598 23.2148 80.6504 21C80.5684 19.5234 80.7279 17.9147 81.1289 16.1738C81.5391 14.4329 82.1999 12.9199 83.1113 11.6348C84.0319 10.3405 85.112 9.37435 86.3516 8.73633C87.6003 8.08919 88.9629 7.7793 90.4395 7.80664C92.6087 7.8431 94.3223 8.49479 95.5801 9.76172C96.847 11.0286 97.5352 12.7741 97.6445 14.998L92.9824 14.9844C93.0007 13.7721 92.7819 12.9062 92.3262 12.3867C91.8704 11.8672 91.1504 11.5892 90.166 11.5527C87.7051 11.4707 86.2057 13.3848 85.668 17.2949C85.4219 19.0632 85.2988 20.3255 85.2988 21.082C85.2533 23.3242 86.0827 24.4772 87.7871 24.541C88.89 24.5775 89.7695 24.3086 90.4258 23.7344C91.082 23.151 91.5013 22.3307 91.6836 21.2734L96.25 21.2188ZM102.854 24.3086H110.961L110.318 28H97.5352L100.98 8.09375H105.67L102.854 24.3086ZM117.4 28H112.725L116.184 8.09375H120.846L117.4 28ZM128.967 28.2734C126.898 28.2279 125.239 27.5443 123.99 26.2227C122.742 24.901 122.035 23.1328 121.871 20.918C121.78 19.8242 121.867 18.5391 122.131 17.0625C122.395 15.5768 122.865 14.2096 123.539 12.9609C124.214 11.7122 125.057 10.6732 126.068 9.84375C127.764 8.44922 129.714 7.77474 131.92 7.82031C133.278 7.84766 134.463 8.16211 135.475 8.76367C136.495 9.35612 137.311 10.2129 137.922 11.334C138.533 12.4551 138.888 13.7311 138.988 15.1621C139.061 16.1738 138.997 17.3268 138.797 18.6211C138.605 19.9062 138.245 21.1367 137.717 22.3125C137.197 23.4792 136.523 24.5091 135.693 25.4023C134.864 26.2956 133.884 27.0065 132.754 27.5352C131.633 28.0547 130.37 28.3008 128.967 28.2734ZM134.299 15.1211C134.208 12.8424 133.324 11.6576 131.646 11.5664C130.352 11.5026 129.281 12.0176 128.434 13.1113C127.586 14.196 127.025 15.8001 126.752 17.9238C126.579 19.2363 126.515 20.2526 126.561 20.9727C126.652 23.2878 127.545 24.4772 129.24 24.541C130.352 24.5957 131.309 24.1992 132.111 23.3516C132.913 22.4948 133.492 21.2552 133.848 19.6328C134.203 18.0013 134.354 16.4974 134.299 15.1211Z" fill="#282551"/>
<defs>
<linearGradient id="paint0_linear" x1="30.5" y1="-30.5" x2="18" y2="34" gradientUnits="userSpaceOnUse">
<stop offset="0.406996" stop-color="#FFBAE0"/>
<stop offset="0.677137" stop-color="#FF4A60"/>
</linearGradient>
<linearGradient id="paint1_linear" x1="18" y1="36" x2="18" y2="6" gradientUnits="userSpaceOnUse">
<stop offset="0.0925344" stop-color="#517AFE"/>
<stop offset="0.502759" stop-color="#C96AFB"/>
</linearGradient>
</defs>
</svg>
