<svg width="136" height="45" viewBox="0 0 136 45" fill="none" xmlns="http://www.w3.org/2000/svg">
<path d="M13.479 33.736C15.963 33.736 18.217 33.1993 20.241 32.126C22.265 31.0527 23.829 29.5653 24.933 27.664L19.85 25.111C18.976 26.1537 18.0637 26.9127 17.113 27.388C16.1777 27.8633 15.0967 28.101 13.87 28.101C11.9073 28.101 10.328 27.5567 9.132 26.468C7.936 25.3793 7.338 23.938 7.338 22.144H25.393C25.439 21.7453 25.462 21.477 25.462 21.339C25.4773 21.1857 25.485 21.0093 25.485 20.81C25.485 18.4027 24.9637 16.2943 23.921 14.485C22.8937 12.6757 21.4523 11.265 19.597 10.253C17.757 9.22567 15.6103 8.712 13.157 8.712C10.7037 8.712 8.488 9.27167 6.51 10.391C4.54733 11.495 2.98333 12.99 1.818 14.876C0.652667 16.762 0.0700001 18.878 0.0700001 21.224C0.0700001 23.6007 0.652667 25.732 1.818 27.618C2.99867 29.504 4.601 30.999 6.625 32.103C8.649 33.1917 10.9337 33.736 13.479 33.736ZM7.591 18.234C7.74433 16.8693 8.31167 15.796 9.293 15.014C10.2743 14.232 11.5317 13.841 13.065 13.841C14.5217 13.841 15.733 14.232 16.699 15.014C17.6803 15.796 18.2937 16.8693 18.539 18.234H7.591ZM31.7665 44.96H38.8275V29.895C39.8702 31.1217 41.1045 32.0723 42.5305 32.747C43.9565 33.4063 45.4745 33.736 47.0845 33.736C49.2925 33.736 51.2705 33.1917 53.0185 32.103C54.7818 30.999 56.1695 29.504 57.1815 27.618C58.1935 25.7167 58.6995 23.5853 58.6995 21.224C58.6995 18.832 58.1859 16.693 57.1585 14.807C56.1465 12.921 54.7512 11.4337 52.9725 10.345C51.2092 9.25633 49.1928 8.712 46.9235 8.712C45.2982 8.712 43.7802 9.034 42.3695 9.678C40.9588 10.3067 39.7782 11.1883 38.8275 12.323V9.448H31.7665V44.96ZM44.9915 27.733C43.1515 27.733 41.6335 27.1273 40.4375 25.916C39.2415 24.6893 38.6435 23.133 38.6435 21.247C38.6435 19.361 39.2415 17.8047 40.4375 16.578C41.6488 15.336 43.1668 14.715 44.9915 14.715C46.8008 14.715 48.2958 15.336 49.4765 16.578C50.6725 17.8047 51.2705 19.3687 51.2705 21.27C51.2705 23.156 50.6802 24.7047 49.4995 25.916C48.3189 27.1273 46.8162 27.733 44.9915 27.733ZM73.0379 33.736C73.9885 33.736 74.9545 33.6133 75.9359 33.368C76.9325 33.1227 77.8295 32.7853 78.6269 32.356L76.8559 26.698C76.1965 27.1887 75.4912 27.434 74.7399 27.434C73.3599 27.434 72.6699 26.5293 72.6699 24.72V14.807H77.8449V9.448H72.6699V0.615997H65.6089V9.448H62.4579V14.807H65.6089V25.226C65.6089 27.9093 66.2605 30.0023 67.5639 31.505C68.8825 32.9923 70.7072 33.736 73.0379 33.736ZM96.4594 33.736C99.0661 33.736 101.412 33.207 103.497 32.149C105.583 31.0757 107.231 29.6037 108.442 27.733C109.669 25.847 110.282 23.6773 110.282 21.224C110.282 18.7707 109.669 16.6087 108.442 14.738C107.231 12.852 105.583 11.38 103.497 10.322C101.412 9.24867 99.0661 8.712 96.4594 8.712C93.8681 8.712 91.5221 9.24867 89.4214 10.322C87.3361 11.38 85.6801 12.852 84.4534 14.738C83.2421 16.6087 82.6364 18.7707 82.6364 21.224C82.6364 23.6773 83.2421 25.847 84.4534 27.733C85.6801 29.6037 87.3361 31.0757 89.4214 32.149C91.5221 33.207 93.8681 33.736 96.4594 33.736ZM96.4594 27.71C95.2634 27.71 94.1747 27.434 93.1934 26.882C92.2274 26.33 91.4607 25.571 90.8934 24.605C90.3261 23.6237 90.0424 22.4967 90.0424 21.224C90.0424 19.9513 90.3261 18.832 90.8934 17.866C91.4607 16.8847 92.2274 16.118 93.1934 15.566C94.1747 15.014 95.2634 14.738 96.4594 14.738C97.6707 14.738 98.7594 15.014 99.7254 15.566C100.707 16.118 101.481 16.8847 102.048 17.866C102.631 18.832 102.922 19.9513 102.922 21.224C102.922 22.4967 102.631 23.6237 102.048 24.605C101.481 25.571 100.707 26.33 99.7254 26.882C98.7594 27.434 97.6707 27.71 96.4594 27.71ZM116.444 33H123.505V19.844C123.505 18.97 123.758 18.1573 124.264 17.406C124.786 16.6393 125.453 16.0183 126.265 15.543C127.093 15.0677 127.967 14.83 128.887 14.83C130.221 14.83 131.479 15.2133 132.659 15.98L135.603 10.023C134.99 9.63967 134.239 9.32533 133.349 9.08C132.475 8.83467 131.624 8.712 130.796 8.712C129.34 8.712 127.975 9.07233 126.702 9.793C125.445 10.4983 124.379 11.5103 123.505 12.829V9.448H116.444V33Z" fill="#DF0A07"/>
</svg>
