<svg width="89" height="50" viewBox="0 0 89 50" fill="none" xmlns="http://www.w3.org/2000/svg">
<path d="M9.77051 6.38281H14.7266V20.5288C14.7266 21.841 14.4198 23.0116 13.8062 24.0405C13.202 25.0695 12.3524 25.8672 11.2573 26.4336C10.1717 27 8.95866 27.2832 7.61816 27.2832C5.37142 27.2832 3.625 26.7168 2.37891 25.584C1.13281 24.4512 0.509766 22.8464 0.509766 20.7695H5.49414C5.49414 21.7135 5.65462 22.3979 5.97559 22.8228C6.30599 23.2476 6.85352 23.46 7.61816 23.46C8.30729 23.46 8.83594 23.2051 9.2041 22.6953C9.58171 22.1761 9.77051 21.4539 9.77051 20.5288V6.38281ZM26.7769 25.3433C25.7668 26.6366 24.4027 27.2832 22.6846 27.2832C21.0042 27.2832 19.7298 26.797 18.8613 25.8247C18.0023 24.8429 17.5728 23.4364 17.5728 21.605V11.6787H22.3447V21.6333C22.3447 22.9455 22.9819 23.6016 24.2563 23.6016C25.3514 23.6016 26.1302 23.2098 26.5928 22.4263V11.6787H31.3931V27H26.9185L26.7769 25.3433ZM39.0537 27H34.2676V5.25H39.0537V27ZM50.6367 27C50.4668 26.6885 50.3158 26.2306 50.1836 25.6265C49.3057 26.731 48.0785 27.2832 46.502 27.2832C45.0576 27.2832 43.8304 26.849 42.8203 25.9805C41.8102 25.1025 41.3052 24.0028 41.3052 22.6812C41.3052 21.0197 41.9188 19.7642 43.146 18.9146C44.3732 18.0649 46.1574 17.6401 48.4985 17.6401H49.9712V16.833C49.9712 15.4264 49.3623 14.7231 48.1445 14.7231C47.0117 14.7231 46.4453 15.2801 46.4453 16.394H41.6733C41.6733 14.9119 42.3011 13.7083 43.5566 12.7832C44.8216 11.8581 46.4312 11.3955 48.3853 11.3955C50.3394 11.3955 51.8828 11.8722 53.0156 12.8257C54.1484 13.7791 54.729 15.0866 54.7573 16.748V23.5308C54.7762 24.9373 54.9933 26.0135 55.4087 26.7593V27H50.6367ZM47.6489 23.8848C48.2437 23.8848 48.7345 23.7573 49.1216 23.5024C49.5181 23.2476 49.8013 22.9596 49.9712 22.6387V20.189H48.5835C46.922 20.189 46.0913 20.9347 46.0913 22.4263C46.0913 22.8605 46.2376 23.2145 46.5303 23.4883C46.8229 23.7526 47.1958 23.8848 47.6489 23.8848ZM63.5649 21.2935L62.2197 22.6387V27H57.4478V5.23584H62.2197V16.7905L62.7012 16.1533L66.2979 11.6787H72.0186L66.6519 17.98L72.3726 27H66.9067L63.5649 21.2935ZM72.6699 19.1978C72.6699 17.6685 72.9673 16.3091 73.562 15.1196C74.1567 13.9207 75.0111 13.0003 76.125 12.3584C77.2389 11.7165 78.5464 11.3955 80.0474 11.3955C82.3413 11.3955 84.1491 12.1082 85.4707 13.5337C86.7923 14.9497 87.4531 16.8802 87.4531 19.3252V19.4951C87.4531 21.8835 86.7876 23.7809 85.4565 25.1875C84.1349 26.5846 82.3413 27.2832 80.0757 27.2832C77.895 27.2832 76.1439 26.6318 74.8223 25.3291C73.5007 24.0169 72.7879 22.2422 72.6841 20.0049L72.6699 19.1978ZM77.4419 19.4951C77.4419 20.9111 77.6637 21.9495 78.1074 22.6104C78.5511 23.2712 79.2072 23.6016 80.0757 23.6016C81.7749 23.6016 82.6434 22.2941 82.6812 19.6792V19.1978C82.6812 16.4507 81.8032 15.0771 80.0474 15.0771C78.452 15.0771 77.5882 16.2619 77.4561 18.6313L77.4419 19.4951Z" fill="black"/>
<rect y="41" width="6" height="6" fill="#2B43A8"/>
<rect x="8" y="41" width="6" height="6" fill="#2B43A8"/>
<rect x="8" y="33" width="6" height="6" fill="#2B43A8"/>
<rect y="33" width="6" height="6" fill="#2B43A8"/>
<path d="M18.1562 46V34.625H21.5156C22.5208 34.625 23.4115 34.849 24.1875 35.2969C24.9688 35.7448 25.5729 36.3802 26 37.2031C26.4271 38.026 26.6406 38.9688 26.6406 40.0312V40.6016C26.6406 41.6797 26.4245 42.6276 25.9922 43.4453C25.5651 44.263 24.9531 44.8932 24.1562 45.3359C23.3646 45.7786 22.4557 46 21.4297 46H18.1562ZM20.1328 36.2188V44.4219H21.4219C22.4583 44.4219 23.2526 44.099 23.8047 43.4531C24.362 42.8021 24.6458 41.8698 24.6562 40.6562V40.0234C24.6562 38.7891 24.388 37.8464 23.8516 37.1953C23.3151 36.5443 22.5365 36.2188 21.5156 36.2188H20.1328ZM31.9766 40.0156L34.5938 34.625H36.7812L32.9688 41.8125V46H30.9844V41.8125L27.1641 34.625H29.3594L31.9766 40.0156ZM47.0391 46H45.0625L39.9922 37.9297V46H38.0156V34.625H39.9922L45.0781 42.7266V34.625H47.0391V46ZM55.8828 43.3516H51.4766L50.5547 46H48.5L52.7969 34.625H54.5703L58.875 46H56.8125L55.8828 43.3516ZM52.0312 41.7578H55.3281L53.6797 37.0391L52.0312 41.7578ZM62.7344 34.625L66.0156 43.3438L69.2891 34.625H71.8438V46H69.875V42.25L70.0703 37.2344L66.7109 46H65.2969L61.9453 37.2422L62.1406 42.25V46H60.1719V34.625H62.7344ZM76.2734 46H74.3047V34.625H76.2734V46ZM87.3828 42.2969C87.2682 43.5104 86.8203 44.4583 86.0391 45.1406C85.2578 45.8177 84.2188 46.1562 82.9219 46.1562C82.0156 46.1562 81.2161 45.9427 80.5234 45.5156C79.8359 45.0833 79.3047 44.4714 78.9297 43.6797C78.5547 42.888 78.3594 41.9688 78.3438 40.9219V39.8594C78.3438 38.7865 78.5339 37.8411 78.9141 37.0234C79.2943 36.2057 79.8385 35.5755 80.5469 35.1328C81.2604 34.6901 82.0833 34.4688 83.0156 34.4688C84.2708 34.4688 85.2812 34.8099 86.0469 35.4922C86.8125 36.1745 87.2578 37.138 87.3828 38.3828H85.4141C85.3203 37.5651 85.0807 36.9766 84.6953 36.6172C84.3151 36.2526 83.7552 36.0703 83.0156 36.0703C82.1562 36.0703 81.4948 36.3854 81.0312 37.0156C80.5729 37.6406 80.3385 38.5599 80.3281 39.7734V40.7812C80.3281 42.0104 80.5469 42.9479 80.9844 43.5938C81.4271 44.2396 82.0729 44.5625 82.9219 44.5625C83.6979 44.5625 84.2812 44.388 84.6719 44.0391C85.0625 43.6901 85.3099 43.1094 85.4141 42.2969H87.3828Z" fill="#2B43A8"/>
</svg>
