<svg width="123" height="47" viewBox="0 0 123 47" fill="none" xmlns="http://www.w3.org/2000/svg">
<path d="M2.68555 41V5.45312H15.4541C20.0277 5.45312 23.5026 6.29134 25.8789 7.96777C28.2715 9.64421 29.4678 12.0775 29.4678 15.2676C29.4678 17.1068 29.0446 18.6774 28.1982 19.9795C27.3519 21.2816 26.1068 22.2419 24.4629 22.8604C26.3184 23.3486 27.7425 24.2601 28.7354 25.5947C29.7282 26.9294 30.2246 28.557 30.2246 30.4775C30.2246 33.9606 29.1178 36.5811 26.9043 38.3389C24.707 40.0804 21.4437 40.9674 17.1143 41H2.68555ZM11.2549 25.8877V34.4082H16.8701C18.4163 34.4082 19.6045 34.0583 20.4346 33.3584C21.2646 32.6423 21.6797 31.6413 21.6797 30.3555C21.6797 27.3932 20.2067 25.904 17.2607 25.8877H11.2549ZM11.2549 20.2725H15.7227C17.5944 20.2562 18.929 19.9144 19.7266 19.2471C20.5241 18.5798 20.9229 17.5951 20.9229 16.293C20.9229 14.7956 20.4915 13.7214 19.6289 13.0703C18.7663 12.403 17.3747 12.0693 15.4541 12.0693H11.2549V20.2725Z" fill="#F2B96A"/>
<path d="M1 26H11.5L15 32L10.5 41H1V26Z" fill="white"/>
<path d="M9 32L11 28H3L5 32H9Z" fill="#F2B96A"/>
<path d="M5 33.5H9L7 38L5 33.5Z" fill="#306A7C"/>
<path d="M37.2031 23V7.075H42.9234C44.9724 7.075 46.5292 7.45052 47.5937 8.20156C48.6656 8.9526 49.2016 10.0427 49.2016 11.4719C49.2016 12.2958 49.012 12.9995 48.6328 13.5828C48.2536 14.1661 47.6958 14.5964 46.9594 14.8734C47.7906 15.0922 48.4286 15.5005 48.8734 16.0984C49.3182 16.6964 49.5406 17.4255 49.5406 18.2859C49.5406 19.8464 49.0448 21.0203 48.0531 21.8078C47.0687 22.588 45.6068 22.9854 43.6672 23H37.2031ZM41.0422 16.2297V20.0469H43.5578C44.2505 20.0469 44.7828 19.8901 45.1547 19.5766C45.5266 19.2557 45.7125 18.8073 45.7125 18.2313C45.7125 16.9042 45.0526 16.237 43.7328 16.2297H41.0422ZM41.0422 13.7141H43.0437C43.8823 13.7068 44.4802 13.5536 44.8375 13.2547C45.1948 12.9557 45.3734 12.5146 45.3734 11.9313C45.3734 11.2604 45.1802 10.7792 44.7937 10.4875C44.4073 10.1885 43.7839 10.0391 42.9234 10.0391H41.0422V13.7141ZM61.9871 16.2516H55.9496V20.0469H63.0808V23H52.1105V7.075H63.1027V10.0391H55.9496V13.3969H61.9871V16.2516ZM78.3929 23H74.5757L68.9319 13.0906V23H65.0929V7.075H68.9319L74.5647 16.9844V7.075H78.3929V23ZM91.1456 16.2516H85.1081V20.0469H92.2393V23H81.269V7.075H92.2612V10.0391H85.1081V13.3969H91.1456V16.2516ZM94.2514 23V7.075H99.3811C100.788 7.075 102.053 7.39583 103.176 8.0375C104.299 8.67188 105.174 9.5724 105.801 10.7391C106.436 11.8984 106.757 13.2 106.764 14.6438V15.3766C106.764 16.8349 106.454 18.1438 105.834 19.3031C105.222 20.4552 104.354 21.3594 103.231 22.0156C102.115 22.6646 100.869 22.9927 99.4904 23H94.2514ZM98.0904 10.0391V20.0469H99.4248C100.526 20.0469 101.372 19.6568 101.962 18.8766C102.553 18.0891 102.848 16.9224 102.848 15.3766V14.6875C102.848 13.149 102.553 11.9896 101.962 11.2094C101.372 10.4292 100.511 10.0391 99.3811 10.0391H98.0904ZM121.671 7.075V17.4984C121.671 18.6797 121.42 19.7042 120.917 20.5719C120.413 21.4323 119.692 22.0885 118.751 22.5406C117.81 22.9927 116.698 23.2187 115.415 23.2187C113.475 23.2187 111.948 22.7156 110.832 21.7094C109.717 20.7031 109.148 19.325 109.126 17.575V7.075H112.987V17.6516C113.031 19.3943 113.84 20.2656 115.415 20.2656C116.21 20.2656 116.811 20.0469 117.22 19.6094C117.628 19.1719 117.832 18.4609 117.832 17.4766V7.075H121.671Z" fill="#306A7C"/>
<path d="M44.8843 26.3359V33.4624C44.8843 34.5952 44.5205 35.4937 43.793 36.1577C43.0703 36.8169 42.106 37.1465 40.8999 37.1465C39.6792 37.1465 38.71 36.8218 37.9922 36.1724C37.2744 35.5181 36.9155 34.6123 36.9155 33.4551V26.3359H38.7612V33.4697C38.7612 34.1826 38.9419 34.7271 39.3032 35.103C39.6646 35.479 40.1968 35.667 40.8999 35.667C42.3257 35.667 43.0386 34.915 43.0386 33.4111V26.3359H44.8843ZM55.6286 37H53.7756L49.0222 29.4341V37H47.1691V26.3359H49.0222L53.7902 33.9312V26.3359H55.6286V37ZM60.0741 37H58.2284V26.3359H60.0741V37ZM66.4093 34.6782L69.1192 26.3359H71.1554L67.3175 37H65.523L61.6998 26.3359H63.7286L66.4093 34.6782ZM78.8968 32.2393H74.5169V35.5205H79.6365V37H72.6639V26.3359H79.5853V27.8301H74.5169V30.7744H78.8968V32.2393ZM85.3638 32.8911H83.2983V37H81.4453V26.3359H85.1953C86.4258 26.3359 87.3755 26.6118 88.0444 27.1636C88.7134 27.7153 89.0479 28.5137 89.0479 29.5586C89.0479 30.2715 88.8745 30.8696 88.5278 31.353C88.186 31.8315 87.7075 32.2002 87.0923 32.459L89.4873 36.9048V37H87.5024L85.3638 32.8911ZM83.2983 31.4043H85.2026C85.8276 31.4043 86.3159 31.248 86.6675 30.9355C87.019 30.6182 87.1948 30.186 87.1948 29.6392C87.1948 29.0679 87.0312 28.626 86.7041 28.3135C86.3818 28.001 85.8984 27.8398 85.2539 27.8301H83.2983V31.4043ZM96.6794 34.2534C96.6794 33.7847 96.5134 33.4233 96.1813 33.1694C95.8542 32.9155 95.2609 32.6592 94.4016 32.4004C93.5422 32.1416 92.8586 31.8535 92.3508 31.5361C91.3791 30.9258 90.8933 30.1299 90.8933 29.1484C90.8933 28.2891 91.2424 27.5811 91.9406 27.0244C92.6437 26.4678 93.5544 26.1895 94.6726 26.1895C95.4147 26.1895 96.0764 26.3262 96.6574 26.5996C97.2385 26.873 97.695 27.2637 98.0271 27.7715C98.3591 28.2744 98.5251 28.8335 98.5251 29.4487H96.6794C96.6794 28.8921 96.5036 28.4575 96.1521 28.145C95.8054 27.8276 95.3073 27.6689 94.6579 27.6689C94.0524 27.6689 93.5812 27.7983 93.2443 28.0571C92.9123 28.3159 92.7463 28.6772 92.7463 29.1411C92.7463 29.5317 92.927 29.8589 93.2883 30.1226C93.6496 30.3813 94.2453 30.6353 95.0754 30.8843C95.9055 31.1284 96.572 31.4092 97.0749 31.7266C97.5778 32.0391 97.9465 32.4004 98.1809 32.8105C98.4152 33.2158 98.5324 33.6919 98.5324 34.2388C98.5324 35.1274 98.1906 35.8354 97.507 36.3628C96.8283 36.8853 95.9055 37.1465 94.7385 37.1465C93.967 37.1465 93.2565 37.0049 92.6071 36.7217C91.9626 36.4336 91.4597 36.0381 91.0983 35.5352C90.7419 35.0322 90.5637 34.4463 90.5637 33.7773H92.4167C92.4167 34.3828 92.6169 34.8516 93.0173 35.1836C93.4177 35.5156 93.9914 35.6816 94.7385 35.6816C95.383 35.6816 95.8664 35.5522 96.1887 35.2935C96.5158 35.0298 96.6794 34.6831 96.6794 34.2534ZM102.414 37H100.568V26.3359H102.414V37ZM112.477 27.8301H109.152V37H107.314V27.8301H104.018V26.3359H112.477V27.8301ZM117.78 31.3896L120.233 26.3359H122.284L118.71 33.0742V37H116.849V33.0742L113.268 26.3359H115.326L117.78 31.3896Z" fill="#306A7C"/>
</svg>
