<svg width="132" height="36" viewBox="0 0 132 36" fill="none" xmlns="http://www.w3.org/2000/svg">
<path d="M30.9091 12.5909H9.27273L6.18182 35.7728H34L30.9091 12.5909Z" fill="#CB4833"/>
<path d="M14.6818 16.4545V5.63636C14.9394 4.09091 16.3818 1 20.0909 1C21.1212 1 24.7273 1 25.5 5.63636V16.4545" stroke="#446785" stroke-linecap="round"/>
<path d="M26.2727 12.5909H3.09091L0 35.7728H29.3636L26.2727 12.5909Z" fill="#DE5540"/>
<path d="M10.0455 16.4545V5.63636C10.303 4.09091 11.7455 1 15.4546 1C16.4849 1 20.0909 1 20.8637 5.63636V16.4545" stroke="#446785" stroke-linecap="round"/>
<rect x="4.63635" y="17.2273" width="3.09091" height="6.18182" fill="#348ED8"/>
<path d="M6.18182 13.3636V14.9091V16.4546" stroke="#F59736" stroke-linecap="square"/>
<path d="M45.9199 9.78125L47.2773 19.6445L52.043 9.78125H56.4961L54.0352 24H50.6758L51.2812 20.5137L52.7266 14.0879L47.7461 24H45.5293L43.918 13.7168L43.0195 20.8457L42.4629 24H39.123L41.584 9.78125H45.9199ZM62.3457 15.9336L65.9395 9.78125H69.6992L63.5664 19.0488L62.7168 24H59.3184L60.2363 18.7266L57.3945 9.79102L60.8711 9.78125L62.3457 15.9336ZM79.8652 19.1562C79.7806 20.1523 79.4518 21.0378 78.8789 21.8125C78.3125 22.5872 77.5638 23.1829 76.6328 23.5996C75.7083 24.0163 74.7057 24.2148 73.625 24.1953C72.1406 24.1628 70.972 23.6842 70.1191 22.7598C69.2663 21.8353 68.8008 20.582 68.7227 19C68.6641 17.9453 68.778 16.7962 69.0645 15.5527C69.3574 14.3092 69.8294 13.2285 70.4805 12.3105C71.138 11.3861 71.9095 10.696 72.7949 10.2402C73.6868 9.77799 74.6602 9.55664 75.7148 9.57617C77.2643 9.60221 78.4883 10.0677 79.3867 10.9727C80.2917 11.8776 80.7832 13.1243 80.8613 14.7129L77.5312 14.7031C77.5443 13.8372 77.388 13.2188 77.0625 12.8477C76.737 12.4766 76.2227 12.278 75.5195 12.252C73.7617 12.1934 72.6908 13.5605 72.3066 16.3535C72.1309 17.6165 72.043 18.5182 72.043 19.0586C72.0104 20.6602 72.6029 21.4837 73.8203 21.5293C74.6081 21.5553 75.2363 21.3633 75.7051 20.9531C76.1738 20.5365 76.4733 19.9505 76.6035 19.1953L79.8652 19.1562ZM89.1328 21.3438H84.5918L83.332 24H79.6504L87.1797 9.78125H90.3242L92.9512 24H89.4746L89.1328 21.3438ZM85.8418 18.6973H88.791L88.166 13.7949L85.8418 18.6973ZM100.178 18.9805H98.3223L97.4434 24H94.1035L96.5645 9.78125L101.584 9.79102C103.192 9.79102 104.429 10.1686 105.295 10.9238C106.167 11.6725 106.558 12.6979 106.467 14C106.395 15.0286 106.099 15.8815 105.578 16.5586C105.057 17.2292 104.328 17.7598 103.391 18.1504L105.305 23.834V24H101.74L100.178 18.9805ZM98.7715 16.334L100.725 16.3535C101.258 16.3535 101.721 16.2233 102.111 15.9629C102.508 15.7025 102.792 15.3477 102.961 14.8984C103.13 14.4427 103.179 14.0033 103.107 13.5801C102.977 12.8574 102.515 12.4766 101.721 12.4375L99.4551 12.4277L98.7715 16.334ZM119.221 12.4277H115.08L113.078 24H109.729L111.74 12.4277H107.668L108.137 9.78125H119.68L119.221 12.4277ZM124.289 24.1953C122.811 24.1628 121.626 23.6745 120.734 22.7305C119.842 21.7865 119.338 20.5234 119.221 18.9414C119.156 18.1602 119.217 17.2422 119.406 16.1875C119.595 15.1263 119.93 14.1497 120.412 13.2578C120.894 12.3659 121.496 11.6237 122.219 11.0312C123.43 10.0352 124.823 9.55339 126.398 9.58594C127.368 9.60547 128.215 9.83008 128.938 10.2598C129.667 10.6829 130.249 11.2949 130.686 12.0957C131.122 12.8965 131.376 13.8079 131.447 14.8301C131.499 15.5527 131.454 16.3763 131.311 17.3008C131.174 18.2188 130.917 19.0977 130.539 19.9375C130.168 20.7708 129.686 21.5065 129.094 22.1445C128.501 22.7826 127.801 23.2904 126.994 23.668C126.193 24.0391 125.292 24.2148 124.289 24.1953ZM128.098 14.8008C128.033 13.1732 127.401 12.3268 126.203 12.2617C125.279 12.2161 124.514 12.584 123.908 13.3652C123.303 14.14 122.902 15.2858 122.707 16.8027C122.583 17.7402 122.538 18.4661 122.57 18.9805C122.635 20.6341 123.273 21.4837 124.484 21.5293C125.279 21.5684 125.962 21.2852 126.535 20.6797C127.108 20.0677 127.521 19.1823 127.775 18.0234C128.029 16.8581 128.137 15.7839 128.098 14.8008Z" fill="black"/>
</svg>
