<svg width="141" height="62" viewBox="0 0 141 62" fill="none" xmlns="http://www.w3.org/2000/svg">
<path d="M51.19 15.32C50.27 15.32 49.39 15.42 48.55 15.62C47.71 15.82 46.93 16.11 46.21 16.49L45.34 13.61C45.66 13.43 46.05 13.25 46.51 13.07C46.97 12.89 47.46 12.73 47.98 12.59C48.5 12.45 49.03 12.34 49.57 12.26C50.13 12.18 50.68 12.14 51.22 12.14C53.54 12.14 55.24 12.65 56.32 13.67C57.4 14.69 57.94 16.04 57.94 17.72C57.94 18.5 57.78 19.28 57.46 20.06C57.14 20.82 56.71 21.58 56.17 22.34C55.65 23.08 55.04 23.82 54.34 24.56C53.66 25.3 52.96 26.03 52.24 26.75L50.35 28.64H58.48V32H44.68V29.45L49.45 24.56C50.19 23.8 50.84 23.12 51.4 22.52C51.98 21.9 52.47 21.33 52.87 20.81C53.27 20.27 53.57 19.76 53.77 19.28C53.99 18.78 54.1 18.26 54.1 17.72C54.1 16.96 53.86 16.37 53.38 15.95C52.9 15.53 52.17 15.32 51.19 15.32ZM75.2753 14.6C73.2153 14.6 71.5953 15.23 70.4153 16.49C69.2553 17.73 68.6753 19.6 68.6753 22.1C68.6753 23.16 68.8053 24.12 69.0653 24.98C69.3253 25.84 69.6853 26.58 70.1453 27.2C70.6253 27.8 71.1753 28.27 71.7953 28.61C72.4353 28.93 73.1253 29.09 73.8653 29.09C74.4053 29.09 74.9153 29.01 75.3953 28.85C75.8753 28.67 76.2953 28.41 76.6553 28.07C77.0153 27.71 77.2953 27.27 77.4953 26.75C77.7153 26.21 77.8253 25.59 77.8253 24.89V23.69H73.9253V20.45H81.6053V32H78.2453L77.8253 29.63C77.4053 30.37 76.8153 31 76.0553 31.52C75.3153 32.02 74.3453 32.27 73.1453 32.27C71.9053 32.27 70.7653 32.03 69.7253 31.55C68.7053 31.05 67.8253 30.36 67.0853 29.48C66.3453 28.58 65.7753 27.51 65.3753 26.27C64.9753 25.01 64.7753 23.62 64.7753 22.1C64.7753 20.42 65.0053 18.92 65.4653 17.6C65.9453 16.28 66.6253 15.17 67.5053 14.27C68.4053 13.35 69.4853 12.65 70.7453 12.17C72.0053 11.67 73.4153 11.42 74.9753 11.42C77.1353 11.42 79.0753 11.87 80.7953 12.77L79.8353 15.74C79.1353 15.36 78.3853 15.08 77.5853 14.9C76.8053 14.7 76.0353 14.6 75.2753 14.6ZM99.5221 27.47H92.2021L90.6721 32H86.5921L93.8821 11.78H97.8421L105.132 32H101.052L99.5221 27.47ZM93.3421 24.23H98.3821L97.3921 21.2L95.8921 16.04H95.8321L94.3321 21.2L93.3421 24.23ZM118.74 26.03C118.74 28.23 118.24 29.84 117.24 30.86C116.26 31.86 114.92 32.36 113.22 32.36C112.36 32.36 111.53 32.24 110.73 32C109.93 31.78 109.3 31.52 108.84 31.22L109.77 28.07C110.21 28.35 110.68 28.58 111.18 28.76C111.7 28.92 112.28 29 112.92 29C113.56 29 114.04 28.78 114.36 28.34C114.68 27.88 114.84 27.11 114.84 26.03V11.78H118.74V26.03Z" fill="black"/>
<path d="M48.5701 38.9774C49.9701 38.9774 50.9901 39.2524 51.6301 39.8024C52.2701 40.3524 52.5901 41.1274 52.5901 42.1274C52.5901 42.7174 52.4551 43.2724 52.1851 43.7924C51.9251 44.3024 51.4801 44.7174 50.8501 45.0374C50.2301 45.3574 49.3851 45.5174 48.3151 45.5174H47.0851V49.6874H45.7351V38.9774H48.5701ZM48.4501 40.1324H47.0851V44.3624H48.1651C49.1851 44.3624 49.9451 44.1974 50.4451 43.8674C50.9451 43.5374 51.1951 42.9774 51.1951 42.1874C51.1951 41.4974 50.9751 40.9824 50.5351 40.6424C50.0951 40.3024 49.4001 40.1324 48.4501 40.1324ZM58.0722 38.9774C59.4022 38.9774 60.3822 39.2324 61.0122 39.7424C61.6522 40.2424 61.9722 41.0024 61.9722 42.0224C61.9722 42.5924 61.8672 43.0674 61.6572 43.4474C61.4472 43.8274 61.1772 44.1324 60.8472 44.3624C60.5272 44.5824 60.1872 44.7574 59.8272 44.8874L62.7672 49.6874H61.1922L58.5972 45.2624H56.4672V49.6874H55.1172V38.9774H58.0722ZM57.9972 40.1474H56.4672V44.1224H58.0722C58.9422 44.1224 59.5772 43.9524 59.9772 43.6124C60.3772 43.2624 60.5772 42.7524 60.5772 42.0824C60.5772 41.3824 60.3672 40.8874 59.9472 40.5974C59.5272 40.2974 58.8772 40.1474 57.9972 40.1474ZM74.0932 44.3174C74.0932 45.4274 73.9032 46.3974 73.5232 47.2274C73.1532 48.0474 72.6032 48.6874 71.8732 49.1474C71.1432 49.6074 70.2382 49.8374 69.1582 49.8374C68.0482 49.8374 67.1232 49.6074 66.3832 49.1474C65.6532 48.6874 65.1082 48.0424 64.7482 47.2124C64.3882 46.3824 64.2082 45.4124 64.2082 44.3024C64.2082 43.2024 64.3882 42.2424 64.7482 41.4224C65.1082 40.6024 65.6532 39.9624 66.3832 39.5024C67.1232 39.0424 68.0532 38.8124 69.1732 38.8124C70.2432 38.8124 71.1432 39.0424 71.8732 39.5024C72.6032 39.9524 73.1532 40.5924 73.5232 41.4224C73.9032 42.2424 74.0932 43.2074 74.0932 44.3174ZM65.6332 44.3174C65.6332 45.6674 65.9182 46.7324 66.4882 47.5124C67.0582 48.2824 67.9482 48.6674 69.1582 48.6674C70.3782 48.6674 71.2682 48.2824 71.8282 47.5124C72.3882 46.7324 72.6682 45.6674 72.6682 44.3174C72.6682 42.9674 72.3882 41.9124 71.8282 41.1524C71.2682 40.3824 70.3832 39.9974 69.1732 39.9974C67.9632 39.9974 67.0682 40.3824 66.4882 41.1524C65.9182 41.9124 65.6332 42.9674 65.6332 44.3174ZM79.602 38.9774C81.002 38.9774 82.022 39.2524 82.662 39.8024C83.302 40.3524 83.622 41.1274 83.622 42.1274C83.622 42.7174 83.487 43.2724 83.217 43.7924C82.957 44.3024 82.512 44.7174 81.882 45.0374C81.262 45.3574 80.417 45.5174 79.347 45.5174H78.117V49.6874H76.767V38.9774H79.602ZM79.482 40.1324H78.117V44.3624H79.197C80.217 44.3624 80.977 44.1974 81.477 43.8674C81.977 43.5374 82.227 42.9774 82.227 42.1874C82.227 41.4974 82.007 40.9824 81.567 40.6424C81.127 40.3024 80.432 40.1324 79.482 40.1324ZM92.134 49.6874H86.149V38.9774H92.134V40.1624H87.499V43.5074H91.864V44.6774H87.499V48.5024H92.134V49.6874ZM97.739 38.9774C99.069 38.9774 100.049 39.2324 100.679 39.7424C101.319 40.2424 101.639 41.0024 101.639 42.0224C101.639 42.5924 101.534 43.0674 101.324 43.4474C101.114 43.8274 100.844 44.1324 100.514 44.3624C100.194 44.5824 99.854 44.7574 99.494 44.8874L102.434 49.6874H100.859L98.264 45.2624H96.134V49.6874H94.784V38.9774H97.739ZM97.664 40.1474H96.134V44.1224H97.739C98.609 44.1224 99.244 43.9524 99.644 43.6124C100.044 43.2624 100.244 42.7524 100.244 42.0824C100.244 41.3824 100.034 40.8874 99.614 40.5974C99.194 40.2974 98.544 40.1474 97.664 40.1474ZM107.805 49.6874H106.455V40.1624H103.11V38.9774H111.135V40.1624H107.805V49.6874ZM115.84 44.2424L118.63 38.9774H120.085L116.515 45.5324V49.6874H115.165V45.5924L111.595 38.9774H113.065L115.84 44.2424Z" fill="#A2A2A2"/>
<path d="M11.0598 14.3135H22.1332L29.5155 24.9162L27.9336 30.2175L19.4967 18.0245H7.89595L11.0598 14.3135Z" fill="#69B822"/>
<path d="M0.25 38.4346L0.25 27.3018L10.7961 19.88L16.0692 21.4703L3.94115 29.9525L3.94115 41.6154L0.25 38.4346Z" fill="#0095E2"/>
<path d="M25.2971 50.3625L14.2236 50.3626L6.84134 39.7599L8.42326 34.4586L16.8602 46.6516L28.4609 46.6516L25.2971 50.3625Z" fill="#D10247"/>
<path d="M36.1069 25.1813L36.1069 36.314L25.5607 43.7359L20.2877 42.1455L32.4157 33.6634L32.4157 22.0005L36.1069 25.1813Z" fill="#F89800"/>
<rect x="14.7509" y="28.6271" width="2.10923" height="2.12053" fill="#58595E"/>
<rect x="18.9694" y="28.6271" width="2.10923" height="2.12053" fill="#58595E"/>
<rect x="18.9694" y="32.8682" width="2.10923" height="2.12053" fill="#58595E"/>
<rect x="14.7509" y="32.8682" width="2.10923" height="2.12053" fill="#58595E"/>
</svg>
