<svg width="576" height="464" viewBox="0 0 576 464" fill="none" xmlns="http://www.w3.org/2000/svg">
<path d="M509.67 402.562C509.67 402.562 575.37 344.862 575.37 268.762C575.37 192.662 532.67 192.662 495.77 94.5621C458.87 -3.33788 353.87 -16.0379 290.47 15.0621C236.67 41.4621 221.27 121.162 175.17 136.162C129.07 151.162 124.47 114.262 50.5703 133.862C-23.3297 153.462 14.8703 260.762 14.8703 260.762L157.97 216.962L509.67 402.562Z" fill="#F4FAFE"/>
<path d="M248.691 386.14L157.575 422.597L51.9746 316.982L121.183 306.998L248.691 386.14Z" fill="#FF6726"/>
<path d="M248.691 386.14L157.575 422.597L51.9746 316.982L121.183 306.998L248.691 386.14Z" fill="#EEEEEE"/>
<path d="M360.708 434.413C372.757 434.413 382.525 427.892 382.525 419.849C382.525 411.805 372.757 405.284 360.708 405.284C348.659 405.284 338.892 411.805 338.892 419.849C338.892 427.892 348.659 434.413 360.708 434.413Z" fill="#FF6726"/>
<path d="M360.708 434.413C372.757 434.413 382.525 427.892 382.525 419.849C382.525 411.805 372.757 405.284 360.708 405.284C348.659 405.284 338.892 411.805 338.892 419.849C338.892 427.892 348.659 434.413 360.708 434.413Z" fill="#EEEEEE"/>
<path d="M275.092 337.134L408.558 347.668L378.95 332.462L275.092 337.134Z" fill="#A9D8FA"/>
<path d="M305.159 296.097L265.559 292.8L270.509 286.937H293.334L305.159 296.097Z" fill="#F9FFFB"/>
<path d="M433.584 454.016C448.923 454.016 461.359 446.47 461.359 437.161C461.359 427.853 448.923 420.307 433.584 420.307C418.244 420.307 405.809 427.853 405.809 437.161C405.809 446.47 418.244 454.016 433.584 454.016Z" fill="#EEEEEE"/>
<path d="M268.95 398.048L254.009 422.597L287.1 429.009L299.934 404.46L268.95 398.048Z" fill="white" stroke="#263238" stroke-linecap="round" stroke-linejoin="round"/>
<path d="M294.617 370.293L279.676 392.735L310.659 402.353L323.492 379.911L294.617 370.293Z" fill="#E5F4FF"/>
<path d="M294.617 370.293L279.676 392.735L310.659 402.353L323.492 379.911L294.617 370.293Z" stroke="#263238" stroke-linecap="round" stroke-linejoin="round"/>
<path d="M327.709 412.979L301.034 420.49L311.668 437.528L342.742 430.108L327.709 412.979Z" fill="#9FB2C3" stroke="#263238" stroke-linecap="round" stroke-linejoin="round"/>
<path d="M403.975 408.674L406.725 429.375C406.725 437.986 417.175 444.947 430.1 444.947C443.025 444.947 453.475 437.986 453.475 429.375L456.316 408.674H403.975Z" fill="#90A1B1" stroke="#263238" stroke-linecap="round" stroke-linejoin="round"/>
<path d="M430.1 426.078C444.528 426.078 456.225 418.286 456.225 408.674C456.225 399.062 444.528 391.27 430.1 391.27C415.671 391.27 403.975 399.062 403.975 408.674C403.975 418.286 415.671 426.078 430.1 426.078Z" fill="#90A1B1" stroke="#263238" stroke-linecap="round" stroke-linejoin="round"/>
<path d="M430.1 423.513C442.402 423.513 452.375 416.869 452.375 408.674C452.375 400.478 442.402 393.834 430.1 393.834C417.798 393.834 407.825 400.478 407.825 408.674C407.825 416.869 417.798 423.513 430.1 423.513Z" fill="white" stroke="#263238" stroke-linecap="round" stroke-linejoin="round"/>
<path d="M430.1 423.513C442.199 423.513 452.008 418.058 452.008 411.33C452.008 404.602 442.199 399.147 430.1 399.147C418 399.147 408.191 404.602 408.191 411.33C408.191 418.058 418 423.513 430.1 423.513Z" fill="#263238" stroke="#263238" stroke-linecap="round" stroke-linejoin="round"/>
<path d="M437.983 368.828C434.225 366.354 428.45 366.629 426.066 371.118C422.675 377.713 425.058 389.896 423.866 391.636C422.675 393.376 419.008 393.834 417.266 390.17C415.525 386.506 415.525 381.652 413.325 381.377C411.125 381.102 408.191 382.11 407.733 387.697C407.275 393.285 408.191 399.605 412.133 402.536C416.075 405.468 420.383 404.46 421.666 405.742C422.95 406.933 421.666 408.857 421.666 410.139C421.666 415.635 428.816 418.292 433.308 417.009C439.908 415.086 439.175 408.49 440.183 405.742C441.191 403.086 446.508 402.811 448.525 398.689C450.45 394.567 453.383 386.232 449.258 383.117C445.133 379.911 441.925 381.377 441.466 384.858C440.916 387.606 440 390.17 438.716 392.644C441.65 386.781 444.491 373.041 437.983 368.828Z" fill="#FF6726"/>
<path opacity="0.2" d="M437.983 368.828C434.225 366.354 428.45 366.629 426.066 371.118C422.675 377.713 425.058 389.896 423.866 391.636C422.675 393.376 419.008 393.834 417.266 390.17C415.525 386.506 415.525 381.652 413.325 381.377C411.125 381.102 408.191 382.11 407.733 387.697C407.275 393.285 408.191 399.605 412.133 402.536C416.075 405.468 420.383 404.46 421.666 405.742C422.95 406.933 421.666 408.857 421.666 410.139C421.666 415.635 428.816 418.292 433.308 417.009C439.908 415.086 439.175 408.49 440.183 405.742C441.191 403.086 446.508 402.811 448.525 398.689C450.45 394.567 453.383 386.232 449.258 383.117C445.133 379.911 441.925 381.377 441.466 384.858C440.916 387.606 440 390.17 438.716 392.644C441.65 386.781 444.491 373.041 437.983 368.828Z" fill="black"/>
<path d="M437.983 368.828C434.225 366.354 428.45 366.629 426.066 371.118C422.675 377.713 425.058 389.896 423.866 391.636C422.675 393.376 419.008 393.834 417.266 390.17C415.525 386.506 415.525 381.652 413.325 381.377C411.125 381.102 408.191 382.11 407.733 387.697C407.275 393.285 408.191 399.605 412.133 402.536C416.075 405.468 420.383 404.46 421.666 405.742C422.95 406.933 421.666 408.857 421.666 410.139C421.666 415.635 428.816 418.292 433.308 417.009C439.908 415.086 439.175 408.49 440.183 405.742C441.191 403.086 446.508 402.811 448.525 398.689C450.45 394.567 453.383 386.232 449.258 383.117C445.133 379.911 441.925 381.377 441.466 384.858C440.916 387.606 440 390.17 438.716 392.644C441.65 386.781 444.491 373.041 437.983 368.828Z" fill="#DAEFFF" stroke="#263238" stroke-linecap="round" stroke-linejoin="round"/>
<path d="M431.934 370.66C429.734 372.125 428.267 374.598 427.992 377.255C427.717 381.652 427.992 395.575 426.25 397.498C424.509 399.422 418.917 398.964 415.342 395.575C411.767 392.186 413.325 384.858 413.325 384.858" stroke="#263238" stroke-width="0.5" stroke-linecap="round" stroke-linejoin="round"/>
<path d="M414.517 399.788C415.8 400.796 417.267 401.437 418.825 401.804C423.225 402.811 426.433 400.613 427.167 402.811C427.9 405.01 426.433 412.796 426.433 412.796" stroke="#263238" stroke-width="0.5" stroke-linecap="round" stroke-linejoin="round"/>
<path d="M411.95 397.224C412.409 397.865 412.959 398.414 413.509 398.964" stroke="#263238" stroke-width="0.5" stroke-linecap="round" stroke-linejoin="round"/>
<path d="M431.842 408.857C432.117 405.193 432.117 401.529 431.933 397.956C431.475 392.46 434.042 382.384 434.683 377.804" stroke="#263238" stroke-width="0.5" stroke-linecap="round" stroke-linejoin="round"/>
<path d="M431.475 414.536C431.475 414.536 431.566 413.07 431.75 410.872" stroke="#263238" stroke-width="0.5" stroke-linecap="round" stroke-linejoin="round"/>
<path d="M448.342 390.079C448.433 388.888 448.525 388.155 448.525 388.155" stroke="#263238" stroke-width="0.5" stroke-linecap="round" stroke-linejoin="round"/>
<path d="M436.792 410.139C436.792 410.139 437.8 402.078 439.725 400.613C441.65 399.056 447.242 398.14 447.792 394.476C447.884 393.926 447.975 393.376 447.975 392.827" stroke="#263238" stroke-width="0.5" stroke-linecap="round" stroke-linejoin="round"/>
<path d="M445.133 385.041C444.125 385.774 443.483 386.964 443.666 388.247C443.85 391.27 442.383 394.109 439.816 395.575" stroke="#263238" stroke-width="0.5" stroke-linecap="round" stroke-linejoin="round"/>
<path d="M434.958 374.965C435.05 373.591 434.958 372.217 434.866 370.843" stroke="#263238" stroke-width="0.5" stroke-linecap="round" stroke-linejoin="round"/>
<path d="M341.917 369.56L345.492 407.666V411.696C345.492 417.192 353.192 421.498 362.634 421.498C372.075 421.498 379.775 417.101 379.775 411.696V407.666L383.075 369.194L341.917 369.56Z" fill="white" stroke="#263238" stroke-linecap="round" stroke-linejoin="round"/>
<path d="M380.05 405.651L381.975 383.484C379.409 387.422 371.8 390.354 362.817 390.354C353.284 390.354 345.4 387.148 343.292 382.842L345.492 405.559C348.975 408.49 355.484 410.414 362.909 410.414C370.15 410.322 376.567 408.49 380.05 405.651Z" fill="#263238" stroke="#263238" stroke-linecap="round" stroke-linejoin="round"/>
<path d="M342.65 376.797V376.522L342.467 374.965L342.65 376.797Z" fill="white" stroke="#263238" stroke-linecap="round" stroke-linejoin="round"/>
<path d="M383.808 363.973C380.142 359.393 372.075 356.187 362.725 356.187C353.375 356.187 345.217 359.393 341.642 363.973H339.533V369.469C339.533 376.797 349.892 382.751 362.725 382.751C375.558 382.751 385.917 376.797 385.917 369.469V363.973H383.808Z" fill="#EEEEEE" stroke="#263238" stroke-linecap="round" stroke-linejoin="round"/>
<path d="M362.725 377.255C375.533 377.255 385.917 371.308 385.917 363.973C385.917 356.637 375.533 350.691 362.725 350.691C349.916 350.691 339.533 356.637 339.533 363.973C339.533 371.308 349.916 377.255 362.725 377.255Z" fill="white" stroke="#263238" stroke-linecap="round" stroke-linejoin="round"/>
<path d="M381.15 356.553C377.942 352.523 370.884 349.683 362.725 349.683C354.475 349.683 347.509 352.523 344.3 356.553H342.559V361.316C342.559 367.728 351.634 372.858 362.817 372.858C374 372.858 383.075 367.728 383.075 361.316V356.553H381.15Z" fill="#DAEFFF" stroke="#263238" stroke-linecap="round" stroke-linejoin="round"/>
<path d="M362.725 368.095C373.913 368.095 382.983 362.927 382.983 356.553C382.983 350.179 373.913 345.012 362.725 345.012C351.537 345.012 342.467 350.179 342.467 356.553C342.467 362.927 351.537 368.095 362.725 368.095Z" fill="white" stroke="#263238" stroke-linecap="round" stroke-linejoin="round"/>
<path d="M158.4 244.252C158.4 244.252 159.959 243.244 170.042 247.458C180.125 251.671 184.067 250.755 193.784 249.015C205.517 247 215.325 244.893 216.425 249.656C218.442 257.808 210.192 257.717 195.434 259.366C180.675 261.014 172.059 256.434 167.292 254.328C165.092 253.412 162.984 252.404 160.967 251.122L158.4 244.252Z" fill="white" stroke="#263238" stroke-linecap="round" stroke-linejoin="round"/>
<path d="M135.667 248.465C135.667 248.465 148.867 263.762 154.733 259.549C160.508 255.335 160.05 241.595 154.733 237.382C149.325 233.168 134.567 241.137 135.667 248.465Z" fill="white" stroke="#263238" stroke-linecap="round" stroke-linejoin="round"/>
<path d="M175.817 206.238C175.817 206.238 176.367 220.527 172.609 229.962C168.942 239.488 162.067 245.809 160.967 251.122C159.959 256.434 160.417 263.762 155.192 265.961C149.875 268.068 149.875 264.404 150.425 260.19C150.975 255.976 151.984 240.13 151.984 240.13L134.567 250.572C134.567 250.572 139.334 263.762 129.25 265.411C119.167 266.968 107.067 251.671 105.509 240.13C103.95 228.588 110.275 202.574 121.367 195.704C132.459 188.834 146.759 189.933 154.184 189.933C161.609 189.933 172.609 195.154 175.817 206.238Z" fill="white" stroke="#263238" stroke-linecap="round" stroke-linejoin="round"/>
<path d="M133.65 191.582C133.65 191.582 130.9 192.956 126.133 200.467C121.367 207.978 130.9 214.39 136.033 211.001C141.167 207.612 136.675 200.467 140.433 197.078C142.633 195.246 144.008 192.681 144.558 189.933L133.65 191.582Z" fill="#263238"/>
<path d="M118.341 202.116C115.866 203.856 114.216 206.604 113.941 209.627C113.575 214.39 122.1 205.505 123.108 201.474C124.116 197.352 118.341 202.116 118.341 202.116Z" fill="#263238"/>
<path d="M148.867 191.49C146.392 195.978 146.575 201.474 149.417 205.78C154.184 213.199 164.725 216.314 168.942 211.092C173.159 205.78 174.717 203.215 173.159 200.558C171.6 197.81 156.292 187.185 148.867 191.49Z" stroke="#263238" stroke-linecap="round" stroke-linejoin="round"/>
<path d="M187.917 165.567C183.884 166.025 179.85 164.651 176.825 161.903C171.509 157.14 166.742 146.606 164.634 147.064C162.525 147.614 155.1 162.911 155.1 162.911C155.1 162.911 142.45 164.01 141.35 167.674C140.342 171.338 146.117 188.834 150.884 196.162C155.467 202.848 162.892 206.97 170.959 207.245C177.284 207.245 196.35 208.802 199.009 202.482C201.667 196.162 199.559 177.109 199.559 177.109C199.559 177.109 207.992 168.682 204.325 167.033C200.659 165.567 187.917 165.567 187.917 165.567Z" fill="white" stroke="#263238" stroke-linecap="round" stroke-linejoin="round"/>
<path d="M185.35 191.948C184.709 191.124 184.067 190.299 183.517 189.383C182.509 187.918 180.125 185.628 175.634 187.093C169.125 189.108 164.725 195.246 171.875 200.375C178.659 205.23 192.225 200.925 185.35 191.948Z" fill="#263238"/>
<path d="M149.784 184.895C150.425 185.719 151.159 186.544 151.709 187.368C152.809 188.834 155.192 191.032 159.684 189.383C166.1 187.185 170.317 180.864 162.984 176.01C156.017 171.43 142.634 176.193 149.784 184.895Z" fill="#263238"/>
<path d="M155.191 162.911C155.191 162.911 162.616 167.124 166.833 165.567C171.05 164.01 168.391 146.056 164.725 147.064C161.058 148.072 154.641 156.041 155.191 162.911Z" fill="white" stroke="#263238" stroke-linecap="round" stroke-linejoin="round"/>
<path d="M204.325 167.124C204.325 167.124 197.45 166.575 193.233 171.338C188.925 176.101 191.675 180.864 197.45 181.872C203.317 182.971 206.433 167.124 204.325 167.124Z" fill="white" stroke="#263238" stroke-linecap="round" stroke-linejoin="round"/>
<path d="M163.167 196.711C163.167 196.711 156.292 191.398 157.85 195.612C159.408 199.826 162.067 200.375 164.725 199.276C167.292 198.268 163.167 196.711 163.167 196.711Z" fill="#1997F3" stroke="#263238" stroke-linecap="round" stroke-linejoin="round"/>
<path d="M159.317 183.521C158.95 184.895 157.758 185.811 156.842 185.536C155.833 185.261 155.375 183.887 155.742 182.513C156.108 181.139 157.3 180.223 158.217 180.498C159.317 180.681 159.775 182.055 159.317 183.521Z" fill="white"/>
<path d="M175.634 195.978C174.35 196.711 172.884 196.62 172.425 195.704C171.967 194.788 172.517 193.505 173.8 192.772C174.809 192.04 176.184 192.131 177.009 193.047C177.467 193.872 176.917 195.246 175.634 195.978Z" fill="white"/>
<path d="M128.242 229.504C128.242 229.504 126.684 241.137 128.792 245.9C130.9 250.664 133.009 268.617 137.225 269.075C141.442 269.533 139.884 259.549 139.884 257.992C139.884 256.434 140.434 239.488 140.434 239.488C140.434 239.488 144.1 231.519 146.209 227.306" fill="white"/>
<path d="M128.242 229.504C128.242 229.504 126.684 241.137 128.792 245.9C130.9 250.664 133.009 268.617 137.225 269.075C141.442 269.533 139.884 259.549 139.884 257.992C139.884 256.434 140.434 239.488 140.434 239.488C140.434 239.488 144.1 231.519 146.209 227.306" stroke="#263238" stroke-linecap="round" stroke-linejoin="round"/>
<path d="M110.825 228.954C110.825 228.954 125.125 224.741 126.684 240.588" stroke="#263238" stroke-linecap="round" stroke-linejoin="round"/>
<path d="M151.983 240.13C151.983 240.13 164.175 233.809 164.633 220.069" stroke="#263238" stroke-linecap="round" stroke-linejoin="round"/>
<path d="M5.04199 261.656L14.0253 259.64" stroke="#263238" stroke-linecap="round" stroke-linejoin="round"/>
<path d="M80.208 314.784L152.808 294.174C155.1 293.899 157.391 294.448 159.408 295.731L277.566 371.118C278.941 372.034 279.308 373.774 278.391 375.148C277.933 375.881 277.2 376.339 276.283 376.43L176.916 407.483L80.208 314.784Z" fill="#161616" stroke="#263238" stroke-linecap="round" stroke-linejoin="round"/>
<path d="M122.65 319.089L132.917 326.234L144.834 322.844L134.567 315.791L122.65 319.089Z" fill="#263238"/>
<path d="M129.067 338.966L118.8 331.821L106.884 335.21L117.15 342.264L129.067 338.966Z" fill="#263238"/>
<path d="M148.5 323.486L158.767 330.539L170.683 327.15L160.417 320.096L148.5 323.486Z" fill="#263238"/>
<path d="M160.509 331.73L170.775 338.783L182.6 335.394L172.334 328.34L160.509 331.73Z" fill="#263238"/>
<path d="M134.658 327.333L144.925 334.478L156.75 331.088L146.483 324.035L134.658 327.333Z" fill="#263238"/>
<path d="M108.809 323.028L119.075 330.172L130.992 326.783L120.634 319.73L108.809 323.028Z" fill="#263238"/>
<path d="M190.85 368.003L180.492 360.95L168.667 364.248L178.934 371.392L190.85 368.003Z" fill="#263238"/>
<path d="M176.917 371.942L166.65 364.797L154.733 368.186L165.092 375.24L176.917 371.942Z" fill="#263238"/>
<path d="M140.983 347.21L130.717 340.065L118.892 343.454L129.158 350.508L140.983 347.21Z" fill="#263238"/>
<path d="M202.766 376.247L192.5 369.194L180.583 372.492L190.941 379.636L202.766 376.247Z" fill="#263238"/>
<path d="M152.992 355.454L142.725 348.309L130.809 351.698L141.075 358.752L152.992 355.454Z" fill="#263238"/>
<path d="M165 363.698L154.733 356.553L142.816 359.942L153.083 366.996L165 363.698Z" fill="#263238"/>
<path d="M172.425 339.974L182.691 347.027L194.608 343.638L184.341 336.584L172.425 339.974Z" fill="#263238"/>
<path d="M120.725 331.272L130.991 338.416L142.908 335.027L132.641 327.974L120.725 331.272Z" fill="#263238"/>
<path d="M216.608 372.308L206.342 365.255L194.517 368.644L204.783 375.698L216.608 372.308Z" fill="#263238"/>
<path d="M180.766 347.576L170.5 340.523L158.583 343.821L168.85 350.966L180.766 347.576Z" fill="#263238"/>
<path d="M154.917 343.271L144.65 336.218L132.733 339.516L143 346.66L154.917 343.271Z" fill="#263238"/>
<path d="M105.142 322.478L99.0919 318.264L90.9336 320.554L95.7003 325.134L105.142 322.478Z" fill="#263238"/>
<path d="M117.059 330.722L106.792 323.577L97.0752 326.325L105.142 334.02L117.059 330.722Z" fill="#263238"/>
<path d="M146.575 335.668L156.842 342.722L168.759 339.332L158.492 332.279L146.575 335.668Z" fill="#263238"/>
<path d="M166.833 351.515L156.566 344.462L144.741 347.76L155.008 354.904L166.833 351.515Z" fill="#263238"/>
<path d="M218.533 360.126L208.266 353.072L196.35 356.462L206.708 363.515L218.533 360.126Z" fill="#263238"/>
<path d="M184.434 348.218L194.7 355.271L206.617 351.882L196.35 344.828L184.434 348.218Z" fill="#263238"/>
<path d="M204.692 364.064L194.425 357.011L182.509 360.4L192.775 367.454L204.692 364.064Z" fill="#263238"/>
<path d="M192.683 355.82L182.417 348.767L170.5 352.065L180.858 359.21L192.683 355.82Z" fill="#263238"/>
<path d="M178.842 359.759L168.575 352.706L156.658 356.004L166.925 363.148L178.842 359.759Z" fill="#263238"/>
<path d="M127.141 351.057L116.875 344.004L115.958 344.279L124.025 351.973L127.141 351.057Z" fill="#263238"/>
<path d="M218.35 373.499L206.434 376.888L218.809 385.316L230.359 381.743L218.35 373.499Z" fill="#263238"/>
<path d="M204.508 377.438L192.592 380.736L205.242 389.529L216.883 385.957L204.508 377.438Z" fill="#263238"/>
<path d="M151.067 367.545L140.8 360.492L134.842 362.141L143 369.927L151.067 367.545Z" fill="#263238"/>
<path d="M230.542 368.37L220.275 361.316L208.358 364.706L218.625 371.759L230.542 368.37Z" fill="#263238"/>
<path d="M163.075 375.881L152.808 368.736L144.283 371.118L152.442 378.812L163.075 375.881Z" fill="#263238"/>
<path d="M175.083 384.125L164.816 376.98L153.725 380.094L161.883 387.789L175.083 384.125Z" fill="#263238"/>
<path d="M188.925 380.186L178.658 373.041L166.741 376.43L177.008 383.484L188.925 380.186Z" fill="#263238"/>
<path d="M256.025 369.011L249.15 364.706L234.116 368.919L245.758 376.888L254.833 374.14C256.391 374.049 257.583 372.675 257.4 371.118C257.308 370.293 256.85 369.56 256.025 369.011Z" fill="#263238"/>
<path d="M176.734 385.224L163.167 389.071L173.892 399.147L189.842 394.292L176.734 385.224Z" fill="#263238"/>
<path d="M236.5 356.736L222.2 360.767L232.467 367.82L247.5 363.606L236.5 356.736Z" fill="#263238"/>
<path d="M232.191 369.56L220.366 372.95L232.283 381.194L243.925 377.621L232.191 369.56Z" fill="#263238"/>
<path d="M148.683 310.112L158.4 307.364L152.166 303.425L142.725 306.082L148.683 310.112Z" fill="#263238"/>
<path d="M203.317 390.079L190.575 381.285L178.75 384.674L191.767 393.651L203.317 390.079Z" fill="#263238"/>
<path d="M150.425 311.303L160.691 318.356L171.141 315.425L160.233 308.555L150.425 311.303Z" fill="#263238"/>
<path d="M174.35 327.791L184.616 334.844L196.625 331.455L185.625 324.585L174.35 327.791Z" fill="#263238"/>
<path d="M162.342 319.547L172.608 326.6L183.883 323.486L172.975 316.524L162.342 319.547Z" fill="#263238"/>
<path d="M186.267 336.035L196.625 343.088L209.275 339.516L198.367 332.646L186.267 336.035Z" fill="#263238"/>
<path d="M198.275 344.279L208.542 351.332L222.017 347.576L211.109 340.706L198.275 344.279Z" fill="#263238"/>
<path d="M223.85 348.676L210.283 352.523L220.55 359.576L234.758 355.637L223.85 348.676Z" fill="#263238"/>
<path d="M136.491 315.242L146.758 322.295L158.675 318.906L148.408 311.852L136.491 315.242Z" fill="#263238"/>
<path d="M112.566 340.981L114.583 342.996L115.133 342.813L112.566 340.981Z" fill="#263238"/>
<path d="M107.067 321.928L118.983 318.539L113.025 314.417L101.108 317.715L107.067 321.928Z" fill="#263238"/>
<path d="M120.909 317.99L132.825 314.6L126.867 310.478L114.95 313.868L120.909 317.99Z" fill="#263238"/>
<path d="M128.884 309.929L134.842 314.051L146.759 310.662L140.8 306.631L128.884 309.929Z" fill="#263238"/>
<path d="M139.15 359.301L128.884 352.248L125.4 353.256L133.559 360.95L139.15 359.301Z" fill="#263238"/>
<path d="M176.825 407.483L145.383 280.342C144.65 277.411 143.091 274.846 140.983 272.831L56.2831 193.872C55.3665 193.047 53.8998 193.047 53.0748 193.963C52.5248 194.513 52.3415 195.337 52.5248 196.07L80.2081 314.692L176.825 407.483Z" fill="#9FF4FF" stroke="#263238" stroke-linecap="round" stroke-linejoin="round"/>
<path d="M129.342 267.61L139.058 276.037C139.058 276.037 142.083 276.678 145.108 291.792" stroke="#263238" stroke-width="0.5" stroke-linecap="round" stroke-linejoin="round"/>
<path d="M146.941 299.67L164.816 376.98" stroke="#263238" stroke-width="0.5" stroke-linecap="round" stroke-linejoin="round"/>
<path d="M94.6004 264.22C98.817 274.388 98.4504 284.189 93.7754 286.113C89.1004 288.036 81.8587 281.35 77.7337 271.09C73.517 260.831 73.8837 251.122 78.5587 249.198C83.2337 247.274 90.4754 254.053 94.6004 264.22Z" fill="white"/>
<path d="M91.5718 280.831C94.8956 279.464 95.1683 272.477 92.181 265.226C89.1936 257.975 84.0774 253.206 80.7536 254.573C77.4298 255.941 77.1571 262.927 80.1445 270.178C83.1318 277.429 88.248 282.199 91.5718 280.831Z" stroke="#3EAEFF" stroke-miterlimit="10"/>
<path d="M101.108 305.99C103.308 311.303 102.391 316.616 99.0913 317.99C95.7913 319.364 91.3913 316.158 89.1913 310.845C86.9913 305.532 87.908 300.219 91.208 298.845C94.508 297.471 98.908 300.677 101.108 305.99Z" fill="#263238"/>
<path d="M96.617 314.875C94.5087 314.875 92.3087 313.043 91.117 310.112C90.4753 308.646 90.2003 306.998 90.4753 305.349C90.567 303.975 91.4837 302.784 92.6753 302.143C94.967 301.227 97.9003 303.15 99.367 306.723C100.834 310.204 100.1 313.684 97.8087 314.692C97.442 314.784 96.9837 314.875 96.617 314.875ZM93.867 303.242C93.592 303.242 93.4087 303.242 93.2253 303.334C92.4003 303.792 91.942 304.616 91.8503 305.44C91.667 306.814 91.8503 308.28 92.4003 309.562C93.5003 312.31 95.792 314.051 97.3503 313.41C98.9087 312.768 99.2753 309.929 98.1753 307.272C97.0753 304.891 95.242 303.242 93.867 303.242Z" fill="white"/>
<path d="M125.491 307.639L117.7 319.913C117.333 320.554 117.333 321.287 117.7 321.928L134.383 346.202C134.933 347.027 136.125 347.302 136.95 346.66C137.041 346.66 137.041 346.569 137.133 346.569L145.75 339.516C146.483 338.966 146.666 337.958 146.208 337.134L128.7 307.639C128.241 306.723 127.05 306.448 126.225 306.998C125.858 307.181 125.675 307.364 125.491 307.639Z" fill="#263238"/>
<path d="M107.983 291.426C107.983 291.426 129.525 287.853 144.283 318.173L147.95 313.684C147.95 313.684 133.741 289.96 122.1 287.853C110.458 285.746 106.241 285.746 106.241 285.746L107.983 291.426Z" fill="white"/>
<path d="M19.0664 258.541L54.2664 250.572" stroke="#263238" stroke-linecap="round" stroke-linejoin="round"/>
<path d="M242.184 334.936C237.967 335.577 233.75 336.035 229.442 336.218C222.842 336.493 220 336.493 221.009 338.05C222.017 339.607 229.9 341.073 232.742 341.622C235.584 342.08 242.184 334.936 242.184 334.936Z" fill="white" stroke="#263238" stroke-miterlimit="10"/>
<path d="M489.958 390.17L478.225 384.033" stroke="#263238" stroke-linecap="round" stroke-linejoin="round"/>
<path d="M255.017 246.725C255.017 246.725 257.492 242.42 258.5 247.732L255.017 246.725Z" fill="#263238"/>
<path d="M470.892 380.278L184.158 230.512" stroke="#263238" stroke-linecap="round" stroke-linejoin="round"/>
<path d="M191.675 289.136L251.9 327.974L301.491 307.822L234.758 273.838L191.675 289.136Z" fill="#263238" stroke="#263238" stroke-linecap="round" stroke-linejoin="round"/>
<path d="M230.358 281.075L206.342 289.502" stroke="white" stroke-width="0.5" stroke-linecap="round" stroke-linejoin="round"/>
<path d="M210.191 292.342L253.458 319.638L288.75 305.99" stroke="white" stroke-width="0.5" stroke-linecap="round" stroke-linejoin="round"/>
<path d="M440 105.661C440 105.661 474.466 111.157 485.65 129.568C496.833 147.98 488.858 177.109 485.1 187.093C481.708 196.162 491.608 203.764 497.75 208.711C511.408 219.794 518.466 235.458 511.316 252.496C506.916 263.121 487.208 267.884 489.866 280.617C492.525 293.349 504.166 311.211 489.316 324.493C473.733 338.416 450.266 331.272 436.608 318.264C421.208 303.608 415.891 278.144 423.775 258.541C433.308 234.817 438.533 219.428 429.55 209.352C420.566 199.276 408.925 192.956 408.925 178.758C408.925 164.56 421.575 160.254 426.891 145.965C432.208 131.675 424.783 116.928 424.783 116.928L440 105.661Z" fill="#393F3C" stroke="#263238" stroke-linecap="round" stroke-linejoin="round"/>
<path d="M472.267 130.393C478.959 135.431 485.009 143.95 482.9 157.69C478.684 185.719 457.967 187.46 471.35 205.138C484.734 222.817 496.925 214.848 494.45 236.74C491.975 258.633 484.092 266.51 484.092 266.51" stroke="white" stroke-miterlimit="10"/>
<path d="M457.967 123.614C460.625 124.256 463.192 125.172 465.667 126.362" stroke="white" stroke-miterlimit="10"/>
<path d="M451.275 131.584C451.275 131.584 468.967 136.438 474.375 151.003C479.784 165.567 457.967 177.75 456.684 186.91" stroke="white" stroke-miterlimit="10"/>
<path d="M450.542 369.652C450.267 361.316 450.175 350.141 450.725 338.325C451.825 314.051 480.883 281.808 481.892 276.037C482.9 270.266 480.333 269.167 480.333 269.167L422.675 244.343C395.908 261.93 389.4 313.043 387.75 336.951L450.542 369.652Z" fill="#9FB2C4" stroke="#263238" stroke-linecap="round" stroke-linejoin="round"/>
<path d="M474.008 270.724C474.008 270.724 478.867 273.747 474.008 278.602C469.15 283.456 455.858 303.975 450.358 316.066" stroke="#263238" stroke-width="0.5" stroke-linecap="round" stroke-linejoin="round"/>
<path d="M448.066 322.02C448.066 322.02 443.85 331.73 444.491 341.348C445.133 351.057 445.133 360.034 445.133 360.034" stroke="#263238" stroke-width="0.5" stroke-linecap="round" stroke-linejoin="round"/>
<path d="M335.042 257.534C337.609 264.129 340.634 278.327 338.617 286.479C337.609 290.693 334.034 299.578 330.917 307.089L408.65 347.668C408.559 331.546 408.742 305.99 410.85 301.227C413.875 294.082 438.259 227.122 436.792 211.825C435.325 196.62 405.809 174.727 405.809 174.727L410.3 137.629L383.35 153.842C383.35 153.842 380.325 168.59 377.209 172.162C374.092 175.735 349.25 180.773 342.1 189.933C334.95 199.093 337.517 227.031 337.517 228.496C337.517 230.054 332.475 251.03 335.042 257.534Z" fill="white"/>
<path d="M335.042 257.534C337.609 264.129 340.634 278.327 338.617 286.479C337.609 290.693 334.034 299.578 330.917 307.089L408.65 347.668C408.559 331.546 408.742 305.99 410.85 301.227C413.875 294.082 438.259 227.122 436.792 211.825C435.325 196.62 405.809 174.727 405.809 174.727L410.3 137.629L383.35 153.842C383.35 153.842 380.325 168.59 377.209 172.162C374.092 175.735 349.25 180.773 342.1 189.933C334.95 199.093 337.517 227.031 337.517 228.496C337.517 230.054 332.475 251.03 335.042 257.534Z" stroke="#263238" stroke-linecap="round" stroke-linejoin="round"/>
<path d="M335.042 257.534C337.609 264.129 340.634 278.327 338.617 286.479C337.609 290.693 334.034 299.578 330.917 307.089L408.65 347.668C408.559 331.546 408.742 305.99 410.85 301.227C413.875 294.082 438.259 227.122 436.792 211.825C435.875 202.299 424.05 190.299 415.342 182.605C406.725 191.765 388.025 208.802 374.367 201.2C362.084 194.33 362.817 183.979 364.65 177.842C356.309 180.864 346.409 184.803 342.284 190.024C335.134 199.184 337.7 227.122 337.7 228.588C337.609 230.145 332.475 251.03 335.042 257.534Z" fill="#292C2A" stroke="#263238" stroke-linecap="round" stroke-linejoin="round"/>
<path d="M380.417 239.488L363.459 231.519C363.459 231.519 358.692 223.642 356.034 223.642C353.375 223.642 351.817 234.725 351.817 234.725C351.817 234.725 342.834 243.152 346.042 251.671C349.25 260.19 360.8 272.831 375.1 268.068C389.4 263.304 385.184 248.557 385.184 248.557C385.184 248.557 390.959 238.481 390.959 236.374C390.959 234.267 380.417 239.488 380.417 239.488Z" fill="white" stroke="#263238" stroke-linecap="round" stroke-linejoin="round"/>
<path d="M344.116 75.7076C344.116 75.7076 347.691 94.0276 347.141 106.668C346.591 119.401 341.55 124.439 343.016 130.026C344.483 135.614 362.816 156.407 374 158.422C385.183 160.438 411.583 143.217 419.191 135.614C426.8 128.011 427.808 116.836 426.8 112.256C425.791 107.676 421.758 71.1276 406.45 56.38C391.141 41.6324 351.266 43.2812 344.116 75.7076Z" fill="white"/>
<path d="M344.116 75.7076C344.116 75.7076 347.691 94.0276 347.141 106.668C346.591 119.401 341.55 124.439 343.016 130.026C344.483 135.614 362.816 156.407 374 158.422C385.183 160.438 411.583 143.217 419.191 135.614C426.8 128.011 427.808 116.836 426.8 112.256C425.791 107.676 421.758 71.1276 406.45 56.38C391.141 41.6324 351.266 43.2812 344.116 75.7076Z" stroke="#263238" stroke-linecap="round" stroke-linejoin="round"/>
<path d="M363.458 113.355C363.458 113.355 361.9 122.973 359.333 126.088C361.35 127.828 363.825 128.927 366.483 129.11" stroke="#263238" stroke-linecap="round" stroke-linejoin="round"/>
<path d="M364.467 137.721C371.158 140.652 378.95 140.286 385.275 136.713" stroke="#263238" stroke-linecap="round" stroke-linejoin="round"/>
<path d="M382.8 108.226C382.8 109.874 381.975 111.248 381.058 111.248C380.05 111.248 379.316 109.874 379.316 108.226C379.316 106.577 380.141 105.203 381.058 105.203C381.975 105.203 382.8 106.577 382.8 108.226Z" fill="#263238"/>
<path d="M357.592 104.195C357.592 105.844 356.767 107.218 355.85 107.218C354.842 107.218 354.108 105.844 354.108 104.195C354.108 102.546 354.933 101.172 355.85 101.172C356.858 101.172 357.592 102.546 357.592 104.195Z" fill="#263238"/>
<path d="M350.809 91.0048C353.65 89.1728 357.134 88.6232 360.434 89.4476" stroke="#263238" stroke-linecap="round" stroke-linejoin="round"/>
<path d="M374.642 91.4628C374.642 91.4628 377.667 89.9056 384.267 94.0276" stroke="#263238" stroke-linecap="round" stroke-linejoin="round"/>
<path d="M377.666 62.0592C377.666 62.0592 363.458 73.784 356.308 80.8372C349.158 87.8904 346.225 93.02 335.5 88.44C324.866 83.86 317.166 68.1048 331.375 49.3268C345.583 30.5488 373.083 24.9612 400.033 32.564C426.983 40.1668 438.166 57.4792 440.183 76.2572C442.2 95.0352 438.166 115.828 428.541 121.416C418.916 127.004 397.558 104.104 389.95 89.9056C385.183 80.9288 381.058 71.6772 377.666 62.0592Z" fill="#393F3C" stroke="#263238" stroke-linecap="round" stroke-linejoin="round"/>
<path d="M377.667 62.0592C377.667 62.0592 339.258 67.7384 337.517 76.2572C335.683 84.776 347.233 82.3028 347.233 82.3028" stroke="white" stroke-miterlimit="10"/>
<path d="M332.567 67.6468C330 73.2344 332.017 76.8068 332.017 76.8068" stroke="white" stroke-miterlimit="10"/>
<path d="M415.984 43.9224C415.984 43.9224 378.859 37.8768 378.859 54.2732C378.859 54.2732 356.309 46.3956 341.734 57.296C339.534 58.8532 337.517 60.6852 335.775 62.792" stroke="white" stroke-miterlimit="10"/>
<path d="M380.783 57.9372C380.783 57.9372 390.225 88.44 410.025 96.226" stroke="white" stroke-miterlimit="10"/>
<path d="M400.491 66.1812C408.1 72.5016 419.008 78.6388 431.933 78.0892" stroke="white" stroke-miterlimit="10"/>
<path d="M388.575 53.7236C390.317 56.1968 392.334 58.4868 394.442 60.6852" stroke="white" stroke-miterlimit="10"/>
<path d="M340.633 93.478L400.125 103.646C400.125 103.646 400.125 112.714 397.558 117.294C394.992 121.874 391.967 121.966 385.367 121.966C378.767 121.966 369.6 117.844 369.142 116.378C368.133 112.806 368.775 100.898 368.775 100.898L364.008 100.165C364.008 100.165 364.65 113.996 362.083 115.554C359.517 117.111 342.742 113.996 339.717 109.966C336.6 105.936 338.525 93.02 340.633 93.478Z" stroke="#263238" stroke-linecap="round" stroke-linejoin="round"/>
<path d="M400.033 103.646L426.525 99.0656V102.638L400.033 109.233V103.646Z" fill="#EEEEEE" stroke="#263238" stroke-linecap="round" stroke-linejoin="round"/>
<path d="M445.97 106.874C448.035 94.0372 443.185 82.5835 435.138 81.2909C427.091 79.9983 418.893 89.3563 416.829 102.193C414.764 115.029 419.613 126.483 427.661 127.775C435.708 129.068 443.906 119.71 445.97 106.874Z" fill="#1997F3" stroke="#263238" stroke-linecap="round" stroke-linejoin="round"/>
<path d="M450.267 107.31C448.525 118.118 442.475 126.179 436.792 125.263C431.109 124.347 427.9 114.821 429.642 104.012C431.384 93.2032 437.434 85.234 443.117 86.15C448.8 87.066 452.009 96.5924 450.267 107.31Z" fill="#1997F3" stroke="#263238" stroke-linecap="round" stroke-linejoin="round"/>
<path d="M442.2 62.0592C443.209 76.2572 441.65 90.5468 437.617 104.195C437.617 104.195 437.067 112.348 444.767 108.775C452.467 105.203 451.367 74.242 450.359 61.5096C449.35 48.8688 439.725 52.3496 442.2 62.0592Z" fill="white" stroke="#263238" stroke-linecap="round" stroke-linejoin="round"/>
<path d="M413.783 38.1516C413.783 38.1516 425.425 35.1288 431.566 45.7544C437.616 56.4716 436.608 66.0896 445.225 67.0972C453.841 68.1048 454.391 58.4868 449.808 46.304C445.225 34.1212 435.6 24.9612 422.4 23.9536C409.2 22.946 402.691 33.5716 402.691 33.5716C402.691 33.5716 409.75 34.5792 413.783 38.1516Z" fill="#EEEEEE" stroke="#263238" stroke-linecap="round" stroke-linejoin="round"/>
<path d="M412.775 228.13L377.666 307.822C377.666 307.822 282.15 325.592 273.441 325.592C264.733 325.592 247.5 331.638 243.925 333.745C240.35 335.852 205.883 351.698 212.483 352.706C216.608 353.347 227.15 347.485 227.15 347.485C227.15 347.485 210.375 355.637 211.933 358.11C213.491 360.584 233.75 350.508 233.75 350.508C233.75 350.508 215.141 361.408 218.991 362.049C222.475 362.69 226.691 360.675 230.266 358.11C233.383 356.187 236.683 354.721 240.258 353.714C240.258 353.714 232.1 359.21 231.091 361.683C230.083 364.156 233.108 362.69 236.133 361.683C241.816 359.21 247.316 356.37 252.633 353.072C254.65 351.515 260.791 348.492 264.825 344.92L272.983 337.775C272.983 337.775 327.341 339.332 352.183 338.325C377.025 337.317 389.308 334.752 398.475 325.592C407.641 316.432 433.583 258.541 439.633 242.786C445.683 227.031 441.65 217.871 435.508 207.337" fill="white"/>
<path d="M412.775 228.13L377.666 307.822C377.666 307.822 282.15 325.592 273.441 325.592C264.733 325.592 247.5 331.638 243.925 333.745C240.35 335.852 205.883 351.698 212.483 352.706C216.608 353.347 227.15 347.485 227.15 347.485C227.15 347.485 210.375 355.637 211.933 358.11C213.491 360.584 233.75 350.508 233.75 350.508C233.75 350.508 215.141 361.408 218.991 362.049C222.475 362.69 226.691 360.675 230.266 358.11C233.383 356.187 236.683 354.721 240.258 353.714C240.258 353.714 232.1 359.21 231.091 361.683C230.083 364.156 233.108 362.69 236.133 361.683C241.816 359.21 247.316 356.37 252.633 353.072C254.65 351.515 260.791 348.492 264.825 344.92L272.983 337.775C272.983 337.775 327.341 339.332 352.183 338.325C377.025 337.317 389.308 334.752 398.475 325.592C407.641 316.432 433.583 258.541 439.633 242.786C445.683 227.031 441.65 217.871 435.508 207.337" stroke="#263238" stroke-miterlimit="10"/>
<path d="M412.133 226.115L401.5 253.778C409.383 249.564 424.05 243.977 435.783 252.404C437.433 248.557 438.808 245.259 439.725 242.878C445.867 227.122 441.742 217.962 435.6 207.428" fill="#222523"/>
<path d="M412.133 226.115L401.5 253.778C409.383 249.564 424.05 243.977 435.783 252.404C437.433 248.557 438.808 245.259 439.725 242.878C445.867 227.122 441.742 217.962 435.6 207.428" stroke="#263238" stroke-linecap="round" stroke-linejoin="round"/>
<path d="M336.691 262.755C326.333 265.778 285.633 277.686 281.875 278.602C279.491 279.151 277.108 279.609 274.725 279.884C274.725 279.884 260.516 273.747 256.666 270.999C252.816 268.251 248.233 269.991 246.033 270.999C243.833 272.006 241.908 279.151 246.308 279.151C250.708 279.151 251.35 278.876 256.208 282.998C261.066 287.029 261.066 289.136 264.641 290.601C268.216 292.067 274.083 291.151 277.108 290.601C279.858 290.143 327.066 287.029 338.708 286.388C340.083 279.976 338.616 269.991 336.691 262.755Z" fill="white"/>
<path d="M336.691 262.755C326.333 265.778 285.633 277.686 281.875 278.602C279.491 279.151 277.108 279.609 274.725 279.884C274.725 279.884 260.516 273.747 256.666 270.999C252.816 268.251 248.233 269.991 246.033 270.999C243.833 272.006 241.908 279.151 246.308 279.151C250.708 279.151 251.35 278.876 256.208 282.998C261.066 287.029 261.066 289.136 264.641 290.601C268.216 292.067 274.083 291.151 277.108 290.601C279.858 290.143 327.066 287.029 338.708 286.388C340.083 279.976 338.616 269.991 336.691 262.755Z" stroke="#263238" stroke-linecap="round" stroke-linejoin="round"/>
<path d="M234.85 279.334C234.85 279.334 229.534 282.357 227.975 285.93C226.509 289.502 229.534 288.494 230.542 287.762C231.55 287.029 235.859 283.456 235.859 283.456L234.85 279.334Z" fill="white" stroke="#263238" stroke-linecap="round" stroke-linejoin="round"/>
<path d="M236.317 276.77C234.3 278.052 233.2 280.434 233.567 282.907C234.117 287.212 238.609 293.532 239.159 291.059C239.709 288.494 236.317 276.77 236.317 276.77Z" fill="white" stroke="#263238" stroke-linecap="round" stroke-linejoin="round"/>
<path d="M242.733 273.014C242.733 273.014 237.875 274.296 236.408 276.861C234.85 279.426 237.416 290.326 239.25 291.059C240.625 291.7 242.275 291.059 242.825 289.685C242.917 289.502 243.008 289.227 243.008 289.044C243.467 287.212 242.733 273.014 242.733 273.014Z" fill="white" stroke="#263238" stroke-linecap="round" stroke-linejoin="round"/>
<path d="M248.783 270.449C248.783 270.449 242.458 270.449 241.633 273.472C240.9 276.495 239.617 289.685 240.9 291.792C242.183 293.807 244.2 293.074 245.208 290.51C246.217 287.945 248.783 270.449 248.783 270.449Z" fill="white" stroke="#263238" stroke-linecap="round" stroke-linejoin="round"/>
<path d="M254.558 246.816L244.108 294.265L245.758 300.311C245.85 300.586 246.125 300.769 246.4 300.677C246.492 300.677 246.583 300.586 246.675 300.494L251.258 296.006L258.867 248.007L254.558 246.816Z" fill="#1C3742"/>
<path d="M264.825 285.105C264.825 285.105 258.958 287.395 254.375 289.41C249.791 291.426 245.208 292.433 245.758 295.273C246.308 298.112 248.325 297.013 251.625 296.006C256.116 294.448 260.883 293.349 265.65 292.708C271.975 291.975 277.108 286.113 277.108 286.113" fill="white"/>
<path d="M264.825 285.105C264.825 285.105 258.958 287.395 254.375 289.41C249.791 291.426 245.208 292.433 245.758 295.273C246.308 298.112 248.325 297.013 251.625 296.006C256.116 294.448 260.883 293.349 265.65 292.708C271.975 291.975 277.108 286.113 277.108 286.113" stroke="#263238" stroke-linecap="round" stroke-linejoin="round"/>
<path d="M244.292 294.998L245.392 299.486C245.575 300.128 246.217 300.586 246.95 300.402C247.134 300.311 247.317 300.219 247.5 300.128L249.975 297.746" stroke="white" stroke-width="0.5" stroke-linecap="round" stroke-linejoin="round"/>
<path d="M244.108 294.265L249.517 270.266" stroke="white" stroke-width="0.5" stroke-linecap="round" stroke-linejoin="round"/>
<path d="M57.4746 200.009L126.316 264.037" stroke="#263238" stroke-width="0.5" stroke-linecap="round" stroke-linejoin="round"/>
</svg>
