<svg width="39" height="38" viewBox="0 0 39 38" fill="none" xmlns="http://www.w3.org/2000/svg">
<path d="M20.1181 0L18.5041 0C8.28457 0 0 8.28457 0 18.5041L0 18.5041C0 28.7237 8.28457 37.0082 18.5041 37.0082H20.1181C30.3376 37.0082 38.6222 28.7237 38.6222 18.5041V18.5041C38.6222 8.28457 30.3376 0 20.1181 0Z" fill="#2997FF"/>
<mask id="mask0" mask-type="alpha" maskUnits="userSpaceOnUse" x="0" y="0" width="39" height="38">
<path d="M18.5041 5.5H20.1181C27.3001 5.5 33.1222 11.3221 33.1222 18.5041C33.1222 25.6861 27.3001 31.5082 20.1181 31.5082H18.5041C11.3221 31.5082 5.5 25.6861 5.5 18.5041C5.5 11.3222 11.3222 5.5 18.5041 5.5Z" fill="white" stroke="black" stroke-width="11"/>
</mask>
<g mask="url(#mask0)">
<g filter="url(#filter0_d)">
<path d="M10.1301 40.4558C9.50457 40.4558 8.97861 40.2425 8.55214 39.816C8.15409 39.4179 7.95508 38.9061 7.95508 38.2807V18.8336C7.9835 16.5875 8.50949 14.5689 9.53303 12.7777C10.5566 10.9865 11.9497 9.57914 13.7125 8.55561C15.4752 7.50366 17.4654 6.97766 19.6831 6.97766C21.9291 6.97766 23.9336 7.50366 25.6963 8.55561C27.4591 9.57914 28.8522 10.9865 29.8758 12.7777C30.9277 14.5689 31.4537 16.5875 31.4537 18.8336C31.4537 21.0797 30.9704 23.0983 30.0037 24.8895C29.0655 26.6523 27.7718 28.0596 26.1228 29.1116C24.4738 30.1351 22.6115 30.6469 20.536 30.6469C18.8585 30.6469 17.309 30.3057 15.8875 29.6234C14.4943 28.9126 13.3002 27.9601 12.3051 26.766V38.2807C12.3051 38.9061 12.1061 39.4179 11.708 39.816C11.31 40.2425 10.784 40.4558 10.1301 40.4558ZM19.6831 26.8086C21.1331 26.8086 22.4267 26.4675 23.564 25.7851C24.7012 25.0743 25.5968 24.1219 26.2507 22.9277C26.9331 21.7052 27.2743 20.3405 27.2743 18.8336C27.2743 17.2983 26.9331 15.9336 26.2507 14.7395C25.5968 13.5169 24.7012 12.5645 23.564 11.8821C22.4267 11.1713 21.1331 10.8159 19.6831 10.8159C18.2615 10.8159 16.9678 11.1713 15.8022 11.8821C14.6649 12.5645 13.7693 13.5169 13.1154 14.7395C12.4615 15.9336 12.1345 17.2983 12.1345 18.8336C12.1345 20.3405 12.4615 21.7052 13.1154 22.9277C13.7693 24.1219 14.6649 25.0743 15.8022 25.7851C16.9678 26.4675 18.2615 26.8086 19.6831 26.8086Z" fill="white"/>
</g>
</g>
<defs>
<filter id="filter0_d" x="3.95508" y="6.97766" width="31.4986" height="41.4781" filterUnits="userSpaceOnUse" color-interpolation-filters="sRGB">
<feFlood flood-opacity="0" result="BackgroundImageFix"/>
<feColorMatrix in="SourceAlpha" type="matrix" values="0 0 0 0 0 0 0 0 0 0 0 0 0 0 0 0 0 0 127 0" result="hardAlpha"/>
<feOffset dy="4"/>
<feGaussianBlur stdDeviation="2"/>
<feComposite in2="hardAlpha" operator="out"/>
<feColorMatrix type="matrix" values="0 0 0 0 0 0 0 0 0 0 0 0 0 0 0 0 0 0 0.35 0"/>
<feBlend mode="normal" in2="BackgroundImageFix" result="effect1_dropShadow"/>
<feBlend mode="normal" in="SourceGraphic" in2="effect1_dropShadow" result="shape"/>
</filter>
</defs>
</svg>
