<svg width="134" height="38" viewBox="0 0 134 38" fill="none" xmlns="http://www.w3.org/2000/svg">
<path d="M20.1181 0L18.5041 0C8.28457 0 0 8.28457 0 18.5041L0 18.5041C0 28.7237 8.28457 37.0082 18.5041 37.0082H20.1181C30.3376 37.0082 38.6222 28.7237 38.6222 18.5041V18.5041C38.6222 8.28457 30.3376 0 20.1181 0Z" fill="#1997F3"/>
<mask id="mask0" mask-type="alpha" maskUnits="userSpaceOnUse" x="0" y="0" width="39" height="38">
<path d="M18.5041 5.5H20.1181C27.3001 5.5 33.1222 11.3221 33.1222 18.5041C33.1222 25.6861 27.3001 31.5082 20.1181 31.5082H18.5041C11.3221 31.5082 5.5 25.6861 5.5 18.5041C5.5 11.3222 11.3222 5.5 18.5041 5.5Z" fill="white" stroke="black" stroke-width="11"/>
</mask>
<g mask="url(#mask0)">
<g filter="url(#filter0_d)">
<path d="M10.1301 40.4558C9.50457 40.4558 8.97861 40.2425 8.55214 39.816C8.15409 39.4179 7.95508 38.9061 7.95508 38.2807V18.8336C7.9835 16.5875 8.50949 14.5689 9.53303 12.7777C10.5566 10.9865 11.9497 9.57914 13.7125 8.55561C15.4752 7.50366 17.4654 6.97766 19.6831 6.97766C21.9291 6.97766 23.9336 7.50366 25.6963 8.55561C27.4591 9.57914 28.8522 10.9865 29.8758 12.7777C30.9277 14.5689 31.4537 16.5875 31.4537 18.8336C31.4537 21.0797 30.9704 23.0983 30.0037 24.8895C29.0655 26.6523 27.7718 28.0596 26.1228 29.1116C24.4738 30.1351 22.6115 30.6469 20.536 30.6469C18.8585 30.6469 17.309 30.3057 15.8875 29.6234C14.4943 28.9126 13.3002 27.9601 12.3051 26.766V38.2807C12.3051 38.9061 12.1061 39.4179 11.708 39.816C11.31 40.2425 10.784 40.4558 10.1301 40.4558ZM19.6831 26.8086C21.1331 26.8086 22.4267 26.4675 23.564 25.7851C24.7012 25.0743 25.5968 24.1219 26.2507 22.9277C26.9331 21.7052 27.2743 20.3405 27.2743 18.8336C27.2743 17.2983 26.9331 15.9336 26.2507 14.7395C25.5968 13.5169 24.7012 12.5645 23.564 11.8821C22.4267 11.1713 21.1331 10.8159 19.6831 10.8159C18.2615 10.8159 16.9678 11.1713 15.8022 11.8821C14.6649 12.5645 13.7693 13.5169 13.1154 14.7395C12.4615 15.9336 12.1345 17.2983 12.1345 18.8336C12.1345 20.3405 12.4615 21.7052 13.1154 22.9277C13.7693 24.1219 14.6649 25.0743 15.8022 25.7851C16.9678 26.4675 18.2615 26.8086 19.6831 26.8086Z" fill="white"/>
</g>
</g>
<path d="M50.9694 29.4417C49.4414 29.4417 48.079 29.1196 46.8824 28.4752C45.7041 27.8125 44.7744 26.9104 44.0933 25.7689C43.4305 24.6091 43.0991 23.2836 43.0991 21.7924C43.0991 20.2828 43.4121 18.9573 44.038 17.8158C44.6824 16.656 45.5661 15.7539 46.6891 15.1096C47.8121 14.4468 49.1008 14.1154 50.5552 14.1154C51.9911 14.1154 53.2246 14.4376 54.2556 15.0819C55.2865 15.7079 56.069 16.5824 56.6028 17.7054C57.1551 18.81 57.4313 20.0895 57.4313 21.5439C57.4313 21.8936 57.3116 22.1882 57.0723 22.4275C56.833 22.6485 56.5292 22.7589 56.161 22.7589H45.6673C45.8698 24.0292 46.4497 25.0694 47.4071 25.8794C48.3828 26.671 49.5702 27.0669 50.9694 27.0669C51.5401 27.0669 52.12 26.9656 52.7091 26.7631C53.3167 26.5422 53.8045 26.2936 54.1727 26.0175C54.4489 25.815 54.7434 25.7137 55.0564 25.7137C55.3878 25.6953 55.6731 25.7874 55.9125 25.9899C56.2254 26.266 56.3911 26.5698 56.4095 26.9012C56.428 27.2325 56.2807 27.5179 55.9677 27.7572C55.3418 28.2543 54.5593 28.6593 53.6204 28.9723C52.6999 29.2853 51.8163 29.4417 50.9694 29.4417ZM50.5552 16.4903C49.1928 16.4903 48.0974 16.8677 47.269 17.6225C46.4405 18.3773 45.9159 19.3531 45.6949 20.5497H54.8907C54.725 19.3715 54.274 18.405 53.5376 17.6501C52.8012 16.8769 51.807 16.4903 50.5552 16.4903ZM62.4046 29.3313C61.4841 29.3313 61.0238 28.871 61.0238 27.9505V15.6066C61.0238 14.6861 61.4841 14.2259 62.4046 14.2259C63.3251 14.2259 63.7853 14.6861 63.7853 15.6066V16.1313C64.3376 15.487 65.0096 14.9807 65.8012 14.6125C66.6113 14.2443 67.4857 14.0602 68.4246 14.0602C69.5292 14.0602 70.3485 14.2443 70.8824 14.6125C71.4347 14.9623 71.6464 15.3857 71.5175 15.8828C71.4255 16.2694 71.2414 16.5271 70.9652 16.656C70.6891 16.7665 70.3669 16.7849 69.9987 16.7112C68.8205 16.4719 67.7619 16.4535 66.823 16.656C65.8841 16.8585 65.1385 17.2359 64.5862 17.7882C64.0523 18.3405 63.7853 19.0401 63.7853 19.887V27.9505C63.7853 28.871 63.3251 29.3313 62.4046 29.3313ZM80.1967 29.4417C78.7607 29.4417 77.4628 29.1104 76.303 28.4476C75.1616 27.7664 74.2503 26.8459 73.5691 25.6861C72.9064 24.5263 72.575 23.2192 72.575 21.7648C72.575 20.3104 72.8788 19.0125 73.4863 17.8711C74.1122 16.7112 74.9591 15.7999 76.0269 15.1372C77.0946 14.456 78.3005 14.1154 79.6444 14.1154C80.7306 14.1154 81.734 14.3455 82.6545 14.8058C83.575 15.2476 84.3482 15.8552 84.9741 16.6284V9.17234C84.9741 8.74891 85.103 8.40833 85.3607 8.15059C85.6369 7.89285 85.9775 7.76398 86.3825 7.76398C86.8059 7.76398 87.1465 7.89285 87.4042 8.15059C87.662 8.40833 87.7908 8.74891 87.7908 9.17234V21.7648C87.7908 23.2192 87.4503 24.5263 86.7691 25.6861C86.1063 26.8459 85.2042 27.7664 84.0628 28.4476C82.9214 29.1104 81.6327 29.4417 80.1967 29.4417ZM80.1967 26.9564C81.1356 26.9564 81.9733 26.7355 82.7097 26.2936C83.4461 25.8334 84.026 25.2074 84.4494 24.4158C84.8729 23.6242 85.0846 22.7405 85.0846 21.7648C85.0846 20.7706 84.8729 19.887 84.4494 19.1137C84.026 18.3405 83.4461 17.733 82.7097 17.2911C81.9733 16.8309 81.1356 16.6008 80.1967 16.6008C79.2762 16.6008 78.4386 16.8309 77.6838 17.2911C76.9474 17.733 76.3582 18.3405 75.9164 19.1137C75.493 19.887 75.2813 20.7706 75.2813 21.7648C75.2813 22.7405 75.493 23.6242 75.9164 24.4158C76.3582 25.2074 76.9474 25.8334 77.6838 26.2936C78.4386 26.7355 79.2762 26.9564 80.1967 26.9564ZM99.8619 29.4417C98.3339 29.4417 96.9715 29.1196 95.7749 28.4752C94.5966 27.8125 93.667 26.9104 92.9858 25.7689C92.323 24.6091 91.9916 23.2836 91.9916 21.7924C91.9916 20.2828 92.3046 18.9573 92.9306 17.8158C93.5749 16.656 94.4586 15.7539 95.5816 15.1096C96.7046 14.4468 97.9933 14.1154 99.4477 14.1154C100.884 14.1154 102.117 14.4376 103.148 15.0819C104.179 15.7079 104.961 16.5824 105.495 17.7054C106.048 18.81 106.324 20.0895 106.324 21.5439C106.324 21.8936 106.204 22.1882 105.965 22.4275C105.725 22.6485 105.422 22.7589 105.054 22.7589H94.5598C94.7623 24.0292 95.3423 25.0694 96.2996 25.8794C97.2753 26.671 98.4627 27.0669 99.8619 27.0669C100.433 27.0669 101.013 26.9656 101.602 26.7631C102.209 26.5422 102.697 26.2936 103.065 26.0175C103.341 25.815 103.636 25.7137 103.949 25.7137C104.28 25.6953 104.566 25.7874 104.805 25.9899C105.118 26.266 105.284 26.5698 105.302 26.9012C105.32 27.2325 105.173 27.5179 104.86 27.7572C104.234 28.2543 103.452 28.6593 102.513 28.9723C101.592 29.2853 100.709 29.4417 99.8619 29.4417ZM99.4477 16.4903C98.0853 16.4903 96.99 16.8677 96.1615 17.6225C95.3331 18.3773 94.8084 19.3531 94.5875 20.5497H103.783C103.618 19.3715 103.167 18.405 102.43 17.6501C101.694 16.8769 100.7 16.4903 99.4477 16.4903ZM116.225 29.4417C114.753 29.4417 113.436 29.1104 112.277 28.4476C111.135 27.7664 110.233 26.8551 109.57 25.7137C108.926 24.5539 108.604 23.2468 108.604 21.7924C108.604 20.3012 108.926 18.9757 109.57 17.8158C110.215 16.656 111.098 15.7539 112.221 15.1096C113.344 14.4468 114.633 14.1154 116.087 14.1154C118.26 14.1154 120.064 14.9439 121.5 16.6008C121.758 16.8953 121.85 17.1991 121.776 17.5121C121.702 17.825 121.5 18.1012 121.169 18.3405C120.911 18.5246 120.625 18.5891 120.312 18.5338C119.999 18.4602 119.714 18.2945 119.456 18.0368C118.554 17.0794 117.431 16.6008 116.087 16.6008C114.67 16.6008 113.519 17.0794 112.635 18.0368C111.752 18.9757 111.31 20.2275 111.31 21.7924C111.31 22.7865 111.512 23.6702 111.918 24.4434C112.341 25.2166 112.921 25.8334 113.657 26.2936C114.394 26.7355 115.25 26.9564 116.225 26.9564C117.477 26.9564 118.49 26.6342 119.263 25.9899C119.558 25.7505 119.861 25.6217 120.174 25.6033C120.487 25.5664 120.764 25.6493 121.003 25.8518C121.316 26.1095 121.491 26.4041 121.528 26.7355C121.564 27.0484 121.454 27.3338 121.196 27.5915C119.871 28.825 118.214 29.4417 116.225 29.4417ZM131.458 29.3313C130.537 29.3313 129.709 29.1012 128.972 28.6409C128.236 28.1622 127.656 27.5179 127.232 26.7079C126.809 25.8978 126.597 24.9865 126.597 23.974V17.1531H125.327C124.94 17.1531 124.627 17.0426 124.388 16.8217C124.149 16.6008 124.029 16.3246 124.029 15.9932C124.029 15.625 124.149 15.3305 124.388 15.1096C124.627 14.8886 124.94 14.7782 125.327 14.7782H126.597V10.8016C126.597 10.3966 126.726 10.0652 126.984 9.80749C127.242 9.54975 127.573 9.42088 127.978 9.42088C128.383 9.42088 128.714 9.54975 128.972 9.80749C129.23 10.0652 129.359 10.3966 129.359 10.8016V14.7782H131.706C132.093 14.7782 132.406 14.8886 132.645 15.1096C132.884 15.3305 133.004 15.625 133.004 15.9932C133.004 16.3246 132.884 16.6008 132.645 16.8217C132.406 17.0426 132.093 17.1531 131.706 17.1531H129.359V23.974C129.359 24.7104 129.561 25.3271 129.966 25.8242C130.371 26.3212 130.868 26.5698 131.458 26.5698H132.396C132.728 26.5698 133.004 26.6987 133.225 26.9564C133.464 27.2141 133.584 27.5455 133.584 27.9505C133.584 28.3556 133.427 28.6869 133.114 28.9447C132.82 29.2024 132.433 29.3313 131.955 29.3313H131.458Z" fill="white"/>
<path d="M46.8824 28.4751L46.702 28.7961L46.7049 28.7977L46.7079 28.7993L46.8824 28.4751ZM44.0933 25.7689L43.7737 25.9515L43.7755 25.9545L43.777 25.9576L44.0933 25.7689ZM44.0381 17.8157L43.7163 17.6369L43.7152 17.6387L44.0381 17.8157ZM46.6891 15.1095L46.8725 15.4289L46.8762 15.4266L46.6891 15.1095ZM54.2556 15.0819L54.0605 15.3941L54.0645 15.3966L54.2556 15.0819ZM56.6029 17.7053L56.2704 17.8634L56.2719 17.8667L56.2737 17.8699L56.6029 17.7053ZM57.0723 22.4274L57.322 22.698L57.3275 22.693L57.3327 22.6878L57.0723 22.4274ZM45.6674 22.7588V22.3906H45.2358L45.3039 22.8168L45.6674 22.7588ZM47.4071 25.8793L47.1692 26.1604L47.1722 26.1629L47.1751 26.1653L47.4071 25.8793ZM52.7092 26.763L52.8288 27.1112L52.8322 27.1101L52.8351 27.109L52.7092 26.763ZM54.1728 26.0174L53.9552 25.7204L53.9518 25.7228L54.1728 26.0174ZM55.0564 25.7136V26.0818H55.0668L55.0771 26.0813L55.0564 25.7136ZM55.9125 25.9898L56.1563 25.7137L56.1533 25.7112L56.1504 25.7087L55.9125 25.9898ZM55.9677 27.7571L55.7442 27.4646L55.7413 27.4667L55.7387 27.4688L55.9677 27.7571ZM53.6205 28.9722L53.5041 28.6229L53.5019 28.6236L53.6205 28.9722ZM45.695 20.5496L45.333 20.4828L45.2528 20.9178H45.695V20.5496ZM54.8908 20.5496V20.9178H55.3146L55.2553 20.4983L54.8908 20.5496ZM53.5376 17.6501L53.271 17.904L53.274 17.9072L53.5376 17.6501ZM50.9694 29.0735C49.4948 29.0735 48.1936 28.763 47.0569 28.1509L46.7079 28.7993C47.9646 29.476 49.3884 29.8099 50.9694 29.8099V29.0735ZM47.0628 28.1542C45.9398 27.5224 45.0572 26.6655 44.4096 25.5802L43.777 25.9576C44.4917 27.1551 45.4689 28.1024 46.702 28.7961L47.0628 28.1542ZM44.4129 25.5862C43.7855 24.4883 43.4674 23.2271 43.4674 21.7923H42.731C42.731 23.34 43.0756 24.7298 43.7737 25.9515L44.4129 25.5862ZM43.4674 21.7923C43.4674 20.3346 43.7693 19.0718 44.361 17.9928L43.7152 17.6387C43.055 18.8425 42.731 20.2307 42.731 21.7923H43.4674ZM44.3599 17.9945C44.9726 16.8918 45.8091 16.039 46.8725 15.4289L46.5057 14.7901C45.3235 15.4687 44.3923 16.42 43.7163 17.6369L44.3599 17.9945ZM46.8762 15.4266C47.9362 14.801 49.159 14.4835 50.5552 14.4835V13.7471C49.043 13.7471 47.688 14.0924 46.5021 14.7924L46.8762 15.4266ZM50.5552 14.4835C51.9348 14.4835 53.098 14.7925 54.0605 15.3941L54.4508 14.7696C53.3513 14.0825 52.0475 13.7471 50.5552 13.7471V14.4835ZM54.0645 15.3966C55.0321 15.984 55.7663 16.8031 56.2704 17.8634L56.9354 17.5472C56.3717 16.3614 55.541 15.4316 54.4467 14.7671L54.0645 15.3966ZM56.2737 17.8699C56.7962 18.9151 57.0631 20.1364 57.0631 21.5438H57.7995C57.7995 20.0423 57.5142 18.7047 56.9324 17.5406L56.2737 17.8699ZM57.0631 21.5438C57.0631 21.7996 56.9799 21.9993 56.812 22.1671L57.3327 22.6878C57.6438 22.3769 57.7995 21.9876 57.7995 21.5438H57.0631ZM56.8227 22.1569C56.6603 22.3068 56.4497 22.3906 56.161 22.3906V23.127C56.6088 23.127 57.0057 22.99 57.322 22.698L56.8227 22.1569ZM56.161 22.3906H45.6674V23.127H56.161V22.3906ZM45.3039 22.8168C45.5197 24.1716 46.1427 25.2919 47.1692 26.1604L47.645 25.5982C46.7569 24.8467 46.22 23.8866 46.0311 22.7009L45.3039 22.8168ZM47.1751 26.1653C48.2241 27.0162 49.4959 27.435 50.9694 27.435V26.6986C49.6446 26.6986 48.5419 26.3257 47.6391 25.5934L47.1751 26.1653ZM50.9694 27.435C51.5843 27.435 52.2047 27.3258 52.8288 27.1112L52.5895 26.4148C52.0354 26.6053 51.496 26.6986 50.9694 26.6986V27.435ZM52.8351 27.109C53.464 26.8803 53.9876 26.6166 54.3937 26.312L53.9518 25.7228C53.6219 25.9705 53.1694 26.2039 52.5832 26.417L52.8351 27.109ZM54.3907 26.3143C54.6098 26.1535 54.8293 26.0818 55.0564 26.0818V25.3454C54.6577 25.3454 54.288 25.4762 53.9552 25.7204L54.3907 26.3143ZM55.0771 26.0813C55.3204 26.0677 55.5119 26.133 55.6747 26.2709L56.1504 25.7087C55.8348 25.4416 55.4552 25.3227 55.0362 25.346L55.0771 26.0813ZM55.6691 26.2659C55.928 26.4946 56.0303 26.7124 56.0421 26.9215L56.7774 26.8806C56.752 26.427 56.523 26.0373 56.1563 25.7137L55.6691 26.2659ZM56.0421 26.9215C56.0524 27.1072 55.981 27.2835 55.7442 27.4646L56.1916 28.0496C56.5804 27.7522 56.8039 27.3578 56.7774 26.8806L56.0421 26.9215ZM55.7387 27.4688C55.1536 27.9336 54.4117 28.3204 53.5041 28.6229L53.7368 29.3215C54.7074 28.998 55.5303 28.5748 56.1968 28.0455L55.7387 27.4688ZM53.5019 28.6236C52.6142 28.9255 51.7706 29.0735 50.9694 29.0735V29.8099C51.8623 29.8099 52.7858 29.6449 53.739 29.3208L53.5019 28.6236ZM50.5552 16.122C49.1218 16.122 47.9314 16.521 47.0212 17.3503L47.5172 17.8946C48.2639 17.2143 49.2639 16.8584 50.5552 16.8584V16.122ZM47.0212 17.3503C46.128 18.164 45.5672 19.2143 45.333 20.4828L46.0573 20.6165C46.2649 19.4917 46.7532 18.5905 47.5172 17.8946L47.0212 17.3503ZM45.695 20.9178H54.8908V20.1814H45.695V20.9178ZM55.2553 20.4983C55.0804 19.2529 54.5991 18.2109 53.8013 17.3929L53.274 17.9072C53.9489 18.5988 54.3701 19.4899 54.5262 20.6009L55.2553 20.4983ZM53.8042 17.3961C52.9864 16.5373 51.8892 16.122 50.5552 16.122V16.8584C51.7253 16.8584 52.616 17.2164 53.271 17.904L53.8042 17.3961ZM63.7854 16.1312H63.4172V17.1266L64.0648 16.3709L63.7854 16.1312ZM65.8013 14.6124L65.6488 14.2772L65.6459 14.2786L65.8013 14.6124ZM70.8824 14.6124L70.6733 14.9155L70.6795 14.9196L70.6854 14.9235L70.8824 14.6124ZM71.5176 15.8827L71.1611 15.7903L71.1604 15.7939L71.1593 15.7974L71.5176 15.8827ZM70.9653 16.6559L71.1022 16.9978L71.1118 16.994L71.121 16.9896L70.9653 16.6559ZM69.9987 16.7111L69.9255 17.072L69.9266 17.0722L69.9987 16.7111ZM64.5862 17.7881L64.3259 17.5278L64.3237 17.53L64.3215 17.5322L64.5862 17.7881ZM62.4046 28.963C62.0011 28.963 61.7662 28.8624 61.6296 28.7257C61.4926 28.5889 61.3921 28.354 61.3921 27.9504H60.6557C60.6557 28.4674 60.7853 28.9228 61.1089 29.2464C61.4322 29.5699 61.8877 29.6994 62.4046 29.6994V28.963ZM61.3921 27.9504V15.6065H60.6557V27.9504H61.3921ZM61.3921 15.6065C61.3921 15.203 61.4926 14.9681 61.6296 14.8313C61.7662 14.6946 62.0011 14.594 62.4046 14.594V13.8576C61.8877 13.8576 61.4322 13.9871 61.1089 14.3106C60.7853 14.6342 60.6557 15.0896 60.6557 15.6065H61.3921ZM62.4046 14.594C62.8082 14.594 63.0431 14.6946 63.18 14.8313C63.3166 14.9681 63.4172 15.203 63.4172 15.6065H64.1536C64.1536 15.0896 64.024 14.6342 63.7007 14.3106C63.377 13.9871 62.9216 13.8576 62.4046 13.8576V14.594ZM63.4172 15.6065V16.1312H64.1536V15.6065H63.4172ZM64.0648 16.3709C64.5821 15.7676 65.2114 15.293 65.9566 14.9463L65.6459 14.2786C64.8082 14.6683 64.0935 15.2062 63.5059 15.8916L64.0648 16.3709ZM65.9537 14.9476C66.7133 14.6024 67.5355 14.4283 68.4247 14.4283V13.6919C67.4361 13.6919 66.5093 13.8861 65.6488 14.2772L65.9537 14.9476ZM68.4247 14.4283C69.5017 14.4283 70.2307 14.6102 70.6733 14.9155L71.0915 14.3093C70.4663 13.8782 69.5573 13.6919 68.4247 13.6919V14.4283ZM70.6854 14.9235C70.9259 15.0756 71.0595 15.2238 71.1262 15.357C71.1888 15.4821 71.2053 15.62 71.1611 15.7903L71.874 15.9751C71.9587 15.6483 71.934 15.326 71.7849 15.0277C71.6398 14.7374 71.3916 14.499 71.0794 14.3014L70.6854 14.9235ZM71.1593 15.7974C71.0849 16.1107 70.9546 16.2547 70.8095 16.3223L71.121 16.9896C71.5286 16.7994 71.7665 16.428 71.8758 15.968L71.1593 15.7974ZM70.8287 16.314C70.6342 16.3918 70.3875 16.4134 70.0709 16.3501L69.9266 17.0722C70.3467 17.1562 70.7443 17.1409 71.1022 16.9978L70.8287 16.314ZM70.072 16.3503C68.8562 16.1033 67.745 16.0804 66.7453 16.296L66.9007 17.0158C67.7792 16.8264 68.7848 16.8403 69.9255 17.072L70.072 16.3503ZM66.7453 16.296C65.7534 16.51 64.9386 16.915 64.3259 17.5278L64.8465 18.0485C65.3384 17.5567 66.0152 17.2069 66.9007 17.0158L66.7453 16.296ZM64.3215 17.5322C63.7143 18.1605 63.4172 18.9552 63.4172 19.8869H64.1536C64.1536 19.1248 64.3907 18.5204 64.8509 18.044L64.3215 17.5322ZM63.4172 19.8869V27.9504H64.1536V19.8869H63.4172ZM63.4172 27.9504C63.4172 28.354 63.3166 28.5889 63.18 28.7257C63.0431 28.8624 62.8082 28.963 62.4046 28.963V29.6994C62.9216 29.6994 63.377 29.5699 63.7007 29.2464C64.024 28.9228 64.1536 28.4674 64.1536 27.9504H63.4172ZM76.3031 28.4475L76.1142 28.7637L76.1175 28.7655L76.1204 28.7672L76.3031 28.4475ZM73.5692 25.686L73.2496 25.8687L73.2518 25.8725L73.5692 25.686ZM73.4863 17.871L73.1623 17.6961L73.1612 17.698L73.4863 17.871ZM76.0269 15.1371L76.2209 15.45L76.225 15.4475L76.0269 15.1371ZM82.6545 14.8057L82.4899 15.135L82.4925 15.1364L82.4951 15.1376L82.6545 14.8057ZM84.9742 16.6283L84.6881 16.86L85.3424 17.6683V16.6283H84.9742ZM85.3608 8.1505L85.1097 7.88131L85.1049 7.88565L85.1004 7.89015L85.3608 8.1505ZM86.7691 25.686L86.4517 25.4995L86.4495 25.5034L86.7691 25.686ZM84.0629 28.4475L84.2477 28.766L84.2514 28.7637L84.0629 28.4475ZM82.7097 26.2935L82.899 26.6093L82.9019 26.6075L82.9049 26.6058L82.7097 26.2935ZM82.7097 17.2911L82.5146 17.6033L82.5175 17.6051L82.5201 17.6068L82.7097 17.2911ZM77.6838 17.2911L77.8731 17.6068L77.8753 17.6054L77.6838 17.2911ZM75.9164 19.1137L75.5968 18.931L75.595 18.9339L75.5935 18.9368L75.9164 19.1137ZM75.9164 24.4157L75.5917 24.5894L75.5932 24.5923L75.595 24.5952L75.9164 24.4157ZM77.6838 26.2935L77.4887 26.6058L77.4931 26.6086L77.4979 26.6113L77.6838 26.2935ZM80.1968 29.0735C78.8197 29.0735 77.5859 28.7564 76.4857 28.1278L76.1204 28.7672C77.3399 29.4641 78.7015 29.8099 80.1968 29.8099V29.0735ZM76.4916 28.1313C75.4039 27.4823 74.5368 26.6067 73.8866 25.4996L73.2518 25.8725C73.9639 27.085 74.919 28.0504 76.1142 28.7637L76.4916 28.1313ZM73.8888 25.5034C73.2606 24.404 72.9432 23.1609 72.9432 21.7647H72.2068C72.2068 23.2773 72.5522 24.6484 73.2496 25.8687L73.8888 25.5034ZM72.9432 21.7647C72.9432 20.363 73.2356 19.1258 73.8114 18.044L73.1612 17.698C72.522 18.899 72.2068 20.2576 72.2068 21.7647H72.9432ZM73.8103 18.0458C74.4072 16.9397 75.2106 16.0772 76.2209 15.45L75.8329 14.8243C74.7076 15.5226 73.8173 16.4826 73.1623 17.6961L73.8103 18.0458ZM76.225 15.4475C77.2298 14.8064 78.3661 14.4835 79.6445 14.4835V13.7471C78.235 13.7471 76.9595 14.1054 75.8288 14.8267L76.225 15.4475ZM79.6445 14.4835C80.6765 14.4835 81.6232 14.7018 82.4899 15.135L82.8191 14.4764C81.8448 13.9892 80.7844 13.7471 79.6445 13.7471V14.4835ZM82.4951 15.1376C83.3677 15.5565 84.0971 16.1303 84.6881 16.86L85.2602 16.3966C84.599 15.5799 83.7823 14.9386 82.8139 14.4738L82.4951 15.1376ZM85.3424 16.6283V9.17226H84.606V16.6283H85.3424ZM85.3424 9.17226C85.3424 8.82942 85.4436 8.58836 85.6211 8.41085L85.1004 7.89015C84.7624 8.22812 84.606 8.66823 84.606 9.17226H85.3424ZM85.6119 8.41969C85.8148 8.23044 86.0633 8.13209 86.3825 8.13209V7.39569C85.8917 7.39569 85.4591 7.55508 85.1097 7.88131L85.6119 8.41969ZM86.3825 8.13209C86.7253 8.13209 86.9665 8.23338 87.144 8.41085L87.6646 7.89015C87.3266 7.55214 86.8866 7.39569 86.3825 7.39569V8.13209ZM87.144 8.41085C87.3214 8.58836 87.4227 8.82942 87.4227 9.17226H88.1591C88.1591 8.66823 88.0026 8.22812 87.6646 7.89015L87.144 8.41085ZM87.4227 9.17226V21.7647H88.1591V9.17226H87.4227ZM87.4227 21.7647C87.4227 23.159 87.0968 24.4008 86.4517 25.4995L87.0865 25.8725C87.8038 24.6516 88.1591 23.2791 88.1591 21.7647H87.4227ZM86.4495 25.5034C85.8181 26.6084 84.9609 27.4828 83.874 28.1313L84.2514 28.7637C85.4477 28.0499 86.3947 27.0833 87.0887 25.8687L86.4495 25.5034ZM83.878 28.1291C82.7977 28.7564 81.5735 29.0735 80.1968 29.0735V29.8099C81.6917 29.8099 83.0452 29.4642 84.2477 28.766L83.878 28.1291ZM80.1968 27.3245C81.1961 27.3245 82.1004 27.0886 82.899 26.6093L82.5201 25.9778C81.8463 26.3822 81.0753 26.5881 80.1968 26.5881V27.3245ZM82.9049 26.6058C83.6976 26.1103 84.3213 25.4357 84.7742 24.5894L84.1247 24.242C83.7307 24.979 83.1946 25.5563 82.5146 25.9813L82.9049 26.6058ZM84.7742 24.5894C85.2286 23.7398 85.4528 22.7956 85.4528 21.7647H84.7164C84.7164 22.6852 84.5172 23.5084 84.1247 24.242L84.7742 24.5894ZM85.4528 21.7647C85.4528 20.7168 85.229 19.7709 84.7724 18.9368L84.1266 19.2905C84.5165 20.0029 84.7164 20.8243 84.7164 21.7647H85.4528ZM84.7724 18.9368C84.3184 18.1078 83.6932 17.4517 82.899 16.9753L82.5201 17.6068C83.1991 18.0141 83.7337 18.573 84.1266 19.2905L84.7724 18.9368ZM82.9049 16.9788C82.1051 16.479 81.1986 16.2325 80.1968 16.2325V16.9689C81.0723 16.9689 81.8415 17.1826 82.5146 17.6033L82.9049 16.9788ZM80.1968 16.2325C79.2115 16.2325 78.3072 16.4797 77.492 16.9767L77.8753 17.6054C78.5701 17.1819 79.3411 16.9689 80.1968 16.9689V16.2325ZM77.4942 16.9753C76.7018 17.4509 76.0685 18.1051 75.5968 18.931L76.236 19.2963C76.6477 18.5758 77.193 18.0149 77.8731 17.6068L77.4942 16.9753ZM75.5935 18.9368C75.1366 19.7709 74.9131 20.7168 74.9131 21.7647H75.6495C75.6495 20.8243 75.8491 20.0029 76.2394 19.2905L75.5935 18.9368ZM74.9131 21.7647C74.9131 22.7956 75.1373 23.7398 75.5917 24.5894L76.2412 24.242C75.8487 23.5084 75.6495 22.6852 75.6495 21.7647H74.9131ZM75.595 24.5952C76.0656 25.4386 76.6974 26.1111 77.4887 26.6058L77.8789 25.9813C77.1974 25.5554 76.651 24.9762 76.2379 24.2363L75.595 24.5952ZM77.4979 26.6113C78.3119 27.0879 79.2144 27.3245 80.1968 27.3245V26.5881C79.3381 26.5881 78.5653 26.3828 77.8697 25.9758L77.4979 26.6113ZM95.7749 28.4751L95.5945 28.7961L95.5975 28.7977L95.6004 28.7993L95.7749 28.4751ZM92.9858 25.7689L92.6662 25.9515L92.6681 25.9545L92.6699 25.9576L92.9858 25.7689ZM92.9306 17.8157L92.6088 17.6369L92.6077 17.6387L92.9306 17.8157ZM95.5816 15.1095L95.765 15.4289L95.769 15.4266L95.5816 15.1095ZM103.148 15.0819L102.953 15.3941L102.957 15.3966L103.148 15.0819ZM105.495 17.7053L105.163 17.8634L105.164 17.8667L105.166 17.8699L105.495 17.7053ZM105.965 22.4274L106.215 22.698L106.22 22.693L106.225 22.6878L105.965 22.4274ZM94.5599 22.7588V22.3906H94.1283L94.1965 22.8168L94.5599 22.7588ZM96.2996 25.8793L96.0618 26.1604L96.0647 26.1629L96.0676 26.1653L96.2996 25.8793ZM101.602 26.763L101.721 27.1112L101.725 27.1101L101.728 27.109L101.602 26.763ZM103.065 26.0174L102.848 25.7204L102.844 25.7228L103.065 26.0174ZM103.949 25.7136V26.0818H103.959L103.97 26.0813L103.949 25.7136ZM104.805 25.9898L105.049 25.7137L105.046 25.7112L105.043 25.7087L104.805 25.9898ZM104.86 27.7571L104.637 27.4646L104.634 27.4667L104.631 27.4688L104.86 27.7571ZM102.513 28.9722L102.397 28.6229L102.394 28.6236L102.513 28.9722ZM94.5875 20.5496L94.2255 20.4828L94.1453 20.9178H94.5875V20.5496ZM103.783 20.5496V20.9178H104.207L104.148 20.4983L103.783 20.5496ZM102.43 17.6501L102.164 17.904L102.167 17.9072L102.43 17.6501ZM99.8619 29.0735C98.3873 29.0735 97.0861 28.763 95.9495 28.1509L95.6004 28.7993C96.8571 29.476 98.2809 29.8099 99.8619 29.8099V29.0735ZM95.9557 28.1542C94.8323 27.5224 93.9498 26.6655 93.3021 25.5802L92.6699 25.9576C93.3846 27.1551 94.3614 28.1024 95.5945 28.7961L95.9557 28.1542ZM93.3054 25.5862C92.6784 24.4883 92.3599 23.2271 92.3599 21.7923H91.6235C91.6235 23.34 91.9681 24.7298 92.6662 25.9515L93.3054 25.5862ZM92.3599 21.7923C92.3599 20.3346 92.6618 19.0718 93.2535 17.9928L92.6077 17.6387C91.9479 18.8425 91.6235 20.2307 91.6235 21.7923H92.3599ZM93.2524 17.9945C93.8651 16.8918 94.7016 16.039 95.765 15.4289L95.3986 14.7901C94.216 15.4687 93.2848 16.42 92.6088 17.6369L93.2524 17.9945ZM95.769 15.4266C96.8287 14.801 98.0515 14.4835 99.4477 14.4835V13.7471C97.9355 13.7471 96.5805 14.0924 95.3946 14.7924L95.769 15.4266ZM99.4477 14.4835C100.827 14.4835 101.991 14.7925 102.953 15.3941L103.343 14.7696C102.244 14.0825 100.94 13.7471 99.4477 13.7471V14.4835ZM102.957 15.3966C103.925 15.984 104.659 16.8031 105.163 17.8634L105.828 17.5472C105.264 16.3614 104.434 15.4316 103.339 14.7671L102.957 15.3966ZM105.166 17.8699C105.689 18.9151 105.956 20.1364 105.956 21.5438H106.692C106.692 20.0423 106.407 18.7047 105.825 17.5406L105.166 17.8699ZM105.956 21.5438C105.956 21.7996 105.872 21.9993 105.705 22.1671L106.225 22.6878C106.536 22.3769 106.692 21.9876 106.692 21.5438H105.956ZM105.715 22.1569C105.553 22.3068 105.342 22.3906 105.054 22.3906V23.127C105.501 23.127 105.898 22.99 106.215 22.698L105.715 22.1569ZM105.054 22.3906H94.5599V23.127H105.054V22.3906ZM94.1965 22.8168C94.4122 24.1716 95.0356 25.2919 96.0618 26.1604L96.5375 25.5982C95.6494 24.8467 95.1125 23.8866 94.9237 22.7009L94.1965 22.8168ZM96.0676 26.1653C97.1167 27.0162 98.3888 27.435 99.8619 27.435V26.6986C98.5372 26.6986 97.4344 26.3257 96.5316 25.5934L96.0676 26.1653ZM99.8619 27.435C100.477 27.435 101.097 27.3258 101.721 27.1112L101.482 26.4148C100.928 26.6053 100.388 26.6986 99.8619 26.6986V27.435ZM101.728 27.109C102.356 26.8803 102.88 26.6166 103.286 26.312L102.844 25.7228C102.514 25.9705 102.062 26.2039 101.476 26.417L101.728 27.109ZM103.283 26.3143C103.502 26.1535 103.722 26.0818 103.949 26.0818V25.3454C103.55 25.3454 103.181 25.4762 102.848 25.7204L103.283 26.3143ZM103.97 26.0813C104.213 26.0677 104.404 26.133 104.567 26.2709L105.043 25.7087C104.727 25.4416 104.348 25.3227 103.929 25.346L103.97 26.0813ZM104.562 26.2659C104.821 26.4946 104.923 26.7124 104.935 26.9215L105.67 26.8806C105.645 26.427 105.416 26.0373 105.049 25.7137L104.562 26.2659ZM104.935 26.9215C104.945 27.1072 104.874 27.2835 104.637 27.4646L105.084 28.0496C105.473 27.7522 105.696 27.3578 105.67 26.8806L104.935 26.9215ZM104.631 27.4688C104.046 27.9336 103.304 28.3204 102.397 28.6229L102.629 29.3215C103.6 28.998 104.423 28.5748 105.089 28.0455L104.631 27.4688ZM102.394 28.6236C101.507 28.9255 100.663 29.0735 99.8619 29.0735V29.8099C100.755 29.8099 101.679 29.6449 102.632 29.3208L102.394 28.6236ZM99.4477 16.122C98.0147 16.122 96.8239 16.521 95.9137 17.3503L96.4097 17.8946C97.1564 17.2143 98.1564 16.8584 99.4477 16.8584V16.122ZM95.9137 17.3503C95.0205 18.164 94.4597 19.2143 94.2255 20.4828L94.9498 20.6165C95.1575 19.4917 95.6457 18.5905 96.4097 17.8946L95.9137 17.3503ZM94.5875 20.9178H103.783V20.1814H94.5875V20.9178ZM104.148 20.4983C103.973 19.2529 103.492 18.2109 102.694 17.3929L102.167 17.9072C102.841 18.5988 103.263 19.4899 103.419 20.6009L104.148 20.4983ZM102.697 17.3961C101.879 16.5373 100.782 16.122 99.4477 16.122V16.8584C100.618 16.8584 101.509 17.2164 102.164 17.904L102.697 17.3961ZM112.277 28.4475L112.088 28.7637L112.091 28.7655L112.094 28.7672L112.277 28.4475ZM109.57 25.7136L109.248 25.8924L109.25 25.8955L109.252 25.8985L109.57 25.7136ZM112.221 15.1095L112.405 15.4289L112.409 15.4266L112.221 15.1095ZM121.5 16.6007L121.222 16.8418L121.223 16.8431L121.5 16.6007ZM121.169 18.3404L121.383 18.64L121.384 18.6389L121.169 18.3404ZM120.312 18.5337L120.228 18.8921L120.238 18.8945L120.249 18.8963L120.312 18.5337ZM119.456 18.0367L119.189 18.2892L119.192 18.2932L119.196 18.297L119.456 18.0367ZM112.636 18.0367L112.904 18.289L112.906 18.2864L112.636 18.0367ZM111.918 24.4433L111.592 24.6142L111.593 24.6172L111.595 24.6202L111.918 24.4433ZM113.657 26.2935L113.462 26.6058L113.465 26.6075L113.468 26.6093L113.657 26.2935ZM119.263 25.9898L119.031 25.704L119.027 25.7069L119.263 25.9898ZM120.174 25.6032L120.196 25.9707L120.207 25.9701L120.217 25.9689L120.174 25.6032ZM121.003 25.8517L120.765 26.1328L120.769 26.1359L121.003 25.8517ZM121.528 26.7354L121.162 26.776V26.7784L121.528 26.7354ZM121.196 27.5915L121.447 27.861L121.452 27.8565L121.457 27.8518L121.196 27.5915ZM116.225 29.0735C114.81 29.0735 113.558 28.7556 112.46 28.1278L112.094 28.7672C113.315 29.4649 114.696 29.8099 116.225 29.8099V29.0735ZM112.465 28.1313C111.377 27.482 110.52 26.6157 109.889 25.5288L109.252 25.8985C109.947 27.0944 110.893 28.0507 112.088 28.7637L112.465 28.1313ZM109.892 25.5348C109.281 24.4348 108.972 23.1903 108.972 21.7923H108.236C108.236 23.3031 108.571 24.6728 109.248 25.8924L109.892 25.5348ZM108.972 21.7923C108.972 20.3558 109.282 19.0932 109.892 17.9945L109.248 17.6369C108.57 18.858 108.236 20.2464 108.236 21.7923H108.972ZM109.892 17.9945C110.505 16.8918 111.341 16.039 112.405 15.4289L112.038 14.7901C110.856 15.4687 109.924 16.42 109.248 17.6369L109.892 17.9945ZM112.409 15.4266C113.468 14.801 114.691 14.4835 116.087 14.4835V13.7471C114.575 13.7471 113.22 14.0924 112.034 14.7924L112.409 15.4266ZM116.087 14.4835C118.152 14.4835 119.855 15.2647 121.222 16.8418L121.778 16.3596C120.273 14.6228 118.368 13.7471 116.087 13.7471V14.4835ZM121.223 16.8431C121.422 17.0702 121.458 17.2561 121.418 17.4277L122.135 17.5963C122.241 17.1419 122.094 16.7203 121.777 16.3582L121.223 16.8431ZM121.418 17.4277C121.37 17.633 121.233 17.84 120.953 18.0419L121.384 18.6389C121.768 18.3622 122.036 18.0169 122.135 17.5963L121.418 17.4277ZM120.955 18.0408C120.778 18.1672 120.593 18.2092 120.377 18.1711L120.249 18.8963C120.659 18.9687 121.044 18.8818 121.383 18.64L120.955 18.0408ZM120.397 18.1753C120.159 18.1194 119.933 17.9923 119.717 17.7763L119.196 18.297C119.496 18.5966 119.84 18.8008 120.228 18.8921L120.397 18.1753ZM119.724 17.7842C118.751 16.7512 117.53 16.2325 116.087 16.2325V16.9689C117.333 16.9689 118.358 17.4075 119.189 18.2892L119.724 17.7842ZM116.087 16.2325C114.577 16.2325 113.325 16.747 112.365 17.7869L112.906 18.2864C113.714 17.4117 114.763 16.9689 116.087 16.9689V16.2325ZM112.367 17.7843C111.406 18.8055 110.942 20.1548 110.942 21.7923H111.678C111.678 20.3001 112.098 19.1456 112.904 18.289L112.367 17.7843ZM110.942 21.7923C110.942 22.8376 111.155 23.7813 111.592 24.6142L112.244 24.2725C111.87 23.5589 111.678 22.7353 111.678 21.7923H110.942ZM111.595 24.6202C112.048 25.4479 112.672 26.1116 113.462 26.6058L113.852 25.9813C113.171 25.555 112.634 24.9853 112.241 24.2665L111.595 24.6202ZM113.468 26.6093C114.269 27.0899 115.192 27.3245 116.225 27.3245V26.5881C115.307 26.5881 114.519 26.3808 113.847 25.9778L113.468 26.6093ZM116.225 27.3245C117.542 27.3245 118.645 26.9845 119.499 26.2726L119.027 25.7069C118.335 26.2837 117.413 26.5881 116.225 26.5881V27.3245ZM119.495 26.2755C119.743 26.0744 119.975 25.9837 120.196 25.9707L120.153 25.2356C119.748 25.2594 119.373 25.4264 119.031 25.704L119.495 26.2755ZM120.217 25.9689C120.43 25.9439 120.604 25.9966 120.765 26.1328L121.241 25.5706C120.923 25.3018 120.545 25.1888 120.132 25.2375L120.217 25.9689ZM120.769 26.1359C121.025 26.3467 121.138 26.5597 121.162 26.776L121.894 26.6947C121.844 26.2483 121.607 25.8722 121.237 25.5675L120.769 26.1359ZM121.162 26.7784C121.184 26.9611 121.128 27.139 120.936 27.3311L121.457 27.8518C121.78 27.5285 121.945 27.1356 121.894 26.6924L121.162 26.7784ZM120.945 27.3219C119.695 28.4855 118.131 29.0735 116.225 29.0735V29.8099C118.297 29.8099 120.047 29.1643 121.447 27.861L120.945 27.3219ZM128.972 28.6408L128.772 28.9495L128.774 28.9513L128.777 28.9531L128.972 28.6408ZM126.597 17.153H126.965V16.7848H126.597V17.153ZM126.597 14.7781V15.1463H126.965V14.7781H126.597ZM129.359 14.7781H128.991V15.1463H129.359V14.7781ZM129.359 17.153V16.7848H128.991V17.153H129.359ZM133.225 26.9563L132.945 27.1959L132.95 27.2015L132.955 27.2069L133.225 26.9563ZM133.114 28.9446L132.881 28.6604L132.876 28.6639L132.872 28.6675L133.114 28.9446ZM131.458 28.963C130.602 28.963 129.842 28.75 129.167 28.3286L128.777 28.9531C129.576 29.4521 130.473 29.6994 131.458 29.6994V28.963ZM129.173 28.3321C128.492 27.8894 127.954 27.2935 127.559 26.5372L126.906 26.8784C127.358 27.7421 127.98 28.435 128.772 28.9495L129.173 28.3321ZM127.559 26.5372C127.166 25.7853 126.965 24.9335 126.965 23.9739H126.229C126.229 25.0393 126.453 26.0102 126.906 26.8784L127.559 26.5372ZM126.965 23.9739V17.153H126.229V23.9739H126.965ZM126.597 16.7848H125.327V17.5212H126.597V16.7848ZM125.327 16.7848C125.015 16.7848 124.797 16.6977 124.638 16.5511L124.138 17.0922C124.458 17.3873 124.866 17.5212 125.327 17.5212V16.7848ZM124.638 16.5511C124.476 16.4012 124.397 16.2238 124.397 15.9932H123.661C123.661 16.4253 123.822 16.8002 124.138 17.0922L124.638 16.5511ZM124.397 15.9932C124.397 15.7129 124.485 15.5218 124.638 15.38L124.138 14.8389C123.813 15.139 123.661 15.537 123.661 15.9932H124.397ZM124.638 15.38C124.797 15.2333 125.015 15.1463 125.327 15.1463V14.4099C124.866 14.4099 124.458 14.5438 124.138 14.8389L124.638 15.38ZM125.327 15.1463H126.597V14.4099H125.327V15.1463ZM126.965 14.7781V10.8015H126.229V14.7781H126.965ZM126.965 10.8015C126.965 10.4823 127.064 10.2485 127.244 10.0678L126.724 9.54705C126.389 9.88181 126.229 10.3108 126.229 10.8015H126.965ZM127.244 10.0678C127.425 9.88704 127.659 9.78899 127.978 9.78899V9.05259C127.487 9.05259 127.058 9.21228 126.724 9.54705L127.244 10.0678ZM127.978 9.78899C128.297 9.78899 128.531 9.88704 128.712 10.0678L129.233 9.54705C128.898 9.21228 128.469 9.05259 127.978 9.05259V9.78899ZM128.712 10.0678C128.893 10.2485 128.991 10.4823 128.991 10.8015H129.727C129.727 10.3108 129.568 9.88181 129.233 9.54705L128.712 10.0678ZM128.991 10.8015V14.7781H129.727V10.8015H128.991ZM129.359 15.1463H131.706V14.4099H129.359V15.1463ZM131.706 15.1463C132.019 15.1463 132.236 15.2333 132.395 15.38L132.895 14.8389C132.575 14.5438 132.167 14.4099 131.706 14.4099V15.1463ZM132.395 15.38C132.549 15.5218 132.636 15.7129 132.636 15.9932H133.372C133.372 15.537 133.22 15.139 132.895 14.8389L132.395 15.38ZM132.636 15.9932C132.636 16.2238 132.558 16.4012 132.395 16.5511L132.895 17.0922C133.211 16.8002 133.372 16.4253 133.372 15.9932H132.636ZM132.395 16.5511C132.236 16.6977 132.019 16.7848 131.706 16.7848V17.5212C132.167 17.5212 132.575 17.3873 132.895 17.0922L132.395 16.5511ZM131.706 16.7848H129.359V17.5212H131.706V16.7848ZM128.991 17.153V23.9739H129.727V17.153H128.991ZM128.991 23.9739C128.991 24.7818 129.215 25.4843 129.681 26.0567L130.252 25.5915C129.908 25.1697 129.727 24.6388 129.727 23.9739H128.991ZM129.681 26.0567C130.149 26.6309 130.747 26.9379 131.458 26.9379V26.2015C130.99 26.2015 130.594 26.0114 130.252 25.5915L129.681 26.0567ZM131.458 26.9379H132.396V26.2015H131.458V26.9379ZM132.396 26.9379C132.617 26.9379 132.793 27.0175 132.945 27.1959L133.505 26.7167C133.216 26.3796 132.838 26.2015 132.396 26.2015V26.9379ZM132.955 27.2069C133.122 27.3862 133.216 27.6233 133.216 27.9504H133.952C133.952 27.4676 133.807 27.0419 133.495 26.7057L132.955 27.2069ZM133.216 27.9504C133.216 28.2453 133.109 28.4725 132.881 28.6604L133.349 29.2288C133.746 28.9012 133.952 28.4656 133.952 27.9504H133.216ZM132.872 28.6675C132.659 28.8542 132.365 28.963 131.955 28.963V29.6994C132.502 29.6994 132.981 29.5505 133.357 29.2217L132.872 28.6675ZM131.955 28.963H131.458V29.6994H131.955V28.963Z" fill="white"/>
<defs>
<filter id="filter0_d" x="3.95508" y="6.97766" width="31.4986" height="41.4781" filterUnits="userSpaceOnUse" color-interpolation-filters="sRGB">
<feFlood flood-opacity="0" result="BackgroundImageFix"/>
<feColorMatrix in="SourceAlpha" type="matrix" values="0 0 0 0 0 0 0 0 0 0 0 0 0 0 0 0 0 0 127 0" result="hardAlpha"/>
<feOffset dy="4"/>
<feGaussianBlur stdDeviation="2"/>
<feComposite in2="hardAlpha" operator="out"/>
<feColorMatrix type="matrix" values="0 0 0 0 0 0 0 0 0 0 0 0 0 0 0 0 0 0 0.35 0"/>
<feBlend mode="normal" in2="BackgroundImageFix" result="effect1_dropShadow"/>
<feBlend mode="normal" in="SourceGraphic" in2="effect1_dropShadow" result="shape"/>
</filter>
</defs>
</svg>
