<svg width="415" height="107" viewBox="0 0 415 107" fill="none" xmlns="http://www.w3.org/2000/svg">
<g filter="url(#filter0_d)">
<path d="M137.848 86.36C132.868 86.36 128.428 85.31 124.528 83.21C120.688 81.05 117.658 78.11 115.438 74.39C113.278 70.61 112.198 66.29 112.198 61.43C112.198 56.51 113.218 52.19 115.258 48.47C117.358 44.69 120.238 41.75 123.898 39.65C127.558 37.49 131.758 36.41 136.498 36.41C141.178 36.41 145.198 37.46 148.558 39.56C151.918 41.6 154.468 44.45 156.208 48.11C158.008 51.71 158.908 55.88 158.908 60.62C158.908 61.76 158.518 62.72 157.738 63.5C156.958 64.22 155.968 64.58 154.768 64.58H120.568C121.228 68.72 123.118 72.11 126.238 74.75C129.418 77.33 133.288 78.62 137.848 78.62C139.708 78.62 141.598 78.29 143.518 77.63C145.498 76.91 147.088 76.1 148.288 75.2C149.188 74.54 150.148 74.21 151.168 74.21C152.248 74.15 153.178 74.45 153.958 75.11C154.978 76.01 155.518 77 155.578 78.08C155.638 79.16 155.158 80.09 154.138 80.87C152.098 82.49 149.548 83.81 146.488 84.83C143.488 85.85 140.608 86.36 137.848 86.36ZM136.498 44.15C132.058 44.15 128.488 45.38 125.788 47.84C123.088 50.3 121.378 53.48 120.658 57.38H150.628C150.088 53.54 148.618 50.39 146.218 47.93C143.818 45.41 140.578 44.15 136.498 44.15ZM175.117 86C172.117 86 170.617 84.5 170.617 81.5V41.27C170.617 38.27 172.117 36.77 175.117 36.77C178.117 36.77 179.617 38.27 179.617 41.27V42.98C181.417 40.88 183.607 39.23 186.187 38.03C188.827 36.83 191.677 36.23 194.737 36.23C198.337 36.23 201.007 36.83 202.747 38.03C204.547 39.17 205.237 40.55 204.817 42.17C204.517 43.43 203.917 44.27 203.017 44.69C202.117 45.05 201.067 45.11 199.867 44.87C196.027 44.09 192.577 44.03 189.517 44.69C186.457 45.35 184.027 46.58 182.227 48.38C180.487 50.18 179.617 52.46 179.617 55.22V81.5C179.617 84.5 178.117 86 175.117 86ZM236.706 86.36C232.026 86.36 227.796 85.28 224.016 83.12C220.296 80.9 217.326 77.9 215.106 74.12C212.946 70.34 211.866 66.08 211.866 61.34C211.866 56.6 212.856 52.37 214.836 48.65C216.876 44.87 219.636 41.9 223.116 39.74C226.596 37.52 230.526 36.41 234.906 36.41C238.446 36.41 241.716 37.16 244.716 38.66C247.716 40.1 250.236 42.08 252.276 44.6V20.3C252.276 18.92 252.696 17.81 253.536 16.97C254.436 16.13 255.546 15.71 256.866 15.71C258.246 15.71 259.356 16.13 260.196 16.97C261.036 17.81 261.456 18.92 261.456 20.3V61.34C261.456 66.08 260.346 70.34 258.126 74.12C255.966 77.9 253.026 80.9 249.306 83.12C245.586 85.28 241.386 86.36 236.706 86.36ZM236.706 78.26C239.766 78.26 242.496 77.54 244.896 76.1C247.296 74.6 249.186 72.56 250.566 69.98C251.946 67.4 252.636 64.52 252.636 61.34C252.636 58.1 251.946 55.22 250.566 52.7C249.186 50.18 247.296 48.2 244.896 46.76C242.496 45.26 239.766 44.51 236.706 44.51C233.706 44.51 230.976 45.26 228.516 46.76C226.116 48.2 224.196 50.18 222.756 52.7C221.376 55.22 220.686 58.1 220.686 61.34C220.686 64.52 221.376 67.4 222.756 69.98C224.196 72.56 226.116 74.6 228.516 76.1C230.976 77.54 233.706 78.26 236.706 78.26ZM300.797 86.36C295.817 86.36 291.377 85.31 287.477 83.21C283.637 81.05 280.607 78.11 278.387 74.39C276.227 70.61 275.147 66.29 275.147 61.43C275.147 56.51 276.167 52.19 278.207 48.47C280.307 44.69 283.187 41.75 286.847 39.65C290.507 37.49 294.707 36.41 299.447 36.41C304.127 36.41 308.147 37.46 311.507 39.56C314.867 41.6 317.417 44.45 319.157 48.11C320.957 51.71 321.857 55.88 321.857 60.62C321.857 61.76 321.467 62.72 320.687 63.5C319.907 64.22 318.917 64.58 317.717 64.58H283.517C284.177 68.72 286.067 72.11 289.187 74.75C292.367 77.33 296.237 78.62 300.797 78.62C302.657 78.62 304.547 78.29 306.467 77.63C308.447 76.91 310.037 76.1 311.237 75.2C312.137 74.54 313.097 74.21 314.117 74.21C315.197 74.15 316.127 74.45 316.907 75.11C317.927 76.01 318.467 77 318.527 78.08C318.587 79.16 318.107 80.09 317.087 80.87C315.047 82.49 312.497 83.81 309.437 84.83C306.437 85.85 303.557 86.36 300.797 86.36ZM299.447 44.15C295.007 44.15 291.437 45.38 288.737 47.84C286.037 50.3 284.327 53.48 283.607 57.38H313.577C313.037 53.54 311.567 50.39 309.167 47.93C306.767 45.41 303.527 44.15 299.447 44.15ZM354.128 86.36C349.328 86.36 345.038 85.28 341.258 83.12C337.538 80.9 334.598 77.93 332.438 74.21C330.338 70.43 329.288 66.17 329.288 61.43C329.288 56.57 330.338 52.25 332.438 48.47C334.538 44.69 337.418 41.75 341.078 39.65C344.738 37.49 348.938 36.41 353.678 36.41C360.758 36.41 366.638 39.11 371.318 44.51C372.158 45.47 372.458 46.46 372.218 47.48C371.978 48.5 371.318 49.4 370.238 50.18C369.398 50.78 368.468 50.99 367.448 50.81C366.428 50.57 365.498 50.03 364.658 49.19C361.718 46.07 358.058 44.51 353.678 44.51C349.058 44.51 345.308 46.07 342.428 49.19C339.548 52.25 338.108 56.33 338.108 61.43C338.108 64.67 338.768 67.55 340.088 70.07C341.468 72.59 343.358 74.6 345.758 76.1C348.158 77.54 350.948 78.26 354.128 78.26C358.208 78.26 361.508 77.21 364.028 75.11C364.988 74.33 365.978 73.91 366.998 73.85C368.018 73.73 368.918 74 369.698 74.66C370.718 75.5 371.288 76.46 371.408 77.54C371.528 78.56 371.168 79.49 370.328 80.33C366.008 84.35 360.608 86.36 354.128 86.36ZM403.771 86C400.771 86 398.071 85.25 395.671 83.75C393.271 82.19 391.381 80.09 390.001 77.45C388.621 74.81 387.931 71.84 387.931 68.54V46.31H383.791C382.531 46.31 381.511 45.95 380.731 45.23C379.951 44.51 379.561 43.61 379.561 42.53C379.561 41.33 379.951 40.37 380.731 39.65C381.511 38.93 382.531 38.57 383.791 38.57H387.931V25.61C387.931 24.29 388.351 23.21 389.191 22.37C390.031 21.53 391.111 21.11 392.431 21.11C393.751 21.11 394.831 21.53 395.671 22.37C396.511 23.21 396.931 24.29 396.931 25.61V38.57H404.581C405.841 38.57 406.861 38.93 407.641 39.65C408.421 40.37 408.811 41.33 408.811 42.53C408.811 43.61 408.421 44.51 407.641 45.23C406.861 45.95 405.841 46.31 404.581 46.31H396.931V68.54C396.931 70.94 397.591 72.95 398.911 74.57C400.231 76.19 401.851 77 403.771 77H406.831C407.911 77 408.811 77.42 409.531 78.26C410.311 79.1 410.701 80.18 410.701 81.5C410.701 82.82 410.191 83.9 409.171 84.74C408.211 85.58 406.951 86 405.391 86H403.771Z" fill="black"/>
<path d="M137.848 86.36C132.868 86.36 128.428 85.31 124.528 83.21C120.688 81.05 117.658 78.11 115.438 74.39C113.278 70.61 112.198 66.29 112.198 61.43C112.198 56.51 113.218 52.19 115.258 48.47C117.358 44.69 120.238 41.75 123.898 39.65C127.558 37.49 131.758 36.41 136.498 36.41C141.178 36.41 145.198 37.46 148.558 39.56C151.918 41.6 154.468 44.45 156.208 48.11C158.008 51.71 158.908 55.88 158.908 60.62C158.908 61.76 158.518 62.72 157.738 63.5C156.958 64.22 155.968 64.58 154.768 64.58H120.568C121.228 68.72 123.118 72.11 126.238 74.75C129.418 77.33 133.288 78.62 137.848 78.62C139.708 78.62 141.598 78.29 143.518 77.63C145.498 76.91 147.088 76.1 148.288 75.2C149.188 74.54 150.148 74.21 151.168 74.21C152.248 74.15 153.178 74.45 153.958 75.11C154.978 76.01 155.518 77 155.578 78.08C155.638 79.16 155.158 80.09 154.138 80.87C152.098 82.49 149.548 83.81 146.488 84.83C143.488 85.85 140.608 86.36 137.848 86.36ZM136.498 44.15C132.058 44.15 128.488 45.38 125.788 47.84C123.088 50.3 121.378 53.48 120.658 57.38H150.628C150.088 53.54 148.618 50.39 146.218 47.93C143.818 45.41 140.578 44.15 136.498 44.15ZM175.117 86C172.117 86 170.617 84.5 170.617 81.5V41.27C170.617 38.27 172.117 36.77 175.117 36.77C178.117 36.77 179.617 38.27 179.617 41.27V42.98C181.417 40.88 183.607 39.23 186.187 38.03C188.827 36.83 191.677 36.23 194.737 36.23C198.337 36.23 201.007 36.83 202.747 38.03C204.547 39.17 205.237 40.55 204.817 42.17C204.517 43.43 203.917 44.27 203.017 44.69C202.117 45.05 201.067 45.11 199.867 44.87C196.027 44.09 192.577 44.03 189.517 44.69C186.457 45.35 184.027 46.58 182.227 48.38C180.487 50.18 179.617 52.46 179.617 55.22V81.5C179.617 84.5 178.117 86 175.117 86ZM236.706 86.36C232.026 86.36 227.796 85.28 224.016 83.12C220.296 80.9 217.326 77.9 215.106 74.12C212.946 70.34 211.866 66.08 211.866 61.34C211.866 56.6 212.856 52.37 214.836 48.65C216.876 44.87 219.636 41.9 223.116 39.74C226.596 37.52 230.526 36.41 234.906 36.41C238.446 36.41 241.716 37.16 244.716 38.66C247.716 40.1 250.236 42.08 252.276 44.6V20.3C252.276 18.92 252.696 17.81 253.536 16.97C254.436 16.13 255.546 15.71 256.866 15.71C258.246 15.71 259.356 16.13 260.196 16.97C261.036 17.81 261.456 18.92 261.456 20.3V61.34C261.456 66.08 260.346 70.34 258.126 74.12C255.966 77.9 253.026 80.9 249.306 83.12C245.586 85.28 241.386 86.36 236.706 86.36ZM236.706 78.26C239.766 78.26 242.496 77.54 244.896 76.1C247.296 74.6 249.186 72.56 250.566 69.98C251.946 67.4 252.636 64.52 252.636 61.34C252.636 58.1 251.946 55.22 250.566 52.7C249.186 50.18 247.296 48.2 244.896 46.76C242.496 45.26 239.766 44.51 236.706 44.51C233.706 44.51 230.976 45.26 228.516 46.76C226.116 48.2 224.196 50.18 222.756 52.7C221.376 55.22 220.686 58.1 220.686 61.34C220.686 64.52 221.376 67.4 222.756 69.98C224.196 72.56 226.116 74.6 228.516 76.1C230.976 77.54 233.706 78.26 236.706 78.26ZM300.797 86.36C295.817 86.36 291.377 85.31 287.477 83.21C283.637 81.05 280.607 78.11 278.387 74.39C276.227 70.61 275.147 66.29 275.147 61.43C275.147 56.51 276.167 52.19 278.207 48.47C280.307 44.69 283.187 41.75 286.847 39.65C290.507 37.49 294.707 36.41 299.447 36.41C304.127 36.41 308.147 37.46 311.507 39.56C314.867 41.6 317.417 44.45 319.157 48.11C320.957 51.71 321.857 55.88 321.857 60.62C321.857 61.76 321.467 62.72 320.687 63.5C319.907 64.22 318.917 64.58 317.717 64.58H283.517C284.177 68.72 286.067 72.11 289.187 74.75C292.367 77.33 296.237 78.62 300.797 78.62C302.657 78.62 304.547 78.29 306.467 77.63C308.447 76.91 310.037 76.1 311.237 75.2C312.137 74.54 313.097 74.21 314.117 74.21C315.197 74.15 316.127 74.45 316.907 75.11C317.927 76.01 318.467 77 318.527 78.08C318.587 79.16 318.107 80.09 317.087 80.87C315.047 82.49 312.497 83.81 309.437 84.83C306.437 85.85 303.557 86.36 300.797 86.36ZM299.447 44.15C295.007 44.15 291.437 45.38 288.737 47.84C286.037 50.3 284.327 53.48 283.607 57.38H313.577C313.037 53.54 311.567 50.39 309.167 47.93C306.767 45.41 303.527 44.15 299.447 44.15ZM354.128 86.36C349.328 86.36 345.038 85.28 341.258 83.12C337.538 80.9 334.598 77.93 332.438 74.21C330.338 70.43 329.288 66.17 329.288 61.43C329.288 56.57 330.338 52.25 332.438 48.47C334.538 44.69 337.418 41.75 341.078 39.65C344.738 37.49 348.938 36.41 353.678 36.41C360.758 36.41 366.638 39.11 371.318 44.51C372.158 45.47 372.458 46.46 372.218 47.48C371.978 48.5 371.318 49.4 370.238 50.18C369.398 50.78 368.468 50.99 367.448 50.81C366.428 50.57 365.498 50.03 364.658 49.19C361.718 46.07 358.058 44.51 353.678 44.51C349.058 44.51 345.308 46.07 342.428 49.19C339.548 52.25 338.108 56.33 338.108 61.43C338.108 64.67 338.768 67.55 340.088 70.07C341.468 72.59 343.358 74.6 345.758 76.1C348.158 77.54 350.948 78.26 354.128 78.26C358.208 78.26 361.508 77.21 364.028 75.11C364.988 74.33 365.978 73.91 366.998 73.85C368.018 73.73 368.918 74 369.698 74.66C370.718 75.5 371.288 76.46 371.408 77.54C371.528 78.56 371.168 79.49 370.328 80.33C366.008 84.35 360.608 86.36 354.128 86.36ZM403.771 86C400.771 86 398.071 85.25 395.671 83.75C393.271 82.19 391.381 80.09 390.001 77.45C388.621 74.81 387.931 71.84 387.931 68.54V46.31H383.791C382.531 46.31 381.511 45.95 380.731 45.23C379.951 44.51 379.561 43.61 379.561 42.53C379.561 41.33 379.951 40.37 380.731 39.65C381.511 38.93 382.531 38.57 383.791 38.57H387.931V25.61C387.931 24.29 388.351 23.21 389.191 22.37C390.031 21.53 391.111 21.11 392.431 21.11C393.751 21.11 394.831 21.53 395.671 22.37C396.511 23.21 396.931 24.29 396.931 25.61V38.57H404.581C405.841 38.57 406.861 38.93 407.641 39.65C408.421 40.37 408.811 41.33 408.811 42.53C408.811 43.61 408.421 44.51 407.641 45.23C406.861 45.95 405.841 46.31 404.581 46.31H396.931V68.54C396.931 70.94 397.591 72.95 398.911 74.57C400.231 76.19 401.851 77 403.771 77H406.831C407.911 77 408.811 77.42 409.531 78.26C410.311 79.1 410.701 80.18 410.701 81.5C410.701 82.82 410.191 83.9 409.171 84.74C408.211 85.58 406.951 86 405.391 86H403.771Z" fill="black"/>
<rect x="4" y="0.393311" width="99.6182" height="95.4553" rx="47.7276" fill="#FD5C39"/>
<mask id="mask0" mask-type="alpha" maskUnits="userSpaceOnUse" x="4" y="0" width="100" height="96">
<rect x="4" y="0.393311" width="99.6182" height="95.4553" rx="47.7276" fill="white"/>
<rect x="36.7319" y="31.7571" width="34.1548" height="32.7275" rx="15.9759" fill="white"/>
</mask>
<g mask="url(#mask0)">
<path d="M30.1282 104.74C28.5148 104.74 27.1582 104.19 26.0582 103.09C25.0315 102.063 24.5182 100.743 24.5182 99.13V48.97C24.5915 43.1767 25.9482 37.97 28.5882 33.35C31.2282 28.73 34.8215 25.1 39.3682 22.46C43.9148 19.7467 49.0482 18.39 54.7682 18.39C60.5615 18.39 65.7315 19.7467 70.2782 22.46C74.8248 25.1 78.4182 28.73 81.0582 33.35C83.7715 37.97 85.1282 43.1767 85.1282 48.97C85.1282 54.7633 83.8815 59.97 81.3882 64.59C78.9682 69.1367 75.6315 72.7667 71.3782 75.48C67.1248 78.12 62.3215 79.44 56.9682 79.44C52.6415 79.44 48.6448 78.56 44.9782 76.8C41.3848 74.9667 38.3048 72.51 35.7382 69.43V99.13C35.7382 100.743 35.2248 102.063 34.1982 103.09C33.1715 104.19 31.8148 104.74 30.1282 104.74ZM54.7682 69.54C58.5082 69.54 61.8448 68.66 64.7782 66.9C67.7115 65.0667 70.0215 62.61 71.7082 59.53C73.4682 56.3767 74.3482 52.8567 74.3482 48.97C74.3482 45.01 73.4682 41.49 71.7082 38.41C70.0215 35.2567 67.7115 32.8 64.7782 31.04C61.8448 29.2067 58.5082 28.29 54.7682 28.29C51.1015 28.29 47.7648 29.2067 44.7582 31.04C41.8248 32.8 39.5148 35.2567 37.8282 38.41C36.1415 41.49 35.2982 45.01 35.2982 48.97C35.2982 52.8567 36.1415 56.3767 37.8282 59.53C39.5148 62.61 41.8248 65.0667 44.7582 66.9C47.7648 68.66 51.1015 69.54 54.7682 69.54Z" fill="white"/>
</g>
</g>
<defs>
<filter id="filter0_d" x="0" y="0.393311" width="414.701" height="103.455" filterUnits="userSpaceOnUse" color-interpolation-filters="sRGB">
<feFlood flood-opacity="0" result="BackgroundImageFix"/>
<feColorMatrix in="SourceAlpha" type="matrix" values="0 0 0 0 0 0 0 0 0 0 0 0 0 0 0 0 0 0 127 0"/>
<feOffset dy="4"/>
<feGaussianBlur stdDeviation="2"/>
<feColorMatrix type="matrix" values="0 0 0 0 0.65 0 0 0 0 0.65 0 0 0 0 0.65 0 0 0 1 0"/>
<feBlend mode="normal" in2="BackgroundImageFix" result="effect1_dropShadow"/>
<feBlend mode="normal" in="SourceGraphic" in2="effect1_dropShadow" result="shape"/>
</filter>
</defs>
</svg>
