<svg width="648" height="362" viewBox="0 0 648 362" fill="none" xmlns="http://www.w3.org/2000/svg">
<g clip-path="url(#clip0)">
<rect width="648" height="362" fill="white"/>
<path d="M643.202 266.174L630.106 266.474L623.408 266.574C621.208 266.574 618.909 266.574 616.71 266.674H616.31V266.174L616.21 254.977V254.477H616.71L629.906 254.577C634.304 254.577 638.703 254.677 643.102 254.777H643.402V255.077C643.402 256.977 643.302 258.876 643.302 260.775L643.202 266.174ZM643.202 266.174L643.102 260.575C643.102 258.676 643.002 256.877 643.002 255.077L643.302 255.377C638.903 255.377 634.504 255.577 630.106 255.577L616.91 255.677L617.41 255.177V266.374L616.91 265.974C619.109 265.974 621.308 265.974 623.408 265.974L629.906 266.174H643.202Z" fill="#EBEBEB"/>
<path d="M628.405 280.269L615.309 280.569L608.611 280.669C606.412 280.669 604.113 280.669 601.914 280.769H601.514V280.269V269.073V268.573H602.014L615.209 268.673C619.608 268.673 624.007 268.773 628.405 268.873H628.705V269.173C628.705 271.072 628.605 272.972 628.605 274.871L628.405 280.269ZM628.405 280.269L628.305 274.671C628.305 272.772 628.205 270.972 628.205 269.173L628.505 269.473C624.107 269.473 619.708 269.673 615.309 269.673L602.113 269.773L602.613 269.273V280.469L602.113 280.069C604.313 280.069 606.512 280.069 608.611 280.069L615.209 280.169L628.405 280.269Z" fill="#EBEBEB"/>
<path d="M657.897 280.269L644.801 280.569L638.103 280.669C635.904 280.669 633.604 280.669 631.405 280.769H631.005V280.269L630.905 269.073V268.573H631.405L644.601 268.673C649 268.673 653.398 268.773 657.797 268.873H658.097V269.173C658.097 271.072 657.997 272.972 657.997 274.871L657.897 280.269ZM657.897 280.269L657.797 274.671C657.797 272.772 657.697 270.972 657.697 269.173L657.997 269.473C653.598 269.473 649.2 269.673 644.801 269.673L631.605 269.773L632.105 269.273V280.469L631.605 280.069C633.804 280.069 636.004 280.069 638.103 280.069L644.701 280.169L657.897 280.269Z" fill="#EBEBEB"/>
<path d="M265.717 133.115L252.621 133.415L245.923 133.515C243.724 133.515 241.425 133.515 239.225 133.515H238.826V133.015L238.726 121.818V121.318H239.225L252.421 121.418C256.82 121.418 261.219 121.518 265.617 121.618H265.917V121.918C265.917 123.818 265.817 125.717 265.817 127.517L265.717 133.115ZM265.717 133.115L265.617 127.417C265.617 125.517 265.517 123.718 265.517 121.918L265.817 122.218C261.419 122.218 257.02 122.418 252.621 122.418L239.425 122.518L239.925 122.018V133.215L239.425 132.815C241.625 132.815 243.824 132.815 245.923 132.915L252.521 133.015L265.717 133.115Z" fill="#EBEBEB"/>
<path d="M250.922 147.21L237.826 147.51L231.128 147.61C228.929 147.61 226.63 147.61 224.431 147.71H224.031V147.31L223.931 136.014V135.514H224.431L237.626 135.614C242.025 135.614 246.424 135.714 250.822 135.814H251.122V136.114C251.122 138.013 251.022 139.913 251.022 141.712L250.922 147.21ZM250.922 147.21L250.822 141.512C250.822 139.613 250.722 137.813 250.722 136.014L251.022 136.314C246.624 136.414 242.225 136.514 237.826 136.514L224.63 136.614L225.13 136.114V147.31L224.63 146.911C226.83 146.911 229.029 146.911 231.128 147.01L237.726 147.11L250.922 147.21Z" fill="#EBEBEB"/>
<path d="M280.513 147.21L267.417 147.51L260.719 147.61C258.52 147.61 256.221 147.61 254.021 147.71H253.621V147.31L253.521 136.114V135.614H254.021L267.217 135.714C271.616 135.714 276.015 135.814 280.413 135.914H280.713V136.214C280.713 138.113 280.613 140.013 280.613 141.812L280.513 147.21ZM280.513 147.21L280.413 141.512C280.413 139.613 280.313 137.813 280.313 136.014L280.613 136.314C276.214 136.414 271.816 136.514 267.417 136.514L254.221 136.614L254.721 136.114V147.31L254.221 146.911C256.421 146.911 258.62 146.911 260.719 147.01L267.317 147.11L280.513 147.21Z" fill="#EBEBEB"/>
<path d="M49.8839 207.092L36.7879 207.392L30.09 207.492C27.8907 207.492 25.5914 207.492 23.3921 207.592H22.9922V207.192V195.995V195.495H23.492L36.688 195.595C41.0866 195.595 45.4852 195.695 49.8839 195.795H50.1838V196.095C50.1838 197.995 50.0838 199.894 50.0838 201.694L49.8839 207.092ZM49.8839 207.092L49.7839 201.394C49.7839 199.494 49.684 197.695 49.684 195.895L49.9839 196.195C45.5852 196.295 41.1866 196.395 36.7879 196.395L23.592 196.495L24.0918 195.995L23.9919 207.192L23.592 206.792C25.7913 206.792 27.9906 206.792 30.19 206.892L36.7879 206.992L49.8839 207.092Z" fill="#EBEBEB"/>
<path d="M488.749 133.115L475.653 133.415L468.955 133.515C466.755 133.615 464.456 133.515 462.257 133.615H461.857V133.215L461.757 122.018V121.518H462.257L475.453 121.618C479.851 121.618 484.25 121.718 488.649 121.818H488.948V122.118C488.948 124.018 488.848 125.917 488.848 127.716L488.749 133.115ZM488.749 133.115L488.649 127.516C488.649 125.617 488.549 123.818 488.549 122.018L488.848 122.318C484.45 122.418 480.051 122.518 475.653 122.518L462.457 122.618L462.956 122.118V133.315L462.457 132.915C464.656 132.915 466.855 132.915 468.955 133.015L475.553 133.115H488.749Z" fill="#EBEBEB"/>
<path d="M641.602 24.4483L628.506 24.7483L621.808 24.8482C619.608 24.8482 617.309 24.8482 615.11 24.9482H614.71V24.5483V13.2518V12.752H615.21L628.406 12.8519C632.804 12.8519 637.203 12.9519 641.602 13.0519H641.902V13.3518C641.902 15.2512 641.802 17.1506 641.802 19.05L641.602 24.4483ZM641.602 24.4483L641.502 18.7501C641.502 16.8507 641.402 15.0512 641.402 13.2518L641.702 13.5517C637.303 13.5517 632.904 13.7516 628.506 13.7516L615.31 13.8516L615.81 13.3518V24.5483L615.31 24.1484C617.509 24.1484 619.708 24.1484 621.808 24.2484L628.406 24.3484L641.602 24.4483Z" fill="#EBEBEB"/>
<path d="M656.397 38.5439L643.301 38.8438L636.603 38.9438C634.404 39.0438 632.104 38.9438 629.905 39.0438H629.505V38.6439L629.405 27.4474V26.9475H629.905L643.101 27.0475C647.5 27.0475 651.898 27.1474 656.297 27.2474H656.597V27.5473C656.597 29.4467 656.497 31.3462 656.497 33.2456L656.397 38.5439ZM656.397 38.5439L656.297 32.8457C656.297 30.9463 656.197 29.1468 656.197 27.3474L656.497 27.6473C652.098 27.7473 647.7 27.8472 643.301 27.8472L630.105 27.9472L630.605 27.4474V38.6439L630.105 38.244C632.304 38.244 634.504 38.244 636.603 38.344L643.201 38.444L656.397 38.5439Z" fill="#EBEBEB"/>
<path d="M20.2934 24.4483L7.19747 24.7483L0.499536 24.8482C-1.69978 24.8482 -3.99908 24.8482 -6.1984 24.9482H-6.69824V24.5483V13.2518V12.752H-6.1984L6.99753 12.8519C11.3962 12.8519 15.7948 12.9519 20.1935 13.0519H20.4934V13.3518C20.4934 15.2512 20.3934 17.1506 20.3934 19.05L20.2934 24.4483ZM20.2934 24.4483L20.0935 18.7501C20.0935 16.8507 19.9935 15.0512 19.9935 13.2518L20.2934 13.5517C15.8948 13.6517 11.4961 13.7516 7.0975 13.7516L-6.09843 13.8516L-5.59858 13.3518L-5.69855 24.5483L-6.09843 24.0485C-3.89911 24.0485 -1.79975 24.0485 0.399567 24.0485L6.99753 24.1484L20.2934 24.4483Z" fill="#EBEBEB"/>
<path d="M344.593 163.206C343.394 164.405 341.894 165.205 340.195 165.505C339.195 165.805 338.095 165.905 336.996 166.105H333.397C331.897 165.905 330.398 165.705 328.898 165.405C323.5 164.205 318.301 162.006 313.803 158.807C301.806 150.909 291.71 140.413 284.212 128.216C281.713 124.218 280.013 119.719 279.113 115.02C278.914 113.821 278.714 112.521 278.514 111.322V107.723C278.814 106.323 279.014 104.924 279.413 103.524C279.813 102.224 280.513 101.025 281.413 100.125C281.613 100.325 281.713 100.425 281.913 100.525C287.711 106.323 293.409 112.021 299.207 117.82C299.607 118.119 299.707 118.619 299.507 119.119C298.607 122.018 299.307 125.217 301.407 127.417C306.305 133.015 311.603 138.313 317.202 143.212C319.501 145.311 322.6 146.011 325.599 145.111C325.999 145.011 326.299 144.911 326.699 145.311C332.597 151.209 338.495 157.107 344.393 163.006C344.393 163.006 344.493 163.106 344.593 163.206Z" fill="#EBEBEB"/>
<path d="M355.89 150.31V151.509C355.39 152.309 354.79 153.009 354.19 153.709C352.391 155.608 350.591 157.307 348.792 159.107L348.192 159.607L330.397 141.812C332.697 139.513 334.996 137.214 337.395 134.914C338.495 133.915 340.094 134.015 341.094 135.014C341.094 135.014 341.094 135.014 341.194 135.114C342.494 136.414 343.793 137.713 345.193 139.013C348.292 142.112 351.391 145.211 354.49 148.31C354.99 148.91 355.49 149.61 355.89 150.31Z" fill="#EBEBEB"/>
<path d="M309.304 107.823C307.105 109.922 304.805 112.021 302.706 114.121L285.111 96.5261C285.511 96.1263 285.911 95.8263 286.411 95.4265C288.01 93.827 289.61 92.1275 291.309 90.6279C292.009 90.0281 292.709 89.5283 293.409 89.0284H294.608C295.308 89.4283 295.908 89.9282 296.508 90.428C300.806 94.7267 305.105 99.0254 309.404 103.324C310.903 104.724 310.903 106.223 309.304 107.823Z" fill="#EBEBEB"/>
<path d="M13.7959 117.62H129.46V44.2422H13.7959V117.62Z" fill="#EBEBEB"/>
<path d="M151.053 117.62H129.46V95.0266L151.053 117.62Z" fill="#EBEBEB"/>
<path d="M116.064 56.9384H27.1914V58.3379H116.064V56.9384Z" fill="white"/>
<path d="M73.1772 64.436H27.1914V65.8356H73.1772V64.436Z" fill="white"/>
<path d="M99.0692 79.5314H27.1914V80.9309H99.0692V79.5314Z" fill="white"/>
<path d="M116.064 87.0291H27.1914V88.4286H116.064V87.0291Z" fill="white"/>
<path d="M116.064 94.5267H27.1914V95.9263H116.064V94.5267Z" fill="white"/>
<path d="M58.7817 102.124H27.1914V103.524H58.7817V102.124Z" fill="white"/>
<path d="M638.003 146.911H522.339V211.691H638.003V146.911Z" fill="#DBDBDB"/>
<path d="M500.745 211.691H522.338V189.098L500.745 211.691Z" fill="#DBDBDB"/>
<path d="M613.41 180.7H536.034V182.1H613.41V180.7Z" fill="white"/>
<path d="M597.515 188.298H536.034V189.697H597.515V188.298Z" fill="white"/>
<path d="M602.214 165.605H536.034V167.004H602.214V165.605Z" fill="white"/>
<path d="M622.407 158.107H536.034V159.507H622.407V158.107Z" fill="white"/>
<path d="M603.913 195.795H536.034V197.195H603.913V195.795Z" fill="white"/>
<path d="M579.621 78.1317H367.187V87.4288H579.621V78.1317Z" fill="#EBEBEB"/>
<path d="M388.38 87.429H379.083V118.219H388.38V87.429Z" fill="#EBEBEB"/>
<path d="M388.38 87.429H379.083V96.926H388.38V87.429Z" fill="#DBDBDB"/>
<path d="M567.624 87.429H558.327V118.219H567.624V87.429Z" fill="#EBEBEB"/>
<path d="M567.624 87.429H558.327V96.926H567.624V87.429Z" fill="#DBDBDB"/>
<path d="M421.77 18.7501H406.774V78.1318H421.77V18.7501Z" fill="#C7C7C7"/>
<path d="M421.77 15.551H406.774V22.049H421.77V15.551Z" fill="#DBDBDB"/>
<path d="M421.77 30.4465H406.774V32.8458H421.77V30.4465Z" fill="#DBDBDB"/>
<path d="M423.569 63.8362H406.774V70.3342H423.569V63.8362Z" fill="#DBDBDB"/>
<path d="M432.166 8.85315H421.77V78.1318H432.166V8.85315Z" fill="#DBDBDB"/>
<path d="M430.067 15.3512H423.769V41.943H430.067V15.3512Z" fill="#EBEBEB"/>
<path d="M457.178 22.0694L449.869 29.4636L499.14 78.1665L506.449 70.7723L457.178 22.0694Z" fill="#C7C7C7"/>
<path d="M474.637 41.9888L470.209 46.468L489.192 65.2323L493.62 60.7531L474.637 41.9888Z" fill="#DBDBDB"/>
<path d="M449.961 25.548H432.166V78.1317H449.961V25.548Z" fill="#A6A6A6"/>
<path d="M449.961 67.635H432.166V72.5335H449.961V67.635Z" fill="#C7C7C7"/>
<path d="M449.961 62.5366H432.166V64.436H449.961V62.5366Z" fill="#C7C7C7"/>
<path d="M406.874 28.6471H394.578V78.1318H406.874V28.6471Z" fill="#A6A6A6"/>
<path d="M406.874 68.3348H394.578V72.9334H406.874V68.3348Z" fill="#C7C7C7"/>
<path d="M406.874 38.8439H394.578V43.4425H406.874V38.8439Z" fill="#C7C7C7"/>
<path d="M406.874 46.6415H394.578V48.4409H406.874V46.6415Z" fill="#C7C7C7"/>
<path d="M557.228 55.1389L555.928 58.6378L555.128 60.7371L553.729 64.336L548.53 78.1318H520.339L515.141 64.336L513.741 60.7371L512.941 58.6378L511.642 55.1389L522.038 39.9436L516.64 29.8467H552.229L546.831 39.9436L557.228 55.1389Z" fill="#DBDBDB"/>
<path d="M557.228 55.1389L555.928 58.6378H512.941L511.642 55.1389H557.228Z" fill="#A6A6A6"/>
<path d="M555.128 60.7372L553.729 64.3361H515.141L513.741 60.7372H555.128Z" fill="#A6A6A6"/>
<path d="M6.79785 347.549L86.5732 347.349L166.349 347.249L325.899 347.049L485.45 347.249L565.225 347.349L645.001 347.549L565.225 347.848L485.45 347.948L325.899 348.048L166.349 347.948L86.5732 347.848L6.79785 347.549Z" fill="#263238"/>
<path d="M317.202 347.549H439.864L415.372 205.293H323.7L317.202 347.549Z" fill="#DBDBDB"/>
<path d="M317.202 347.549H327.999L333.997 205.293H323.7L317.202 347.549Z" fill="#A6A6A6"/>
<path d="M423.77 233.184C437.665 264.174 471.155 315.558 486.15 302.862C508.544 283.768 523.739 241.681 529.737 224.587C533.136 215.089 484.451 199.094 481.452 207.692C477.253 219.988 470.555 245.78 466.756 249.379C464.757 251.278 448.862 228.885 436.766 218.288C419.471 203.193 419.371 223.287 423.77 233.184Z" fill="#C6E8FF"/>
<path d="M542.033 210.291C537.734 219.988 521.04 236.483 515.541 238.882C510.043 241.281 480.752 214.89 481.352 208.691C481.952 202.493 499.446 169.903 509.043 164.905C518.64 159.907 546.432 200.194 542.033 210.291Z" fill="#C6E8FF"/>
<path d="M483.551 201.894C483.551 201.894 484.251 187.998 480.752 176.301C477.853 166.405 472.354 152.209 477.553 150.409C488.349 146.811 501.945 182.4 501.945 182.4C501.945 182.4 505.444 199.094 495.147 203.693C488.649 206.492 483.551 201.894 483.551 201.894Z" fill="#C6E8FF"/>
<path d="M495.647 175.602C496.346 181.2 502.545 177.201 502.545 177.201C502.545 177.201 495.047 185.199 497.946 190.697C500.845 195.995 508.143 190.797 508.643 190.497C508.243 190.897 501.545 198.395 505.044 203.593C508.743 208.991 515.241 202.593 515.64 202.193C515.341 202.693 512.242 209.591 515.84 212.99C522.038 218.788 530.536 201.294 537.134 199.394C537.134 199.394 541.732 210.091 541.932 210.391C541.932 210.391 550.43 193.996 547.231 185.299C546.331 182.699 543.732 181 540.933 181.4C540.933 181.4 544.232 176.401 541.632 172.203C540.233 170.103 535.634 170.303 535.634 170.303C535.634 170.303 538.134 166.205 535.534 162.606C533.435 159.707 529.136 160.506 529.136 160.506C529.136 160.506 529.636 155.408 526.637 153.209C520.439 148.51 494.147 163.605 495.647 175.602Z" fill="#C6E8FF"/>
<path d="M528.437 160.306C528.537 160.206 528.437 160.106 528.437 160.206C518.54 163.106 508.643 169.204 502.245 177.401C502.045 177.701 502.345 178.101 502.645 177.901C510.843 170.703 518.64 165.005 528.437 160.306Z" fill="#263238"/>
<path d="M535.735 170.003C535.834 169.903 535.734 169.803 535.635 169.803C525.438 172.803 514.441 180.1 508.243 190.297C508.043 190.697 508.243 191.197 508.443 190.797C513.141 184.299 526.937 174.202 535.735 170.003Z" fill="#263238"/>
<path d="M515.541 202.993C521.839 193.396 530.636 186.798 540.633 181.3C540.733 181.2 540.633 181.1 540.533 181.1C534.935 182.5 528.937 186.598 524.538 190.197C520.439 193.496 517.14 197.795 515.241 202.693C515.141 202.993 515.441 203.193 515.541 202.993Z" fill="#263238"/>
<path d="M502.345 177.201C502.045 177.501 502.845 177.501 502.645 177.901C501.646 179.301 496.347 188.098 498.746 190.897C500.746 193.096 505.045 191.997 506.544 190.897L510.343 188.198L507.744 192.097C506.544 193.796 505.744 195.695 505.144 197.695C504.545 199.494 504.745 201.494 505.644 203.193C506.544 204.793 508.443 205.492 510.143 204.993C512.042 204.393 513.742 203.193 515.041 201.694L518.84 197.695L516.541 202.693C515.941 204.093 515.441 205.492 515.141 206.992C514.842 208.392 514.941 209.891 515.441 211.191C515.941 212.39 517.141 213.19 518.44 213.29C519.94 213.19 521.24 212.59 522.439 211.691C524.938 209.791 527.338 207.592 529.537 205.293C530.737 204.193 531.836 202.993 533.036 201.994C534.136 200.894 535.535 199.994 537.035 199.394C535.635 200.094 534.335 201.094 533.336 202.293C532.236 203.393 531.136 204.693 530.137 205.892C528.037 208.392 525.738 210.691 523.239 212.79C521.939 213.89 520.24 214.69 518.54 214.89C516.541 214.89 514.742 213.79 513.942 211.99C513.242 210.391 513.042 208.492 513.442 206.792C513.742 205.093 514.242 203.493 514.941 201.894L516.441 202.893C514.941 204.693 512.942 205.992 510.743 206.792C509.543 207.192 508.144 207.092 506.944 206.692C505.744 206.192 504.745 205.293 504.145 204.293C502.945 202.193 502.745 199.594 503.545 197.295C504.145 195.096 505.145 193.096 506.544 191.197L507.744 192.297C505.744 193.596 501.146 195.396 497.647 192.396C493.448 187.498 500.946 178.701 502.345 177.201Z" fill="#263238"/>
<path d="M502.645 177.201C501.545 177.601 500.446 177.901 499.246 178.001C498.346 178.101 497.346 177.701 496.847 176.901C496.347 176.002 496.147 174.902 496.347 173.902C496.447 172.803 496.547 171.603 496.747 170.303C495.947 171.303 495.447 172.503 495.147 173.702C494.747 175.002 494.947 176.501 495.647 177.701C496.047 178.301 496.747 178.801 497.446 179.101C498.146 179.301 498.846 179.401 499.546 179.201C500.645 178.801 501.745 178.101 502.645 177.201Z" fill="#263238"/>
<path d="M478.652 208.692L529.236 243.981C529.236 243.981 498.946 306.661 480.351 306.461C461.757 306.261 434.666 259.376 425.368 239.082C416.071 218.788 421.57 201.594 440.464 220.088C459.358 238.582 466.056 246.18 466.656 245.98C467.755 245.48 478.652 208.692 478.652 208.692Z" fill="#1997F3"/>
<path d="M529.236 243.981C529.236 243.981 508.243 287.467 490.448 301.863C486.85 304.762 483.451 306.461 480.252 306.461C461.557 306.261 434.566 259.376 425.269 239.082C419.47 226.486 419.47 215.19 424.669 212.69C427.968 211.191 433.166 213.09 440.364 220.088C459.358 238.682 465.956 246.18 466.556 245.88C467.755 245.38 478.652 208.692 478.652 208.692L529.236 243.981Z" fill="#1997F3"/>
<path d="M497.946 294.465C497.346 295.165 496.646 295.865 496.047 296.564C490.348 300.163 483.95 302.463 477.252 303.462C475.453 303.662 473.553 303.762 471.754 303.662L470.554 302.962C472.754 303.062 474.953 303.062 477.152 302.762C479.752 302.463 482.351 301.863 484.85 300.963L486.749 300.363L488.549 299.563C489.149 299.264 489.748 299.064 490.348 298.764L492.148 297.864C494.247 296.864 496.147 295.765 497.946 294.465ZM459.558 239.282C453.76 241.881 448.561 245.58 443.963 249.979C441.064 252.878 438.364 255.977 435.865 259.276C435.965 259.476 436.165 259.776 436.265 259.976C438.764 256.577 441.463 253.478 444.462 250.579C448.261 246.88 452.56 243.681 457.259 241.281L459.058 240.382C459.358 240.182 459.758 240.082 460.058 239.982L459.558 239.282ZM503.244 242.481C498.446 240.082 493.447 238.282 488.249 236.883C487.749 236.783 487.149 236.583 486.649 236.483C486.35 236.383 485.95 236.283 485.55 236.283C481.151 235.383 476.653 235.183 472.254 235.583C471.554 235.683 470.954 235.783 470.354 235.883C470.255 236.083 470.155 236.383 470.155 236.583C470.854 236.483 471.654 236.383 472.354 236.283C476.453 235.883 480.651 235.983 484.75 236.783L485.85 236.983C486.649 237.183 487.349 237.283 488.149 237.483C493.247 238.782 498.246 240.682 503.044 242.981C510.142 246.48 517.14 250.379 523.738 254.777C523.838 254.577 523.938 254.477 524.038 254.277C517.34 249.879 510.342 245.98 503.244 242.481ZM508.543 229.485C500.445 229.785 492.548 232.184 485.55 236.283L484.65 236.783C482.851 237.882 481.151 238.982 479.552 240.282C470.954 246.78 464.156 255.177 457.658 263.575C454.359 267.773 451.16 272.072 447.861 276.171C447.661 276.471 447.362 276.77 447.162 277.07L447.562 277.57C447.861 277.27 448.161 276.87 448.461 276.571C451.86 272.472 455.059 268.173 458.358 263.974C464.856 255.577 471.654 247.28 480.151 240.882C481.951 239.482 483.95 238.182 485.95 236.983C486.25 236.783 486.45 236.683 486.749 236.483C489.049 235.183 491.548 234.084 494.047 233.084L495.947 232.384C496.546 232.184 497.246 231.984 497.846 231.784L499.745 231.285L501.745 230.885C504.344 230.285 506.943 229.985 509.642 230.085H509.742L508.543 229.485ZM446.362 226.086C442.863 227.686 439.264 228.785 435.465 229.585L433.466 229.985C432.866 230.085 432.166 230.185 431.466 230.285L429.467 230.485L427.468 230.585C425.668 230.685 423.769 230.685 421.969 230.485L422.169 231.185C430.667 231.784 439.064 230.285 446.762 226.786C446.762 226.386 446.562 226.186 446.362 226.086ZM431.966 213.59C428.467 215.989 424.769 218.189 420.97 220.188C420.97 220.488 420.97 220.688 420.97 220.988C424.968 218.888 428.867 216.489 432.666 213.89C432.366 213.89 432.166 213.69 431.966 213.59Z" fill="white"/>
<path d="M517.341 249.879C516.041 248.779 514.641 247.679 513.342 246.58C510.543 244.38 507.843 242.181 505.044 240.082C499.546 235.783 493.948 231.684 488.249 227.586C485.05 225.286 481.851 222.787 478.552 220.688C478.453 220.688 478.353 220.688 478.353 220.688C478.353 220.788 478.353 220.888 478.353 220.888C480.952 223.187 483.851 225.286 486.55 227.486C489.249 229.685 491.948 231.884 494.747 234.084C500.246 238.382 505.844 242.581 511.442 246.68C513.042 247.879 514.541 249.079 516.241 250.179C517.041 250.778 517.84 251.378 518.74 251.878C519.64 252.378 520.44 252.878 521.339 253.478H521.439V253.378C519.94 252.278 518.64 250.978 517.341 249.879Z" fill="#263238"/>
<path d="M467.056 244.78C465.156 249.979 463.557 255.377 462.257 260.775C461.557 263.475 461.058 266.174 460.558 268.873C460.058 271.572 459.658 274.271 459.458 276.97C459.458 277.07 459.558 277.07 459.658 276.97C460.458 274.371 461.157 271.672 461.757 268.973C462.357 266.274 463.057 263.575 463.657 260.975C464.856 255.577 466.256 250.279 467.356 244.88C467.356 244.78 467.356 244.68 467.256 244.68C467.156 244.68 467.056 244.78 467.056 244.78Z" fill="#263238"/>
<path opacity="0.1" d="M490.448 301.863C486.85 304.762 483.451 306.461 480.252 306.461C461.557 306.261 434.566 259.376 425.269 239.082C419.47 226.486 419.47 215.19 424.669 212.69L490.448 301.863Z" fill="black"/>
<path d="M461.458 347.549H339.995C338.696 345.049 358.59 238.682 399.577 208.691C408.674 202.094 424.769 206.292 429.268 212.79C451.761 245.28 461.458 347.549 461.458 347.549Z" fill="#1997F3"/>
<path d="M455.16 300.263C452.161 299.164 449.162 297.964 446.262 296.564C442.164 294.565 438.265 292.466 434.366 290.166L433.766 289.866C429.768 287.467 425.769 284.968 421.87 282.469L421.27 282.069L418.571 280.369C409.574 274.571 400.677 268.673 391.08 264.074C386.281 261.675 381.283 259.976 376.084 258.876C373.485 258.376 370.786 258.276 368.187 258.476C367.487 258.476 366.887 258.576 366.187 258.676C365.687 258.776 365.287 258.776 364.788 258.876C364.888 258.676 364.888 258.576 364.988 258.376C365.387 258.276 365.687 258.276 366.087 258.176C366.787 258.076 367.387 257.976 368.087 257.976C370.786 257.776 373.485 257.976 376.084 258.376C381.382 259.376 386.481 261.175 391.279 263.575C400.976 268.173 409.874 274.171 418.871 279.87L421.47 281.569L422.07 281.969C426.069 284.568 430.067 287.067 434.166 289.467L434.766 289.766C438.565 291.966 442.464 294.065 446.362 295.965C449.162 297.264 451.961 298.464 454.86 299.464L455.16 300.263ZM444.363 249.579L443.963 249.979C436.266 257.476 430.467 266.674 425.069 275.771C423.969 277.77 422.77 279.67 421.57 281.669C421.47 281.869 421.37 281.969 421.27 282.169C419.771 284.668 418.271 287.167 416.772 289.567C415.372 291.666 413.972 293.865 412.473 295.865C412.373 296.065 412.173 296.265 412.073 296.464C410.573 298.564 408.874 300.463 407.175 302.363C405.375 304.262 403.376 306.061 401.176 307.561L400.377 308.161C400.077 308.361 399.777 308.461 399.477 308.661L397.777 309.66C396.578 310.26 395.378 310.76 394.179 311.16C389.18 312.859 383.882 313.659 378.583 313.659C373.285 313.659 367.987 313.059 362.888 311.86C357.89 310.76 352.991 309.36 348.193 307.961C348.193 308.161 348.093 308.261 348.093 308.461C352.991 309.86 357.89 311.36 362.888 312.36C368.087 313.559 373.485 314.159 378.783 314.159C384.182 314.159 389.48 313.259 394.578 311.66C395.878 311.26 397.078 310.66 398.277 310.06L400.077 309.061C400.377 308.861 400.677 308.761 400.976 308.561L401.776 307.961C403.976 306.461 405.975 304.662 407.874 302.663C409.774 300.663 411.473 298.564 413.073 296.364C413.173 296.165 413.373 295.965 413.473 295.765C414.872 293.865 416.272 291.866 417.471 289.766C418.971 287.367 420.47 284.868 421.97 282.369L422.27 281.869L425.769 275.971C431.167 266.874 436.965 257.776 444.563 250.379L444.663 250.279C444.463 250.079 444.463 249.779 444.363 249.579ZM450.161 273.272C449.361 274.271 448.662 275.171 447.862 276.171C444.563 280.369 440.864 284.168 436.865 287.667C436.066 288.267 435.266 288.967 434.466 289.567L433.966 289.966C432.767 290.766 431.567 291.566 430.367 292.166L429.468 292.666C429.168 292.866 428.868 292.966 428.568 293.065L426.768 293.865C425.569 294.265 424.269 294.665 422.97 294.965C419.871 295.665 416.672 295.965 413.573 295.965H412.773C410.873 295.965 408.974 295.865 407.175 295.565C401.876 294.865 396.678 293.665 391.679 291.866C386.681 290.166 381.782 287.967 376.884 285.868C371.985 283.668 366.987 281.769 361.889 280.169C360.389 279.77 358.889 279.37 357.29 279.07L357.19 279.47C358.789 279.77 360.289 280.169 361.789 280.569C366.887 282.169 371.885 284.068 376.684 286.268C381.582 288.367 386.481 290.566 391.579 292.266C396.578 294.065 401.876 295.365 407.175 296.065C408.974 296.265 410.673 296.364 412.473 296.464C412.773 296.464 412.973 296.464 413.273 296.464C416.672 296.564 419.971 296.165 423.27 295.565C424.569 295.265 425.869 294.865 427.168 294.465L429.068 293.665C429.368 293.565 429.668 293.365 429.967 293.265L430.867 292.766C432.267 292.066 433.566 291.266 434.766 290.366L435.266 289.966C436.066 289.467 436.765 288.867 437.565 288.267C441.664 284.768 445.363 280.969 448.762 276.771C449.461 275.971 450.061 275.171 450.761 274.271C450.261 273.871 450.161 273.571 450.161 273.272ZM437.565 229.085C436.865 229.285 436.166 229.385 435.466 229.585L433.466 229.985C432.867 230.085 432.167 230.185 431.467 230.285L429.468 230.485L427.468 230.585C424.869 230.785 422.17 230.585 419.571 230.185C415.472 229.485 411.473 228.186 407.774 226.286L406.775 225.786C406.075 225.386 405.375 225.086 404.675 224.687C400.077 221.987 395.778 218.888 391.879 215.29L391.479 215.689C395.478 219.288 399.777 222.487 404.375 225.186C404.875 225.486 405.375 225.686 405.875 225.986L406.875 226.486C410.873 228.585 415.072 229.985 419.471 230.785C425.569 231.684 431.767 231.285 437.765 229.785C437.765 229.485 437.665 229.285 437.565 229.085ZM430.467 214.59C425.169 218.189 419.471 221.188 413.573 223.587C411.373 224.387 409.174 225.086 406.975 225.686L406.075 225.886C403.476 226.486 400.876 226.886 398.177 227.086L396.178 227.186C395.478 227.186 394.878 227.186 394.179 227.186H392.179L390.18 226.986C387.78 226.886 385.381 226.486 383.082 225.786C382.982 225.986 382.782 226.186 382.682 226.386C390.68 228.385 398.977 228.385 406.975 226.286L407.974 225.986C409.974 225.486 411.973 224.787 413.872 224.087C419.871 221.688 425.569 218.688 430.867 215.09L430.467 214.59ZM460.358 337.052C459.358 337.052 458.259 337.152 457.259 337.152H457.159H456.559C451.461 337.652 446.462 339.151 441.864 341.551C438.565 343.25 435.466 345.249 432.467 347.449H433.067C435.866 345.349 438.865 343.55 441.964 341.85C446.562 339.451 451.661 338.052 456.759 337.552H457.159H457.359C458.359 337.552 459.258 337.452 460.258 337.452C460.358 337.352 460.358 337.252 460.358 337.052ZM460.858 341.75C459.758 340.351 458.659 339.051 457.459 337.652C457.359 337.552 457.259 337.352 457.059 337.252L456.659 336.752C453.16 332.653 449.162 329.054 444.663 326.055C442.364 324.556 439.964 323.356 437.465 322.556C436.865 322.356 436.166 322.157 435.566 321.957C434.966 321.757 434.266 321.657 433.566 321.557C432.267 321.257 430.867 321.257 429.568 321.157C424.169 320.957 418.871 321.857 413.772 323.656C408.774 325.555 403.976 328.055 399.477 330.954C391.479 336.052 384.182 342.15 376.384 347.549H376.684C384.482 342.25 391.679 336.352 399.577 331.254C404.075 328.355 408.774 325.855 413.772 324.056C418.771 322.256 424.069 321.357 429.368 321.557C430.667 321.657 431.967 321.757 433.366 321.957C434.066 322.057 434.666 322.256 435.266 322.356C435.866 322.456 436.565 322.756 437.165 322.956C439.664 323.856 442.064 324.956 444.263 326.455C448.662 329.454 452.66 333.053 456.059 337.052C456.159 337.152 456.159 337.152 456.259 337.252L456.659 337.652C458.059 339.251 459.458 340.951 460.758 342.65C460.958 342.35 460.958 342.05 460.858 341.75Z" fill="white"/>
<path d="M383.381 221.688C358.589 250.279 325.299 300.863 338.895 312.06C361.288 330.454 426.768 341.051 441.763 342.85C448.261 343.65 461.257 301.263 456.859 295.765C452.46 290.266 383.381 286.368 382.882 282.169C382.582 279.77 393.078 258.776 399.876 233.084C407.674 203.493 390.379 213.69 383.381 221.688Z" fill="#C6E8FF"/>
<path d="M445.562 292.266C445.562 292.266 465.456 292.166 478.352 292.666C485.65 292.966 497.946 294.565 503.244 297.164C511.042 301.163 541.233 322.656 536.134 330.054C531.536 336.752 507.943 314.959 507.943 314.959C507.943 314.959 533.635 334.853 526.637 341.95C519.639 349.048 496.347 320.957 496.347 320.957C496.347 320.957 522.339 341.95 513.941 348.149C507.643 352.747 485.05 328.455 485.05 328.455C485.05 328.455 507.243 346.649 500.945 351.747C493.947 357.346 471.654 336.252 471.654 336.252C453.46 346.449 440.664 343.85 431.667 340.851C429.567 340.151 445.562 292.266 445.562 292.266Z" fill="#C6E8FF"/>
<path d="M499.546 307.561C502.645 309.76 505.844 312.06 508.743 314.559C511.642 317.058 514.441 319.657 517.14 322.456C523.638 329.254 526.638 334.453 526.438 334.153C521.239 326.955 510.942 317.858 508.043 315.359C505.144 312.859 502.345 310.26 499.446 307.761C499.346 307.661 499.546 307.561 499.546 307.561Z" fill="#263238"/>
<path d="M490.349 317.858C494.148 320.857 498.147 323.756 501.846 326.855C505.544 329.954 510.543 334.653 514.042 338.052C514.342 338.351 514.042 338.851 513.742 338.551C510.143 335.252 504.745 330.754 501.146 327.555C497.547 324.356 494.048 321.057 490.349 317.858C490.349 317.858 490.249 317.958 490.349 317.858Z" fill="#263238"/>
<path d="M480.851 325.355C486.949 329.654 492.248 335.053 497.346 340.551C497.646 340.851 497.346 340.851 497.046 340.551C491.648 335.452 487.449 331.354 480.751 325.555C480.651 325.455 480.751 325.256 480.851 325.355Z" fill="#263238"/>
<path d="M442.763 291.666C451.86 291.566 478.452 291.566 487.449 292.266C495.447 292.866 502.045 294.565 508.743 299.064C523.138 308.561 532.436 319.757 534.735 323.056C536.134 325.056 538.134 328.255 536.334 330.554C534.035 333.253 525.738 330.654 516.94 322.656C516.64 322.357 516.84 322.157 517.14 322.456C529.536 332.453 534.435 331.354 535.735 329.554C536.534 328.455 535.735 326.555 535.035 325.056C533.835 322.956 532.336 320.957 530.636 319.257C524.938 313.159 518.64 307.661 511.842 302.863C504.544 297.464 495.947 294.165 486.85 293.465C477.553 292.666 451.96 292.966 442.763 292.066C442.563 291.966 442.563 291.666 442.763 291.666Z" fill="#263238"/>
<path d="M528.237 338.052C527.737 335.552 525.937 333.353 524.538 331.254C522.838 328.655 520.839 326.255 518.64 324.156C518.54 324.056 518.34 324.156 518.44 324.256C520.339 326.455 522.038 328.754 523.638 331.154C524.438 332.453 525.237 333.853 525.937 335.252C526.637 336.652 527.337 338.152 527.037 339.751C526.437 342.65 522.638 342.65 520.439 341.85C519.039 341.351 517.64 340.651 516.34 339.851C514.541 338.751 512.841 337.452 511.242 336.052C511.142 335.952 510.742 335.952 510.942 336.152C514.241 339.251 520.439 345.849 525.637 343.45C527.637 342.35 528.736 340.151 528.237 338.052Z" fill="#263238"/>
<path d="M445.862 289.766L422.069 343.75C422.069 343.75 338.995 324.956 334.097 309.26C329.198 293.565 355.29 251.278 378.783 224.886C401.876 198.994 405.275 216.589 399.576 236.583C393.878 256.577 384.381 279.67 385.481 281.469C386.58 283.268 445.862 289.766 445.862 289.766Z" fill="#1997F3"/>
<path d="M390.88 263.375C390.78 263.475 390.78 263.675 390.68 263.874C386.081 261.575 381.183 259.976 376.084 258.976C373.485 258.476 370.786 258.376 368.187 258.576C367.487 258.576 366.887 258.676 366.187 258.776C365.487 258.876 364.888 258.976 364.288 259.176C362.988 259.476 361.789 259.976 360.489 260.376C355.591 262.275 351.092 265.074 347.293 268.573L347.893 267.473C351.592 264.274 355.79 261.675 360.389 259.976C361.689 259.576 362.888 259.076 364.288 258.776C364.888 258.576 365.587 258.476 366.287 258.376C366.987 258.276 367.587 258.176 368.287 258.176C370.986 257.976 373.685 258.176 376.284 258.576C381.283 259.476 386.181 261.075 390.88 263.375ZM434.866 289.866L434.266 289.567L431.967 288.167L430.567 287.967C431.567 288.567 432.667 289.267 433.666 289.866L434.266 290.166C437.265 291.966 440.264 293.565 443.363 295.165L443.563 294.665C440.664 293.165 437.765 291.466 434.866 289.866ZM418.671 286.567C418.071 287.567 417.471 288.567 416.872 289.567C415.472 291.666 414.072 293.865 412.573 295.865C412.473 296.065 412.273 296.264 412.173 296.464C410.674 298.564 408.974 300.463 407.275 302.363C405.475 304.262 403.476 306.061 401.276 307.561L400.477 308.161C400.177 308.361 399.877 308.461 399.577 308.661L397.877 309.66C396.678 310.26 395.478 310.76 394.279 311.16C389.28 312.859 383.982 313.659 378.683 313.659C373.385 313.659 368.087 313.059 362.988 311.86C357.79 310.76 352.691 309.26 347.493 307.761C342.994 306.461 338.396 305.162 333.697 304.262C333.697 304.462 333.697 304.562 333.697 304.762C338.296 305.662 342.894 306.961 347.393 308.261C352.491 309.76 357.69 311.26 362.888 312.359C368.087 313.559 373.485 314.159 378.783 314.159C384.182 314.159 389.48 313.259 394.578 311.66C395.878 311.26 397.078 310.66 398.277 310.06L400.077 309.061C400.377 308.861 400.677 308.761 400.977 308.561L401.776 307.961C403.976 306.461 405.975 304.662 407.874 302.663C409.774 300.663 411.473 298.564 413.073 296.364C413.173 296.164 413.373 295.965 413.473 295.765C414.872 293.865 416.272 291.866 417.471 289.766C418.171 288.667 418.771 287.667 419.471 286.567H418.671ZM435.566 288.567C435.166 288.867 434.766 289.167 434.266 289.467L433.766 289.866C432.567 290.666 431.367 291.466 430.167 292.066L429.268 292.566C428.968 292.766 428.668 292.866 428.368 292.965L426.569 293.765C425.369 294.165 424.069 294.565 422.77 294.865C419.671 295.565 416.472 295.865 413.373 295.865H412.573C410.674 295.865 408.774 295.765 406.975 295.465C401.676 294.765 396.478 293.565 391.479 291.766C386.481 290.066 381.582 287.867 376.684 285.768C371.786 283.568 366.787 281.669 361.689 280.069C356.59 278.57 351.092 277.77 345.794 278.87C344.094 279.17 342.495 279.77 340.895 280.569C340.795 280.769 340.695 280.969 340.595 281.169C342.195 280.269 343.994 279.67 345.794 279.27C350.992 278.27 356.39 279.07 361.489 280.569C366.587 282.169 371.586 284.068 376.384 286.268C381.283 288.367 386.181 290.566 391.279 292.266C396.378 294.065 401.576 295.365 406.875 296.065C408.674 296.264 410.374 296.364 412.173 296.464C412.473 296.464 412.673 296.464 412.973 296.464C416.372 296.564 419.671 296.165 422.97 295.565C424.269 295.265 425.569 294.865 426.869 294.465L428.768 293.665C429.068 293.565 429.368 293.365 429.668 293.265L430.567 292.766C431.967 292.066 433.267 291.266 434.466 290.366L434.966 289.966C435.466 289.567 435.966 289.167 436.566 288.767L435.566 288.567ZM391.979 215.09C391.579 214.69 391.08 214.29 390.68 213.99L390.18 214.39L391.579 215.689C394.878 218.588 398.277 221.288 401.976 223.687C401.976 223.387 401.976 223.187 401.976 222.987C398.477 220.488 395.178 217.889 391.979 215.09ZM398.077 227.086L396.078 227.186C395.378 227.186 394.778 227.186 394.079 227.186H392.079L390.08 226.986C387.481 226.786 384.782 226.386 382.282 225.586C381.183 225.286 380.083 224.887 378.983 224.487L378.783 224.787L378.583 225.086C379.783 225.586 380.983 225.986 382.182 226.386C388.48 228.086 395.078 228.485 401.576 227.486C401.576 227.186 401.676 226.986 401.676 226.786C400.577 226.886 399.377 227.086 398.077 227.086ZM429.668 321.157C424.269 320.957 418.971 321.857 413.873 323.656C408.874 325.555 404.076 328.055 399.577 330.954C397.078 332.553 394.678 334.253 392.179 336.052L392.579 336.152C394.878 334.453 397.278 332.853 399.677 331.254C404.176 328.355 408.874 325.855 413.873 324.056C418.871 322.256 424.169 321.357 429.468 321.557C430.168 321.657 430.867 321.657 431.567 321.757L431.767 321.357C431.167 321.257 430.367 321.257 429.668 321.157Z" fill="white"/>
<path d="M412.572 334.753C413.372 333.253 414.172 331.654 414.971 330.154C416.571 327.055 418.071 323.856 419.67 320.757C422.769 314.459 425.668 308.161 428.467 301.763C430.067 298.164 431.866 294.565 433.266 290.866C433.266 290.766 433.266 290.666 433.166 290.666C433.066 290.666 432.966 290.666 432.966 290.766C431.266 293.765 429.767 296.964 428.167 300.163C426.568 303.362 424.968 306.361 423.369 309.56C420.27 315.858 417.371 322.157 414.472 328.455C413.672 330.254 412.772 331.953 412.072 333.853C411.673 334.753 411.273 335.652 410.873 336.652C410.473 337.652 410.273 338.551 409.873 339.451V339.551H409.973C410.773 337.852 411.673 336.352 412.572 334.753Z" fill="#263238"/>
<path d="M423.869 340.051L422.169 343.85V343.95H421.97C414.072 342.45 406.274 340.751 398.477 338.751C390.679 336.752 382.982 334.553 375.384 332.153C367.686 329.754 360.189 326.855 352.891 323.556C349.192 321.857 345.693 319.957 342.294 317.858C340.595 316.758 338.995 315.559 337.496 314.159C335.996 312.859 334.796 311.16 334.097 309.26C334.996 311.06 336.296 312.559 337.895 313.759C339.495 314.959 341.194 316.058 342.894 316.958C346.393 318.858 349.992 320.657 353.591 322.057C360.988 325.056 368.486 327.655 376.084 330.154C383.681 332.653 391.379 334.853 398.977 337.052C406.574 339.251 414.372 341.351 422.07 343.45L421.87 343.55L423.869 340.051Z" fill="#263238"/>
<path d="M444.862 291.866L445.662 289.766L445.762 289.866C437.465 289.367 429.067 288.667 420.77 287.767C412.472 286.867 404.175 285.968 395.878 284.668C393.778 284.368 391.779 283.968 389.679 283.568C388.68 283.368 387.58 283.169 386.58 282.869C386.281 282.769 386.081 282.669 385.781 282.569C385.581 282.469 385.481 282.469 385.281 282.369C385.181 282.269 385.081 282.269 384.981 282.169C384.881 282.069 384.781 281.969 384.681 281.869C384.681 281.769 384.581 281.669 384.581 281.669V281.569C384.581 281.169 384.581 280.769 384.681 280.469C384.681 280.169 384.781 279.87 384.881 279.67C385.981 275.571 387.28 271.572 388.68 267.673C391.379 259.776 394.378 251.978 397.477 244.181C395.078 252.178 392.579 260.176 390.179 268.173C388.98 272.172 387.68 276.171 386.78 280.169C386.68 280.469 386.68 280.669 386.68 280.869C386.68 281.069 386.68 281.369 386.68 281.269C386.68 281.169 386.68 281.269 386.68 281.269C386.68 281.169 386.68 281.169 386.58 281.169C386.58 281.069 386.38 280.969 386.48 280.969C386.58 280.969 386.48 280.969 386.48 280.969L386.78 281.069L387.48 281.269C388.48 281.569 389.48 281.769 390.479 281.869C392.479 282.269 394.578 282.569 396.577 282.869C400.676 283.468 404.775 284.068 408.974 284.668L421.37 286.368C429.667 287.467 437.865 288.667 446.162 289.866H446.262L446.162 289.966L444.862 291.866Z" fill="#263238"/>
<path d="M398.277 249.279C397.678 250.678 396.978 252.078 396.078 253.278C395.278 254.577 394.279 255.677 393.079 256.677C393.879 255.377 394.679 254.077 395.478 252.878C396.378 251.578 397.278 250.379 398.277 249.279Z" fill="#263238"/>
<path d="M422.47 230.785C415.372 232.784 402.676 222.487 397.477 213.89C397.078 213.29 398.577 188.998 398.277 184.099C398.277 183.099 428.968 190.097 428.968 190.097C428.968 190.097 426.469 200.394 426.868 208.891C426.968 209.591 429.268 228.885 422.47 230.785Z" fill="#C6E8FF"/>
<path d="M397.877 199.294C412.273 209.491 426.268 205.592 426.868 205.393C427.068 200.194 427.768 195.096 428.967 190.097C428.967 190.097 398.177 183.099 398.177 184.099C398.477 186.398 398.177 192.896 397.877 199.294Z" fill="#263238"/>
<path d="M428.968 170.103C429.768 177.301 435.466 182.5 441.764 181.8C448.062 181.1 452.561 174.702 451.761 167.604C450.961 160.506 445.263 155.208 438.965 155.908C432.667 156.608 428.168 162.906 428.968 170.103Z" fill="#455A64"/>
<path d="M425.269 170.903C426.169 178.901 432.567 184.699 439.564 183.999C446.562 183.299 451.561 176.102 450.661 168.104C449.761 160.106 443.363 154.308 436.365 155.008C429.368 155.708 424.369 162.906 425.269 170.903Z" fill="#C7C7C7"/>
<path d="M394.078 147.61C390.679 158.407 396.178 189.597 403.875 196.595C414.972 206.692 433.166 207.792 441.763 194.496C450.161 181.6 442.263 141.012 433.666 134.714C421.17 125.217 399.077 131.615 394.078 147.61Z" fill="#C6E8FF"/>
<path d="M419.971 167.104C419.971 167.004 419.871 167.204 419.871 167.304C420.371 169.404 420.47 171.903 418.771 172.903C418.671 172.903 418.771 173.003 418.771 173.003C421.07 172.303 420.77 169.104 419.971 167.104Z" fill="#263238"/>
<path d="M417.771 165.305C414.372 165.705 415.372 172.503 418.571 172.203C421.77 171.903 420.57 165.005 417.771 165.305Z" fill="#263238"/>
<path d="M432.166 165.505C432.166 165.405 432.366 165.605 432.366 165.705C432.666 167.804 433.266 170.203 435.265 170.603C435.365 170.603 435.365 170.703 435.265 170.703C432.866 170.703 432.066 167.604 432.166 165.505Z" fill="#263238"/>
<path d="M433.667 163.006C437.066 162.206 438.265 169.004 435.166 169.704C432.067 170.403 430.868 163.705 433.667 163.006Z" fill="#263238"/>
<path d="M414.572 162.606C415.471 162.206 416.271 161.806 417.071 161.306C417.971 161.006 418.77 160.306 419.37 159.507C419.57 158.907 419.37 158.207 418.87 157.807C417.671 157.207 416.271 157.307 415.271 158.007C414.072 158.507 413.072 159.507 412.572 160.706C412.272 161.506 412.672 162.406 413.472 162.706C413.772 162.806 414.172 162.806 414.572 162.606Z" fill="#263238"/>
<path d="M435.865 159.207C434.965 159.207 433.966 159.107 433.066 158.907C432.066 158.907 431.067 158.607 430.267 158.107C429.767 157.607 429.767 156.907 430.067 156.308C430.967 155.308 432.266 154.808 433.566 155.108C434.866 155.208 436.165 155.708 437.065 156.608C437.665 157.207 437.565 158.207 436.965 158.807C436.665 159.007 436.265 159.207 435.865 159.207Z" fill="#263238"/>
<path d="M421.17 186.898C421.769 187.298 422.369 187.898 423.169 187.898C423.969 187.798 424.669 187.498 425.368 186.998H425.468V187.098C424.969 187.998 423.969 188.598 422.969 188.698C422.069 188.598 421.27 187.998 421.07 187.098C420.97 186.998 421.07 186.898 421.17 186.898Z" fill="#263238"/>
<path d="M422.47 180.3C423.77 181.8 425.769 182.699 427.768 182.799C428.668 182.799 429.568 182.699 430.368 182.5C430.568 182.5 430.668 182.4 430.867 182.4C431.067 182.4 431.167 182.3 431.367 182.3C431.567 182.2 431.767 182 431.767 181.8C431.767 181.7 431.767 181.7 431.767 181.6V181.4C431.567 179.8 431.067 177.301 431.067 177.301C431.667 177.501 434.966 178.401 434.766 177.601C433.267 170.603 431.667 162.906 428.668 156.308C428.668 156.208 428.468 156.208 428.368 156.208C428.268 156.208 428.268 156.308 428.268 156.408C429.468 163.205 431.767 169.703 433.067 176.401C431.867 176.101 430.767 175.902 429.568 175.902C429.368 176.002 430.667 180.6 430.667 181.3V181.4C427.968 182.2 425.769 181.7 422.87 180.2C422.47 180 422.27 180.1 422.47 180.3Z" fill="#263238"/>
<path d="M429.268 181.8C428.568 183.099 427.568 184.199 426.268 184.999C425.569 185.399 424.769 185.599 423.969 185.499C422.17 185.299 421.97 183.799 422.07 182.4C422.17 181.7 422.27 181 422.57 180.3C424.469 181.5 426.868 182 429.268 181.8Z" fill="#263238"/>
<path d="M426.268 184.999C425.569 185.399 424.769 185.599 423.969 185.499C422.17 185.299 421.97 183.799 422.07 182.4C423.869 182.3 425.769 183.199 426.268 184.999Z" fill="#FF99BA"/>
<path opacity="0.2" d="M399.177 158.607C397.978 161.706 395.378 169.004 393.979 169.504C392.579 159.407 392.579 150.21 395.078 144.611C396.078 142.312 397.578 140.213 399.377 138.313C399.577 141.112 400.477 155.408 399.177 158.607Z" fill="#263238"/>
<path d="M426.269 144.211C424.569 147.21 421.37 149.11 417.871 149.21C414.372 149.31 410.974 147.51 409.074 144.611C409.074 144.611 408.974 144.511 408.974 144.611C408.974 144.611 408.874 144.711 408.974 144.711C410.774 148.01 414.173 150.11 417.971 150.11C421.67 149.91 424.969 147.71 426.569 144.511C426.569 144.411 426.569 144.311 426.569 144.311C426.369 144.111 426.269 144.111 426.269 144.211Z" fill="#263238"/>
<path d="M447.062 128.116C445.663 125.417 443.263 123.418 440.464 122.318C436.566 120.819 432.667 121.818 428.768 122.918C428.768 122.918 428.668 122.918 428.668 123.018C428.668 123.118 428.668 123.118 428.768 123.118C432.067 122.218 435.466 121.418 438.765 122.418C441.564 123.218 443.963 125.017 445.563 127.417C448.862 132.515 447.862 139.313 443.263 143.312C440.564 145.511 437.165 146.511 433.766 146.011C433.666 146.011 433.566 146.211 433.766 146.211C440.564 147.41 447.062 142.812 448.162 135.914C448.762 133.315 448.262 130.516 447.062 128.116Z" fill="#263238"/>
<path d="M393.179 153.808C393.179 153.808 385.981 144.511 389.48 137.813C391.479 134.015 400.077 132.915 400.077 132.915C400.077 132.915 402.076 128.516 408.874 125.617C415.672 122.718 424.869 124.418 424.869 124.418C424.869 124.418 430.967 119.319 437.965 121.818C447.762 125.317 448.961 139.013 440.764 144.911C435.066 149.01 425.569 145.011 425.569 145.011C424.769 145.311 417.271 151.809 409.674 145.411C409.674 145.411 405.275 150.909 400.177 148.51C399.077 151.609 396.378 153.708 393.179 153.808Z" fill="#263238"/>
<path d="M400.576 173.003C400.576 173.003 393.378 163.006 388.88 165.605C384.381 168.204 389.879 182.7 395.278 184.599C398.077 185.799 401.276 184.599 402.476 181.8C402.476 181.7 402.576 181.7 402.576 181.6L400.576 173.003Z" fill="#C6E8FF"/>
<path d="M390.58 169.703C390.48 169.703 390.48 169.803 390.58 169.803C394.379 171.303 396.378 174.702 397.878 178.301C396.778 176.901 395.178 176.201 393.379 177.501C393.279 177.601 393.379 177.701 393.479 177.701C394.779 177.301 396.278 177.701 397.178 178.901C397.878 179.8 398.477 180.8 398.977 181.9C399.177 182.2 399.777 182 399.577 181.7V181.6C399.577 176.801 395.678 170.103 390.58 169.703Z" fill="#263238"/>
<path d="M394.579 166.005C394.579 166.005 390.68 150.51 393.679 141.012C397.078 130.416 409.774 120.119 424.769 124.518C424.769 124.518 408.074 126.617 399.977 140.613C396.278 147.011 399.877 165.505 399.877 165.505L394.579 166.005Z" fill="#C7C7C7"/>
<path d="M410.773 171.203C412.273 179.201 407.874 186.698 400.876 188.098C393.878 189.497 386.98 184.099 385.381 176.102C383.781 168.104 388.28 160.606 395.278 159.207C402.276 157.807 409.174 163.206 410.773 171.203Z" fill="#C7C7C7"/>
<path d="M406.975 171.503C408.374 178.701 404.375 185.499 398.077 186.698C391.779 187.898 385.581 183.099 384.182 175.902C382.782 168.704 386.781 161.906 393.079 160.706C399.377 159.507 405.575 164.305 406.975 171.503Z" fill="#455A64"/>
<path d="M10.2969 347.549H132.959L108.467 205.292H16.7949L10.2969 347.549Z" fill="#DBDBDB"/>
<path d="M10.2969 347.549H21.0935L27.0917 205.292H16.7949L10.2969 347.549Z" fill="#A6A6A6"/>
<path d="M82.9737 143.312C71.5772 154.608 68.2782 173.302 68.2782 173.302C68.2782 173.302 57.3816 192.097 60.3806 202.293C61.9801 208.192 66.4788 212.89 72.177 214.89L71.0773 209.291C71.0773 209.291 74.7762 216.489 86.9724 219.488C99.1687 222.487 115.364 218.688 123.761 214.39C128.76 211.89 132.958 208.192 136.157 203.493L133.058 211.691C133.058 211.691 144.955 211.291 151.952 198.595C158.95 185.898 138.756 167.804 137.057 163.905C135.358 160.006 133.158 131.515 103.167 136.414C103.267 136.314 90.8712 135.514 82.9737 143.312Z" fill="#263238"/>
<path d="M67.9787 213.99C64.8796 211.691 61.7806 208.991 60.0811 205.692C58.1817 202.293 57.5819 198.295 58.1817 194.496C58.9815 189.897 61.4807 185.799 63.78 181.9C66.0793 178.001 68.9784 173.902 71.3776 169.704C71.4776 169.504 71.1777 169.304 70.9778 169.504C68.2786 172.603 65.8793 175.902 63.58 179.301C61.2808 182.4 59.2814 185.799 57.6819 189.397C56.1823 192.696 55.7824 196.295 56.2823 199.894C56.8821 202.793 58.1817 205.492 59.9812 207.792C62.1805 210.591 64.9796 212.29 67.7788 214.39C67.9787 214.39 68.1786 214.19 67.9787 213.99Z" fill="#263238"/>
<path d="M154.552 185.499C150.953 175.002 141.556 168.404 135.758 159.207C132.659 154.308 130.26 148.81 126.161 144.511C126.061 144.411 125.861 144.611 125.961 144.711C129.26 148.61 131.159 153.209 133.559 157.707C136.158 162.106 139.057 166.205 142.456 170.003C148.354 177.101 155.552 185.599 154.152 195.496C153.552 200.094 150.753 205.193 146.055 206.592C145.855 206.692 145.955 206.992 146.155 206.892C149.953 205.392 152.853 202.393 154.352 198.595C156.152 194.396 156.152 189.697 154.552 185.499Z" fill="#263238"/>
<path d="M155.051 188.298C155.351 184.299 154.452 180.4 152.452 176.901C150.353 173.502 147.154 171.103 143.855 168.904C140.056 166.405 136.157 164.005 133.758 160.106C133.658 159.907 133.458 160.106 133.458 160.306C137.257 166.804 144.455 169.903 149.253 175.402C154.851 181.7 154.851 190.797 150.953 197.995C148.553 202.393 145.054 206.092 140.956 208.891C140.856 208.891 140.956 208.991 141.056 208.991C148.253 204.293 154.452 197.095 155.051 188.298Z" fill="#263238"/>
<path d="M109.665 236.083C140.056 252.778 176.345 273.671 198.538 268.673C208.435 266.474 252.721 208.392 254.621 201.694C256.22 195.895 216.133 172.703 211.634 177.301C204.036 184.899 183.643 227.886 180.644 228.585C177.645 229.285 152.152 224.087 125.661 219.388C100.168 214.79 88.672 224.487 109.665 236.083Z" fill="#C6E8FF"/>
<path d="M250.323 208.991C253.821 204.593 267.917 183.299 270.516 176.401C273.115 169.504 279.114 149.41 274.115 146.911C269.117 144.411 266.917 150.11 266.917 150.11C266.917 150.11 268.117 141.212 262.819 139.113C257.52 137.014 254.321 146.111 254.321 146.111C254.321 146.111 254.921 136.814 249.423 135.114C243.924 133.415 242.325 143.112 242.325 143.112C242.325 143.112 243.225 134.714 238.226 135.114C232.128 135.714 232.228 151.509 228.829 158.807C228.029 160.506 210.635 191.397 210.635 191.397L250.323 208.991Z" fill="#C6E8FF"/>
<path d="M242.525 142.312C242.525 153.908 240.526 159.007 234.528 168.604C234.428 168.804 234.628 169.004 234.827 168.804C241.625 159.906 245.024 153.908 243.125 142.212C242.925 141.712 242.525 141.812 242.525 142.312Z" fill="#263238"/>
<path d="M254.321 145.211C253.322 157.207 251.222 162.806 245.524 173.302C245.424 173.402 245.724 173.602 245.824 173.402C252.222 163.505 255.421 157.407 254.921 145.311C254.921 144.811 254.321 144.611 254.321 145.211Z" fill="#263238"/>
<path d="M266.617 150.609C264.818 162.206 262.718 168.304 256.02 177.901C255.92 178.001 255.92 178.101 256.02 178.201C256.12 178.301 256.22 178.301 256.32 178.201C264.218 169.104 266.817 161.406 267.017 150.709C266.917 150.01 266.717 149.91 266.617 150.609Z" fill="#263238"/>
<path d="M202.037 194.896C202.037 194.896 201.137 180.4 202.237 174.002C203.337 167.604 215.933 144.911 220.931 147.41C227.429 150.609 222.731 165.105 219.432 171.903C219.432 171.903 234.527 179.201 233.327 190.397C232.128 201.594 202.037 194.896 202.037 194.896Z" fill="#C6E8FF"/>
<path d="M222.431 148.81C226.23 156.008 221.431 164.605 218.732 171.503C218.632 171.803 218.732 172.203 219.032 172.403C219.132 172.403 219.132 172.503 219.232 172.503C225.33 176.002 232.927 182.699 233.627 190.097C233.627 190.197 233.727 190.297 233.827 190.297C233.927 190.297 234.027 190.197 234.027 190.097C234.427 182.1 227.529 174.902 220.531 171.503C223.33 164.505 227.829 155.608 222.531 148.91C222.531 148.71 222.431 148.71 222.431 148.81Z" fill="#263238"/>
<path d="M173.446 226.286L136.958 256.877C136.958 256.877 114.664 245.28 98.1695 231.984C81.6746 218.688 99.969 212.19 128.26 216.889C156.552 221.587 173.446 226.286 173.446 226.286Z" fill="#1997F3"/>
<path d="M130.26 232.384C129.26 230.985 128.06 229.685 126.661 228.585C128.16 231.784 130.26 234.583 132.959 236.883C132.159 235.283 131.259 233.784 130.26 232.384ZM98.2695 231.984L98.6694 232.284C98.9693 231.984 99.2692 231.684 99.5691 231.284C99.0693 231.484 98.6694 231.684 98.2695 231.984ZM159.351 232.184C157.651 231.884 155.852 231.884 154.152 231.984C155.752 232.584 157.451 232.984 159.251 233.284C160.95 233.584 162.75 233.584 164.449 233.484C162.75 232.784 161.05 232.384 159.351 232.184ZM147.154 220.288C147.154 220.988 147.154 221.587 147.254 222.287C147.454 221.687 147.754 221.088 147.854 220.488L147.154 220.288Z" fill="#C6E8FF"/>
<path d="M128.76 250.279C136.157 243.181 144.155 236.483 152.152 230.085C154.452 228.285 156.751 226.486 159.15 224.786C159.25 224.786 159.35 224.786 159.25 224.886C155.451 228.385 151.553 231.684 147.654 235.083C143.755 238.482 139.756 241.781 135.758 245.08C133.458 246.88 131.259 248.779 128.96 250.579C128.86 250.479 128.66 250.379 128.76 250.279Z" fill="#263238"/>
<path d="M152.452 243.881L136.957 256.877C136.957 256.877 114.664 245.28 98.1692 231.984C92.2711 227.286 90.8715 223.387 92.6709 220.588L152.452 243.881Z" fill="#263238"/>
<path d="M144.955 347.449H28.5908C28.5908 347.449 53.883 249.779 77.2758 222.287C77.7756 221.687 78.3755 221.088 78.8753 220.488C78.9753 220.388 79.0752 220.288 79.1752 220.188C80.9746 218.289 83.074 216.589 85.4733 215.389C85.8731 215.189 86.273 214.99 86.7729 214.79C95.7701 210.691 105.267 214.09 112.165 219.988C114.364 221.887 139.057 253.978 141.156 266.174C143.055 276.97 135.758 288.567 135.758 288.567L144.955 347.449Z" fill="#1997F3"/>
<path d="M118.263 284.368C113.265 284.868 108.366 285.668 103.568 286.867C101.169 287.467 98.8692 288.267 96.47 289.067C95.2704 289.466 94.1707 289.866 92.9711 290.166C91.7714 290.566 90.4718 290.766 89.1722 290.866C89.1722 290.866 89.0723 290.866 89.0723 290.966C89.0723 290.966 89.0723 291.066 89.1722 291.066C90.3719 291.166 91.5715 291.066 92.8711 290.966C94.0707 290.866 95.1704 290.566 96.37 290.266C98.7693 289.666 101.169 288.867 103.668 288.267C108.566 286.967 113.465 285.668 118.463 284.768C118.563 284.768 118.663 284.668 118.663 284.568C118.463 284.368 118.363 284.368 118.263 284.368Z" fill="#263238"/>
<path d="M130.56 288.667C126.461 288.267 122.362 288.067 118.263 288.167C116.264 288.167 114.165 288.367 112.165 288.567C111.166 288.667 110.166 288.767 109.266 288.967C108.366 289.167 107.167 289.367 106.067 289.567C105.967 289.567 105.967 289.766 106.067 289.766C107.067 289.666 108.167 289.766 109.166 289.766L112.265 289.666C114.265 289.567 116.364 289.567 118.363 289.467C122.462 289.267 126.561 289.167 130.66 289.167C130.76 288.967 130.76 288.667 130.56 288.667Z" fill="#263238"/>
<path d="M66.1797 245.28C65.5799 244.58 65.08 243.881 64.4802 243.281L64.0803 244.18C64.4802 244.78 64.8801 245.38 65.3799 245.98C66.3796 247.379 67.5793 248.679 68.9788 249.779C68.1791 248.179 67.2793 246.68 66.1797 245.28ZM79.6755 219.688C79.4756 221.288 79.4756 222.787 79.5755 224.387C80.1754 222.787 80.5752 221.088 80.8752 219.288C80.8752 218.988 80.9751 218.788 80.9751 218.488C80.5752 218.888 80.0754 219.288 79.6755 219.688ZM115.065 252.178C114.465 253.778 113.965 255.477 113.765 257.276C113.465 258.976 113.465 260.775 113.565 262.475C114.165 260.875 114.665 259.176 114.865 257.376C115.165 255.677 115.165 253.877 115.065 252.178ZM92.7715 308.461C92.1717 310.06 91.7718 311.76 91.4719 313.559C91.172 315.259 91.172 317.058 91.2719 318.757C92.5715 315.458 93.0714 311.96 92.7715 308.461ZM54.9831 265.974C54.3833 267.573 53.9834 269.373 53.6835 271.072C53.3836 272.772 53.3836 274.571 53.4836 276.271C54.0834 274.671 54.4833 272.972 54.7832 271.172C55.0831 269.473 55.0831 267.673 54.9831 265.974ZM86.2735 258.876C84.574 258.576 82.7746 258.576 81.0751 258.676C82.6746 259.276 84.3741 259.676 86.1735 259.976C87.873 260.276 89.6724 260.276 91.3719 260.176C89.6724 259.476 87.973 259.076 86.2735 258.876ZM128.161 306.861C126.461 306.561 124.662 306.561 122.962 306.661C126.261 307.861 129.76 308.361 133.259 308.061C131.56 307.461 129.86 307.061 128.161 306.861ZM49.9847 302.263C48.2852 302.063 46.5857 301.963 44.8863 302.063H44.7863H44.8863C46.4858 302.662 48.1852 303.062 49.8847 303.262C51.5842 303.562 53.3836 303.562 55.0831 303.462C53.3836 302.862 51.6842 302.462 49.9847 302.263ZM93.8711 343.45C92.1717 343.15 90.3722 343.15 88.6727 343.25C91.9717 344.45 95.4706 344.949 98.9696 344.649C97.2701 344.15 95.5706 343.75 93.8711 343.45ZM46.6857 338.451C44.9862 338.151 43.1868 338.151 41.4873 338.251C43.0868 338.851 44.7863 339.251 46.5857 339.551C48.2852 339.851 50.0847 339.851 51.7841 339.751C50.0847 339.051 48.3852 338.651 46.6857 338.451ZM95.0708 233.984C93.6712 234.983 92.3716 236.283 91.2719 237.583C92.8715 236.883 94.371 235.983 95.7706 234.883C97.1701 233.884 98.4697 232.584 99.5694 231.284C97.8699 231.984 96.3704 232.884 95.0708 233.984ZM107.467 287.467C106.067 288.467 104.768 289.666 103.668 291.066C105.268 290.366 106.767 289.466 108.167 288.367C109.566 287.367 110.866 286.168 111.966 284.768C110.366 285.568 108.867 286.467 107.467 287.467ZM63.7804 320.257C62.3809 321.257 61.0813 322.456 59.9816 323.856C61.5811 323.156 63.0806 322.256 64.4802 321.157C65.8798 320.157 67.1794 318.957 68.279 317.558C66.6795 318.258 65.18 319.157 63.7804 320.257ZM136.358 273.172C135.358 271.772 134.159 270.472 132.759 269.373C134.259 272.572 136.358 275.371 139.057 277.67C138.357 276.071 137.458 274.571 136.358 273.172ZM121.463 333.753C120.463 332.353 119.263 331.054 117.864 329.954C118.564 331.554 119.463 333.053 120.563 334.453C121.563 335.852 122.762 337.152 124.162 338.251C123.462 336.552 122.562 335.052 121.463 333.753ZM77.6761 286.068C76.6764 284.668 75.4768 283.368 74.0772 282.269C74.777 283.868 75.6768 285.368 76.7764 286.767C77.7761 288.167 78.9757 289.467 80.3753 290.566C79.5756 288.967 78.6758 287.467 77.6761 286.068Z" fill="#C6E8FF"/>
<path d="M74.8765 223.087C52.4834 241.081 -4.79888 312.659 8.09714 329.154C20.9932 345.649 106.967 338.151 131.859 330.354C139.257 328.055 119.063 280.969 111.065 278.77C104.367 276.97 67.3788 287.867 66.6791 285.768C65.8793 283.368 75.8762 269.973 88.4723 240.981C103.068 207.492 84.7735 215.089 74.8765 223.087Z" fill="#C6E8FF"/>
<path d="M151.453 274.871C168.548 276.87 172.647 279.969 187.942 273.971C198.039 270.073 204.837 274.771 197.439 283.268C185.443 297.164 162.85 299.264 154.752 297.664L151.453 274.871Z" fill="#C6E8FF"/>
<path d="M103.567 279.37C103.567 279.37 124.761 273.871 143.255 274.171C156.051 274.371 183.743 277.97 202.537 311.06C207.035 318.957 207.735 333.253 195.839 323.056C187.342 315.858 184.143 308.661 178.444 305.362C178.444 305.362 177.245 323.756 169.247 327.855C162.249 331.454 154.952 334.653 147.454 337.252C146.654 335.952 145.954 334.653 145.354 333.353C145.354 333.353 137.457 336.552 125.361 332.153L103.567 279.37Z" fill="#C6E8FF"/>
<path d="M155.351 276.371C160.35 280.869 170.647 290.466 176.345 301.363C182.743 313.459 191.74 338.351 182.743 342.95C176.145 346.349 171.946 337.052 171.946 337.052C171.946 337.052 173.546 348.148 166.948 349.948C160.95 351.547 158.05 344.25 158.05 344.25C158.05 344.25 157.851 351.148 151.752 351.547C144.455 352.047 146.054 337.552 138.257 331.654C136.457 330.254 155.351 276.371 155.351 276.371Z" fill="#C6E8FF"/>
<path d="M162.549 305.961C166.548 310.96 172.646 324.556 172.146 336.852C172.146 337.152 171.946 337.252 171.846 337.052C169.947 326.355 166.848 315.958 162.449 306.061V305.961C162.449 305.961 162.449 305.961 162.549 305.961Z" fill="#263238"/>
<path d="M150.553 312.659C153.553 317.258 159.251 331.654 158.251 344.15C158.251 344.45 157.951 344.55 157.951 344.25C156.652 333.453 154.052 322.956 150.354 312.759C150.354 312.659 150.453 312.659 150.553 312.659C150.453 312.659 150.453 312.659 150.553 312.659Z" fill="#263238"/>
<path d="M178.344 305.262C183.343 308.261 186.142 311.76 189.841 316.158C191.64 318.358 193.64 320.357 195.639 322.356C197.539 324.156 200.238 326.755 203.137 325.455C204.736 324.756 205.136 322.856 205.236 321.357C205.336 319.557 205.136 317.858 204.436 316.158C204.436 316.058 204.536 316.058 204.536 316.158C205.136 317.658 205.536 319.157 205.736 320.657C205.936 322.156 205.736 323.656 205.136 324.956C203.537 327.755 199.938 327.155 197.738 325.755C196.439 324.856 195.139 323.756 194.04 322.656C192.94 321.557 191.84 320.457 190.841 319.257C188.741 316.858 186.742 314.359 184.643 311.96C182.643 309.66 180.444 307.461 178.145 305.462C178.145 305.362 178.244 305.162 178.344 305.262Z" fill="#263238"/>
<path d="M184.743 327.155C184.143 323.756 179.944 308.96 178.245 305.362V305.262H178.345C181.544 310.36 185.542 322.656 186.242 326.455C186.942 330.254 187.642 334.952 186.642 338.651C185.143 344.25 181.144 344.35 179.744 344.25C178.045 344.15 176.445 343.45 175.146 342.25C173.746 340.751 172.646 338.951 171.847 337.052C171.847 336.952 171.947 336.852 171.947 336.952C173.346 339.651 176.045 342.75 179.144 343.05C180.544 343.25 182.044 342.95 183.143 342.05C184.343 340.951 185.043 339.351 185.243 337.752C185.742 334.253 185.542 330.654 184.743 327.155Z" fill="#263238"/>
<path d="M158.251 344.15C158.85 345.049 159.85 347.748 162.349 348.948C164.049 349.948 166.148 349.948 167.948 349.148C169.647 348.148 170.847 346.449 171.347 344.549C171.746 342.15 171.946 339.651 171.946 337.152C171.946 337.052 172.046 337.052 172.146 337.152C172.446 339.851 172.346 342.55 171.846 345.149C171.347 347.249 170.047 349.048 168.248 350.148C166.248 351.247 163.849 351.147 162.049 349.848C161.15 349.248 158.451 346.349 158.051 344.15C157.951 344.15 158.251 344.05 158.251 344.15Z" fill="#263238"/>
<path d="M138.957 330.754C139.657 331.554 140.356 332.453 140.856 333.353C141.456 334.353 141.956 335.352 142.556 336.352C143.655 338.351 144.455 340.451 145.055 342.65C145.655 344.849 146.155 347.249 147.654 349.048C149.054 350.848 151.553 351.547 153.752 350.748C154.852 350.248 155.852 349.448 156.451 348.348C157.151 347.149 157.551 345.949 157.851 344.55V344.45H157.951C157.951 344.45 157.951 344.45 157.951 344.55C157.851 345.749 157.651 346.949 157.351 348.048C156.951 349.048 156.351 350.048 155.452 350.748C153.652 352.147 151.253 352.347 149.154 351.447C146.954 350.448 145.655 348.148 144.855 345.949C143.955 343.45 143.455 340.851 142.456 338.451C141.956 337.152 141.456 335.852 140.856 334.553C140.256 333.253 139.357 332.053 138.857 330.654C138.757 330.754 138.857 330.654 138.957 330.754Z" fill="#263238"/>
<path d="M131.159 333.853C134.358 334.353 137.557 334.453 140.756 334.353C140.856 334.353 140.956 334.653 140.856 334.653C139.257 334.952 137.657 335.052 136.058 335.052C134.458 334.952 132.859 334.653 131.259 334.153C131.059 333.953 131.059 333.753 131.159 333.853Z" fill="#263238"/>
<path d="M32.9897 296.464C38.2881 293.865 43.8864 291.666 49.4847 289.866C55.0829 288.067 60.7812 286.767 66.5794 285.868C69.8784 285.368 73.1773 284.968 76.5763 284.468C76.6763 284.468 76.6763 284.568 76.5763 284.568C70.7781 285.468 64.9799 286.767 59.2816 288.367C53.5834 289.866 47.9851 291.566 42.3868 293.265C39.1878 294.265 36.0888 295.365 32.9897 296.464C32.8898 296.564 32.9897 296.764 32.9897 296.464Z" fill="#263238"/>
<path d="M28.0908 266.474L75.4762 271.572C75.4762 271.572 87.5725 249.579 93.8705 229.285C100.169 208.991 82.2741 212.99 61.4805 232.584C40.6869 252.178 28.0908 266.474 28.0908 266.474Z" fill="#1997F3"/>
<path d="M28.0908 266.474L75.4762 271.572C75.4762 271.572 87.5725 249.579 93.8705 229.285C100.169 208.991 82.2741 212.99 61.4805 232.584C40.6869 252.178 28.0908 266.474 28.0908 266.474Z" fill="#1997F3"/>
<path d="M79.775 218.988V219.088C79.4751 220.788 79.4751 222.587 79.5751 224.287C80.1749 222.687 80.5748 220.988 80.8747 219.188C80.8747 218.888 80.9747 218.588 80.9747 218.288L79.775 218.988ZM54.9827 265.974C54.5828 267.073 54.1829 268.173 53.983 269.373L54.9827 269.473C55.0826 268.273 55.0826 267.173 54.9827 265.974ZM38.5877 255.277L38.0879 255.777C38.5877 255.777 39.0876 255.777 39.6874 255.677C39.2875 255.577 38.8876 255.377 38.5877 255.277ZM81.0746 258.676C81.3745 258.776 81.6744 258.876 81.9743 258.976C82.0743 258.876 82.0743 258.676 82.1743 258.576C81.7744 258.576 81.3745 258.576 81.0746 258.676ZM66.1792 245.28C65.1795 243.881 63.9799 242.581 62.5803 241.481C63.2801 243.081 64.1798 244.58 65.2795 245.98C66.2792 247.379 67.4788 248.679 68.8784 249.779C68.1786 248.179 67.2789 246.68 66.1792 245.28Z" fill="#C6E8FF"/>
<path d="M73.5774 271.172C73.8773 271.172 75.5768 271.172 75.5768 271.172C75.7767 270.572 79.8754 261.175 80.8751 259.176C82.9745 255.077 85.2738 251.078 87.4731 247.08C87.5731 246.98 87.773 247.08 87.673 247.18C86.0735 250.678 84.574 254.177 82.9745 257.676C83.3744 257.177 83.7742 256.777 84.1741 256.277C84.9739 255.277 85.6737 254.277 86.4734 253.178C86.5734 253.078 86.6733 253.178 86.6733 253.278C85.9736 254.677 85.0738 256.077 83.9742 257.276C83.4743 257.776 83.0745 258.276 82.4746 258.776C82.3747 259.076 82.1747 259.376 82.0748 259.676C81.0751 261.675 76.1766 271.772 75.9766 271.772L73.6774 271.472C73.4774 271.472 73.4774 271.172 73.5774 271.172Z" fill="#263238"/>
<path d="M37.0884 258.476C47.3853 259.176 57.5821 260.575 67.779 262.175C70.6781 262.675 73.5772 263.175 76.3763 263.774C76.4763 263.774 76.4763 263.874 76.3763 263.874C71.2779 263.375 66.1795 262.775 61.081 262.175C55.9826 261.575 50.7842 260.875 45.6858 260.076C42.7867 259.676 39.8876 259.176 37.0884 258.676C36.8885 258.576 36.8885 258.476 37.0884 258.476Z" fill="#263238"/>
<path d="M91.4717 216.089C91.6716 218.188 99.3692 232.584 108.666 233.484C111.665 233.784 113.965 217.389 113.965 217.389L114.365 216.189L120.563 199.794L102.468 184.199L99.8691 182.1C99.8691 182.1 98.4695 186.698 96.77 192.496C96.6701 192.796 96.5701 192.996 96.4701 193.296C96.3702 193.596 96.2702 193.896 96.1702 194.196C95.8703 195.096 95.6704 195.895 95.3705 196.795C95.1705 197.495 94.9706 198.095 94.7707 198.794C94.5707 199.494 94.3708 200.194 94.1708 200.894C93.0712 205.892 92.1715 210.991 91.4717 216.089Z" fill="#C6E8FF"/>
<path d="M96.8701 192.396C98.9695 202.493 105.367 211.191 114.465 216.189L120.663 199.794L102.568 184.199L99.9692 182.1C99.9692 182.1 98.5696 186.698 96.8701 192.396Z" fill="#263238"/>
<path d="M126.16 174.602C127.76 181.6 134.058 186.198 140.256 184.799C146.454 183.399 150.153 176.601 148.554 169.504C146.954 162.406 140.656 157.907 134.458 159.307C128.26 160.706 124.561 167.504 126.16 174.602Z" fill="#455A64"/>
<path d="M122.561 175.902C124.361 183.699 131.359 188.798 138.257 187.298C145.154 185.798 149.253 178.101 147.454 170.303C145.654 162.506 138.656 157.407 131.858 158.907C125.061 160.406 120.862 168.004 122.561 175.902Z" fill="#C7C7C7"/>
<path d="M142.856 165.805C151.253 195.396 134.458 203.793 128.06 205.592C122.262 207.192 102.268 212.09 90.8718 183.499C79.4754 154.908 90.5719 141.612 103.668 137.114C116.764 132.615 134.458 136.214 142.856 165.805Z" fill="#C6E8FF"/>
<path d="M132.559 162.106C131.859 162.206 131.159 162.206 130.46 162.206C129.76 162.306 128.96 162.206 128.26 161.906C127.86 161.606 127.76 161.106 127.96 160.606C128.46 159.807 129.46 159.307 130.36 159.307C131.359 159.207 132.359 159.507 133.159 160.007C133.659 160.406 133.759 161.206 133.259 161.706C133.059 161.906 132.759 162.106 132.559 162.106Z" fill="#263238"/>
<path d="M112.965 169.004C113.665 168.804 114.265 168.504 114.964 168.304C115.664 168.104 116.364 167.704 116.864 167.204C117.064 166.804 117.064 166.205 116.664 165.905C115.864 165.305 114.765 165.205 113.865 165.705C112.965 166.005 112.065 166.604 111.566 167.504C111.266 168.104 111.466 168.804 112.065 169.104C112.365 169.004 112.665 169.104 112.965 169.004Z" fill="#263238"/>
<path d="M118.963 174.202C118.963 174.102 118.863 174.302 118.863 174.402C119.463 176.401 119.863 178.801 118.263 180C118.163 180 118.263 180.1 118.363 180.1C120.462 179.201 119.863 176.001 118.963 174.202Z" fill="#263238"/>
<path d="M116.564 172.603C113.265 173.302 114.864 179.9 117.963 179.201C121.062 178.501 119.363 172.103 116.564 172.603Z" fill="#263238"/>
<path d="M115.364 173.302C114.864 173.802 114.464 174.602 113.764 174.902C113.064 175.202 112.165 174.602 111.565 174.102C111.465 174.002 111.465 174.102 111.465 174.202C111.765 175.502 112.565 176.601 113.964 176.501C115.364 176.401 115.863 175.002 115.863 173.702C115.863 173.402 115.564 173.102 115.364 173.302Z" fill="#263238"/>
<path d="M130.659 170.603C130.659 170.503 130.859 170.703 130.859 170.703C131.259 172.802 132.059 175.102 134.158 175.302C134.258 175.302 134.258 175.402 134.158 175.402C131.759 175.702 130.759 172.603 130.659 170.603Z" fill="#263238"/>
<path d="M131.959 168.104C135.158 167.104 136.957 173.602 133.958 174.502C130.959 175.402 129.26 168.904 131.959 168.104Z" fill="#263238"/>
<path d="M133.458 168.104C134.058 168.304 134.758 168.804 135.358 168.704C135.957 168.604 136.457 167.704 136.657 166.904C136.657 166.804 136.757 166.904 136.757 166.904C137.157 168.104 137.057 169.504 135.957 170.103C134.858 170.703 133.858 169.803 133.158 168.604C133.158 168.404 133.258 168.004 133.458 168.104Z" fill="#263238"/>
<path d="M123.561 190.697C124.161 191.097 124.761 191.697 125.561 191.597C126.36 191.397 127.06 191.097 127.66 190.697H127.76V190.797C127.36 191.697 126.36 192.397 125.361 192.397C124.461 192.397 123.661 191.797 123.361 190.897C123.361 190.697 123.461 190.597 123.561 190.697Z" fill="#263238"/>
<path d="M130.259 180.5C130.259 180.5 131.459 183.399 131.859 184.899C131.859 184.999 126.961 187.398 123.762 184.499C123.662 184.499 123.662 184.399 123.762 184.299C123.762 184.199 123.861 184.199 123.961 184.299C126.061 185.099 128.46 185.099 130.659 184.499C130.659 184.099 128.46 179.6 128.66 179.501C129.76 179.301 130.959 179.301 132.059 179.401C129.76 173.202 126.461 167.504 124.261 161.306C124.261 161.206 124.261 161.106 124.361 161.006C124.461 161.006 124.561 161.006 124.561 161.106C128.46 166.904 131.259 173.902 133.758 180.2C134.158 180.9 130.959 180.6 130.259 180.5Z" fill="#263238"/>
<path d="M130.56 185.099C130.06 186.398 129.16 187.598 128.06 188.498C127.461 188.998 126.661 189.197 125.961 189.297C124.262 189.297 123.762 187.898 123.762 186.598C123.762 185.898 123.762 185.199 123.962 184.499C125.961 185.399 128.36 185.599 130.56 185.099Z" fill="#263238"/>
<path d="M128.06 188.498C127.461 188.998 126.661 189.198 125.961 189.297C124.262 189.297 123.762 187.898 123.762 186.598C125.461 186.198 127.461 186.898 128.06 188.498Z" fill="#FF99BA"/>
<path d="M92.2708 182.5C97.969 182.899 98.6688 169.703 98.6688 169.703C98.6688 169.703 122.661 164.105 123.561 144.211C123.561 144.211 128.46 156.508 141.556 161.506C141.556 161.506 139.356 139.913 121.962 136.714C121.962 136.714 100.168 130.216 89.2717 147.91C78.3751 165.605 88.372 182.3 92.2708 182.5Z" fill="#263238"/>
<path d="M123.462 142.812C123.962 145.811 123.762 148.91 122.962 151.909C122.162 154.908 120.763 157.707 118.863 160.206C118.364 160.806 117.864 161.406 117.364 161.906L116.564 162.806C116.264 163.106 115.964 163.305 115.664 163.605C115.065 164.105 114.465 164.605 113.865 165.005C113.265 165.405 112.565 165.805 111.866 166.205C111.566 166.404 111.266 166.604 110.866 166.804L109.866 167.304L107.767 168.204C106.367 168.704 104.868 169.104 103.368 169.504C104.768 168.804 106.167 168.304 107.467 167.604L109.366 166.504L110.366 165.905C110.666 165.705 110.966 165.505 111.266 165.305C111.866 164.905 112.465 164.405 113.065 164.005C113.665 163.605 114.165 163.006 114.665 162.606L115.464 161.906L116.164 161.106C116.664 160.606 117.164 160.006 117.564 159.407C119.363 157.107 120.763 154.508 121.762 151.709C122.262 150.309 122.662 148.91 122.862 147.41C123.362 145.811 123.462 144.311 123.462 142.812Z" fill="#263238"/>
<path d="M96.5696 182.2C96.5696 182.2 88.1722 174.002 84.2734 177.201C80.3746 180.4 88.0722 193.096 93.3705 193.996C96.1697 194.696 98.9688 192.996 99.6686 190.197C99.6686 190.097 99.6686 190.097 99.6686 189.997L96.5696 182.2Z" fill="#C6E8FF"/>
<path d="M86.573 180.8C86.4731 180.8 86.4731 180.8 86.573 180.8C86.4731 180.9 86.573 180.9 86.573 180.9C90.3719 181.7 92.8711 184.599 94.8705 187.698C93.5709 186.598 91.9714 186.198 90.4718 187.698C90.3719 187.798 90.4718 187.898 90.5718 187.898C91.7714 187.298 93.271 187.398 94.2707 188.298C95.0704 188.997 95.8702 189.897 96.47 190.797C96.6699 191.097 97.2697 190.797 97.0698 190.497L96.9698 190.397C96.1701 185.998 91.4715 180.3 86.573 180.8Z" fill="#263238"/>
<path d="M90.7714 178.101C90.7714 178.101 85.2731 163.505 87.1725 154.008C89.2718 143.412 102.368 131.415 117.363 135.914C117.363 135.914 99.5687 138.613 93.2706 152.909C90.3715 159.507 95.8698 177.001 95.8698 177.001L90.7714 178.101Z" fill="#C7C7C7"/>
<path d="M99.2212 198.744C105.863 196.675 109.344 188.887 106.996 181.348C104.648 173.81 97.3604 169.376 90.7182 171.445C84.076 173.514 80.5949 181.302 82.9429 188.84C85.291 196.379 92.579 200.813 99.2212 198.744Z" fill="#C7C7C7"/>
<path d="M103.268 182C105.367 188.798 102.268 195.795 96.2702 197.595C90.2721 199.394 83.7741 195.496 81.6747 188.698C79.5754 181.9 82.6744 174.902 88.6726 173.102C94.6707 171.303 101.169 175.302 103.268 182Z" fill="#455A64"/>
<path d="M114.364 216.289L108.866 230.185L91.5713 212.69L86.6729 218.288C86.6729 218.288 103.668 246.08 103.768 244.78L109.466 232.784L117.763 241.081L117.063 220.288L114.364 216.289Z" fill="#EBEBEB"/>
<path d="M117.963 230.885C117.663 227.486 117.563 223.987 117.163 220.588C117.163 220.488 116.963 220.388 116.963 220.588C116.263 223.887 117.263 237.083 117.263 240.182C116.963 239.782 109.566 232.884 109.566 232.984C108.366 234.883 104.167 243.581 103.867 244.38C101.168 239.982 89.7716 222.587 86.6726 218.388C86.6726 218.388 86.5726 218.388 86.4727 218.388V218.488C88.8719 223.187 103.567 246.08 103.767 245.98C105.967 241.881 107.966 237.682 109.665 233.384C110.865 234.883 118.263 242.681 118.363 242.181C118.363 238.482 118.263 234.683 117.963 230.885Z" fill="#263238"/>
<path d="M214.433 123.918C212.634 141.012 197.339 153.509 180.144 151.709C173.446 151.009 167.248 148.21 162.249 143.612L146.654 145.911L154.452 132.415C148.054 116.42 155.751 98.2256 171.747 91.8276C187.742 85.4296 205.936 93.1272 212.334 109.122C214.233 113.721 214.933 118.819 214.433 123.918Z" fill="white"/>
<path d="M214.434 123.918C213.834 129.716 211.635 135.114 208.136 139.713C206.436 142.012 204.337 144.011 202.038 145.711C199.738 147.41 197.239 148.91 194.54 149.91C191.841 151.009 189.042 151.609 186.142 151.909C184.743 152.009 183.243 152.109 181.844 152.009C180.444 152.009 178.945 151.809 177.545 151.609C171.747 150.609 166.448 147.91 162.05 144.011L162.45 144.111L146.855 146.511L145.755 146.711L146.355 145.711L154.152 132.215V132.715C150.453 123.618 151.153 113.421 156.052 104.924C158.451 100.725 161.85 97.2259 165.849 94.5267C173.946 89.1284 184.043 87.8288 193.24 90.8279C197.739 92.3274 201.838 94.9266 205.237 98.2256C211.934 104.824 215.433 114.321 214.434 123.918ZM214.434 123.918C216.233 106.923 203.937 91.7276 187.042 89.9282C184.443 89.6282 181.744 89.7282 179.045 90.1281C174.446 90.8279 170.047 92.5273 166.149 95.2265C162.35 97.9257 159.151 101.325 156.851 105.423C152.153 113.621 151.553 123.518 155.052 132.215L155.152 132.515L155.052 132.815L147.154 146.311L146.555 145.511L162.15 143.312H162.35L162.45 143.412C166.648 147.31 171.847 150.01 177.445 151.109C178.845 151.409 180.244 151.609 181.644 151.609C183.043 151.709 184.443 151.709 185.942 151.609C188.842 151.409 191.641 150.809 194.24 149.81C196.939 148.81 199.438 147.51 201.738 145.711C204.037 144.011 206.136 142.012 207.836 139.713C211.635 135.014 213.834 129.616 214.434 123.918Z" fill="#263238"/>
<path d="M197.039 125.417C199.137 125.417 200.838 123.716 200.838 121.618C200.838 119.52 199.137 117.82 197.039 117.82C194.941 117.82 193.24 119.52 193.24 121.618C193.24 123.716 194.941 125.417 197.039 125.417Z" fill="#263238"/>
<path d="M183.443 125.417C185.541 125.417 187.242 123.716 187.242 121.618C187.242 119.52 185.541 117.82 183.443 117.82C181.345 117.82 179.645 119.52 179.645 121.618C179.645 123.716 181.345 125.417 183.443 125.417Z" fill="#263238"/>
<path d="M169.947 125.417C172.045 125.417 173.746 123.716 173.746 121.618C173.746 119.52 172.045 117.82 169.947 117.82C167.849 117.82 166.148 119.52 166.148 121.618C166.148 123.716 167.849 125.417 169.947 125.417Z" fill="#263238"/>
<path d="M524.838 123.918C523.038 141.012 507.743 153.508 490.548 151.709C483.85 151.009 477.652 148.21 472.654 143.612L457.059 145.911L464.856 132.415C458.358 116.42 466.056 98.2255 482.051 91.8275C498.046 85.3295 516.24 93.0271 522.638 109.022C524.638 113.721 525.437 118.819 524.838 123.918Z" fill="white"/>
<path d="M524.838 123.918C524.238 129.716 522.038 135.114 518.54 139.713C517.64 140.812 516.74 141.912 515.74 143.012C514.741 144.011 513.641 144.911 512.441 145.811C510.142 147.51 507.643 149.01 504.944 150.01C502.245 151.109 499.445 151.709 496.546 152.009C495.147 152.109 493.647 152.209 492.248 152.109C490.848 152.109 489.349 151.909 487.949 151.709C482.151 150.609 476.852 148.01 472.554 144.111L472.954 144.211L457.358 146.611L456.259 146.811L456.859 145.811L464.656 132.315V132.815C460.957 123.718 461.657 113.521 466.556 105.023C468.955 100.825 472.354 97.3259 476.353 94.6267C484.45 89.2284 494.547 87.9288 503.744 90.9279C508.243 92.4274 512.342 95.0266 515.74 98.3256C522.438 104.824 525.837 114.321 524.838 123.918ZM524.838 123.918C526.637 106.923 514.341 91.7276 497.446 89.9282C494.847 89.6283 492.148 89.7282 489.449 90.1281C484.85 90.8279 480.451 92.5274 476.553 95.2265C472.754 97.9257 469.555 101.325 467.255 105.423C464.956 109.422 463.557 114.021 463.257 118.619C462.957 123.218 463.756 127.916 465.456 132.215L465.556 132.515L465.356 132.815L457.458 146.311L456.859 145.511L472.454 143.312H472.654L472.854 143.412C477.052 147.31 482.151 150.01 487.849 151.109C489.249 151.409 490.648 151.609 492.048 151.609C493.447 151.709 494.847 151.709 496.346 151.609C499.246 151.409 502.045 150.809 504.644 149.81C507.343 148.81 509.842 147.51 512.142 145.711C514.441 144.011 516.54 142.012 518.24 139.713C521.939 135.114 524.238 129.616 524.838 123.918Z" fill="#263238"/>
<path d="M507.344 125.417C509.442 125.417 511.143 123.716 511.143 121.618C511.143 119.52 509.442 117.82 507.344 117.82C505.246 117.82 503.545 119.52 503.545 121.618C503.545 123.716 505.246 125.417 507.344 125.417Z" fill="#263238"/>
<path d="M493.848 125.417C495.946 125.417 497.646 123.716 497.646 121.618C497.646 119.52 495.946 117.82 493.848 117.82C491.75 117.82 490.049 119.52 490.049 121.618C490.049 123.716 491.75 125.417 493.848 125.417Z" fill="#263238"/>
<path d="M484.051 121.618C484.051 123.718 482.351 125.417 480.252 125.417C478.153 125.417 476.453 123.718 476.453 121.618C476.453 119.519 478.153 117.82 480.252 117.82C482.351 117.82 484.051 119.519 484.051 121.618Z" fill="#263238"/>
<path d="M162.75 345.149H156.052V349.548H162.75V345.149Z" fill="#455A64"/>
<path d="M171.447 344.849H164.749V349.248H171.447V344.849Z" fill="#455A64"/>
<path d="M180.144 344.55H173.446V348.948H180.144V344.55Z" fill="#455A64"/>
<path d="M188.742 344.25H182.044V348.648H188.742V344.25Z" fill="#455A64"/>
<path d="M197.439 343.95H190.741V348.348H197.439V343.95Z" fill="#455A64"/>
<path d="M206.136 343.65H199.438V348.048H206.136V343.65Z" fill="#455A64"/>
<path d="M214.834 343.35H208.136V347.748H214.834V343.35Z" fill="#455A64"/>
<path d="M223.531 343.05H216.833V347.449H223.531V343.05Z" fill="#455A64"/>
<path d="M232.129 342.85H225.431V347.249H232.129V342.85Z" fill="#455A64"/>
<path d="M233.828 351.947H154.452V346.649L233.828 344.449V351.947Z" fill="#37474F"/>
<path d="M311.204 331.054H180.244L201.038 233.484H332.097L311.204 331.054Z" fill="#455A64"/>
<path d="M316.103 331.054H185.043L205.937 233.484H336.896L316.103 331.054Z" fill="#37474F"/>
<path d="M272.315 276.67C271.516 281.269 267.617 284.668 262.918 284.768C259.22 284.868 256.12 281.969 256.021 278.27C256.021 277.77 256.021 277.17 256.12 276.67C256.92 272.072 260.819 268.673 265.518 268.573C269.216 268.473 272.315 271.372 272.515 275.071C272.515 275.571 272.415 276.071 272.315 276.67Z" fill="#263238"/>
<path d="M279.014 356.546H214.634V351.547L279.014 349.448V356.546Z" fill="#455A64"/>
<path d="M296.508 356.546H261.919L241.125 301.863H275.714L296.508 356.546Z" fill="#455A64"/>
<path d="M302.206 356.546H267.617L246.823 301.863H281.413L302.206 356.546Z" fill="#263238"/>
<path d="M151.953 357.845H85.5734C79.8751 357.845 88.0726 341.75 108.766 335.552C129.46 329.354 158.551 351.747 151.953 357.845Z" fill="#37474F"/>
<path d="M125.961 357.845C125.961 356.046 126.261 354.147 126.861 352.447C127.361 350.648 128.16 348.948 129.06 347.349C130.06 345.749 131.159 344.35 132.559 343.05C133.958 341.85 135.558 340.851 137.257 340.151C136.558 340.751 135.758 341.151 135.058 341.75L134.058 342.65L133.159 343.65C131.959 344.949 130.859 346.349 129.96 347.848C129.06 349.348 128.26 350.948 127.56 352.647C126.961 354.346 126.361 356.146 125.961 357.845Z" fill="#263238"/>
<path d="M133.759 342.45C137.758 343.75 141.456 345.549 144.855 347.948C146.555 349.148 148.154 350.548 149.454 352.147C150.854 353.747 151.753 355.746 151.953 357.845C151.353 355.846 150.354 354.147 148.854 352.747C147.455 351.347 145.855 350.048 144.256 348.848C142.656 347.649 140.857 346.549 139.157 345.549C137.458 344.55 135.558 343.45 133.759 342.45Z" fill="#263238"/>
<path d="M469.554 345.149H462.856V349.548H469.554V345.149Z" fill="#455A64"/>
<path d="M478.253 344.849H471.555V349.248H478.253V344.849Z" fill="#455A64"/>
<path d="M486.849 344.55H480.151V348.948H486.849V344.55Z" fill="#455A64"/>
<path d="M495.547 344.25H488.849V348.648H495.547V344.25Z" fill="#455A64"/>
<path d="M504.244 343.95H497.546V348.348H504.244V343.95Z" fill="#455A64"/>
<path d="M512.941 343.65H506.243V348.048H512.941V343.65Z" fill="#455A64"/>
<path d="M521.539 343.35H514.841V347.748H521.539V343.35Z" fill="#455A64"/>
<path d="M530.236 343.05H523.538V347.449H530.236V343.05Z" fill="#455A64"/>
<path d="M538.933 342.85H532.235V347.249H538.933V342.85Z" fill="#455A64"/>
<path d="M540.533 351.947H461.157V346.649L540.533 344.449V351.947Z" fill="#37474F"/>
<path d="M618.009 331.054H487.05L507.843 233.484H638.803L618.009 331.054Z" fill="#455A64"/>
<path d="M622.807 331.054H491.848L512.641 233.484H643.701L622.807 331.054Z" fill="#37474F"/>
<path d="M579.121 276.67C578.322 281.269 574.423 284.568 569.724 284.768C566.026 284.868 562.927 281.969 562.727 278.27C562.727 277.77 562.727 277.17 562.827 276.67C563.626 272.072 567.525 268.673 572.224 268.573C575.922 268.473 579.022 271.372 579.221 275.071C579.221 275.571 579.221 276.071 579.121 276.67Z" fill="#263238"/>
<path d="M585.819 356.546H521.339V351.547L585.819 349.448V356.546Z" fill="#455A64"/>
<path d="M603.314 356.546H568.725L547.831 301.863H582.52L603.314 356.546Z" fill="#455A64"/>
<path d="M609.012 356.546H574.422L553.629 301.863H588.218L609.012 356.546Z" fill="#263238"/>
<path d="M458.758 357.845H392.278C386.58 357.845 394.778 341.75 415.471 335.552C436.165 329.354 465.256 351.747 458.758 357.845Z" fill="#37474F"/>
<path d="M432.666 357.845C432.666 356.046 433.066 354.147 433.566 352.447C434.066 350.648 434.865 348.948 435.765 347.349C436.765 345.749 437.864 344.35 439.264 343.05C440.664 341.85 442.263 340.851 443.963 340.151C443.263 340.751 442.463 341.151 441.763 341.75L440.764 342.65L439.864 343.65C438.664 344.949 437.565 346.349 436.665 347.848C435.765 349.348 434.965 350.948 434.266 352.647C433.666 354.346 433.066 356.146 432.666 357.845Z" fill="#263238"/>
<path d="M440.563 342.45C444.562 343.75 448.261 345.549 451.66 347.948C453.36 349.148 454.959 350.548 456.259 352.147C457.658 353.747 458.558 355.746 458.758 357.845C458.158 355.846 457.158 354.147 455.659 352.747C454.259 351.347 452.66 350.048 451.06 348.848C449.461 347.649 447.661 346.549 445.962 345.549C444.262 344.55 442.363 343.45 440.563 342.45Z" fill="#263238"/>
</g>
<defs>
<clipPath id="clip0">
<rect width="648" height="362" fill="white"/>
</clipPath>
</defs>
</svg>
