<svg width="500" height="383" viewBox="0 0 500 383" fill="none" xmlns="http://www.w3.org/2000/svg">
<path d="M92.2002 84C162.3 4.30005 282.6 -8.99996 336.2 16.6C357 26.5 376.3 39.4 393.4 54.8C395.6 56.8 397.8 58.9 399.9 61C406.5 67.5 412.7 74.4 418.4 81.7C425.3 90.4 431.5 99.6 437 109.2C444.9 122.9 451.1 137.5 455.5 152.7C458.5 162.6 460.4 172.9 461.3 183.2C462.8 202.6 461.5 222.2 458.9 241.5C458.7 243.3 458.4 245.2 458.1 247C458 247.5 458 248 457.9 248.5C455 267.7 451 287 441.9 303.7C432 322 397.5 372.7 360 374C340.6 374.7 323.4 362 305.8 353C277.8 338.7 246.1 335.9 215.2 335.1C184.3 334.3 153 335.2 122.9 327.5C92.8002 319.8 63.3002 302.2 47.9002 273C42.7002 263.1 38.7002 248.7 38.7002 237.3C38.7002 203.5 44.2002 173.9 53.9002 148.2C57.0002 140 60.5002 132 64.6002 124.3C70.5002 112.9 77.5002 102.2 85.5002 92.1L92.2002 84Z" fill="#C6E8FF"/>
<path d="M38.7002 372.8H468.7" stroke="#263238" stroke-linecap="round" stroke-linejoin="round"/>
<path d="M369.6 227.8V227.9C369.6 228.1 369.6 228.3 369.7 228.5C370.1 230.7 370.5 232.9 370.7 235.1C370.9 237 371 239.2 371.1 241.6C371.2 247.2 370.8 252.8 370 258.4C369.8 259.9 369.5 261.4 369.2 262.9C368.7 265.4 368.1 268.1 367.4 270.9C367.1 272.2 366.7 273.5 366.3 274.8L365.8 276.4C365.6 277 365.4 277.7 365.3 278.4C364.2 282.8 363.2 287.3 362.5 291.9C361.6 297.5 361.1 303.2 360.8 308.5C360.4 315.6 360.4 322.1 360.6 327.5C360.6 327.6 360.6 327.7 360.6 327.8C360.8 333.3 361.1 337.6 361.4 340C361.5 341.4 361.6 342.2 361.6 342.3" stroke="#263238" stroke-linecap="round" stroke-linejoin="round"/>
<path d="M369.699 227.9C368.199 226.6 366.399 225.6 364.399 225.2Z" fill="white"/>
<path d="M369.699 227.9C368.199 226.6 366.399 225.6 364.399 225.2" stroke="#263238" stroke-linecap="round" stroke-linejoin="round"/>
<path d="M370.8 235.1L373.5 232.7" stroke="#263238" stroke-linecap="round" stroke-linejoin="round"/>
<path d="M367.4 270.9C367.3 270.2 367.1 269.5 366.8 268.9C366.4 267.9 365.9 267 365.2 266.2C364.7 265.6 364.1 265 363.5 264.6" stroke="#263238" stroke-linecap="round" stroke-linejoin="round"/>
<path d="M365.3 278.4C366.1 276.5 367.6 275 369.5 274.3" stroke="#263238" stroke-linecap="round" stroke-linejoin="round"/>
<path d="M360.7 315.6C361.6 314.5 362.3 310.4 362.6 308.2C362.7 307.7 362.8 307.2 362.8 306.9" fill="white"/>
<path d="M360.7 315.6C361.6 314.5 362.3 310.4 362.6 308.2C362.7 307.7 362.8 307.2 362.8 306.9" stroke="#263238" stroke-linecap="round" stroke-linejoin="round"/>
<path d="M353.8 323C354.1 323 354.4 323 354.7 323C357.4 323.3 359.7 325 360.7 327.5" fill="white"/>
<path d="M353.8 323C354.1 323 354.4 323 354.7 323C357.4 323.3 359.7 325 360.7 327.5" stroke="#263238" stroke-linecap="round" stroke-linejoin="round"/>
<path d="M369.2 263C369.2 263 369.7 246.8 360.8 240.9" stroke="#263238" stroke-linecap="round" stroke-linejoin="round"/>
<path d="M369.999 297.8C371.199 301.6 362.999 308.8 362.999 308.8C362.999 308.8 352.199 307.4 350.999 303.7C349.799 300 352.599 293.7 357.799 292.1C362.999 290.5 368.899 294 369.999 297.8Z" fill="#1997F3"/>
<path d="M379.1 251.9C378.1 255.9 370.3 258.8 370.3 258.8C370.3 258.8 365 252.6 366 248.6C367 244.6 371.3 240.2 374.9 241.1C378.5 242 380.1 247.8 379.1 251.9Z" fill="#1997F3"/>
<path d="M348.099 311.9C352.999 313.8 355.899 322.4 355.899 322.4C355.899 322.4 347.899 326.7 343.099 324.8C338.299 322.9 333.099 317.6 334.499 314C335.899 310.4 343.299 310 348.099 311.9Z" fill="#1997F3"/>
<path d="M358.7 264.7C359.7 265.5 360.8 266.2 362 266.6C363.2 267 364.6 266.7 365.5 265.8C366.5 264.6 366.3 262.8 365.6 261.3C364.3 258.4 359.5 253.6 355.8 255C350.6 257 356.4 263 358.7 264.7Z" fill="#1997F3"/>
<path d="M369.6 272C368.9 272.9 368.2 274 368.6 275C369 275.9 370 276.4 371 276.2C372 276 372.9 275.5 373.6 274.9C375.5 273.6 379.3 270.9 376.9 268.3C374.5 265.7 371 270.2 369.6 272Z" fill="#1997F3"/>
<path d="M353.899 235.7C353.099 235.7 352.399 236.3 352.099 237.1C351.899 238 352.699 238.8 353.499 239.4C355.399 240.8 360.999 244.7 362.199 241C363.399 237.5 356.399 235.5 353.899 235.7Z" fill="#1997F3"/>
<path d="M364.2 223.5C363.1 223.6 361.9 223.2 360.7 223.3C359.5 223.4 358.3 224.3 358.5 225.4C358.7 226.5 360 226.8 361.1 226.9C362.9 227 364.8 226.9 366.6 226.5C367 226.5 367.4 226.3 367.7 225.9C368.2 225.2 367.4 224.3 366.6 224C365.8 223.9 365 223.7 364.2 223.5Z" fill="#1997F3"/>
<path d="M375.5 231.4C376.6 231.4 377.8 230.9 378.9 230.9C380 230.9 381.4 231.7 381.2 232.9C381 234.1 379.8 234.4 378.7 234.5C376.9 234.7 375.1 234.7 373.2 234.5C372.8 234.5 372.4 234.3 372.1 234C371.6 233.4 372.3 232.4 373 232.1C373.9 232 374.7 231.7 375.5 231.4Z" fill="#1997F3"/>
<path d="M374.299 316.6C374.599 316.3 374.899 316.2 375.299 316.1C375.799 316.2 376.199 316.6 376.299 317.1C376.399 317.6 376.299 318.1 376.099 318.6C375.299 321.2 366.499 340.2 364.499 336.8C363.299 334.8 366.299 328.1 367.099 326.2C368.799 322.5 371.299 319.3 374.299 316.6Z" fill="#1997F3"/>
<path d="M370 229C370 229 369.5 224.4 370.6 224" stroke="#263238" stroke-linecap="round" stroke-linejoin="round"/>
<path d="M369.1 224.2C369.7 222.6 370.6 221.1 371.9 220C373.3 219 375.5 218.9 376.5 220.3C377.6 221.8 376.5 224.2 374.8 225C373.1 225.8 371 225.6 369.1 225.3C369.1 225 369.1 224.7 369.1 224.5V224.2Z" fill="#1997F3"/>
<path d="M373.8 372.6C364.4 374.2 354.7 374.2 345.3 372.6L334.2 339.9H384.8L373.8 372.6Z" fill="white" stroke="#263238" stroke-linecap="round" stroke-linejoin="round"/>
<path d="M180.6 136.4V136.5C180.6 136.7 180.7 136.9 180.7 137.1C181.2 139.3 181.5 141.5 181.7 143.7C181.9 145.6 182 147.8 182.1 150.2C182.2 155.8 181.8 161.4 181 166.9C180.8 168.4 180.5 169.9 180.2 171.4C179.7 173.9 179.1 176.6 178.4 179.3C178.1 180.6 177.7 181.9 177.3 183.2C177.1 183.7 177 184.3 176.8 184.8C176.6 185.3 176.4 186.1 176.3 186.8C175.2 191.2 174.2 195.7 173.5 200.3C172.6 205.9 172.1 211.6 171.8 216.9C171.4 224 171.4 230.5 171.6 235.9V236.2C171.8 241.7 172.1 246 172.4 248.4C172.5 249.8 172.6 250.6 172.6 250.7" stroke="#263238" stroke-linecap="round" stroke-linejoin="round"/>
<path d="M180.599 136.6C179.899 136 179.099 135.4 178.299 135C177.399 134.5 176.399 134.1 175.399 133.9" fill="white"/>
<path d="M180.599 136.6C179.899 136 179.099 135.4 178.299 135C177.399 134.5 176.399 134.1 175.399 133.9" stroke="#263238" stroke-linecap="round" stroke-linejoin="round"/>
<path d="M181.7 143.8L184.4 141.4" stroke="#263238" stroke-linecap="round" stroke-linejoin="round"/>
<path d="M178.299 179.5C178.199 178.8 177.899 178.1 177.699 177.4C177.299 176.4 176.799 175.5 176.099 174.7C175.599 174.1 174.999 173.5 174.399 173.1" stroke="#263238" stroke-linecap="round" stroke-linejoin="round"/>
<path d="M176.2 187C177 185.1 178.5 183.6 180.4 182.9" stroke="#263238" stroke-linecap="round" stroke-linejoin="round"/>
<path d="M171.6 224.2C172.5 223.1 173.2 219 173.5 216.8C173.6 216.3 173.7 215.8 173.7 215.5" fill="white"/>
<path d="M171.6 224.2C172.5 223.1 173.2 219 173.5 216.8C173.6 216.3 173.7 215.8 173.7 215.5" stroke="#263238" stroke-linecap="round" stroke-linejoin="round"/>
<path d="M164.7 231.6C165 231.6 165.3 231.6 165.6 231.6C168.3 231.9 170.6 233.6 171.6 236.1" fill="white"/>
<path d="M164.7 231.6C165 231.6 165.3 231.6 165.6 231.6C168.3 231.9 170.6 233.6 171.6 236.1" stroke="#263238" stroke-linecap="round" stroke-linejoin="round"/>
<path d="M180.1 171.6C180.1 171.6 180.6 155.4 171.7 149.5" stroke="#263238" stroke-linecap="round" stroke-linejoin="round"/>
<path d="M180.9 206.5C182.1 210.3 173.9 217.5 173.9 217.5C173.9 217.5 163.1 216.1 161.9 212.4C160.7 208.7 163.5 202.4 168.7 200.8C173.9 199.2 179.8 202.7 180.9 206.5Z" fill="#1997F3"/>
<path d="M189.999 160.5C188.999 164.5 181.199 167.4 181.199 167.4C181.199 167.4 175.799 161.2 176.799 157.1C177.799 153 182.099 148.7 185.699 149.6C189.299 150.5 190.999 156.5 189.999 160.5Z" fill="#1997F3"/>
<path d="M159 220.6C163.9 222.5 166.8 231.1 166.8 231.1C166.8 231.1 158.8 235.4 153.9 233.5C149 231.6 143.9 226.3 145.3 222.7C146.7 219.1 154.1 218.7 159 220.6Z" fill="#1997F3"/>
<path d="M169.6 173.4C170.6 174.2 171.7 174.9 172.9 175.3C174.1 175.7 175.5 175.4 176.4 174.5C177.4 173.3 177.2 171.5 176.5 170C175.2 167.1 170.4 162.3 166.7 163.7C161.5 165.6 167.3 171.6 169.6 173.4Z" fill="#1997F3"/>
<path d="M180.499 180.7C179.799 181.6 179.099 182.7 179.399 183.7C179.799 184.6 180.799 185.1 181.799 184.9C182.799 184.7 183.699 184.2 184.399 183.6C186.299 182.3 190.099 179.6 187.699 177C185.299 174.4 181.899 178.9 180.499 180.7Z" fill="#1997F3"/>
<path d="M164.8 144.4C164 144.5 163.3 145 163 145.8C162.8 146.7 163.6 147.5 164.4 148.1C166.3 149.5 171.8 153.4 173.1 149.7C174.3 146.2 167.3 144.1 164.8 144.4Z" fill="#1997F3"/>
<path d="M175.1 132.1C174 132.2 172.8 131.8 171.7 131.9C170.6 132 169.3 132.9 169.5 134C169.7 135.1 171 135.4 172.1 135.4C173.9 135.5 175.8 135.4 177.5 135C177.9 135 178.3 134.8 178.6 134.4C179.1 133.7 178.3 132.8 177.5 132.5C176.7 132.6 175.9 132.4 175.1 132.1Z" fill="#1997F3"/>
<path d="M186.399 140.1C187.599 140.1 188.699 139.6 189.799 139.6C190.899 139.6 192.299 140.4 192.099 141.6C191.899 142.8 190.699 143.1 189.599 143.2C187.799 143.4 185.999 143.4 184.099 143.2C183.699 143.2 183.299 143 182.999 142.7C182.499 142.1 183.199 141.1 183.899 140.8C184.799 140.6 185.599 140.4 186.399 140.1Z" fill="#1997F3"/>
<path d="M185.2 225.3C185.5 225 185.8 224.9 186.2 224.8C186.7 224.9 187.1 225.3 187.2 225.8C187.3 226.3 187.2 226.8 187 227.3C186.2 229.9 177.4 248.9 175.4 245.5C174.2 243.5 177.1 236.8 178 234.9C179.7 231.2 182.2 227.9 185.2 225.3Z" fill="#1997F3"/>
<path d="M180.9 137.7C180.9 137.7 180.4 133.1 181.5 132.7" stroke="#263238" stroke-linecap="round" stroke-linejoin="round"/>
<path d="M180 132.9C180.6 131.3 181.5 129.8 182.8 128.7C184.2 127.7 186.4 127.6 187.4 129C188.5 130.6 187.4 132.9 185.7 133.7C184 134.5 181.9 134.3 180 134C180 133.7 180 133.4 180 133.2V132.9Z" fill="#1997F3"/>
<path d="M53.7998 247V148.2" stroke="#263238" stroke-linecap="round" stroke-linejoin="round"/>
<path d="M362.4 247H350.1" stroke="#263238" stroke-linecap="round" stroke-linejoin="round"/>
<path d="M458.1 247H433.2" stroke="#263238" stroke-linecap="round" stroke-linejoin="round"/>
<path d="M349 96.9H393.1V54.9" stroke="#263238" stroke-linecap="round" stroke-linejoin="round"/>
<path d="M92.2002 84H139V118.2H190.3" stroke="#263238" stroke-linecap="round" stroke-linejoin="round"/>
<path d="M64.5 199.7V124.2" stroke="#263238" stroke-linecap="round" stroke-linejoin="round"/>
<path d="M85.5 91.5V150.6" stroke="#263238" stroke-linecap="round" stroke-linejoin="round"/>
<path d="M106.399 91.5V143.8" stroke="#263238" stroke-linecap="round" stroke-linejoin="round"/>
<path d="M127.3 91.5V182.9" stroke="#263238" stroke-linecap="round" stroke-linejoin="round"/>
<path d="M227.399 78.5V18.4H312.599V78.5" stroke="#263238" stroke-linecap="round" stroke-linejoin="round"/>
<path d="M233.7 48.3V25.5H249.4" stroke="#263238" stroke-linecap="round" stroke-linejoin="round"/>
<path d="M252.899 48.3V25.5H268.599" stroke="#263238" stroke-linecap="round" stroke-linejoin="round"/>
<path d="M272.1 48.3V25.5H287.8" stroke="#263238" stroke-linecap="round" stroke-linejoin="round"/>
<path d="M291.3 48.3V25.5H307" stroke="#263238" stroke-linecap="round" stroke-linejoin="round"/>
<path d="M233.7 78.5V55.8H249.4" stroke="#263238" stroke-linecap="round" stroke-linejoin="round"/>
<path d="M252.899 78.5V55.8H268.599" stroke="#263238" stroke-linecap="round" stroke-linejoin="round"/>
<path d="M272.1 78.5V55.8H287.8" stroke="#263238" stroke-linecap="round" stroke-linejoin="round"/>
<path d="M291.3 78.5V55.8H307" stroke="#263238" stroke-linecap="round" stroke-linejoin="round"/>
<path d="M399.899 60.1V135.4" stroke="#263238" stroke-linecap="round" stroke-linejoin="round"/>
<path d="M430.8 241.5H433.2" stroke="#263238" stroke-linecap="round" stroke-linejoin="round"/>
<path d="M418.399 81.7001V166.1" stroke="#263238" stroke-linecap="round" stroke-linejoin="round"/>
<path d="M437 219.9V241.5H451.8" stroke="#263238" stroke-linecap="round" stroke-linejoin="round"/>
<path d="M437 109.2V166.5" stroke="#263238" stroke-linecap="round" stroke-linejoin="round"/>
<path d="M455.5 152.7V241.5H458.9" stroke="#263238" stroke-linecap="round" stroke-linejoin="round"/>
<path d="M229.7 248.8H38.7002V372.9H229.7V248.8Z" fill="white" stroke="#263238" stroke-linecap="round" stroke-linejoin="round"/>
<path d="M38.7002 248.8L134.2 310.8L229.7 248.8H38.7002Z" fill="white" stroke="#263238" stroke-linecap="round" stroke-linejoin="round"/>
<path d="M105.5 292.2L38.7002 372.8" stroke="#263238" stroke-linecap="round" stroke-linejoin="round"/>
<path d="M163.4 292.2L230.2 372.8" stroke="#263238" stroke-linecap="round" stroke-linejoin="round"/>
<path d="M331.9 90.5H287.5C284.9 90.5 282.5 91.9 281.2 94.2C277.8 100.3 270.2 102.5 264.1 99.1C262 98 260.3 96.2 259.2 94.2C258 91.9 255.5 90.4 252.9 90.4H208.5C203.4 90.3 199.2 94.4 199.1 99.5V350C199.2 355.1 203.4 359.2 208.5 359.1H331.9C337 359.2 341.2 355.1 341.3 350V99.6C341.2 94.5 337 90.4 331.9 90.5Z" fill="#1997F3"/>
<path d="M345.6 96.9C345.6 89.8 339.9 84.1 332.8 84H207.6C200.5 84 194.8 89.7 194.8 96.8V360C194.8 367.1 200.5 372.8 207.6 372.8H332.8C339.9 372.8 345.6 367.1 345.6 360V96.9ZM341.3 350C341.2 355.1 337 359.2 331.9 359.1H208.5C203.4 359.2 199.2 355.1 199.1 350V99.6C199.2 94.5 203.4 90.4 208.5 90.4H252.9C255.5 90.4 257.9 91.8 259.2 94.2C262.6 100.3 270.2 102.5 276.3 99.1C278.4 98 280.1 96.2 281.2 94.2C282.5 91.9 284.9 90.5 287.5 90.5H331.9C337 90.4 341.2 94.5 341.3 99.6V350Z" fill="#263238"/>
<path opacity="0.2" d="M303.099 84L219.899 372.8H252.999L332.999 84H303.099Z" fill="white"/>
<path opacity="0.2" d="M290.7 84L202.8 372.8H207.6L293.9 84H290.7Z" fill="white"/>
<path d="M292.6 298.7C292.9 310.5 283.5 320.4 271.6 320.6C271.4 320.6 271.2 320.6 271.1 320.6C259 320.6 249.1 310.8 248.8 298.7C248.6 286.9 258 277 269.8 276.8C270 276.8 270.1 276.8 270.3 276.8C282.5 276.9 292.4 286.6 292.6 298.7Z" fill="white"/>
<path d="M263.5 315.1C261.5 314.3 259.6 313.2 258 311.7C256.4 310.2 255.2 308.3 254.4 306.2C253.5 303.9 253.1 301.4 253.1 298.9C253.1 296.8 253.5 294.7 254.2 292.7C254.9 290.9 255.9 289.2 257.2 287.7C259.8 284.9 263.1 282.9 266.8 281.9C268.6 281.4 270.5 281.2 272.3 281.2C273.9 281.2 275.4 281.4 276.9 281.7C278.4 282.1 279.7 282.6 281 283.4C282.3 284.2 283.4 285.1 284.4 286.3C285.4 287.5 286.2 288.9 286.7 290.4C287.3 292.1 287.5 293.9 287.5 295.7C287.5 299.2 286.2 302.5 284 305.2C283 306.3 281.9 307.2 280.6 308C279.5 308.6 278.3 309 277 309C276.1 309 275.3 308.7 274.6 308.2C273.9 307.7 273.5 306.8 273.5 305.9C272.2 307.9 269.9 309.1 267.5 309C265.6 309.1 263.8 308.3 262.5 306.9C261.3 305.4 260.6 303.6 260.6 301.7C260.6 300.1 260.9 298.6 261.4 297.1C261.9 295.6 262.7 294.2 263.6 292.9C264.5 291.6 265.7 290.6 267.1 289.9C268.5 289.1 270 288.7 271.6 288.7C272.7 288.7 273.8 289 274.7 289.5C275.6 290 276.4 290.8 276.9 291.7L277.1 291C277.4 290 278.5 289.5 279.5 289.8C279.7 289.9 279.9 289.9 280 290.1C280.3 290.3 280.5 290.7 280.5 291.1C280.5 291.3 280.5 291.5 280.4 291.6L277.2 302.4C276.9 303.2 276.7 304.1 276.7 304.9C276.6 305.4 277 306 277.5 306.1C277.6 306.1 277.8 306.1 277.9 306.1C279 306 280.1 305.5 280.9 304.7C282 303.6 282.8 302.3 283.3 300.9C283.9 299.3 284.2 297.7 284.2 296C284.2 294.5 284 293.1 283.6 291.6C283.2 290.4 282.6 289.2 281.9 288.2C281.2 287.3 280.3 286.5 279.3 285.9C278.3 285.3 277.2 284.8 276.1 284.5C274.9 284.2 273.7 284 272.5 284C271 284 269.4 284.2 268 284.6C266.5 285 265 285.7 263.7 286.5C262.4 287.3 261.1 288.4 260.1 289.6C259 290.8 258.2 292.3 257.6 293.8C257 295.5 256.7 297.3 256.7 299.1C256.7 301.2 257.1 303.4 257.8 305.4C258.5 307.1 259.5 308.7 260.9 309.9C262.2 311.1 263.8 311.9 265.4 312.5C267.1 313.1 269 313.4 270.9 313.4C272.9 313.4 274.9 313.1 276.8 312.5C277 312.4 277.2 312.4 277.4 312.4C277.8 312.4 278.1 312.6 278.4 312.8C278.7 313.1 278.8 313.4 278.8 313.8C278.8 314.4 278.4 314.9 277.9 315.1C275.5 315.8 273.1 316.2 270.6 316.2C268 316.3 265.7 315.9 263.5 315.1ZM271.8 304.7C272.8 304 273.5 303 273.9 301.8L276 294.4L275.9 294.1C275.8 293.9 275.6 293.6 275.4 293.4C275.1 293.1 274.9 292.8 274.6 292.6C274.2 292.3 273.8 292.1 273.3 291.9C272.1 291.5 270.8 291.5 269.7 292C269.1 292.3 268.5 292.6 268 293.1C267.5 293.6 267 294.1 266.6 294.7C266.2 295.3 265.9 296 265.6 296.7C265.3 297.4 265.1 298.1 265 298.8C264.8 299.5 264.8 300.2 264.8 300.9C264.8 301.4 264.8 301.8 264.9 302.3C264.9 302.7 265 303.1 265.2 303.5C265.3 303.9 265.5 304.2 265.7 304.5C265.9 304.8 266.1 305 266.4 305.2C266.7 305.4 267 305.6 267.4 305.7C267.8 305.8 268.2 305.9 268.6 305.9C269.6 305.9 270.9 305.5 271.8 304.7Z" fill="#1997F3"/>
<path d="M292.2 223.6C292.4 235.4 283 245.3 271.2 245.5C271 245.5 270.9 245.5 270.7 245.5C258.6 245.5 248.7 235.7 248.4 223.6C248.1 211.8 257.5 201.9 269.4 201.7C269.6 201.7 269.8 201.7 270 201.7C282 201.7 291.9 211.5 292.2 223.6Z" fill="white"/>
<path d="M284 221.6C277.1 217.1 263.7 217.1 257.1 221.6C254.6 222.1 252.9 224.3 253 226.8C253.1 229.7 265.2 229.7 265.1 226.8C265 225.6 264.6 224.4 263.8 223.5C268.3 222.5 273 222.5 277.6 223.5C276.9 224.4 276.5 225.6 276.5 226.8C276.6 229.7 288.7 229.7 288.6 226.8C288.4 224.2 286.5 222.1 284 221.6Z" fill="#1997F3"/>
<path d="M292.2 150.6C292.3 156 289.4 160.8 284.7 164V177.1L275.3 167.7C273.8 168 272.2 168.1 270.7 168.1C258.6 168.1 248.6 160.3 248.4 150.6C248.2 140.9 257.8 133.1 269.9 133.1C282 133.1 292 141 292.2 150.6Z" fill="white"/>
<path d="M260.9 150.6C260.9 152.2 259.6 153.4 258.1 153.4C256.6 153.4 255.3 152.1 255.3 150.6C255.3 149 256.6 147.8 258.1 147.8C259.6 147.8 260.9 149.1 260.9 150.6Z" fill="#1997F3"/>
<path d="M273.1 150.6C273.1 152.2 271.8 153.4 270.3 153.4C268.8 153.4 267.5 152.1 267.5 150.6C267.5 149 268.8 147.8 270.3 147.8C271.8 147.8 273.1 149.1 273.1 150.6Z" fill="#1997F3"/>
<path d="M285.2 150.6C285.2 152.2 283.9 153.4 282.4 153.4C280.9 153.4 279.6 152.1 279.6 150.6C279.6 149 280.9 147.8 282.4 147.8C283.9 147.8 285.2 149.1 285.2 150.6Z" fill="#1997F3"/>
<path d="M147.8 190.5C147.4 191.2 146.9 191.7 146.3 192.1C141.7 195.8 137 199.3 132.1 202.7C130.3 203.9 128.5 205.2 126.8 206.6C116.5 213.5 122.8 215.2 116.5 229.7C115 233.2 115.3 250.2 115.3 250.2H114.8C113.6 249 112.3 247.9 111 246.9C110.8 246.8 110.6 246.7 110.4 246.6C110.2 246.5 110 246.4 109.8 246.4C108.8 246.3 105 246.8 101.1 246.5L100.1 246.4C99.5004 246.3 99.0004 246.3 98.4004 246.2C97.8004 246.1 97.3004 246 96.8004 245.8C93.1004 244.6 89.6004 243.2 86.1004 241.7L84.4004 240.9L83.5004 240.5L82.7004 240.2L82.1004 240L81.6004 239.8C80.7004 239.4 79.8004 239.1 79.1004 238.8C78.7004 238.7 78.4004 238.6 78.0004 238.5C78.0004 239.3 77.9004 240.2 77.8004 241C77.3004 244.9 76.2004 248.5 74.3004 249H74.2004C74.0004 249 73.9004 249 73.7004 249H73.5004C73.1004 249 72.7004 248.9 72.3004 248.8C70.6004 248.1 69.1004 246.7 68.3004 245C67.9004 244.3 67.7004 243.5 67.7004 242.7C67.7004 239.8 66.9004 222.6 66.9004 217.6C66.9004 212.6 67.9004 203.8 70.4004 200.6C71.4004 199.2 72.6004 198 74.0004 197.1C75.8004 195.6 77.9004 194.4 80.2004 193.7C82.9004 192.8 88.8004 190.6 93.0004 189L86.7004 191.4C88.3004 194.1 91.7004 198.4 97.9004 199C103.7 199.5 107.3 194.3 109.1 190.4C109.3 190.5 119.3 188.5 121.7 188.7C129.3 189 135.5 184.9 138.3 183.3C141.4 181.5 145.4 182.5 147.3 185.6C147.6 186 147.8 186.5 147.9 187V187.1C148.2 188.2 148.2 189.4 147.8 190.5Z" fill="#1997F3" stroke="#263238" stroke-linecap="round" stroke-linejoin="round"/>
<path d="M108.9 190.6L108.4 190.4L108.9 190.6Z" fill="white" stroke="#263238" stroke-linecap="round" stroke-linejoin="round"/>
<path d="M117.4 254.7V254.8C117.3 255.2 116.8 255.3 116.5 255.2C116.5 255.2 116.4 255.2 116.4 255.1C115.9 254.8 115.2 253.2 115.2 253.2L114.4 252.4L113.9 251.9C114 252.1 114.6 253.6 114.3 254.3C114.3 254.3 114.3 254.4 114.2 254.4C113.8 255 113 255.4 112.3 255.4C111.9 255.4 110.6 255.5 109.5 255.6H109.4C109.1 255.6 108.7 255.6 108.4 255.6C107.5 255.5 106.7 255.2 105.9 254.7C104.1 254.4 102.4 254 100.7 253.5L100.4 253.3L100.1 253.1C99.9 253 99.8 252.9 99.6 252.7C99 252.2 98.5 251.6 98.1 250.9C98.1 250.9 94 250.7 88.6 250.3C86.6 250.2 84.4 250 82.2 249.7C78.8 249.3 75.9 249.4 73.7 249.1H73.5C73.1 249 72.7 249 72.3 248.9C70.4 248.5 68.8 247.1 68.3 245.1C68.2 244.7 68.1 244.2 68 243.7L69.7 240.7C70.6 240 71.6 239.4 72.7 239C74.4 238.3 76.2 238.1 78 238.5C78.4 238.6 78.7 238.7 79.1 238.8C79.9 239.1 80.7 239.4 81.6 239.8L82.2 240L82.8 240.2L83.6 240.5C88.1 242.3 93.4 244.7 96.9 245.7C98 246 99.1 246.2 100.2 246.3L101.2 246.4C105 246.7 108.9 246.2 109.9 246.3C110.9 246.4 113.4 248.7 115 250.2C115.4 250.6 115.8 250.9 116.1 251.1L116.2 251.2L116.3 251.3C116.9 251.9 117.3 252.6 117.5 253.4C117.6 253.7 117.6 253.9 117.7 254.2C117.4 254.5 117.5 254.6 117.4 254.7Z" fill="white" stroke="#263238" stroke-linecap="round" stroke-linejoin="round"/>
<path d="M117.401 254.7V254.8C117.201 255.2 116.801 255.3 116.501 255.2C116.501 255.2 116.401 255.2 116.401 255.1C115.901 254.5 115.501 253.9 115.201 253.2L114.401 252.4L113.901 251.9C114.001 252.1 114.601 253.6 114.301 254.3C114.301 254.3 114.301 254.4 114.201 254.4C114.101 254.5 114.001 254.7 113.801 254.8C113.401 255.1 112.801 255.3 112.301 255.3C111.901 255.3 110.601 255.4 109.501 255.5H109.401C109.101 255.5 108.701 255.5 108.401 255.5C107.501 255.4 106.701 255.1 105.901 254.7C104.101 254.4 102.401 254 100.701 253.5L100.401 253.4L100.101 253.2C99.9005 253.1 99.8005 253 99.6005 252.8C99.0005 252.3 98.5005 251.7 98.0005 251C98.0005 251 94.1005 250.8 88.7005 250.4C86.7005 250.3 84.4005 250 82.1005 249.8C78.9005 249.5 76.3005 249.4 74.2005 249.1L73.5005 249L72.7005 248.8C72.5005 247.6 72.7005 246.3 73.1005 245.2C73.9005 243.2 75.5005 241.7 77.6005 241C78.8005 240.5 80.1005 240.2 81.4005 239.9L81.9005 240.1L82.5005 240.3L83.3005 240.6C87.8005 242.6 93.1005 244.9 96.6005 245.9C97.7005 246.2 98.8005 246.4 99.9005 246.5L100.901 246.6C104.701 246.9 108.601 246.4 109.601 246.5C110.601 246.6 113.101 248.9 114.601 250.4C114.901 250.7 115.301 251 115.701 251.3L115.801 251.4L115.901 251.5C116.501 252.1 116.901 252.8 117.101 253.6C117.201 253.9 117.201 254.1 117.301 254.4C117.401 254.5 117.401 254.6 117.401 254.7Z" fill="white" stroke="#263238" stroke-linecap="round" stroke-linejoin="round"/>
<path d="M105.5 252.1C105.5 252.1 107.8 253.3 108.7 253.7C109.6 254.1 109.5 255.8 109.5 255.8" fill="white"/>
<path d="M105.5 252.1C105.5 252.1 107.8 253.3 108.7 253.7C109.6 254.1 109.5 255.8 109.5 255.8" stroke="#263238" stroke-linecap="round" stroke-linejoin="round"/>
<path d="M107.9 250.5C109.3 251.5 110.7 252.6 112 253.8C112.4 254.3 112.5 254.9 112.3 255.5" fill="white"/>
<path d="M107.9 250.5C109.3 251.5 110.7 252.6 112 253.8C112.4 254.3 112.5 254.9 112.3 255.5" stroke="#263238" stroke-linecap="round" stroke-linejoin="round"/>
<path d="M113.901 251.8C112.701 250.5 111.501 249.3 110.101 248.2Z" fill="white"/>
<path d="M113.901 251.8C112.701 250.5 111.501 249.3 110.101 248.2" stroke="#263238" stroke-linecap="round" stroke-linejoin="round"/>
<path d="M108.9 190.6C107.1 194.4 103.5 199.6 97.7 199.2C91.6 198.7 88.1 194.4 86.5 191.6C88.7 190.8 90.9 189.9 92.8 189.2C92.8 187.3 92.7 185.1 92.5 182.9C92.5 182.4 92.4 181.9 92.3 181.5C92.2 181.1 92.2 180.7 92.1 180.4H103.7C103.7 180.4 103.6 180.9 103.5 181.6C103.4 182.3 103.3 183.2 103.3 184.2C103.2 185.6 103.1 187.2 103.2 188.7C103.8 188.9 104.3 189.1 104.9 189.3L106 189.7C106.4 189.9 106.9 190 107.3 190.1L108.3 190.4C108.7 190.5 108.8 190.6 108.9 190.6Z" fill="white" stroke="#263238" stroke-linecap="round" stroke-linejoin="round"/>
<path d="M92.4004 181.4C92.4004 181.4 94.6004 187 97.7004 188C100.8 189 103.7 181.5 103.7 181.5C103.7 181.5 99.3004 186.2 97.6004 185.5C95.9004 184.8 92.5004 181.5 92.4004 181.4Z" fill="#263238"/>
<path d="M90.6005 150.3C87.7005 152.9 85.3005 156.2 83.8005 159.8C82.4005 162.8 81.2005 166.2 82.3005 169.4C83.0005 171 83.9005 172.4 85.1005 173.6C87.3005 176.2 90.3005 183.4 92.4005 186C92.5005 181.4 88.7005 173.9 89.1005 170.1C89.6005 167.1 90.6005 164.2 92.0005 161.5C93.5005 158 95.4005 154.7 97.7005 151.7C99.0005 150.1 103.2 147.3 99.0005 147C96.0005 146.8 92.7005 148.5 90.6005 150.3Z" fill="#263238" stroke="#263238" stroke-linecap="round" stroke-linejoin="round"/>
<path d="M87.8005 166C87.8005 166 86.3005 163.1 84.7005 165.9C83.6005 167.9 85.2005 171 85.9005 172.2C86.4005 172.9 87.2005 173.3 88.0005 173.2L87.8005 166Z" fill="white" stroke="#263238" stroke-linecap="round" stroke-linejoin="round"/>
<path d="M107.4 176.4C106.4 178.3 105.2 180 103.7 181.5L102.8 182.4C100.9 184.2 98.9004 185.7 97.6004 185.4C96.4004 185.2 94.9004 184 93.5004 182.5C93.1004 182.1 92.8004 181.7 92.4004 181.3C90.8004 179.5 89.4004 177.6 88.3004 175.5C88.0004 174.7 87.8004 173.9 87.7004 173.1C87.4004 170.6 87.4004 168.1 87.4004 165.6C87.4004 164.7 87.4004 164 87.4004 163.6C87.4004 161.9 93.9004 155.8 93.9004 155.8C94.1004 155.7 94.3004 155.7 94.5004 155.7C95.6004 155.9 96.7004 156.3 97.7004 156.8C101.6 158.7 107.2 162.5 107.6 164C108.2 166.2 108 174.6 107.4 176.4Z" fill="white" stroke="#263238" stroke-linecap="round" stroke-linejoin="round"/>
<path d="M94.5008 168.4C94.5008 169.1 94.2008 169.7 93.9008 169.7C93.6008 169.7 93.3008 169.1 93.3008 168.4C93.3008 167.7 93.6008 167.1 93.9008 167.1C94.2008 167.1 94.5008 167.7 94.5008 168.4Z" fill="#263238"/>
<path d="M101.901 167.1C102.201 167.1 102.501 167.7 102.501 168.4C102.501 169.1 102.201 169.7 101.901 169.7C101.601 169.7 101.301 169.1 101.301 168.4C101.301 167.7 101.601 167.1 101.901 167.1Z" fill="#263238"/>
<path d="M90.8008 165.3C90.8008 165.3 91.8008 163.3 95.3008 163.9" stroke="#263238" stroke-linecap="round" stroke-linejoin="round"/>
<path d="M105.2 165.3C105.2 165.3 104.2 163.3 100.7 163.9" stroke="#263238" stroke-linecap="round" stroke-linejoin="round"/>
<path d="M98.7002 173.3C99.4002 173.3 100.1 172.7 100.2 172C100.2 172 98.3002 169 98.9002 166.1" stroke="#263238" stroke-linecap="round" stroke-linejoin="round"/>
<path d="M86.6008 159C85.8008 160.1 85.2008 161.3 84.8008 162.6" stroke="white" stroke-linecap="round" stroke-linejoin="round"/>
<path d="M94.9 151C94.9 151 93.8 152.8 88.9 156.6C88.6 156.8 88.3 157.1 88 157.3" stroke="white" stroke-linecap="round" stroke-linejoin="round"/>
<path d="M79.3008 209.6C78.6008 219.1 78.0008 228.6 77.3008 238.1V237.4" fill="#263238"/>
<path d="M79.3008 209.6C78.6008 219.1 78.0008 228.6 77.3008 238.1V237.4" stroke="#263238" stroke-linecap="round" stroke-linejoin="round"/>
<path d="M142.401 178.2C144.201 177.5 146.301 177.7 147.901 178.8C149.501 179.9 150.701 181.6 151.201 183.4C151.801 185.3 151.801 187.3 151.001 189.1C150.201 190.9 148.501 192.2 146.501 192.4C145.001 192.4 143.601 191.9 142.501 191C138.801 188.3 136.901 180.6 142.401 178.2Z" fill="white" stroke="#263238" stroke-linecap="round" stroke-linejoin="round"/>
<path d="M150.7 146.3C150.7 146.4 150.7 147.2 150.8 147.4C151.2 148.9 151.9 152.8 150 153.6C150.7 156.1 152.4 172.7 152.2 181.1C152.1 183.6 151.7 186.6 149.4 187.7C145.6 189.5 142 185.1 142.4 181.6C143.1 176.9 142.8 172.1 143.4 167.3C144 162.4 145.1 157.3 143.9 152.5C143.6 152.2 141.7 148.4 141 147.3C140.7 146.9 140.5 146.4 140.3 145.9C140.1 144.2 139.9 142.4 139.9 140.7C140.5 139.6 141.2 140.6 141.6 141.3C141.9 142.2 142 143.1 141.9 144C141.9 144.2 141.9 144.5 142 144.7C142.2 144.9 142.5 145.1 142.8 145C144 144.8 144 143.8 144 143C144 140.4 144 137.7 144 135.1C144 134.7 144.1 133.5 144.6 133.4C145.1 133.3 145.7 133.7 145.7 135.1C145.8 136.7 145.8 141.6 145.8 141.6C145.9 141.7 146 141.7 146.1 141.7C146.2 141.7 146.2 141.5 146.3 141.4C146.9 138.9 147.5 136.5 148.1 134C148.2 133.7 148.6 133.1 148.9 133.1C149.6 133.1 149.7 134 149.7 134.2C150 135.5 148.1 141 147.8 142.2C147.8 142.4 147.8 142.8 148 142.7L150.9 136.8C151.2 136.1 151.8 135.6 152.5 135.4H152.6C152.7 135.4 152.7 135.5 152.7 135.5C153 136 152.7 136.7 152.5 137.2C152.3 137.7 150.2 141.8 149.4 143.4C149.3 143.6 149.1 144.2 149.3 144.4C149.5 144.6 149.9 144.2 150.1 143.8C150.6 142.8 151 141.9 151.5 140.9C151.6 140.6 151.9 140.2 152.2 140.3C154.3 140.8 151.5 144.9 150.7 146.3Z" fill="white" stroke="#263238" stroke-linecap="round" stroke-linejoin="round"/>
<path d="M145.301 145.4C146.301 146.2 147.201 147.1 147.901 148.2C148.601 149.3 148.801 150.6 148.501 151.9C148.501 152.1 148.401 152.2 148.301 152.4" fill="white"/>
<path d="M145.301 145.4C146.301 146.2 147.201 147.1 147.901 148.2C148.601 149.3 148.801 150.6 148.501 151.9C148.501 152.1 148.401 152.2 148.301 152.4" stroke="#263238" stroke-linecap="round" stroke-linejoin="round"/>
<path d="M117.2 207.9C118.3 210 119 212.3 119.3 214.7C119.6 217.1 119.7 218.9 118.1 225.5" stroke="#263238" stroke-linecap="round" stroke-linejoin="round"/>
<path d="M94.6004 154.3C94.5004 154.7 94.4004 155.1 94.5004 155.6C94.7004 156.1 95.0004 156.6 95.5004 156.9C98.7004 159.7 102.3 162 106.1 163.8C107.1 164.1 107.7 165 107.6 166.1V173.8C107.6 174.6 107.6 175.4 107.4 176.2C106.8 178 105.6 179.5 104.7 181.1C103.8 182.7 103.3 184.5 103.4 186.3C103.1 184.4 109.8 180.7 111.6 173.2C111.9 172.1 117 165.8 113.9 158.4C110.9 151.3 106.2 148.2 104.6 147.9C102.4 147.3 100 147.7 98.3004 149.1C96.5004 150.4 95.2004 152.2 94.6004 154.3Z" fill="#263238" stroke="#263238" stroke-linecap="round" stroke-linejoin="round"/>
<path d="M101.1 176C100.5 176.1 99.9 176.2 99.4 176.3C97.4 176.6 95.3 176.2 94 174.8C94.1 176.1 95 181.1 97.7 181.2C100.4 181.3 101.1 176 101.1 176Z" stroke="#263238" stroke-linecap="round" stroke-linejoin="round"/>
<path d="M98.5 151.3C99.7 153.9 101.5 156.2 103.8 157.8C105.5 159 107.4 159.9 109 161.3C111 163.1 112.3 166 111.5 168.7" stroke="white" stroke-linecap="round" stroke-linejoin="round"/>
<path d="M119.4 191.7C117.5 193.2 116.2 195.5 115.8 197.9C115.5 200 115.7 202.2 116.6 204.2" stroke="#263238" stroke-linecap="round" stroke-linejoin="round"/>
<path d="M82.2008 208.2C82.0008 210.8 80.4008 213.1 78.8008 215.2Z" fill="#263238"/>
<path d="M82.2008 208.2C82.0008 210.8 80.4008 213.1 78.8008 215.2" stroke="#263238" stroke-linecap="round" stroke-linejoin="round"/>
<path d="M78.3008 228.2C79.9008 230.9 82.6008 232.8 85.6008 233.4" stroke="#263238" stroke-linecap="round" stroke-linejoin="round"/>
<path d="M116.601 229.8C116.601 229.8 113.901 233.8 104.801 234.6" stroke="#263238" stroke-linecap="round" stroke-linejoin="round"/>
<path d="M384.3 194.8C384.3 194.8 349.4 205.6 342.9 197.1L343.8 153.6H349.1L355.3 184.2L383.9 179C383.9 178.9 387.5 190.3 384.3 194.8Z" fill="white"/>
<path d="M369.6 196.3C367.6 197.1 365.7 198.1 363.9 199.3C366.3 200.1 368.8 199.1 371.1 198.4C374.2 197.4 377.4 196.7 380.6 196.2C380.7 195.3 379.6 193.3 379.1 192.5C378.3 191.1 378.1 191 376.7 191.7C374.3 192.8 372.2 195 369.6 196.3Z" fill="#1997F3"/>
<path d="M384.3 194.8C384.3 194.8 349.4 205.6 342.9 197.1L343.8 153.6H349.1L355.3 184.2L383.9 179C383.9 178.9 387.5 190.3 384.3 194.8Z" stroke="#263238" stroke-linecap="round" stroke-linejoin="round"/>
<path d="M380.9 195.9L387 233.6C386.8 258 398.5 254.4 406.6 254.3C416 254.2 430.1 244.9 423.2 230.5L425.9 178.3L409.6 177.1C404.2 176.7 382.2 177.4 380.5 180.2C375.9 187.4 380.9 195.9 380.9 195.9Z" fill="white"/>
<path d="M381.801 199C385.401 212.7 394.201 224.6 406.201 232.2C404.901 232 403.601 231.6 402.401 231.1C401.201 230.6 399.801 230.5 398.501 230.9C397.201 231.4 396.501 232.8 397.001 234.1C397.301 234.6 397.701 235 398.201 235.2C400.201 236.6 402.401 237.7 404.701 238.5C402.701 238.3 400.701 238.4 398.701 239C398.301 240.7 400.301 242 401.801 242.9C404.201 244.3 406.301 246.3 407.901 248.7C402.501 248.7 397.201 249 391.801 249.6C391.101 249.8 390.401 249.7 389.701 249.4C389.001 248.9 388.501 248.1 388.401 247.3C387.201 243.1 386.501 238.9 386.301 234.5C386.201 232.1 386.301 229.6 386.001 227.2C385.701 225.3 385.401 223.4 384.901 221.6C383.301 214.4 382.201 207.1 381.301 199.8C381.101 199.7 381.801 199 381.801 199Z" fill="#1997F3"/>
<path d="M423.1 196C421.8 195.6 420.5 194.9 419.4 194C419.7 195.5 421.9 198.1 423.3 198.9C423.6 199.1 424 199.2 424.2 199C424.4 198.8 424.6 198.2 424.8 198L423.1 196Z" fill="#1997F3"/>
<path d="M380.9 195.9L387 233.6C386.8 258 398.5 254.4 406.6 254.3C416 254.2 430.1 244.9 423.2 230.5L425.9 178.3L409.6 177.1C404.2 176.7 382.2 177.4 380.5 180.2C375.9 187.4 380.9 195.9 380.9 195.9Z" stroke="#263238" stroke-linecap="round" stroke-linejoin="round"/>
<path d="M392.8 176.2C391 179.4 390.2 183 390.4 186.7C390.4 187 390.5 187.3 390.6 187.6C391.1 188.5 392.3 188.5 393.3 188.6C397.2 189.1 399.5 193.2 403.2 194.5C403.7 194.8 404.4 194.7 404.7 194.1C406.3 192.1 406.8 189.3 409 188C409.9 187.4 411.1 187.2 411.8 186.3C412.5 185.3 412.2 183.9 411.8 182.6C411.2 180.6 410.5 178.5 409 177.1C407.4 175.8 405.4 175.1 403.3 175.1C400.3 174.9 397.2 175.1 394.3 175.9C394.3 176.5 392.8 176.2 392.8 176.2Z" fill="#1997F3" stroke="#263238" stroke-linecap="round" stroke-linejoin="round"/>
<path d="M441.201 201.8C438.801 198.2 437.001 194.3 435.901 190.1C435.501 188 434.901 186 434.101 184C432.501 180.9 429.601 178.8 426.201 178.1C425.501 177.9 424.701 178 424.001 178.2C422.501 178.8 421.901 180.4 421.601 181.9C421.001 185.2 421.201 188.5 422.101 191.7C422.801 193.9 430.801 209.5 436.101 215.6C435.701 212.6 439.201 202.4 441.201 201.8Z" fill="white"/>
<path d="M425.401 198.7L430.301 208C431.001 209.3 431.801 210.8 433.201 211.3C432.301 208.2 431.801 205.1 431.701 201.9C431.801 200.3 431.601 198.7 431.201 197.1C431.001 197.3 430.801 196.5 430.801 196.5C430.601 196.9 430.001 196.9 429.501 196.8C426.301 196.1 424.001 193.2 422.101 190.6C421.601 192.4 422.001 194.4 423.101 195.9C423.201 196 425.201 198.4 425.401 198.7Z" fill="#1997F3"/>
<path d="M441.201 201.8C438.801 198.2 437.001 194.3 435.901 190.1C435.501 188 434.901 186 434.101 184C432.501 180.9 429.601 178.8 426.201 178.1C425.501 177.9 424.701 178 424.001 178.2C422.501 178.8 421.901 180.4 421.601 181.9C421.001 185.2 421.201 188.5 422.101 191.7C422.801 193.9 430.801 209.5 436.101 215.6C435.701 212.6 439.201 202.4 441.201 201.8Z" stroke="#263238" stroke-linecap="round" stroke-linejoin="round"/>
<path d="M434.3 213C428.9 202.7 431.5 178.9 431.4 175.1L438.5 174.7C439.2 174.7 442.5 195 444.7 203.4C446.7 211.1 444.8 218.8 441.2 218.8C438.3 218.8 435.4 215.2 434.3 213Z" fill="white" stroke="#263238" stroke-linecap="round" stroke-linejoin="round"/>
<path d="M370.101 186.2C375.101 178.9 384.901 178.3 384.901 178.3" stroke="#263238" stroke-linecap="round" stroke-linejoin="round"/>
<path d="M350.9 190.3C352.4 188.9 353.6 187.2 354.4 185.3Z" fill="white"/>
<path d="M350.9 190.3C352.4 188.9 353.6 187.2 354.4 185.3" stroke="#263238" stroke-linecap="round" stroke-linejoin="round"/>
<path d="M388 224.8C390.9 229.5 409.3 234.5 416.7 233.4" stroke="#263238" stroke-linecap="round" stroke-linejoin="round"/>
<path d="M393.2 238C398.5 238.9 404 238.7 409.2 237.4" stroke="#263238" stroke-linecap="round" stroke-linejoin="round"/>
<path d="M417.7 192.7L421.2 197.5C421.7 198.1 422.3 198.9 423.1 198.7" stroke="#263238" stroke-linecap="round" stroke-linejoin="round"/>
<path d="M443.901 373.6C443.601 374.9 443.501 376.4 444.401 377.3C445.301 378.2 446.601 378.2 447.901 378.2L452.101 378.1C453.701 378.2 455.401 377.9 456.901 377.3C458.501 376.7 459.501 375.2 459.401 373.5C459.301 372.9 459.1 372.3 458.8 371.7C458.4 370.9 458.001 370.1 457.701 369.2C453.001 359 445.901 365.3 443.901 373.6Z" fill="white" stroke="#263238" stroke-linecap="round" stroke-linejoin="round"/>
<path d="M437.901 361.5C438.001 366.2 437.701 370.9 436.701 375.6C436.501 376.6 436.701 378.2 437.701 378.1C438.101 378 438.401 377.8 438.701 377.5C442.401 373.9 445.001 369.3 446.301 364.3C446.701 363.3 446.701 362.1 446.201 361.1C445.901 360.7 445.601 360.3 445.201 360C441.801 357.4 437.601 354.7 437.901 361.5Z" fill="white" stroke="#263238" stroke-linecap="round" stroke-linejoin="round"/>
<path d="M426.3 240.6C426.3 240.6 431.6 249.8 432.7 251.9C433.8 254 457.7 285.4 462.3 308.2C463.2 312.5 445.5 361.1 445.5 361.1L441.5 358.8C441.5 358.8 444.3 314.5 443.6 310.8C442.9 307.1 425.3 280 425.3 280C425.3 280 415.5 272.8 411.4 264.4L426.3 240.6Z" fill="#263238"/>
<path d="M426.901 263.6C426.901 263.6 423.901 270.3 423.901 271.2C423.901 272.1 440.401 324.3 445.301 336.4C448.401 344.2 451.101 352.1 453.401 360.2C456.901 372.4 455.301 362.7 453.901 365.2C452.501 367.7 446.801 369.4 445.701 367.1C444.601 364.8 433.101 353.1 428.301 341.4C423.501 329.7 416.701 310.2 412.801 302.9C407.701 293.6 403.301 284 399.401 274.2C394.501 261.8 389.601 248.4 389.601 248.4C391.601 248.6 393.601 248.6 395.701 248.6C400.501 248.4 405.201 247.6 409.701 246.1C420.201 242.6 424.801 235.8 424.801 235.8C424.801 235.8 427.401 242.9 428.101 244.2L426.901 263.6Z" fill="#263238"/>
<path d="M460.5 312.7C459.5 314.5 458.1 316 456.4 317.2" stroke="white" stroke-linecap="round" stroke-linejoin="round"/>
<path d="M461.801 309.8C461.601 310.3 461.501 310.8 461.301 311.2" stroke="white" stroke-linecap="round" stroke-linejoin="round"/>
<path d="M417.301 248C420.001 252.6 422.401 259.2 422.101 264.5C421.901 265.5 421.501 266.4 421.101 267.3" stroke="white" stroke-linecap="round" stroke-linejoin="round"/>
<path d="M401.2 253.1C401.5 255.6 401.9 259.9 401.3 262.4C400.8 265 399.4 267.2 397.2 268.7" stroke="white" stroke-linecap="round" stroke-linejoin="round"/>
<path d="M423.9 243.4C424.5 244.1 425 244.9 425.3 245.8C426.7 248.3 429 250.1 431.8 250.7" stroke="white" stroke-linecap="round" stroke-linejoin="round"/>
<path d="M415.4 253.7C418.9 261.4 421.6 269.2 427.1 282.3" stroke="white" stroke-linecap="round" stroke-linejoin="round"/>
<path d="M413.5 249.7C413.8 250.3 414.1 250.9 414.4 251.5" stroke="white" stroke-linecap="round" stroke-linejoin="round"/>
<path d="M442.9 308.8C444.5 311.9 446.6 314.8 449 317.3" stroke="white" stroke-linecap="round" stroke-linejoin="round"/>
<path d="M444.601 311.6C445.701 316.5 447.601 321.2 450.301 325.4" stroke="white" stroke-linecap="round" stroke-linejoin="round"/>
<path d="M419.7 311.9C411.9 295.3 403.6 278.8 393.4 253.7" stroke="white" stroke-linecap="round" stroke-linejoin="round"/>
<path d="M421.5 316.7C421.3 316.1 421.1 315.5 420.9 314.9" stroke="white" stroke-linecap="round" stroke-linejoin="round"/>
<path d="M448.4 367.8C446.4 365.2 431.8 344.8 428.2 335.6C425.8 329.4 424 325.1 422.2 319" stroke="white" stroke-linecap="round" stroke-linejoin="round"/>
<path d="M442.9 328.6L449.9 349" stroke="white" stroke-linecap="round" stroke-linejoin="round"/>
<path d="M438.3 174.7L436.2 174.9C433.5 175.4 430.8 175.2 428.2 174.5C426.5 174.1 422.7 172.9 422.2 172.8C421.1 172.6 419.9 172.4 418.7 172.2C415.2 172 417 170.7 418.4 170.7C420.3 170.8 421 170.8 422.5 170.9C422.3 170.8 421.8 170.7 421.8 170.3C421.8 169.2 423.2 169.3 423.2 169.3C423.2 169.3 421.7 168.7 421.9 167.9C422.1 167.1 423.1 166.9 423.8 167C423.8 167 422.9 166.6 423 166.1C423.2 164.4 426.7 164.3 426.7 164.3C425.9 163.9 425.1 163.4 424.3 162.9C424 162.6 423.9 162.3 423.8 161.9C423.7 161.4 424.1 160.9 424.7 160.8C424.9 160.8 425.1 160.8 425.3 160.9C426.2 161.5 427.1 162.1 427.9 162.8C429 163.6 430.2 164.1 431.4 164.7C432.5 165.7 433.4 166.8 434 168.1C434 168.5 438.3 174.7 438.3 174.7Z" fill="white" stroke="#263238" stroke-linecap="round" stroke-linejoin="round"/>
<path d="M343.801 153.5V148C343.801 145.2 344.201 142.5 345.001 139.8C345.501 138.3 346.001 137.1 346.501 136.9C347.401 136.6 347.801 140.3 347.801 140.3C347.101 137.3 346.701 134.3 346.501 131.3C346.501 128.1 350.801 141.4 350.801 141.4L349.101 153.5H343.801Z" fill="white" stroke="#263238" stroke-linecap="round" stroke-linejoin="round"/>
<path d="M349 144.6C349.5 144.2 349.9 143.6 350.1 143Z" fill="white"/>
<path d="M349 144.6C349.5 144.2 349.9 143.6 350.1 143" stroke="#263238" stroke-linecap="round" stroke-linejoin="round"/>
<path d="M390.9 165C392.8 168.1 393.8 171.7 393.9 175.4C394.1 181.5 401.1 190 403.1 190.4C405.1 190.8 407 180.8 406.9 177.8C406.8 174.8 405.7 166.4 405.7 166.4C405.7 166.4 396 159.1 390.9 165Z" fill="white" stroke="#263238" stroke-linecap="round" stroke-linejoin="round"/>
<path d="M393.7 173.1C393.7 173.1 402.9 185.7 406.6 172.9C410.3 160.1 396.4 176.3 393.7 173.1Z" fill="#263238"/>
<path d="M409.301 164C408.801 171.5 405.401 175.7 401.501 176.4C397.901 177.1 392.701 173.4 390.001 168C389.801 167.9 386.601 165.7 385.901 165.1C385.101 164.5 384.601 163.6 384.601 162.6C384.701 161.6 385.301 160.8 386.201 160.5H386.301C386.801 160.4 387.201 160.4 387.701 160.6C387.001 158 386.501 155.5 386.101 152.8C386.301 146.8 388.301 141.9 394.701 141.4C401.101 140.9 406.501 144.5 406.701 147.1C406.901 149.1 407.501 154.4 408.101 159.9C408.101 161.4 409.401 162.3 409.301 164Z" fill="white" stroke="#263238" stroke-linecap="round" stroke-linejoin="round"/>
<path d="M406.601 155.4C406.601 155.4 402.501 153.5 403.201 159.7C403.301 160.9 405.601 162.7 405.601 162.7C405.601 162.7 405.001 164.5 404.001 164.5" fill="white"/>
<path d="M406.601 155.4C406.601 155.4 402.501 153.5 403.201 159.7C403.301 160.9 405.601 162.7 405.601 162.7C405.601 162.7 405.001 164.5 404.001 164.5" stroke="#263238" stroke-linecap="round" stroke-linejoin="round"/>
<path d="M398.601 157.5C398.601 157.5 396.501 156.2 395.101 157C394.301 157.3 393.701 157.9 393.301 158.6" fill="white"/>
<path d="M398.601 157.5C398.601 157.5 396.501 156.2 395.101 157C394.301 157.3 393.701 157.9 393.301 158.6" stroke="#263238" stroke-linecap="round" stroke-linejoin="round"/>
<path d="M397.4 161C397.6 161.7 397.4 162.4 397 162.5C396.6 162.6 396.1 162.1 396 161.3C395.9 160.5 396 159.9 396.4 159.8C396.8 159.7 397.3 160.3 397.4 161Z" fill="#263238"/>
<path d="M405.501 158.8C405.701 159.5 405.501 160.2 405.101 160.3C404.701 160.4 404.201 159.9 404.101 159.1C404.001 158.3 404.101 157.7 404.501 157.6C404.901 157.5 405.401 158.1 405.501 158.8Z" fill="#263238"/>
<path d="M385.501 145.1C384.801 145.8 384.301 146.7 384.001 147.7C382.801 152 383.301 156.5 385.501 160.4C386.201 160.3 386.801 160.3 387.501 160.5C388.201 160.7 389.101 161.9 389.401 162.5C389.701 163.2 389.901 163.9 389.901 164.6C389.701 162.7 389.601 160.8 389.401 158.9C389.301 158.1 389.301 157.4 389.501 156.6C390.001 155 389.501 151.4 389.601 148.1C393.701 153.2 399.801 152.3 401.801 152.1C404.801 151.8 407.401 148.8 407.201 146.6C407.001 144.4 406.401 138.8 396.601 138.2C394.401 138 392.201 138.4 390.301 139.5C389.101 140.3 388.301 141.6 388.001 143C387.901 143.9 388.201 144 387.501 144.4C386.801 144.8 386.201 144.6 385.501 145.1Z" fill="#263238" stroke="#263238" stroke-linecap="round" stroke-linejoin="round"/>
<path d="M398.601 167.9C398.601 167.9 400.101 169.5 403.101 168.5Z" fill="white"/>
<path d="M398.601 167.9C398.601 167.9 400.101 169.5 403.101 168.5" stroke="#263238" stroke-linecap="round" stroke-linejoin="round"/>
</svg>
